%TF.GenerationSoftware,KiCad,Pcbnew,8.0.2*%
%TF.CreationDate,2025-12-22T10:01:20-05:00*%
%TF.ProjectId,ct4,6374342e-6b69-4636-9164-5f7063625858,rev?*%
%TF.SameCoordinates,Original*%
%TF.FileFunction,Copper,L1,Top*%
%TF.FilePolarity,Positive*%
%FSLAX46Y46*%
G04 Gerber Fmt 4.6, Leading zero omitted, Abs format (unit mm)*
G04 Created by KiCad (PCBNEW 8.0.2) date 2025-12-22 10:01:20*
%MOMM*%
%LPD*%
G01*
G04 APERTURE LIST*
%TA.AperFunction,ComponentPad*%
%ADD10C,2.500000*%
%TD*%
%TA.AperFunction,ComponentPad*%
%ADD11C,1.400000*%
%TD*%
%TA.AperFunction,ComponentPad*%
%ADD12O,1.400000X1.400000*%
%TD*%
%TA.AperFunction,ComponentPad*%
%ADD13O,1.900000X1.524000*%
%TD*%
%TA.AperFunction,ComponentPad*%
%ADD14R,1.500000X1.050000*%
%TD*%
%TA.AperFunction,ComponentPad*%
%ADD15O,1.500000X1.050000*%
%TD*%
%TA.AperFunction,ComponentPad*%
%ADD16C,2.000000*%
%TD*%
%TA.AperFunction,ComponentPad*%
%ADD17R,1.524000X1.524000*%
%TD*%
%TA.AperFunction,ComponentPad*%
%ADD18C,1.524000*%
%TD*%
%TA.AperFunction,Conductor*%
%ADD19C,0.127000*%
%TD*%
G04 APERTURE END LIST*
D10*
%TO.P,J4,R*%
%TO.N,unconnected-(J4-PadR)*%
X34990000Y-101020000D03*
%TO.P,J4,S*%
%TO.N,Net-(C8-Pad1)*%
X33390000Y-105520000D03*
%TO.P,J4,T*%
%TO.N,Net-(U1-K)*%
X39990000Y-105520000D03*
%TD*%
%TO.P,J3,R*%
%TO.N,unconnected-(J3-PadR)*%
X34600000Y-123770000D03*
%TO.P,J3,S*%
%TO.N,Net-(C6-Pad1)*%
X33000000Y-128270000D03*
%TO.P,J3,T*%
%TO.N,Net-(U1-K)*%
X39600000Y-128270000D03*
%TD*%
D11*
%TO.P,R1,1*%
%TO.N,Net-(U2-Pin_10)*%
X63000000Y-168190000D03*
D12*
%TO.P,R1,2*%
%TO.N,Net-(U1-K)*%
X63000000Y-175810000D03*
%TD*%
D13*
%TO.P,U4,1,VIN*%
%TO.N,unconnected-(U4-VIN-Pad1)*%
X74072460Y-172019813D03*
%TO.P,U4,2,GND*%
%TO.N,Net-(U1-K)*%
X74072460Y-169479813D03*
%TO.P,U4,3,GPIO13*%
%TO.N,unconnected-(U4-GPIO13-Pad3)*%
X74072460Y-166939813D03*
%TO.P,U4,4,GPIO12*%
%TO.N,unconnected-(U4-GPIO12-Pad4)*%
X74072460Y-164399813D03*
%TO.P,U4,5,GPIO14*%
%TO.N,unconnected-(U4-GPIO14-Pad5)*%
X74072460Y-161859813D03*
%TO.P,U4,6,GPIO27*%
%TO.N,unconnected-(U4-GPIO27-Pad6)*%
X74072460Y-159319813D03*
%TO.P,U4,7,GPIO26*%
%TO.N,unconnected-(U4-GPIO26-Pad7)*%
X74072460Y-156779813D03*
%TO.P,U4,8,GPIO25*%
%TO.N,unconnected-(U4-GPIO25-Pad8)*%
X74072460Y-154239813D03*
%TO.P,U4,9,GPIO33*%
%TO.N,unconnected-(U4-GPIO33-Pad9)*%
X74072460Y-151699813D03*
%TO.P,U4,10,GPIO32*%
%TO.N,unconnected-(U4-GPIO32-Pad10)*%
X74072460Y-149159813D03*
%TO.P,U4,11,GPIO35*%
%TO.N,unconnected-(U4-GPIO35-Pad11)*%
X74072460Y-146619813D03*
%TO.P,U4,12,GPIO34*%
%TO.N,unconnected-(U4-GPIO34-Pad12)*%
X74072460Y-144079813D03*
%TO.P,U4,13,GPIO39*%
%TO.N,unconnected-(U4-GPIO39-Pad13)*%
X74072460Y-141539813D03*
%TO.P,U4,14,GPIO36*%
%TO.N,unconnected-(U4-GPIO36-Pad14)*%
X74072460Y-138999813D03*
%TO.P,U4,15,EN*%
%TO.N,unconnected-(U4-EN-Pad15)*%
X74072460Y-136459813D03*
%TO.P,U4,16,3.3v*%
%TO.N,Net-(U2-Pin_1)*%
X99472460Y-172019813D03*
%TO.P,U4,17,GND*%
%TO.N,unconnected-(U4-GND-Pad17)*%
X99472460Y-169479813D03*
%TO.P,U4,18,GPIO15*%
%TO.N,unconnected-(U4-GPIO15-Pad18)*%
X99472460Y-166939813D03*
%TO.P,U4,19,GPIO2*%
%TO.N,unconnected-(U4-GPIO2-Pad19)*%
X99472460Y-164399813D03*
%TO.P,U4,20,GPIO4*%
%TO.N,unconnected-(U4-GPIO4-Pad20)*%
X99472460Y-161859813D03*
%TO.P,U4,21,GPIO16*%
%TO.N,unconnected-(U4-GPIO16-Pad21)*%
X99472460Y-159319813D03*
%TO.P,U4,22,GPIO17*%
%TO.N,unconnected-(U4-GPIO17-Pad22)*%
X99472460Y-156779813D03*
%TO.P,U4,23,GPIO5*%
%TO.N,unconnected-(U4-GPIO5-Pad23)*%
X99472460Y-154239813D03*
%TO.P,U4,24,GPIO18*%
%TO.N,unconnected-(U4-GPIO18-Pad24)*%
X99472460Y-151699813D03*
%TO.P,U4,25,GPIO19*%
%TO.N,unconnected-(U4-GPIO19-Pad25)*%
X99472460Y-149159813D03*
%TO.P,U4,26,SDA_GPIO21*%
%TO.N,Net-(U2-Pin_4)*%
X99472460Y-146619813D03*
%TO.P,U4,27,GPIO3*%
%TO.N,unconnected-(U4-GPIO3-Pad27)*%
X99472460Y-144079813D03*
%TO.P,U4,28,GPIO1*%
%TO.N,unconnected-(U4-GPIO1-Pad28)*%
X99472460Y-141539813D03*
%TO.P,U4,29,SCL_GPIO22*%
%TO.N,Net-(U2-Pin_3)*%
X99472460Y-138999813D03*
%TO.P,U4,30,GPIO23*%
%TO.N,unconnected-(U4-GPIO23-Pad30)*%
X99472460Y-136459813D03*
%TD*%
D14*
%TO.P,U1,1*%
%TO.N,N/C*%
X52000000Y-139000000D03*
D15*
%TO.P,U1,2,K*%
%TO.N,Net-(U1-K)*%
X52000000Y-137730000D03*
%TO.P,U1,3,A*%
%TO.N,Net-(U1-A)*%
X52000000Y-136460000D03*
%TD*%
D16*
%TO.P,C2,1*%
%TO.N,Net-(U1-K)*%
X43000000Y-163500000D03*
%TO.P,C2,2*%
%TO.N,Net-(U3-A)*%
X43000000Y-158500000D03*
%TD*%
%TO.P,C8,1*%
%TO.N,Net-(C8-Pad1)*%
X49500000Y-101000000D03*
%TO.P,C8,2*%
%TO.N,Net-(U2-Pin_7)*%
X54500000Y-101000000D03*
%TD*%
D11*
%TO.P,R8,1*%
%TO.N,Net-(U5-A)*%
X63000000Y-111460000D03*
D12*
%TO.P,R8,2*%
%TO.N,Net-(U2-Pin_8)*%
X63000000Y-119080000D03*
%TD*%
D14*
%TO.P,U3,1*%
%TO.N,N/C*%
X52000000Y-162000000D03*
D15*
%TO.P,U3,2,K*%
%TO.N,Net-(U1-K)*%
X52000000Y-160730000D03*
%TO.P,U3,3,A*%
%TO.N,Net-(U3-A)*%
X52000000Y-159460000D03*
%TD*%
D16*
%TO.P,C4,1*%
%TO.N,Net-(C4-Pad1)*%
X51500000Y-146000000D03*
%TO.P,C4,2*%
%TO.N,Net-(U2-Pin_9)*%
X56500000Y-146000000D03*
%TD*%
D11*
%TO.P,R12,1*%
%TO.N,Net-(U2-Pin_7)*%
X63000000Y-98460000D03*
D12*
%TO.P,R12,2*%
%TO.N,Net-(U1-K)*%
X63000000Y-106080000D03*
%TD*%
D17*
%TO.P,U2,1,Pin_1*%
%TO.N,Net-(U2-Pin_1)*%
X74800000Y-99900000D03*
D18*
%TO.P,U2,2,Pin_2*%
%TO.N,Net-(U1-K)*%
X74800000Y-102440000D03*
%TO.P,U2,3,Pin_3*%
%TO.N,Net-(U2-Pin_3)*%
X74800000Y-104980000D03*
%TO.P,U2,4,Pin_4*%
%TO.N,Net-(U2-Pin_4)*%
X74800000Y-107520000D03*
%TO.P,U2,5,Pin_5*%
%TO.N,unconnected-(U2-Pin_5-Pad5)*%
X74800000Y-110060000D03*
%TO.P,U2,6,Pin_6*%
%TO.N,unconnected-(U2-Pin_6-Pad6)*%
X74800000Y-112600000D03*
%TO.P,U2,7,Pin_7*%
%TO.N,Net-(U2-Pin_7)*%
X74800000Y-115140000D03*
%TO.P,U2,8,Pin_8*%
%TO.N,Net-(U2-Pin_8)*%
X74800000Y-117680000D03*
%TO.P,U2,9,Pin_9*%
%TO.N,Net-(U2-Pin_9)*%
X74800000Y-120220000D03*
%TO.P,U2,10,Pin_10*%
%TO.N,Net-(U2-Pin_10)*%
X74800000Y-122760000D03*
%TD*%
D11*
%TO.P,R5,1*%
%TO.N,Net-(U1-A)*%
X63000000Y-133190000D03*
D12*
%TO.P,R5,2*%
%TO.N,Net-(U2-Pin_9)*%
X63000000Y-140810000D03*
%TD*%
D11*
%TO.P,R10,1*%
%TO.N,Net-(U2-Pin_1)*%
X51190000Y-85000000D03*
D12*
%TO.P,R10,2*%
%TO.N,Net-(U6-A)*%
X58810000Y-85000000D03*
%TD*%
D14*
%TO.P,U5,1*%
%TO.N,N/C*%
X53000000Y-116540000D03*
D15*
%TO.P,U5,2,K*%
%TO.N,Net-(U1-K)*%
X53000000Y-115270000D03*
%TO.P,U5,3,A*%
%TO.N,Net-(U5-A)*%
X53000000Y-114000000D03*
%TD*%
D11*
%TO.P,R3,1*%
%TO.N,Net-(U2-Pin_1)*%
X51190000Y-155000000D03*
D12*
%TO.P,R3,2*%
%TO.N,Net-(U3-A)*%
X58810000Y-155000000D03*
%TD*%
D11*
%TO.P,R4,1*%
%TO.N,Net-(U2-Pin_1)*%
X50190000Y-132000000D03*
D12*
%TO.P,R4,2*%
%TO.N,Net-(U1-A)*%
X57810000Y-132000000D03*
%TD*%
D14*
%TO.P,U6,1*%
%TO.N,N/C*%
X52000000Y-94000000D03*
D15*
%TO.P,U6,2,K*%
%TO.N,Net-(U1-K)*%
X52000000Y-92730000D03*
%TO.P,U6,3,A*%
%TO.N,Net-(U6-A)*%
X52000000Y-91460000D03*
%TD*%
D11*
%TO.P,R7,1*%
%TO.N,Net-(U2-Pin_1)*%
X51190000Y-108270000D03*
D12*
%TO.P,R7,2*%
%TO.N,Net-(U5-A)*%
X58810000Y-108270000D03*
%TD*%
D10*
%TO.P,J2,R*%
%TO.N,unconnected-(J2-PadR)*%
X35000000Y-146000000D03*
%TO.P,J2,S*%
%TO.N,Net-(C4-Pad1)*%
X33400000Y-150500000D03*
%TO.P,J2,T*%
%TO.N,Net-(U1-K)*%
X40000000Y-150500000D03*
%TD*%
D11*
%TO.P,R6,1*%
%TO.N,Net-(U2-Pin_9)*%
X63000000Y-144190000D03*
D12*
%TO.P,R6,2*%
%TO.N,Net-(U1-K)*%
X63000000Y-151810000D03*
%TD*%
D16*
%TO.P,C6,1*%
%TO.N,Net-(C6-Pad1)*%
X49000000Y-124270000D03*
%TO.P,C6,2*%
%TO.N,Net-(U2-Pin_8)*%
X54000000Y-124270000D03*
%TD*%
D11*
%TO.P,R11,1*%
%TO.N,Net-(U6-A)*%
X63000000Y-87190000D03*
D12*
%TO.P,R11,2*%
%TO.N,Net-(U2-Pin_7)*%
X63000000Y-94810000D03*
%TD*%
D16*
%TO.P,C7,1*%
%TO.N,Net-(U1-K)*%
X42000000Y-96500000D03*
%TO.P,C7,2*%
%TO.N,Net-(U6-A)*%
X42000000Y-91500000D03*
%TD*%
%TO.P,C5,1*%
%TO.N,Net-(U1-K)*%
X43000000Y-118770000D03*
%TO.P,C5,2*%
%TO.N,Net-(U5-A)*%
X43000000Y-113770000D03*
%TD*%
D10*
%TO.P,J1,R*%
%TO.N,unconnected-(J1-PadR)*%
X34600000Y-167500000D03*
%TO.P,J1,S*%
%TO.N,Net-(C1-Pad1)*%
X33000000Y-172000000D03*
%TO.P,J1,T*%
%TO.N,Net-(U1-K)*%
X39600000Y-172000000D03*
%TD*%
D11*
%TO.P,R2,1*%
%TO.N,Net-(U3-A)*%
X63000000Y-157190000D03*
D12*
%TO.P,R2,2*%
%TO.N,Net-(U2-Pin_10)*%
X63000000Y-164810000D03*
%TD*%
D11*
%TO.P,R9,1*%
%TO.N,Net-(U2-Pin_8)*%
X63000000Y-122460000D03*
D12*
%TO.P,R9,2*%
%TO.N,Net-(U1-K)*%
X63000000Y-130080000D03*
%TD*%
D16*
%TO.P,C1,1*%
%TO.N,Net-(C1-Pad1)*%
X51500000Y-170000000D03*
%TO.P,C1,2*%
%TO.N,Net-(U2-Pin_10)*%
X56500000Y-170000000D03*
%TD*%
%TO.P,C3,1*%
%TO.N,Net-(U1-K)*%
X43000000Y-141500000D03*
%TO.P,C3,2*%
%TO.N,Net-(U1-A)*%
X43000000Y-136500000D03*
%TD*%
D19*
%TO.N,Net-(C1-Pad1)*%
X51500000Y-170000000D02*
X50386500Y-168886500D01*
X36113500Y-168886500D02*
X33000000Y-172000000D01*
X50386500Y-168886500D02*
X36113500Y-168886500D01*
%TO.N,Net-(U2-Pin_10)*%
X58310000Y-168190000D02*
X63000000Y-168190000D01*
X70000000Y-157810000D02*
X70000000Y-127560000D01*
X56500000Y-170000000D02*
X58310000Y-168190000D01*
X63000000Y-164810000D02*
X70000000Y-157810000D01*
X63000000Y-168190000D02*
X63000000Y-164810000D01*
X70000000Y-127560000D02*
X74800000Y-122760000D01*
%TO.N,Net-(U1-A)*%
X51540000Y-136460000D02*
X51500000Y-136500000D01*
X59730000Y-136460000D02*
X63000000Y-133190000D01*
X61810000Y-132000000D02*
X57810000Y-132000000D01*
X51500000Y-136500000D02*
X43000000Y-136500000D01*
X52000000Y-136460000D02*
X51540000Y-136460000D01*
X52000000Y-136460000D02*
X59730000Y-136460000D01*
X63000000Y-133190000D02*
X61810000Y-132000000D01*
%TO.N,Net-(U1-K)*%
X45770000Y-160730000D02*
X43000000Y-163500000D01*
X39990000Y-105520000D02*
X35510000Y-110000000D01*
X33000000Y-86000000D02*
X33000000Y-96000000D01*
X52000000Y-137730000D02*
X46770000Y-137730000D01*
X40550000Y-106080000D02*
X39990000Y-105520000D01*
X33000000Y-156000000D02*
X30000000Y-156000000D01*
X39000000Y-80000000D02*
X33000000Y-86000000D01*
X30000000Y-132000000D02*
X30000000Y-116000000D01*
X41080000Y-130080000D02*
X39600000Y-128600000D01*
X46500000Y-115270000D02*
X43000000Y-118770000D01*
X35870000Y-132000000D02*
X30000000Y-132000000D01*
X63000000Y-175810000D02*
X43410000Y-175810000D01*
X69330187Y-169479813D02*
X63000000Y-175810000D01*
X33000000Y-96000000D02*
X31500000Y-97500000D01*
X52000000Y-92730000D02*
X45770000Y-92730000D01*
X80000000Y-97240000D02*
X80000000Y-96000000D01*
X63000000Y-130080000D02*
X41080000Y-130080000D01*
X43000000Y-118770000D02*
X32770000Y-118770000D01*
X30000000Y-137000000D02*
X30000000Y-156000000D01*
X39600000Y-128600000D02*
X39600000Y-128270000D01*
X30000000Y-116000000D02*
X30000000Y-110000000D01*
X53000000Y-115270000D02*
X46500000Y-115270000D01*
X30000000Y-156000000D02*
X30000000Y-174000000D01*
X35500000Y-156000000D02*
X33000000Y-156000000D01*
X43000000Y-163500000D02*
X35500000Y-156000000D01*
X30000000Y-99000000D02*
X31500000Y-97500000D01*
X63000000Y-106080000D02*
X40550000Y-106080000D01*
X35600000Y-176000000D02*
X39600000Y-172000000D01*
X32500000Y-96500000D02*
X42000000Y-96500000D01*
X39600000Y-128270000D02*
X35870000Y-132000000D01*
X74072460Y-169479813D02*
X69330187Y-169479813D01*
X30000000Y-132000000D02*
X30000000Y-137000000D01*
X45770000Y-92730000D02*
X42000000Y-96500000D01*
X30000000Y-174000000D02*
X32000000Y-176000000D01*
X52000000Y-160730000D02*
X45770000Y-160730000D01*
X46770000Y-137730000D02*
X43000000Y-141500000D01*
X74800000Y-102440000D02*
X80000000Y-97240000D01*
X61690000Y-150500000D02*
X40000000Y-150500000D01*
X43000000Y-141500000D02*
X38500000Y-137000000D01*
X43410000Y-175810000D02*
X39600000Y-172000000D01*
X32000000Y-176000000D02*
X35600000Y-176000000D01*
X35510000Y-110000000D02*
X30000000Y-110000000D01*
X30000000Y-110000000D02*
X30000000Y-99000000D01*
X38500000Y-137000000D02*
X30000000Y-137000000D01*
X34500000Y-156000000D02*
X33000000Y-156000000D01*
X80000000Y-96000000D02*
X64000000Y-80000000D01*
X63000000Y-151810000D02*
X61690000Y-150500000D01*
X31500000Y-97500000D02*
X32500000Y-96500000D01*
X32770000Y-118770000D02*
X30000000Y-116000000D01*
X64000000Y-80000000D02*
X39000000Y-80000000D01*
X40000000Y-150500000D02*
X34500000Y-156000000D01*
%TO.N,Net-(U2-Pin_9)*%
X58310000Y-144190000D02*
X63000000Y-144190000D01*
X68000000Y-135810000D02*
X68000000Y-127000000D01*
X63000000Y-140810000D02*
X68000000Y-135810000D01*
X68000000Y-127000000D02*
X72000000Y-123000000D01*
X56500000Y-146000000D02*
X58310000Y-144190000D01*
X72020000Y-123000000D02*
X74800000Y-120220000D01*
X72000000Y-123000000D02*
X72020000Y-123000000D01*
X63000000Y-144190000D02*
X63000000Y-140810000D01*
%TO.N,Net-(C4-Pad1)*%
X51500000Y-146000000D02*
X37900000Y-146000000D01*
X37900000Y-146000000D02*
X33400000Y-150500000D01*
%TO.N,Net-(C6-Pad1)*%
X33000000Y-128270000D02*
X37000000Y-124270000D01*
X37000000Y-124270000D02*
X49000000Y-124270000D01*
%TO.N,Net-(U2-Pin_8)*%
X63000000Y-119080000D02*
X73400000Y-119080000D01*
X54000000Y-124270000D02*
X61190000Y-124270000D01*
X61190000Y-124270000D02*
X63000000Y-122460000D01*
X73400000Y-119080000D02*
X74800000Y-117680000D01*
X63000000Y-122460000D02*
X63000000Y-119080000D01*
%TO.N,Net-(C8-Pad1)*%
X35910000Y-103000000D02*
X36000000Y-103000000D01*
X36593500Y-102406500D02*
X48093500Y-102406500D01*
X36000000Y-103000000D02*
X36593500Y-102406500D01*
X33390000Y-105520000D02*
X35910000Y-103000000D01*
X48093500Y-102406500D02*
X49500000Y-101000000D01*
%TO.N,Net-(U2-Pin_7)*%
X72140000Y-115140000D02*
X66000000Y-109000000D01*
X60460000Y-101000000D02*
X63000000Y-98460000D01*
X66000000Y-109000000D02*
X66000000Y-101460000D01*
X54500000Y-101000000D02*
X60460000Y-101000000D01*
X63000000Y-98460000D02*
X63000000Y-94810000D01*
X74800000Y-115140000D02*
X72140000Y-115140000D01*
X66000000Y-101460000D02*
X63000000Y-98460000D01*
%TO.N,Net-(U2-Pin_4)*%
X82000000Y-114720000D02*
X82000000Y-134000000D01*
X94619813Y-146619813D02*
X99472460Y-146619813D01*
X74800000Y-107520000D02*
X82000000Y-114720000D01*
X82000000Y-134000000D02*
X94619813Y-146619813D01*
%TO.N,Net-(U2-Pin_3)*%
X90000000Y-120180000D02*
X74800000Y-104980000D01*
X97999813Y-138999813D02*
X90000000Y-131000000D01*
X90000000Y-131000000D02*
X90000000Y-120180000D01*
X99472460Y-138999813D02*
X97999813Y-138999813D01*
%TO.N,Net-(U3-A)*%
X60730000Y-159460000D02*
X63000000Y-157190000D01*
X63000000Y-157190000D02*
X60810000Y-155000000D01*
X43960000Y-159460000D02*
X43000000Y-158500000D01*
X52000000Y-159460000D02*
X60730000Y-159460000D01*
X60810000Y-155000000D02*
X58810000Y-155000000D01*
X52000000Y-159460000D02*
X43960000Y-159460000D01*
%TO.N,Net-(U5-A)*%
X63000000Y-111460000D02*
X60460000Y-114000000D01*
X59810000Y-108270000D02*
X58810000Y-108270000D01*
X52770000Y-113770000D02*
X53000000Y-114000000D01*
X60460000Y-114000000D02*
X53000000Y-114000000D01*
X63000000Y-111460000D02*
X59810000Y-108270000D01*
X43000000Y-113770000D02*
X52770000Y-113770000D01*
%TO.N,Net-(U6-A)*%
X63000000Y-87190000D02*
X60810000Y-85000000D01*
X42040000Y-91460000D02*
X42000000Y-91500000D01*
X58730000Y-91460000D02*
X63000000Y-87190000D01*
X60810000Y-85000000D02*
X58810000Y-85000000D01*
X52000000Y-91460000D02*
X42040000Y-91460000D01*
X52000000Y-91460000D02*
X58730000Y-91460000D01*
%TO.N,Net-(U2-Pin_1)*%
X53190000Y-83000000D02*
X51190000Y-85000000D01*
X74800000Y-94800000D02*
X63000000Y-83000000D01*
X74800000Y-99900000D02*
X74800000Y-94800000D01*
X63000000Y-83000000D02*
X53190000Y-83000000D01*
%TD*%
M02*
