%TF.GenerationSoftware,KiCad,Pcbnew,8.0.2*%
%TF.CreationDate,2025-12-22T10:01:20-05:00*%
%TF.ProjectId,ct4,6374342e-6b69-4636-9164-5f7063625858,rev?*%
%TF.SameCoordinates,Original*%
%TF.FileFunction,Legend,Top*%
%TF.FilePolarity,Positive*%
%FSLAX46Y46*%
G04 Gerber Fmt 4.6, Leading zero omitted, Abs format (unit mm)*
G04 Created by KiCad (PCBNEW 8.0.2) date 2025-12-22 10:01:20*
%MOMM*%
%LPD*%
G01*
G04 APERTURE LIST*
%ADD10C,0.150000*%
%ADD11C,0.100000*%
%ADD12C,0.120000*%
%ADD13C,0.200000*%
G04 APERTURE END LIST*
D10*
X99168095Y-173094819D02*
X99168095Y-172094819D01*
X99168095Y-172571009D02*
X99739523Y-172571009D01*
X99739523Y-173094819D02*
X99739523Y-172094819D01*
X100644285Y-172428152D02*
X100644285Y-173094819D01*
X100406190Y-172047200D02*
X100168095Y-172761485D01*
X100168095Y-172761485D02*
X100787142Y-172761485D01*
X38608095Y-172484819D02*
X38608095Y-171484819D01*
X38608095Y-171961009D02*
X39179523Y-171961009D01*
X39179523Y-172484819D02*
X39179523Y-171484819D01*
X39560476Y-171484819D02*
X40179523Y-171484819D01*
X40179523Y-171484819D02*
X39846190Y-171865771D01*
X39846190Y-171865771D02*
X39989047Y-171865771D01*
X39989047Y-171865771D02*
X40084285Y-171913390D01*
X40084285Y-171913390D02*
X40131904Y-171961009D01*
X40131904Y-171961009D02*
X40179523Y-172056247D01*
X40179523Y-172056247D02*
X40179523Y-172294342D01*
X40179523Y-172294342D02*
X40131904Y-172389580D01*
X40131904Y-172389580D02*
X40084285Y-172437200D01*
X40084285Y-172437200D02*
X39989047Y-172484819D01*
X39989047Y-172484819D02*
X39703333Y-172484819D01*
X39703333Y-172484819D02*
X39608095Y-172437200D01*
X39608095Y-172437200D02*
X39560476Y-172389580D01*
X30988095Y-75964819D02*
X30988095Y-74964819D01*
X30988095Y-75441009D02*
X31559523Y-75441009D01*
X31559523Y-75964819D02*
X31559523Y-74964819D01*
X31988095Y-75060057D02*
X32035714Y-75012438D01*
X32035714Y-75012438D02*
X32130952Y-74964819D01*
X32130952Y-74964819D02*
X32369047Y-74964819D01*
X32369047Y-74964819D02*
X32464285Y-75012438D01*
X32464285Y-75012438D02*
X32511904Y-75060057D01*
X32511904Y-75060057D02*
X32559523Y-75155295D01*
X32559523Y-75155295D02*
X32559523Y-75250533D01*
X32559523Y-75250533D02*
X32511904Y-75393390D01*
X32511904Y-75393390D02*
X31940476Y-75964819D01*
X31940476Y-75964819D02*
X32559523Y-75964819D01*
X99568095Y-75964819D02*
X99568095Y-74964819D01*
X99568095Y-75441009D02*
X100139523Y-75441009D01*
X100139523Y-75964819D02*
X100139523Y-74964819D01*
X101139523Y-75964819D02*
X100568095Y-75964819D01*
X100853809Y-75964819D02*
X100853809Y-74964819D01*
X100853809Y-74964819D02*
X100758571Y-75107676D01*
X100758571Y-75107676D02*
X100663333Y-75202914D01*
X100663333Y-75202914D02*
X100568095Y-75250533D01*
D11*
X37766666Y-110877419D02*
X37766666Y-111591704D01*
X37766666Y-111591704D02*
X37719047Y-111734561D01*
X37719047Y-111734561D02*
X37623809Y-111829800D01*
X37623809Y-111829800D02*
X37480952Y-111877419D01*
X37480952Y-111877419D02*
X37385714Y-111877419D01*
X38671428Y-111210752D02*
X38671428Y-111877419D01*
X38433333Y-110829800D02*
X38195238Y-111544085D01*
X38195238Y-111544085D02*
X38814285Y-111544085D01*
X37265312Y-101492419D02*
X36931979Y-101016228D01*
X36693884Y-101492419D02*
X36693884Y-100492419D01*
X36693884Y-100492419D02*
X37074836Y-100492419D01*
X37074836Y-100492419D02*
X37170074Y-100540038D01*
X37170074Y-100540038D02*
X37217693Y-100587657D01*
X37217693Y-100587657D02*
X37265312Y-100682895D01*
X37265312Y-100682895D02*
X37265312Y-100825752D01*
X37265312Y-100825752D02*
X37217693Y-100920990D01*
X37217693Y-100920990D02*
X37170074Y-100968609D01*
X37170074Y-100968609D02*
X37074836Y-101016228D01*
X37074836Y-101016228D02*
X36693884Y-101016228D01*
X34946265Y-105944800D02*
X35089122Y-105992419D01*
X35089122Y-105992419D02*
X35327217Y-105992419D01*
X35327217Y-105992419D02*
X35422455Y-105944800D01*
X35422455Y-105944800D02*
X35470074Y-105897180D01*
X35470074Y-105897180D02*
X35517693Y-105801942D01*
X35517693Y-105801942D02*
X35517693Y-105706704D01*
X35517693Y-105706704D02*
X35470074Y-105611466D01*
X35470074Y-105611466D02*
X35422455Y-105563847D01*
X35422455Y-105563847D02*
X35327217Y-105516228D01*
X35327217Y-105516228D02*
X35136741Y-105468609D01*
X35136741Y-105468609D02*
X35041503Y-105420990D01*
X35041503Y-105420990D02*
X34993884Y-105373371D01*
X34993884Y-105373371D02*
X34946265Y-105278133D01*
X34946265Y-105278133D02*
X34946265Y-105182895D01*
X34946265Y-105182895D02*
X34993884Y-105087657D01*
X34993884Y-105087657D02*
X35041503Y-105040038D01*
X35041503Y-105040038D02*
X35136741Y-104992419D01*
X35136741Y-104992419D02*
X35374836Y-104992419D01*
X35374836Y-104992419D02*
X35517693Y-105040038D01*
X37851027Y-104992419D02*
X38422455Y-104992419D01*
X38136741Y-105992419D02*
X38136741Y-104992419D01*
X38566666Y-130627419D02*
X38566666Y-131341704D01*
X38566666Y-131341704D02*
X38519047Y-131484561D01*
X38519047Y-131484561D02*
X38423809Y-131579800D01*
X38423809Y-131579800D02*
X38280952Y-131627419D01*
X38280952Y-131627419D02*
X38185714Y-131627419D01*
X38947619Y-130627419D02*
X39566666Y-130627419D01*
X39566666Y-130627419D02*
X39233333Y-131008371D01*
X39233333Y-131008371D02*
X39376190Y-131008371D01*
X39376190Y-131008371D02*
X39471428Y-131055990D01*
X39471428Y-131055990D02*
X39519047Y-131103609D01*
X39519047Y-131103609D02*
X39566666Y-131198847D01*
X39566666Y-131198847D02*
X39566666Y-131436942D01*
X39566666Y-131436942D02*
X39519047Y-131532180D01*
X39519047Y-131532180D02*
X39471428Y-131579800D01*
X39471428Y-131579800D02*
X39376190Y-131627419D01*
X39376190Y-131627419D02*
X39090476Y-131627419D01*
X39090476Y-131627419D02*
X38995238Y-131579800D01*
X38995238Y-131579800D02*
X38947619Y-131532180D01*
X34556265Y-128694800D02*
X34699122Y-128742419D01*
X34699122Y-128742419D02*
X34937217Y-128742419D01*
X34937217Y-128742419D02*
X35032455Y-128694800D01*
X35032455Y-128694800D02*
X35080074Y-128647180D01*
X35080074Y-128647180D02*
X35127693Y-128551942D01*
X35127693Y-128551942D02*
X35127693Y-128456704D01*
X35127693Y-128456704D02*
X35080074Y-128361466D01*
X35080074Y-128361466D02*
X35032455Y-128313847D01*
X35032455Y-128313847D02*
X34937217Y-128266228D01*
X34937217Y-128266228D02*
X34746741Y-128218609D01*
X34746741Y-128218609D02*
X34651503Y-128170990D01*
X34651503Y-128170990D02*
X34603884Y-128123371D01*
X34603884Y-128123371D02*
X34556265Y-128028133D01*
X34556265Y-128028133D02*
X34556265Y-127932895D01*
X34556265Y-127932895D02*
X34603884Y-127837657D01*
X34603884Y-127837657D02*
X34651503Y-127790038D01*
X34651503Y-127790038D02*
X34746741Y-127742419D01*
X34746741Y-127742419D02*
X34984836Y-127742419D01*
X34984836Y-127742419D02*
X35127693Y-127790038D01*
X37461027Y-127742419D02*
X38032455Y-127742419D01*
X37746741Y-128742419D02*
X37746741Y-127742419D01*
X36875312Y-124242419D02*
X36541979Y-123766228D01*
X36303884Y-124242419D02*
X36303884Y-123242419D01*
X36303884Y-123242419D02*
X36684836Y-123242419D01*
X36684836Y-123242419D02*
X36780074Y-123290038D01*
X36780074Y-123290038D02*
X36827693Y-123337657D01*
X36827693Y-123337657D02*
X36875312Y-123432895D01*
X36875312Y-123432895D02*
X36875312Y-123575752D01*
X36875312Y-123575752D02*
X36827693Y-123670990D01*
X36827693Y-123670990D02*
X36780074Y-123718609D01*
X36780074Y-123718609D02*
X36684836Y-123766228D01*
X36684836Y-123766228D02*
X36303884Y-123766228D01*
D10*
X65374819Y-172166666D02*
X64898628Y-172499999D01*
X65374819Y-172738094D02*
X64374819Y-172738094D01*
X64374819Y-172738094D02*
X64374819Y-172357142D01*
X64374819Y-172357142D02*
X64422438Y-172261904D01*
X64422438Y-172261904D02*
X64470057Y-172214285D01*
X64470057Y-172214285D02*
X64565295Y-172166666D01*
X64565295Y-172166666D02*
X64708152Y-172166666D01*
X64708152Y-172166666D02*
X64803390Y-172214285D01*
X64803390Y-172214285D02*
X64851009Y-172261904D01*
X64851009Y-172261904D02*
X64898628Y-172357142D01*
X64898628Y-172357142D02*
X64898628Y-172738094D01*
X65374819Y-171214285D02*
X65374819Y-171785713D01*
X65374819Y-171499999D02*
X64374819Y-171499999D01*
X64374819Y-171499999D02*
X64517676Y-171595237D01*
X64517676Y-171595237D02*
X64612914Y-171690475D01*
X64612914Y-171690475D02*
X64660533Y-171785713D01*
X87817640Y-152842908D02*
X87008117Y-152842908D01*
X87008117Y-152842908D02*
X86912879Y-152890527D01*
X86912879Y-152890527D02*
X86865260Y-152938146D01*
X86865260Y-152938146D02*
X86817640Y-153033384D01*
X86817640Y-153033384D02*
X86817640Y-153223860D01*
X86817640Y-153223860D02*
X86865260Y-153319098D01*
X86865260Y-153319098D02*
X86912879Y-153366717D01*
X86912879Y-153366717D02*
X87008117Y-153414336D01*
X87008117Y-153414336D02*
X87817640Y-153414336D01*
X87484307Y-154319098D02*
X86817640Y-154319098D01*
X87865260Y-154081003D02*
X87150974Y-153842908D01*
X87150974Y-153842908D02*
X87150974Y-154461955D01*
D11*
X94403884Y-140920038D02*
X94299122Y-140872419D01*
X94299122Y-140872419D02*
X94141979Y-140872419D01*
X94141979Y-140872419D02*
X93984836Y-140920038D01*
X93984836Y-140920038D02*
X93880074Y-141015276D01*
X93880074Y-141015276D02*
X93827693Y-141110514D01*
X93827693Y-141110514D02*
X93775312Y-141300990D01*
X93775312Y-141300990D02*
X93775312Y-141443847D01*
X93775312Y-141443847D02*
X93827693Y-141634323D01*
X93827693Y-141634323D02*
X93880074Y-141729561D01*
X93880074Y-141729561D02*
X93984836Y-141824800D01*
X93984836Y-141824800D02*
X94141979Y-141872419D01*
X94141979Y-141872419D02*
X94246741Y-141872419D01*
X94246741Y-141872419D02*
X94403884Y-141824800D01*
X94403884Y-141824800D02*
X94456265Y-141777180D01*
X94456265Y-141777180D02*
X94456265Y-141443847D01*
X94456265Y-141443847D02*
X94246741Y-141443847D01*
X94927693Y-141872419D02*
X94927693Y-140872419D01*
X94927693Y-140872419D02*
X95346741Y-140872419D01*
X95346741Y-140872419D02*
X95451503Y-140920038D01*
X95451503Y-140920038D02*
X95503884Y-140967657D01*
X95503884Y-140967657D02*
X95556265Y-141062895D01*
X95556265Y-141062895D02*
X95556265Y-141205752D01*
X95556265Y-141205752D02*
X95503884Y-141300990D01*
X95503884Y-141300990D02*
X95451503Y-141348609D01*
X95451503Y-141348609D02*
X95346741Y-141396228D01*
X95346741Y-141396228D02*
X94927693Y-141396228D01*
X96027693Y-141872419D02*
X96027693Y-140872419D01*
X96761027Y-140872419D02*
X96970551Y-140872419D01*
X96970551Y-140872419D02*
X97075313Y-140920038D01*
X97075313Y-140920038D02*
X97180075Y-141015276D01*
X97180075Y-141015276D02*
X97232456Y-141205752D01*
X97232456Y-141205752D02*
X97232456Y-141539085D01*
X97232456Y-141539085D02*
X97180075Y-141729561D01*
X97180075Y-141729561D02*
X97075313Y-141824800D01*
X97075313Y-141824800D02*
X96970551Y-141872419D01*
X96970551Y-141872419D02*
X96761027Y-141872419D01*
X96761027Y-141872419D02*
X96656265Y-141824800D01*
X96656265Y-141824800D02*
X96551503Y-141729561D01*
X96551503Y-141729561D02*
X96499122Y-141539085D01*
X96499122Y-141539085D02*
X96499122Y-141205752D01*
X96499122Y-141205752D02*
X96551503Y-141015276D01*
X96551503Y-141015276D02*
X96656265Y-140920038D01*
X96656265Y-140920038D02*
X96761027Y-140872419D01*
X98280075Y-141872419D02*
X97651503Y-141872419D01*
X97965789Y-141872419D02*
X97965789Y-140872419D01*
X97965789Y-140872419D02*
X97861027Y-141015276D01*
X97861027Y-141015276D02*
X97756265Y-141110514D01*
X97756265Y-141110514D02*
X97651503Y-141158133D01*
X75903884Y-156420038D02*
X75799122Y-156372419D01*
X75799122Y-156372419D02*
X75641979Y-156372419D01*
X75641979Y-156372419D02*
X75484836Y-156420038D01*
X75484836Y-156420038D02*
X75380074Y-156515276D01*
X75380074Y-156515276D02*
X75327693Y-156610514D01*
X75327693Y-156610514D02*
X75275312Y-156800990D01*
X75275312Y-156800990D02*
X75275312Y-156943847D01*
X75275312Y-156943847D02*
X75327693Y-157134323D01*
X75327693Y-157134323D02*
X75380074Y-157229561D01*
X75380074Y-157229561D02*
X75484836Y-157324800D01*
X75484836Y-157324800D02*
X75641979Y-157372419D01*
X75641979Y-157372419D02*
X75746741Y-157372419D01*
X75746741Y-157372419D02*
X75903884Y-157324800D01*
X75903884Y-157324800D02*
X75956265Y-157277180D01*
X75956265Y-157277180D02*
X75956265Y-156943847D01*
X75956265Y-156943847D02*
X75746741Y-156943847D01*
X76427693Y-157372419D02*
X76427693Y-156372419D01*
X76427693Y-156372419D02*
X76846741Y-156372419D01*
X76846741Y-156372419D02*
X76951503Y-156420038D01*
X76951503Y-156420038D02*
X77003884Y-156467657D01*
X77003884Y-156467657D02*
X77056265Y-156562895D01*
X77056265Y-156562895D02*
X77056265Y-156705752D01*
X77056265Y-156705752D02*
X77003884Y-156800990D01*
X77003884Y-156800990D02*
X76951503Y-156848609D01*
X76951503Y-156848609D02*
X76846741Y-156896228D01*
X76846741Y-156896228D02*
X76427693Y-156896228D01*
X77527693Y-157372419D02*
X77527693Y-156372419D01*
X78261027Y-156372419D02*
X78470551Y-156372419D01*
X78470551Y-156372419D02*
X78575313Y-156420038D01*
X78575313Y-156420038D02*
X78680075Y-156515276D01*
X78680075Y-156515276D02*
X78732456Y-156705752D01*
X78732456Y-156705752D02*
X78732456Y-157039085D01*
X78732456Y-157039085D02*
X78680075Y-157229561D01*
X78680075Y-157229561D02*
X78575313Y-157324800D01*
X78575313Y-157324800D02*
X78470551Y-157372419D01*
X78470551Y-157372419D02*
X78261027Y-157372419D01*
X78261027Y-157372419D02*
X78156265Y-157324800D01*
X78156265Y-157324800D02*
X78051503Y-157229561D01*
X78051503Y-157229561D02*
X77999122Y-157039085D01*
X77999122Y-157039085D02*
X77999122Y-156705752D01*
X77999122Y-156705752D02*
X78051503Y-156515276D01*
X78051503Y-156515276D02*
X78156265Y-156420038D01*
X78156265Y-156420038D02*
X78261027Y-156372419D01*
X79151503Y-156467657D02*
X79203884Y-156420038D01*
X79203884Y-156420038D02*
X79308646Y-156372419D01*
X79308646Y-156372419D02*
X79570551Y-156372419D01*
X79570551Y-156372419D02*
X79675313Y-156420038D01*
X79675313Y-156420038D02*
X79727694Y-156467657D01*
X79727694Y-156467657D02*
X79780075Y-156562895D01*
X79780075Y-156562895D02*
X79780075Y-156658133D01*
X79780075Y-156658133D02*
X79727694Y-156800990D01*
X79727694Y-156800990D02*
X79099122Y-157372419D01*
X79099122Y-157372419D02*
X79780075Y-157372419D01*
X80722932Y-156372419D02*
X80513408Y-156372419D01*
X80513408Y-156372419D02*
X80408646Y-156420038D01*
X80408646Y-156420038D02*
X80356265Y-156467657D01*
X80356265Y-156467657D02*
X80251503Y-156610514D01*
X80251503Y-156610514D02*
X80199122Y-156800990D01*
X80199122Y-156800990D02*
X80199122Y-157181942D01*
X80199122Y-157181942D02*
X80251503Y-157277180D01*
X80251503Y-157277180D02*
X80303884Y-157324800D01*
X80303884Y-157324800D02*
X80408646Y-157372419D01*
X80408646Y-157372419D02*
X80618170Y-157372419D01*
X80618170Y-157372419D02*
X80722932Y-157324800D01*
X80722932Y-157324800D02*
X80775313Y-157277180D01*
X80775313Y-157277180D02*
X80827694Y-157181942D01*
X80827694Y-157181942D02*
X80827694Y-156943847D01*
X80827694Y-156943847D02*
X80775313Y-156848609D01*
X80775313Y-156848609D02*
X80722932Y-156800990D01*
X80722932Y-156800990D02*
X80618170Y-156753371D01*
X80618170Y-156753371D02*
X80408646Y-156753371D01*
X80408646Y-156753371D02*
X80303884Y-156800990D01*
X80303884Y-156800990D02*
X80251503Y-156848609D01*
X80251503Y-156848609D02*
X80199122Y-156943847D01*
X75903884Y-141420038D02*
X75799122Y-141372419D01*
X75799122Y-141372419D02*
X75641979Y-141372419D01*
X75641979Y-141372419D02*
X75484836Y-141420038D01*
X75484836Y-141420038D02*
X75380074Y-141515276D01*
X75380074Y-141515276D02*
X75327693Y-141610514D01*
X75327693Y-141610514D02*
X75275312Y-141800990D01*
X75275312Y-141800990D02*
X75275312Y-141943847D01*
X75275312Y-141943847D02*
X75327693Y-142134323D01*
X75327693Y-142134323D02*
X75380074Y-142229561D01*
X75380074Y-142229561D02*
X75484836Y-142324800D01*
X75484836Y-142324800D02*
X75641979Y-142372419D01*
X75641979Y-142372419D02*
X75746741Y-142372419D01*
X75746741Y-142372419D02*
X75903884Y-142324800D01*
X75903884Y-142324800D02*
X75956265Y-142277180D01*
X75956265Y-142277180D02*
X75956265Y-141943847D01*
X75956265Y-141943847D02*
X75746741Y-141943847D01*
X76427693Y-142372419D02*
X76427693Y-141372419D01*
X76427693Y-141372419D02*
X76846741Y-141372419D01*
X76846741Y-141372419D02*
X76951503Y-141420038D01*
X76951503Y-141420038D02*
X77003884Y-141467657D01*
X77003884Y-141467657D02*
X77056265Y-141562895D01*
X77056265Y-141562895D02*
X77056265Y-141705752D01*
X77056265Y-141705752D02*
X77003884Y-141800990D01*
X77003884Y-141800990D02*
X76951503Y-141848609D01*
X76951503Y-141848609D02*
X76846741Y-141896228D01*
X76846741Y-141896228D02*
X76427693Y-141896228D01*
X77527693Y-142372419D02*
X77527693Y-141372419D01*
X78261027Y-141372419D02*
X78470551Y-141372419D01*
X78470551Y-141372419D02*
X78575313Y-141420038D01*
X78575313Y-141420038D02*
X78680075Y-141515276D01*
X78680075Y-141515276D02*
X78732456Y-141705752D01*
X78732456Y-141705752D02*
X78732456Y-142039085D01*
X78732456Y-142039085D02*
X78680075Y-142229561D01*
X78680075Y-142229561D02*
X78575313Y-142324800D01*
X78575313Y-142324800D02*
X78470551Y-142372419D01*
X78470551Y-142372419D02*
X78261027Y-142372419D01*
X78261027Y-142372419D02*
X78156265Y-142324800D01*
X78156265Y-142324800D02*
X78051503Y-142229561D01*
X78051503Y-142229561D02*
X77999122Y-142039085D01*
X77999122Y-142039085D02*
X77999122Y-141705752D01*
X77999122Y-141705752D02*
X78051503Y-141515276D01*
X78051503Y-141515276D02*
X78156265Y-141420038D01*
X78156265Y-141420038D02*
X78261027Y-141372419D01*
X79099122Y-141372419D02*
X79780075Y-141372419D01*
X79780075Y-141372419D02*
X79413408Y-141753371D01*
X79413408Y-141753371D02*
X79570551Y-141753371D01*
X79570551Y-141753371D02*
X79675313Y-141800990D01*
X79675313Y-141800990D02*
X79727694Y-141848609D01*
X79727694Y-141848609D02*
X79780075Y-141943847D01*
X79780075Y-141943847D02*
X79780075Y-142181942D01*
X79780075Y-142181942D02*
X79727694Y-142277180D01*
X79727694Y-142277180D02*
X79675313Y-142324800D01*
X79675313Y-142324800D02*
X79570551Y-142372419D01*
X79570551Y-142372419D02*
X79256265Y-142372419D01*
X79256265Y-142372419D02*
X79151503Y-142324800D01*
X79151503Y-142324800D02*
X79099122Y-142277180D01*
X80303884Y-142372419D02*
X80513408Y-142372419D01*
X80513408Y-142372419D02*
X80618170Y-142324800D01*
X80618170Y-142324800D02*
X80670551Y-142277180D01*
X80670551Y-142277180D02*
X80775313Y-142134323D01*
X80775313Y-142134323D02*
X80827694Y-141943847D01*
X80827694Y-141943847D02*
X80827694Y-141562895D01*
X80827694Y-141562895D02*
X80775313Y-141467657D01*
X80775313Y-141467657D02*
X80722932Y-141420038D01*
X80722932Y-141420038D02*
X80618170Y-141372419D01*
X80618170Y-141372419D02*
X80408646Y-141372419D01*
X80408646Y-141372419D02*
X80303884Y-141420038D01*
X80303884Y-141420038D02*
X80251503Y-141467657D01*
X80251503Y-141467657D02*
X80199122Y-141562895D01*
X80199122Y-141562895D02*
X80199122Y-141800990D01*
X80199122Y-141800990D02*
X80251503Y-141896228D01*
X80251503Y-141896228D02*
X80303884Y-141943847D01*
X80303884Y-141943847D02*
X80408646Y-141991466D01*
X80408646Y-141991466D02*
X80618170Y-141991466D01*
X80618170Y-141991466D02*
X80722932Y-141943847D01*
X80722932Y-141943847D02*
X80775313Y-141896228D01*
X80775313Y-141896228D02*
X80827694Y-141800990D01*
X75903884Y-158920038D02*
X75799122Y-158872419D01*
X75799122Y-158872419D02*
X75641979Y-158872419D01*
X75641979Y-158872419D02*
X75484836Y-158920038D01*
X75484836Y-158920038D02*
X75380074Y-159015276D01*
X75380074Y-159015276D02*
X75327693Y-159110514D01*
X75327693Y-159110514D02*
X75275312Y-159300990D01*
X75275312Y-159300990D02*
X75275312Y-159443847D01*
X75275312Y-159443847D02*
X75327693Y-159634323D01*
X75327693Y-159634323D02*
X75380074Y-159729561D01*
X75380074Y-159729561D02*
X75484836Y-159824800D01*
X75484836Y-159824800D02*
X75641979Y-159872419D01*
X75641979Y-159872419D02*
X75746741Y-159872419D01*
X75746741Y-159872419D02*
X75903884Y-159824800D01*
X75903884Y-159824800D02*
X75956265Y-159777180D01*
X75956265Y-159777180D02*
X75956265Y-159443847D01*
X75956265Y-159443847D02*
X75746741Y-159443847D01*
X76427693Y-159872419D02*
X76427693Y-158872419D01*
X76427693Y-158872419D02*
X76846741Y-158872419D01*
X76846741Y-158872419D02*
X76951503Y-158920038D01*
X76951503Y-158920038D02*
X77003884Y-158967657D01*
X77003884Y-158967657D02*
X77056265Y-159062895D01*
X77056265Y-159062895D02*
X77056265Y-159205752D01*
X77056265Y-159205752D02*
X77003884Y-159300990D01*
X77003884Y-159300990D02*
X76951503Y-159348609D01*
X76951503Y-159348609D02*
X76846741Y-159396228D01*
X76846741Y-159396228D02*
X76427693Y-159396228D01*
X77527693Y-159872419D02*
X77527693Y-158872419D01*
X78261027Y-158872419D02*
X78470551Y-158872419D01*
X78470551Y-158872419D02*
X78575313Y-158920038D01*
X78575313Y-158920038D02*
X78680075Y-159015276D01*
X78680075Y-159015276D02*
X78732456Y-159205752D01*
X78732456Y-159205752D02*
X78732456Y-159539085D01*
X78732456Y-159539085D02*
X78680075Y-159729561D01*
X78680075Y-159729561D02*
X78575313Y-159824800D01*
X78575313Y-159824800D02*
X78470551Y-159872419D01*
X78470551Y-159872419D02*
X78261027Y-159872419D01*
X78261027Y-159872419D02*
X78156265Y-159824800D01*
X78156265Y-159824800D02*
X78051503Y-159729561D01*
X78051503Y-159729561D02*
X77999122Y-159539085D01*
X77999122Y-159539085D02*
X77999122Y-159205752D01*
X77999122Y-159205752D02*
X78051503Y-159015276D01*
X78051503Y-159015276D02*
X78156265Y-158920038D01*
X78156265Y-158920038D02*
X78261027Y-158872419D01*
X79151503Y-158967657D02*
X79203884Y-158920038D01*
X79203884Y-158920038D02*
X79308646Y-158872419D01*
X79308646Y-158872419D02*
X79570551Y-158872419D01*
X79570551Y-158872419D02*
X79675313Y-158920038D01*
X79675313Y-158920038D02*
X79727694Y-158967657D01*
X79727694Y-158967657D02*
X79780075Y-159062895D01*
X79780075Y-159062895D02*
X79780075Y-159158133D01*
X79780075Y-159158133D02*
X79727694Y-159300990D01*
X79727694Y-159300990D02*
X79099122Y-159872419D01*
X79099122Y-159872419D02*
X79780075Y-159872419D01*
X80146741Y-158872419D02*
X80880075Y-158872419D01*
X80880075Y-158872419D02*
X80408646Y-159872419D01*
X75903884Y-161420038D02*
X75799122Y-161372419D01*
X75799122Y-161372419D02*
X75641979Y-161372419D01*
X75641979Y-161372419D02*
X75484836Y-161420038D01*
X75484836Y-161420038D02*
X75380074Y-161515276D01*
X75380074Y-161515276D02*
X75327693Y-161610514D01*
X75327693Y-161610514D02*
X75275312Y-161800990D01*
X75275312Y-161800990D02*
X75275312Y-161943847D01*
X75275312Y-161943847D02*
X75327693Y-162134323D01*
X75327693Y-162134323D02*
X75380074Y-162229561D01*
X75380074Y-162229561D02*
X75484836Y-162324800D01*
X75484836Y-162324800D02*
X75641979Y-162372419D01*
X75641979Y-162372419D02*
X75746741Y-162372419D01*
X75746741Y-162372419D02*
X75903884Y-162324800D01*
X75903884Y-162324800D02*
X75956265Y-162277180D01*
X75956265Y-162277180D02*
X75956265Y-161943847D01*
X75956265Y-161943847D02*
X75746741Y-161943847D01*
X76427693Y-162372419D02*
X76427693Y-161372419D01*
X76427693Y-161372419D02*
X76846741Y-161372419D01*
X76846741Y-161372419D02*
X76951503Y-161420038D01*
X76951503Y-161420038D02*
X77003884Y-161467657D01*
X77003884Y-161467657D02*
X77056265Y-161562895D01*
X77056265Y-161562895D02*
X77056265Y-161705752D01*
X77056265Y-161705752D02*
X77003884Y-161800990D01*
X77003884Y-161800990D02*
X76951503Y-161848609D01*
X76951503Y-161848609D02*
X76846741Y-161896228D01*
X76846741Y-161896228D02*
X76427693Y-161896228D01*
X77527693Y-162372419D02*
X77527693Y-161372419D01*
X78261027Y-161372419D02*
X78470551Y-161372419D01*
X78470551Y-161372419D02*
X78575313Y-161420038D01*
X78575313Y-161420038D02*
X78680075Y-161515276D01*
X78680075Y-161515276D02*
X78732456Y-161705752D01*
X78732456Y-161705752D02*
X78732456Y-162039085D01*
X78732456Y-162039085D02*
X78680075Y-162229561D01*
X78680075Y-162229561D02*
X78575313Y-162324800D01*
X78575313Y-162324800D02*
X78470551Y-162372419D01*
X78470551Y-162372419D02*
X78261027Y-162372419D01*
X78261027Y-162372419D02*
X78156265Y-162324800D01*
X78156265Y-162324800D02*
X78051503Y-162229561D01*
X78051503Y-162229561D02*
X77999122Y-162039085D01*
X77999122Y-162039085D02*
X77999122Y-161705752D01*
X77999122Y-161705752D02*
X78051503Y-161515276D01*
X78051503Y-161515276D02*
X78156265Y-161420038D01*
X78156265Y-161420038D02*
X78261027Y-161372419D01*
X79780075Y-162372419D02*
X79151503Y-162372419D01*
X79465789Y-162372419D02*
X79465789Y-161372419D01*
X79465789Y-161372419D02*
X79361027Y-161515276D01*
X79361027Y-161515276D02*
X79256265Y-161610514D01*
X79256265Y-161610514D02*
X79151503Y-161658133D01*
X80722932Y-161705752D02*
X80722932Y-162372419D01*
X80461027Y-161324800D02*
X80199122Y-162039085D01*
X80199122Y-162039085D02*
X80880075Y-162039085D01*
X93403884Y-151420038D02*
X93299122Y-151372419D01*
X93299122Y-151372419D02*
X93141979Y-151372419D01*
X93141979Y-151372419D02*
X92984836Y-151420038D01*
X92984836Y-151420038D02*
X92880074Y-151515276D01*
X92880074Y-151515276D02*
X92827693Y-151610514D01*
X92827693Y-151610514D02*
X92775312Y-151800990D01*
X92775312Y-151800990D02*
X92775312Y-151943847D01*
X92775312Y-151943847D02*
X92827693Y-152134323D01*
X92827693Y-152134323D02*
X92880074Y-152229561D01*
X92880074Y-152229561D02*
X92984836Y-152324800D01*
X92984836Y-152324800D02*
X93141979Y-152372419D01*
X93141979Y-152372419D02*
X93246741Y-152372419D01*
X93246741Y-152372419D02*
X93403884Y-152324800D01*
X93403884Y-152324800D02*
X93456265Y-152277180D01*
X93456265Y-152277180D02*
X93456265Y-151943847D01*
X93456265Y-151943847D02*
X93246741Y-151943847D01*
X93927693Y-152372419D02*
X93927693Y-151372419D01*
X93927693Y-151372419D02*
X94346741Y-151372419D01*
X94346741Y-151372419D02*
X94451503Y-151420038D01*
X94451503Y-151420038D02*
X94503884Y-151467657D01*
X94503884Y-151467657D02*
X94556265Y-151562895D01*
X94556265Y-151562895D02*
X94556265Y-151705752D01*
X94556265Y-151705752D02*
X94503884Y-151800990D01*
X94503884Y-151800990D02*
X94451503Y-151848609D01*
X94451503Y-151848609D02*
X94346741Y-151896228D01*
X94346741Y-151896228D02*
X93927693Y-151896228D01*
X95027693Y-152372419D02*
X95027693Y-151372419D01*
X95761027Y-151372419D02*
X95970551Y-151372419D01*
X95970551Y-151372419D02*
X96075313Y-151420038D01*
X96075313Y-151420038D02*
X96180075Y-151515276D01*
X96180075Y-151515276D02*
X96232456Y-151705752D01*
X96232456Y-151705752D02*
X96232456Y-152039085D01*
X96232456Y-152039085D02*
X96180075Y-152229561D01*
X96180075Y-152229561D02*
X96075313Y-152324800D01*
X96075313Y-152324800D02*
X95970551Y-152372419D01*
X95970551Y-152372419D02*
X95761027Y-152372419D01*
X95761027Y-152372419D02*
X95656265Y-152324800D01*
X95656265Y-152324800D02*
X95551503Y-152229561D01*
X95551503Y-152229561D02*
X95499122Y-152039085D01*
X95499122Y-152039085D02*
X95499122Y-151705752D01*
X95499122Y-151705752D02*
X95551503Y-151515276D01*
X95551503Y-151515276D02*
X95656265Y-151420038D01*
X95656265Y-151420038D02*
X95761027Y-151372419D01*
X97280075Y-152372419D02*
X96651503Y-152372419D01*
X96965789Y-152372419D02*
X96965789Y-151372419D01*
X96965789Y-151372419D02*
X96861027Y-151515276D01*
X96861027Y-151515276D02*
X96756265Y-151610514D01*
X96756265Y-151610514D02*
X96651503Y-151658133D01*
X97908646Y-151800990D02*
X97803884Y-151753371D01*
X97803884Y-151753371D02*
X97751503Y-151705752D01*
X97751503Y-151705752D02*
X97699122Y-151610514D01*
X97699122Y-151610514D02*
X97699122Y-151562895D01*
X97699122Y-151562895D02*
X97751503Y-151467657D01*
X97751503Y-151467657D02*
X97803884Y-151420038D01*
X97803884Y-151420038D02*
X97908646Y-151372419D01*
X97908646Y-151372419D02*
X98118170Y-151372419D01*
X98118170Y-151372419D02*
X98222932Y-151420038D01*
X98222932Y-151420038D02*
X98275313Y-151467657D01*
X98275313Y-151467657D02*
X98327694Y-151562895D01*
X98327694Y-151562895D02*
X98327694Y-151610514D01*
X98327694Y-151610514D02*
X98275313Y-151705752D01*
X98275313Y-151705752D02*
X98222932Y-151753371D01*
X98222932Y-151753371D02*
X98118170Y-151800990D01*
X98118170Y-151800990D02*
X97908646Y-151800990D01*
X97908646Y-151800990D02*
X97803884Y-151848609D01*
X97803884Y-151848609D02*
X97751503Y-151896228D01*
X97751503Y-151896228D02*
X97699122Y-151991466D01*
X97699122Y-151991466D02*
X97699122Y-152181942D01*
X97699122Y-152181942D02*
X97751503Y-152277180D01*
X97751503Y-152277180D02*
X97803884Y-152324800D01*
X97803884Y-152324800D02*
X97908646Y-152372419D01*
X97908646Y-152372419D02*
X98118170Y-152372419D01*
X98118170Y-152372419D02*
X98222932Y-152324800D01*
X98222932Y-152324800D02*
X98275313Y-152277180D01*
X98275313Y-152277180D02*
X98327694Y-152181942D01*
X98327694Y-152181942D02*
X98327694Y-151991466D01*
X98327694Y-151991466D02*
X98275313Y-151896228D01*
X98275313Y-151896228D02*
X98222932Y-151848609D01*
X98222932Y-151848609D02*
X98118170Y-151800990D01*
X94403884Y-161420038D02*
X94299122Y-161372419D01*
X94299122Y-161372419D02*
X94141979Y-161372419D01*
X94141979Y-161372419D02*
X93984836Y-161420038D01*
X93984836Y-161420038D02*
X93880074Y-161515276D01*
X93880074Y-161515276D02*
X93827693Y-161610514D01*
X93827693Y-161610514D02*
X93775312Y-161800990D01*
X93775312Y-161800990D02*
X93775312Y-161943847D01*
X93775312Y-161943847D02*
X93827693Y-162134323D01*
X93827693Y-162134323D02*
X93880074Y-162229561D01*
X93880074Y-162229561D02*
X93984836Y-162324800D01*
X93984836Y-162324800D02*
X94141979Y-162372419D01*
X94141979Y-162372419D02*
X94246741Y-162372419D01*
X94246741Y-162372419D02*
X94403884Y-162324800D01*
X94403884Y-162324800D02*
X94456265Y-162277180D01*
X94456265Y-162277180D02*
X94456265Y-161943847D01*
X94456265Y-161943847D02*
X94246741Y-161943847D01*
X94927693Y-162372419D02*
X94927693Y-161372419D01*
X94927693Y-161372419D02*
X95346741Y-161372419D01*
X95346741Y-161372419D02*
X95451503Y-161420038D01*
X95451503Y-161420038D02*
X95503884Y-161467657D01*
X95503884Y-161467657D02*
X95556265Y-161562895D01*
X95556265Y-161562895D02*
X95556265Y-161705752D01*
X95556265Y-161705752D02*
X95503884Y-161800990D01*
X95503884Y-161800990D02*
X95451503Y-161848609D01*
X95451503Y-161848609D02*
X95346741Y-161896228D01*
X95346741Y-161896228D02*
X94927693Y-161896228D01*
X96027693Y-162372419D02*
X96027693Y-161372419D01*
X96761027Y-161372419D02*
X96970551Y-161372419D01*
X96970551Y-161372419D02*
X97075313Y-161420038D01*
X97075313Y-161420038D02*
X97180075Y-161515276D01*
X97180075Y-161515276D02*
X97232456Y-161705752D01*
X97232456Y-161705752D02*
X97232456Y-162039085D01*
X97232456Y-162039085D02*
X97180075Y-162229561D01*
X97180075Y-162229561D02*
X97075313Y-162324800D01*
X97075313Y-162324800D02*
X96970551Y-162372419D01*
X96970551Y-162372419D02*
X96761027Y-162372419D01*
X96761027Y-162372419D02*
X96656265Y-162324800D01*
X96656265Y-162324800D02*
X96551503Y-162229561D01*
X96551503Y-162229561D02*
X96499122Y-162039085D01*
X96499122Y-162039085D02*
X96499122Y-161705752D01*
X96499122Y-161705752D02*
X96551503Y-161515276D01*
X96551503Y-161515276D02*
X96656265Y-161420038D01*
X96656265Y-161420038D02*
X96761027Y-161372419D01*
X98175313Y-161705752D02*
X98175313Y-162372419D01*
X97913408Y-161324800D02*
X97651503Y-162039085D01*
X97651503Y-162039085D02*
X98332456Y-162039085D01*
X93403884Y-138420038D02*
X93299122Y-138372419D01*
X93299122Y-138372419D02*
X93141979Y-138372419D01*
X93141979Y-138372419D02*
X92984836Y-138420038D01*
X92984836Y-138420038D02*
X92880074Y-138515276D01*
X92880074Y-138515276D02*
X92827693Y-138610514D01*
X92827693Y-138610514D02*
X92775312Y-138800990D01*
X92775312Y-138800990D02*
X92775312Y-138943847D01*
X92775312Y-138943847D02*
X92827693Y-139134323D01*
X92827693Y-139134323D02*
X92880074Y-139229561D01*
X92880074Y-139229561D02*
X92984836Y-139324800D01*
X92984836Y-139324800D02*
X93141979Y-139372419D01*
X93141979Y-139372419D02*
X93246741Y-139372419D01*
X93246741Y-139372419D02*
X93403884Y-139324800D01*
X93403884Y-139324800D02*
X93456265Y-139277180D01*
X93456265Y-139277180D02*
X93456265Y-138943847D01*
X93456265Y-138943847D02*
X93246741Y-138943847D01*
X93927693Y-139372419D02*
X93927693Y-138372419D01*
X93927693Y-138372419D02*
X94346741Y-138372419D01*
X94346741Y-138372419D02*
X94451503Y-138420038D01*
X94451503Y-138420038D02*
X94503884Y-138467657D01*
X94503884Y-138467657D02*
X94556265Y-138562895D01*
X94556265Y-138562895D02*
X94556265Y-138705752D01*
X94556265Y-138705752D02*
X94503884Y-138800990D01*
X94503884Y-138800990D02*
X94451503Y-138848609D01*
X94451503Y-138848609D02*
X94346741Y-138896228D01*
X94346741Y-138896228D02*
X93927693Y-138896228D01*
X95027693Y-139372419D02*
X95027693Y-138372419D01*
X95761027Y-138372419D02*
X95970551Y-138372419D01*
X95970551Y-138372419D02*
X96075313Y-138420038D01*
X96075313Y-138420038D02*
X96180075Y-138515276D01*
X96180075Y-138515276D02*
X96232456Y-138705752D01*
X96232456Y-138705752D02*
X96232456Y-139039085D01*
X96232456Y-139039085D02*
X96180075Y-139229561D01*
X96180075Y-139229561D02*
X96075313Y-139324800D01*
X96075313Y-139324800D02*
X95970551Y-139372419D01*
X95970551Y-139372419D02*
X95761027Y-139372419D01*
X95761027Y-139372419D02*
X95656265Y-139324800D01*
X95656265Y-139324800D02*
X95551503Y-139229561D01*
X95551503Y-139229561D02*
X95499122Y-139039085D01*
X95499122Y-139039085D02*
X95499122Y-138705752D01*
X95499122Y-138705752D02*
X95551503Y-138515276D01*
X95551503Y-138515276D02*
X95656265Y-138420038D01*
X95656265Y-138420038D02*
X95761027Y-138372419D01*
X96651503Y-138467657D02*
X96703884Y-138420038D01*
X96703884Y-138420038D02*
X96808646Y-138372419D01*
X96808646Y-138372419D02*
X97070551Y-138372419D01*
X97070551Y-138372419D02*
X97175313Y-138420038D01*
X97175313Y-138420038D02*
X97227694Y-138467657D01*
X97227694Y-138467657D02*
X97280075Y-138562895D01*
X97280075Y-138562895D02*
X97280075Y-138658133D01*
X97280075Y-138658133D02*
X97227694Y-138800990D01*
X97227694Y-138800990D02*
X96599122Y-139372419D01*
X96599122Y-139372419D02*
X97280075Y-139372419D01*
X97699122Y-138467657D02*
X97751503Y-138420038D01*
X97751503Y-138420038D02*
X97856265Y-138372419D01*
X97856265Y-138372419D02*
X98118170Y-138372419D01*
X98118170Y-138372419D02*
X98222932Y-138420038D01*
X98222932Y-138420038D02*
X98275313Y-138467657D01*
X98275313Y-138467657D02*
X98327694Y-138562895D01*
X98327694Y-138562895D02*
X98327694Y-138658133D01*
X98327694Y-138658133D02*
X98275313Y-138800990D01*
X98275313Y-138800990D02*
X97646741Y-139372419D01*
X97646741Y-139372419D02*
X98327694Y-139372419D01*
X85803884Y-178372419D02*
X85803884Y-179181942D01*
X85803884Y-179181942D02*
X85851503Y-179277180D01*
X85851503Y-179277180D02*
X85899122Y-179324800D01*
X85899122Y-179324800D02*
X85994360Y-179372419D01*
X85994360Y-179372419D02*
X86184836Y-179372419D01*
X86184836Y-179372419D02*
X86280074Y-179324800D01*
X86280074Y-179324800D02*
X86327693Y-179277180D01*
X86327693Y-179277180D02*
X86375312Y-179181942D01*
X86375312Y-179181942D02*
X86375312Y-178372419D01*
X86803884Y-179324800D02*
X86946741Y-179372419D01*
X86946741Y-179372419D02*
X87184836Y-179372419D01*
X87184836Y-179372419D02*
X87280074Y-179324800D01*
X87280074Y-179324800D02*
X87327693Y-179277180D01*
X87327693Y-179277180D02*
X87375312Y-179181942D01*
X87375312Y-179181942D02*
X87375312Y-179086704D01*
X87375312Y-179086704D02*
X87327693Y-178991466D01*
X87327693Y-178991466D02*
X87280074Y-178943847D01*
X87280074Y-178943847D02*
X87184836Y-178896228D01*
X87184836Y-178896228D02*
X86994360Y-178848609D01*
X86994360Y-178848609D02*
X86899122Y-178800990D01*
X86899122Y-178800990D02*
X86851503Y-178753371D01*
X86851503Y-178753371D02*
X86803884Y-178658133D01*
X86803884Y-178658133D02*
X86803884Y-178562895D01*
X86803884Y-178562895D02*
X86851503Y-178467657D01*
X86851503Y-178467657D02*
X86899122Y-178420038D01*
X86899122Y-178420038D02*
X86994360Y-178372419D01*
X86994360Y-178372419D02*
X87232455Y-178372419D01*
X87232455Y-178372419D02*
X87375312Y-178420038D01*
X88137217Y-178848609D02*
X88280074Y-178896228D01*
X88280074Y-178896228D02*
X88327693Y-178943847D01*
X88327693Y-178943847D02*
X88375312Y-179039085D01*
X88375312Y-179039085D02*
X88375312Y-179181942D01*
X88375312Y-179181942D02*
X88327693Y-179277180D01*
X88327693Y-179277180D02*
X88280074Y-179324800D01*
X88280074Y-179324800D02*
X88184836Y-179372419D01*
X88184836Y-179372419D02*
X87803884Y-179372419D01*
X87803884Y-179372419D02*
X87803884Y-178372419D01*
X87803884Y-178372419D02*
X88137217Y-178372419D01*
X88137217Y-178372419D02*
X88232455Y-178420038D01*
X88232455Y-178420038D02*
X88280074Y-178467657D01*
X88280074Y-178467657D02*
X88327693Y-178562895D01*
X88327693Y-178562895D02*
X88327693Y-178658133D01*
X88327693Y-178658133D02*
X88280074Y-178753371D01*
X88280074Y-178753371D02*
X88232455Y-178800990D01*
X88232455Y-178800990D02*
X88137217Y-178848609D01*
X88137217Y-178848609D02*
X87803884Y-178848609D01*
X75903884Y-138920038D02*
X75799122Y-138872419D01*
X75799122Y-138872419D02*
X75641979Y-138872419D01*
X75641979Y-138872419D02*
X75484836Y-138920038D01*
X75484836Y-138920038D02*
X75380074Y-139015276D01*
X75380074Y-139015276D02*
X75327693Y-139110514D01*
X75327693Y-139110514D02*
X75275312Y-139300990D01*
X75275312Y-139300990D02*
X75275312Y-139443847D01*
X75275312Y-139443847D02*
X75327693Y-139634323D01*
X75327693Y-139634323D02*
X75380074Y-139729561D01*
X75380074Y-139729561D02*
X75484836Y-139824800D01*
X75484836Y-139824800D02*
X75641979Y-139872419D01*
X75641979Y-139872419D02*
X75746741Y-139872419D01*
X75746741Y-139872419D02*
X75903884Y-139824800D01*
X75903884Y-139824800D02*
X75956265Y-139777180D01*
X75956265Y-139777180D02*
X75956265Y-139443847D01*
X75956265Y-139443847D02*
X75746741Y-139443847D01*
X76427693Y-139872419D02*
X76427693Y-138872419D01*
X76427693Y-138872419D02*
X76846741Y-138872419D01*
X76846741Y-138872419D02*
X76951503Y-138920038D01*
X76951503Y-138920038D02*
X77003884Y-138967657D01*
X77003884Y-138967657D02*
X77056265Y-139062895D01*
X77056265Y-139062895D02*
X77056265Y-139205752D01*
X77056265Y-139205752D02*
X77003884Y-139300990D01*
X77003884Y-139300990D02*
X76951503Y-139348609D01*
X76951503Y-139348609D02*
X76846741Y-139396228D01*
X76846741Y-139396228D02*
X76427693Y-139396228D01*
X77527693Y-139872419D02*
X77527693Y-138872419D01*
X78261027Y-138872419D02*
X78470551Y-138872419D01*
X78470551Y-138872419D02*
X78575313Y-138920038D01*
X78575313Y-138920038D02*
X78680075Y-139015276D01*
X78680075Y-139015276D02*
X78732456Y-139205752D01*
X78732456Y-139205752D02*
X78732456Y-139539085D01*
X78732456Y-139539085D02*
X78680075Y-139729561D01*
X78680075Y-139729561D02*
X78575313Y-139824800D01*
X78575313Y-139824800D02*
X78470551Y-139872419D01*
X78470551Y-139872419D02*
X78261027Y-139872419D01*
X78261027Y-139872419D02*
X78156265Y-139824800D01*
X78156265Y-139824800D02*
X78051503Y-139729561D01*
X78051503Y-139729561D02*
X77999122Y-139539085D01*
X77999122Y-139539085D02*
X77999122Y-139205752D01*
X77999122Y-139205752D02*
X78051503Y-139015276D01*
X78051503Y-139015276D02*
X78156265Y-138920038D01*
X78156265Y-138920038D02*
X78261027Y-138872419D01*
X79099122Y-138872419D02*
X79780075Y-138872419D01*
X79780075Y-138872419D02*
X79413408Y-139253371D01*
X79413408Y-139253371D02*
X79570551Y-139253371D01*
X79570551Y-139253371D02*
X79675313Y-139300990D01*
X79675313Y-139300990D02*
X79727694Y-139348609D01*
X79727694Y-139348609D02*
X79780075Y-139443847D01*
X79780075Y-139443847D02*
X79780075Y-139681942D01*
X79780075Y-139681942D02*
X79727694Y-139777180D01*
X79727694Y-139777180D02*
X79675313Y-139824800D01*
X79675313Y-139824800D02*
X79570551Y-139872419D01*
X79570551Y-139872419D02*
X79256265Y-139872419D01*
X79256265Y-139872419D02*
X79151503Y-139824800D01*
X79151503Y-139824800D02*
X79099122Y-139777180D01*
X80722932Y-138872419D02*
X80513408Y-138872419D01*
X80513408Y-138872419D02*
X80408646Y-138920038D01*
X80408646Y-138920038D02*
X80356265Y-138967657D01*
X80356265Y-138967657D02*
X80251503Y-139110514D01*
X80251503Y-139110514D02*
X80199122Y-139300990D01*
X80199122Y-139300990D02*
X80199122Y-139681942D01*
X80199122Y-139681942D02*
X80251503Y-139777180D01*
X80251503Y-139777180D02*
X80303884Y-139824800D01*
X80303884Y-139824800D02*
X80408646Y-139872419D01*
X80408646Y-139872419D02*
X80618170Y-139872419D01*
X80618170Y-139872419D02*
X80722932Y-139824800D01*
X80722932Y-139824800D02*
X80775313Y-139777180D01*
X80775313Y-139777180D02*
X80827694Y-139681942D01*
X80827694Y-139681942D02*
X80827694Y-139443847D01*
X80827694Y-139443847D02*
X80775313Y-139348609D01*
X80775313Y-139348609D02*
X80722932Y-139300990D01*
X80722932Y-139300990D02*
X80618170Y-139253371D01*
X80618170Y-139253371D02*
X80408646Y-139253371D01*
X80408646Y-139253371D02*
X80303884Y-139300990D01*
X80303884Y-139300990D02*
X80251503Y-139348609D01*
X80251503Y-139348609D02*
X80199122Y-139443847D01*
X93403884Y-146420038D02*
X93299122Y-146372419D01*
X93299122Y-146372419D02*
X93141979Y-146372419D01*
X93141979Y-146372419D02*
X92984836Y-146420038D01*
X92984836Y-146420038D02*
X92880074Y-146515276D01*
X92880074Y-146515276D02*
X92827693Y-146610514D01*
X92827693Y-146610514D02*
X92775312Y-146800990D01*
X92775312Y-146800990D02*
X92775312Y-146943847D01*
X92775312Y-146943847D02*
X92827693Y-147134323D01*
X92827693Y-147134323D02*
X92880074Y-147229561D01*
X92880074Y-147229561D02*
X92984836Y-147324800D01*
X92984836Y-147324800D02*
X93141979Y-147372419D01*
X93141979Y-147372419D02*
X93246741Y-147372419D01*
X93246741Y-147372419D02*
X93403884Y-147324800D01*
X93403884Y-147324800D02*
X93456265Y-147277180D01*
X93456265Y-147277180D02*
X93456265Y-146943847D01*
X93456265Y-146943847D02*
X93246741Y-146943847D01*
X93927693Y-147372419D02*
X93927693Y-146372419D01*
X93927693Y-146372419D02*
X94346741Y-146372419D01*
X94346741Y-146372419D02*
X94451503Y-146420038D01*
X94451503Y-146420038D02*
X94503884Y-146467657D01*
X94503884Y-146467657D02*
X94556265Y-146562895D01*
X94556265Y-146562895D02*
X94556265Y-146705752D01*
X94556265Y-146705752D02*
X94503884Y-146800990D01*
X94503884Y-146800990D02*
X94451503Y-146848609D01*
X94451503Y-146848609D02*
X94346741Y-146896228D01*
X94346741Y-146896228D02*
X93927693Y-146896228D01*
X95027693Y-147372419D02*
X95027693Y-146372419D01*
X95761027Y-146372419D02*
X95970551Y-146372419D01*
X95970551Y-146372419D02*
X96075313Y-146420038D01*
X96075313Y-146420038D02*
X96180075Y-146515276D01*
X96180075Y-146515276D02*
X96232456Y-146705752D01*
X96232456Y-146705752D02*
X96232456Y-147039085D01*
X96232456Y-147039085D02*
X96180075Y-147229561D01*
X96180075Y-147229561D02*
X96075313Y-147324800D01*
X96075313Y-147324800D02*
X95970551Y-147372419D01*
X95970551Y-147372419D02*
X95761027Y-147372419D01*
X95761027Y-147372419D02*
X95656265Y-147324800D01*
X95656265Y-147324800D02*
X95551503Y-147229561D01*
X95551503Y-147229561D02*
X95499122Y-147039085D01*
X95499122Y-147039085D02*
X95499122Y-146705752D01*
X95499122Y-146705752D02*
X95551503Y-146515276D01*
X95551503Y-146515276D02*
X95656265Y-146420038D01*
X95656265Y-146420038D02*
X95761027Y-146372419D01*
X96651503Y-146467657D02*
X96703884Y-146420038D01*
X96703884Y-146420038D02*
X96808646Y-146372419D01*
X96808646Y-146372419D02*
X97070551Y-146372419D01*
X97070551Y-146372419D02*
X97175313Y-146420038D01*
X97175313Y-146420038D02*
X97227694Y-146467657D01*
X97227694Y-146467657D02*
X97280075Y-146562895D01*
X97280075Y-146562895D02*
X97280075Y-146658133D01*
X97280075Y-146658133D02*
X97227694Y-146800990D01*
X97227694Y-146800990D02*
X96599122Y-147372419D01*
X96599122Y-147372419D02*
X97280075Y-147372419D01*
X98327694Y-147372419D02*
X97699122Y-147372419D01*
X98013408Y-147372419D02*
X98013408Y-146372419D01*
X98013408Y-146372419D02*
X97908646Y-146515276D01*
X97908646Y-146515276D02*
X97803884Y-146610514D01*
X97803884Y-146610514D02*
X97699122Y-146658133D01*
X93403884Y-158920038D02*
X93299122Y-158872419D01*
X93299122Y-158872419D02*
X93141979Y-158872419D01*
X93141979Y-158872419D02*
X92984836Y-158920038D01*
X92984836Y-158920038D02*
X92880074Y-159015276D01*
X92880074Y-159015276D02*
X92827693Y-159110514D01*
X92827693Y-159110514D02*
X92775312Y-159300990D01*
X92775312Y-159300990D02*
X92775312Y-159443847D01*
X92775312Y-159443847D02*
X92827693Y-159634323D01*
X92827693Y-159634323D02*
X92880074Y-159729561D01*
X92880074Y-159729561D02*
X92984836Y-159824800D01*
X92984836Y-159824800D02*
X93141979Y-159872419D01*
X93141979Y-159872419D02*
X93246741Y-159872419D01*
X93246741Y-159872419D02*
X93403884Y-159824800D01*
X93403884Y-159824800D02*
X93456265Y-159777180D01*
X93456265Y-159777180D02*
X93456265Y-159443847D01*
X93456265Y-159443847D02*
X93246741Y-159443847D01*
X93927693Y-159872419D02*
X93927693Y-158872419D01*
X93927693Y-158872419D02*
X94346741Y-158872419D01*
X94346741Y-158872419D02*
X94451503Y-158920038D01*
X94451503Y-158920038D02*
X94503884Y-158967657D01*
X94503884Y-158967657D02*
X94556265Y-159062895D01*
X94556265Y-159062895D02*
X94556265Y-159205752D01*
X94556265Y-159205752D02*
X94503884Y-159300990D01*
X94503884Y-159300990D02*
X94451503Y-159348609D01*
X94451503Y-159348609D02*
X94346741Y-159396228D01*
X94346741Y-159396228D02*
X93927693Y-159396228D01*
X95027693Y-159872419D02*
X95027693Y-158872419D01*
X95761027Y-158872419D02*
X95970551Y-158872419D01*
X95970551Y-158872419D02*
X96075313Y-158920038D01*
X96075313Y-158920038D02*
X96180075Y-159015276D01*
X96180075Y-159015276D02*
X96232456Y-159205752D01*
X96232456Y-159205752D02*
X96232456Y-159539085D01*
X96232456Y-159539085D02*
X96180075Y-159729561D01*
X96180075Y-159729561D02*
X96075313Y-159824800D01*
X96075313Y-159824800D02*
X95970551Y-159872419D01*
X95970551Y-159872419D02*
X95761027Y-159872419D01*
X95761027Y-159872419D02*
X95656265Y-159824800D01*
X95656265Y-159824800D02*
X95551503Y-159729561D01*
X95551503Y-159729561D02*
X95499122Y-159539085D01*
X95499122Y-159539085D02*
X95499122Y-159205752D01*
X95499122Y-159205752D02*
X95551503Y-159015276D01*
X95551503Y-159015276D02*
X95656265Y-158920038D01*
X95656265Y-158920038D02*
X95761027Y-158872419D01*
X97280075Y-159872419D02*
X96651503Y-159872419D01*
X96965789Y-159872419D02*
X96965789Y-158872419D01*
X96965789Y-158872419D02*
X96861027Y-159015276D01*
X96861027Y-159015276D02*
X96756265Y-159110514D01*
X96756265Y-159110514D02*
X96651503Y-159158133D01*
X98222932Y-158872419D02*
X98013408Y-158872419D01*
X98013408Y-158872419D02*
X97908646Y-158920038D01*
X97908646Y-158920038D02*
X97856265Y-158967657D01*
X97856265Y-158967657D02*
X97751503Y-159110514D01*
X97751503Y-159110514D02*
X97699122Y-159300990D01*
X97699122Y-159300990D02*
X97699122Y-159681942D01*
X97699122Y-159681942D02*
X97751503Y-159777180D01*
X97751503Y-159777180D02*
X97803884Y-159824800D01*
X97803884Y-159824800D02*
X97908646Y-159872419D01*
X97908646Y-159872419D02*
X98118170Y-159872419D01*
X98118170Y-159872419D02*
X98222932Y-159824800D01*
X98222932Y-159824800D02*
X98275313Y-159777180D01*
X98275313Y-159777180D02*
X98327694Y-159681942D01*
X98327694Y-159681942D02*
X98327694Y-159443847D01*
X98327694Y-159443847D02*
X98275313Y-159348609D01*
X98275313Y-159348609D02*
X98222932Y-159300990D01*
X98222932Y-159300990D02*
X98118170Y-159253371D01*
X98118170Y-159253371D02*
X97908646Y-159253371D01*
X97908646Y-159253371D02*
X97803884Y-159300990D01*
X97803884Y-159300990D02*
X97751503Y-159348609D01*
X97751503Y-159348609D02*
X97699122Y-159443847D01*
X75903884Y-148920038D02*
X75799122Y-148872419D01*
X75799122Y-148872419D02*
X75641979Y-148872419D01*
X75641979Y-148872419D02*
X75484836Y-148920038D01*
X75484836Y-148920038D02*
X75380074Y-149015276D01*
X75380074Y-149015276D02*
X75327693Y-149110514D01*
X75327693Y-149110514D02*
X75275312Y-149300990D01*
X75275312Y-149300990D02*
X75275312Y-149443847D01*
X75275312Y-149443847D02*
X75327693Y-149634323D01*
X75327693Y-149634323D02*
X75380074Y-149729561D01*
X75380074Y-149729561D02*
X75484836Y-149824800D01*
X75484836Y-149824800D02*
X75641979Y-149872419D01*
X75641979Y-149872419D02*
X75746741Y-149872419D01*
X75746741Y-149872419D02*
X75903884Y-149824800D01*
X75903884Y-149824800D02*
X75956265Y-149777180D01*
X75956265Y-149777180D02*
X75956265Y-149443847D01*
X75956265Y-149443847D02*
X75746741Y-149443847D01*
X76427693Y-149872419D02*
X76427693Y-148872419D01*
X76427693Y-148872419D02*
X76846741Y-148872419D01*
X76846741Y-148872419D02*
X76951503Y-148920038D01*
X76951503Y-148920038D02*
X77003884Y-148967657D01*
X77003884Y-148967657D02*
X77056265Y-149062895D01*
X77056265Y-149062895D02*
X77056265Y-149205752D01*
X77056265Y-149205752D02*
X77003884Y-149300990D01*
X77003884Y-149300990D02*
X76951503Y-149348609D01*
X76951503Y-149348609D02*
X76846741Y-149396228D01*
X76846741Y-149396228D02*
X76427693Y-149396228D01*
X77527693Y-149872419D02*
X77527693Y-148872419D01*
X78261027Y-148872419D02*
X78470551Y-148872419D01*
X78470551Y-148872419D02*
X78575313Y-148920038D01*
X78575313Y-148920038D02*
X78680075Y-149015276D01*
X78680075Y-149015276D02*
X78732456Y-149205752D01*
X78732456Y-149205752D02*
X78732456Y-149539085D01*
X78732456Y-149539085D02*
X78680075Y-149729561D01*
X78680075Y-149729561D02*
X78575313Y-149824800D01*
X78575313Y-149824800D02*
X78470551Y-149872419D01*
X78470551Y-149872419D02*
X78261027Y-149872419D01*
X78261027Y-149872419D02*
X78156265Y-149824800D01*
X78156265Y-149824800D02*
X78051503Y-149729561D01*
X78051503Y-149729561D02*
X77999122Y-149539085D01*
X77999122Y-149539085D02*
X77999122Y-149205752D01*
X77999122Y-149205752D02*
X78051503Y-149015276D01*
X78051503Y-149015276D02*
X78156265Y-148920038D01*
X78156265Y-148920038D02*
X78261027Y-148872419D01*
X79099122Y-148872419D02*
X79780075Y-148872419D01*
X79780075Y-148872419D02*
X79413408Y-149253371D01*
X79413408Y-149253371D02*
X79570551Y-149253371D01*
X79570551Y-149253371D02*
X79675313Y-149300990D01*
X79675313Y-149300990D02*
X79727694Y-149348609D01*
X79727694Y-149348609D02*
X79780075Y-149443847D01*
X79780075Y-149443847D02*
X79780075Y-149681942D01*
X79780075Y-149681942D02*
X79727694Y-149777180D01*
X79727694Y-149777180D02*
X79675313Y-149824800D01*
X79675313Y-149824800D02*
X79570551Y-149872419D01*
X79570551Y-149872419D02*
X79256265Y-149872419D01*
X79256265Y-149872419D02*
X79151503Y-149824800D01*
X79151503Y-149824800D02*
X79099122Y-149777180D01*
X80199122Y-148967657D02*
X80251503Y-148920038D01*
X80251503Y-148920038D02*
X80356265Y-148872419D01*
X80356265Y-148872419D02*
X80618170Y-148872419D01*
X80618170Y-148872419D02*
X80722932Y-148920038D01*
X80722932Y-148920038D02*
X80775313Y-148967657D01*
X80775313Y-148967657D02*
X80827694Y-149062895D01*
X80827694Y-149062895D02*
X80827694Y-149158133D01*
X80827694Y-149158133D02*
X80775313Y-149300990D01*
X80775313Y-149300990D02*
X80146741Y-149872419D01*
X80146741Y-149872419D02*
X80827694Y-149872419D01*
X94403884Y-163920038D02*
X94299122Y-163872419D01*
X94299122Y-163872419D02*
X94141979Y-163872419D01*
X94141979Y-163872419D02*
X93984836Y-163920038D01*
X93984836Y-163920038D02*
X93880074Y-164015276D01*
X93880074Y-164015276D02*
X93827693Y-164110514D01*
X93827693Y-164110514D02*
X93775312Y-164300990D01*
X93775312Y-164300990D02*
X93775312Y-164443847D01*
X93775312Y-164443847D02*
X93827693Y-164634323D01*
X93827693Y-164634323D02*
X93880074Y-164729561D01*
X93880074Y-164729561D02*
X93984836Y-164824800D01*
X93984836Y-164824800D02*
X94141979Y-164872419D01*
X94141979Y-164872419D02*
X94246741Y-164872419D01*
X94246741Y-164872419D02*
X94403884Y-164824800D01*
X94403884Y-164824800D02*
X94456265Y-164777180D01*
X94456265Y-164777180D02*
X94456265Y-164443847D01*
X94456265Y-164443847D02*
X94246741Y-164443847D01*
X94927693Y-164872419D02*
X94927693Y-163872419D01*
X94927693Y-163872419D02*
X95346741Y-163872419D01*
X95346741Y-163872419D02*
X95451503Y-163920038D01*
X95451503Y-163920038D02*
X95503884Y-163967657D01*
X95503884Y-163967657D02*
X95556265Y-164062895D01*
X95556265Y-164062895D02*
X95556265Y-164205752D01*
X95556265Y-164205752D02*
X95503884Y-164300990D01*
X95503884Y-164300990D02*
X95451503Y-164348609D01*
X95451503Y-164348609D02*
X95346741Y-164396228D01*
X95346741Y-164396228D02*
X94927693Y-164396228D01*
X96027693Y-164872419D02*
X96027693Y-163872419D01*
X96761027Y-163872419D02*
X96970551Y-163872419D01*
X96970551Y-163872419D02*
X97075313Y-163920038D01*
X97075313Y-163920038D02*
X97180075Y-164015276D01*
X97180075Y-164015276D02*
X97232456Y-164205752D01*
X97232456Y-164205752D02*
X97232456Y-164539085D01*
X97232456Y-164539085D02*
X97180075Y-164729561D01*
X97180075Y-164729561D02*
X97075313Y-164824800D01*
X97075313Y-164824800D02*
X96970551Y-164872419D01*
X96970551Y-164872419D02*
X96761027Y-164872419D01*
X96761027Y-164872419D02*
X96656265Y-164824800D01*
X96656265Y-164824800D02*
X96551503Y-164729561D01*
X96551503Y-164729561D02*
X96499122Y-164539085D01*
X96499122Y-164539085D02*
X96499122Y-164205752D01*
X96499122Y-164205752D02*
X96551503Y-164015276D01*
X96551503Y-164015276D02*
X96656265Y-163920038D01*
X96656265Y-163920038D02*
X96761027Y-163872419D01*
X97651503Y-163967657D02*
X97703884Y-163920038D01*
X97703884Y-163920038D02*
X97808646Y-163872419D01*
X97808646Y-163872419D02*
X98070551Y-163872419D01*
X98070551Y-163872419D02*
X98175313Y-163920038D01*
X98175313Y-163920038D02*
X98227694Y-163967657D01*
X98227694Y-163967657D02*
X98280075Y-164062895D01*
X98280075Y-164062895D02*
X98280075Y-164158133D01*
X98280075Y-164158133D02*
X98227694Y-164300990D01*
X98227694Y-164300990D02*
X97599122Y-164872419D01*
X97599122Y-164872419D02*
X98280075Y-164872419D01*
X75903884Y-168920038D02*
X75799122Y-168872419D01*
X75799122Y-168872419D02*
X75641979Y-168872419D01*
X75641979Y-168872419D02*
X75484836Y-168920038D01*
X75484836Y-168920038D02*
X75380074Y-169015276D01*
X75380074Y-169015276D02*
X75327693Y-169110514D01*
X75327693Y-169110514D02*
X75275312Y-169300990D01*
X75275312Y-169300990D02*
X75275312Y-169443847D01*
X75275312Y-169443847D02*
X75327693Y-169634323D01*
X75327693Y-169634323D02*
X75380074Y-169729561D01*
X75380074Y-169729561D02*
X75484836Y-169824800D01*
X75484836Y-169824800D02*
X75641979Y-169872419D01*
X75641979Y-169872419D02*
X75746741Y-169872419D01*
X75746741Y-169872419D02*
X75903884Y-169824800D01*
X75903884Y-169824800D02*
X75956265Y-169777180D01*
X75956265Y-169777180D02*
X75956265Y-169443847D01*
X75956265Y-169443847D02*
X75746741Y-169443847D01*
X76427693Y-169872419D02*
X76427693Y-168872419D01*
X76427693Y-168872419D02*
X77056265Y-169872419D01*
X77056265Y-169872419D02*
X77056265Y-168872419D01*
X77580074Y-169872419D02*
X77580074Y-168872419D01*
X77580074Y-168872419D02*
X77841979Y-168872419D01*
X77841979Y-168872419D02*
X77999122Y-168920038D01*
X77999122Y-168920038D02*
X78103884Y-169015276D01*
X78103884Y-169015276D02*
X78156265Y-169110514D01*
X78156265Y-169110514D02*
X78208646Y-169300990D01*
X78208646Y-169300990D02*
X78208646Y-169443847D01*
X78208646Y-169443847D02*
X78156265Y-169634323D01*
X78156265Y-169634323D02*
X78103884Y-169729561D01*
X78103884Y-169729561D02*
X77999122Y-169824800D01*
X77999122Y-169824800D02*
X77841979Y-169872419D01*
X77841979Y-169872419D02*
X77580074Y-169872419D01*
X75670550Y-171372419D02*
X76037217Y-172372419D01*
X76037217Y-172372419D02*
X76403884Y-171372419D01*
X76770550Y-172372419D02*
X76770550Y-171372419D01*
X77294360Y-172372419D02*
X77294360Y-171372419D01*
X77294360Y-171372419D02*
X77922932Y-172372419D01*
X77922932Y-172372419D02*
X77922932Y-171372419D01*
X75903884Y-143920038D02*
X75799122Y-143872419D01*
X75799122Y-143872419D02*
X75641979Y-143872419D01*
X75641979Y-143872419D02*
X75484836Y-143920038D01*
X75484836Y-143920038D02*
X75380074Y-144015276D01*
X75380074Y-144015276D02*
X75327693Y-144110514D01*
X75327693Y-144110514D02*
X75275312Y-144300990D01*
X75275312Y-144300990D02*
X75275312Y-144443847D01*
X75275312Y-144443847D02*
X75327693Y-144634323D01*
X75327693Y-144634323D02*
X75380074Y-144729561D01*
X75380074Y-144729561D02*
X75484836Y-144824800D01*
X75484836Y-144824800D02*
X75641979Y-144872419D01*
X75641979Y-144872419D02*
X75746741Y-144872419D01*
X75746741Y-144872419D02*
X75903884Y-144824800D01*
X75903884Y-144824800D02*
X75956265Y-144777180D01*
X75956265Y-144777180D02*
X75956265Y-144443847D01*
X75956265Y-144443847D02*
X75746741Y-144443847D01*
X76427693Y-144872419D02*
X76427693Y-143872419D01*
X76427693Y-143872419D02*
X76846741Y-143872419D01*
X76846741Y-143872419D02*
X76951503Y-143920038D01*
X76951503Y-143920038D02*
X77003884Y-143967657D01*
X77003884Y-143967657D02*
X77056265Y-144062895D01*
X77056265Y-144062895D02*
X77056265Y-144205752D01*
X77056265Y-144205752D02*
X77003884Y-144300990D01*
X77003884Y-144300990D02*
X76951503Y-144348609D01*
X76951503Y-144348609D02*
X76846741Y-144396228D01*
X76846741Y-144396228D02*
X76427693Y-144396228D01*
X77527693Y-144872419D02*
X77527693Y-143872419D01*
X78261027Y-143872419D02*
X78470551Y-143872419D01*
X78470551Y-143872419D02*
X78575313Y-143920038D01*
X78575313Y-143920038D02*
X78680075Y-144015276D01*
X78680075Y-144015276D02*
X78732456Y-144205752D01*
X78732456Y-144205752D02*
X78732456Y-144539085D01*
X78732456Y-144539085D02*
X78680075Y-144729561D01*
X78680075Y-144729561D02*
X78575313Y-144824800D01*
X78575313Y-144824800D02*
X78470551Y-144872419D01*
X78470551Y-144872419D02*
X78261027Y-144872419D01*
X78261027Y-144872419D02*
X78156265Y-144824800D01*
X78156265Y-144824800D02*
X78051503Y-144729561D01*
X78051503Y-144729561D02*
X77999122Y-144539085D01*
X77999122Y-144539085D02*
X77999122Y-144205752D01*
X77999122Y-144205752D02*
X78051503Y-144015276D01*
X78051503Y-144015276D02*
X78156265Y-143920038D01*
X78156265Y-143920038D02*
X78261027Y-143872419D01*
X79099122Y-143872419D02*
X79780075Y-143872419D01*
X79780075Y-143872419D02*
X79413408Y-144253371D01*
X79413408Y-144253371D02*
X79570551Y-144253371D01*
X79570551Y-144253371D02*
X79675313Y-144300990D01*
X79675313Y-144300990D02*
X79727694Y-144348609D01*
X79727694Y-144348609D02*
X79780075Y-144443847D01*
X79780075Y-144443847D02*
X79780075Y-144681942D01*
X79780075Y-144681942D02*
X79727694Y-144777180D01*
X79727694Y-144777180D02*
X79675313Y-144824800D01*
X79675313Y-144824800D02*
X79570551Y-144872419D01*
X79570551Y-144872419D02*
X79256265Y-144872419D01*
X79256265Y-144872419D02*
X79151503Y-144824800D01*
X79151503Y-144824800D02*
X79099122Y-144777180D01*
X80722932Y-144205752D02*
X80722932Y-144872419D01*
X80461027Y-143824800D02*
X80199122Y-144539085D01*
X80199122Y-144539085D02*
X80880075Y-144539085D01*
X95222931Y-171372419D02*
X95903884Y-171372419D01*
X95903884Y-171372419D02*
X95537217Y-171753371D01*
X95537217Y-171753371D02*
X95694360Y-171753371D01*
X95694360Y-171753371D02*
X95799122Y-171800990D01*
X95799122Y-171800990D02*
X95851503Y-171848609D01*
X95851503Y-171848609D02*
X95903884Y-171943847D01*
X95903884Y-171943847D02*
X95903884Y-172181942D01*
X95903884Y-172181942D02*
X95851503Y-172277180D01*
X95851503Y-172277180D02*
X95799122Y-172324800D01*
X95799122Y-172324800D02*
X95694360Y-172372419D01*
X95694360Y-172372419D02*
X95380074Y-172372419D01*
X95380074Y-172372419D02*
X95275312Y-172324800D01*
X95275312Y-172324800D02*
X95222931Y-172277180D01*
X96375312Y-172277180D02*
X96427693Y-172324800D01*
X96427693Y-172324800D02*
X96375312Y-172372419D01*
X96375312Y-172372419D02*
X96322931Y-172324800D01*
X96322931Y-172324800D02*
X96375312Y-172277180D01*
X96375312Y-172277180D02*
X96375312Y-172372419D01*
X96794360Y-171372419D02*
X97475313Y-171372419D01*
X97475313Y-171372419D02*
X97108646Y-171753371D01*
X97108646Y-171753371D02*
X97265789Y-171753371D01*
X97265789Y-171753371D02*
X97370551Y-171800990D01*
X97370551Y-171800990D02*
X97422932Y-171848609D01*
X97422932Y-171848609D02*
X97475313Y-171943847D01*
X97475313Y-171943847D02*
X97475313Y-172181942D01*
X97475313Y-172181942D02*
X97422932Y-172277180D01*
X97422932Y-172277180D02*
X97370551Y-172324800D01*
X97370551Y-172324800D02*
X97265789Y-172372419D01*
X97265789Y-172372419D02*
X96951503Y-172372419D01*
X96951503Y-172372419D02*
X96846741Y-172324800D01*
X96846741Y-172324800D02*
X96794360Y-172277180D01*
X97841979Y-171705752D02*
X98103884Y-172372419D01*
X98103884Y-172372419D02*
X98365789Y-171705752D01*
X94403884Y-143920038D02*
X94299122Y-143872419D01*
X94299122Y-143872419D02*
X94141979Y-143872419D01*
X94141979Y-143872419D02*
X93984836Y-143920038D01*
X93984836Y-143920038D02*
X93880074Y-144015276D01*
X93880074Y-144015276D02*
X93827693Y-144110514D01*
X93827693Y-144110514D02*
X93775312Y-144300990D01*
X93775312Y-144300990D02*
X93775312Y-144443847D01*
X93775312Y-144443847D02*
X93827693Y-144634323D01*
X93827693Y-144634323D02*
X93880074Y-144729561D01*
X93880074Y-144729561D02*
X93984836Y-144824800D01*
X93984836Y-144824800D02*
X94141979Y-144872419D01*
X94141979Y-144872419D02*
X94246741Y-144872419D01*
X94246741Y-144872419D02*
X94403884Y-144824800D01*
X94403884Y-144824800D02*
X94456265Y-144777180D01*
X94456265Y-144777180D02*
X94456265Y-144443847D01*
X94456265Y-144443847D02*
X94246741Y-144443847D01*
X94927693Y-144872419D02*
X94927693Y-143872419D01*
X94927693Y-143872419D02*
X95346741Y-143872419D01*
X95346741Y-143872419D02*
X95451503Y-143920038D01*
X95451503Y-143920038D02*
X95503884Y-143967657D01*
X95503884Y-143967657D02*
X95556265Y-144062895D01*
X95556265Y-144062895D02*
X95556265Y-144205752D01*
X95556265Y-144205752D02*
X95503884Y-144300990D01*
X95503884Y-144300990D02*
X95451503Y-144348609D01*
X95451503Y-144348609D02*
X95346741Y-144396228D01*
X95346741Y-144396228D02*
X94927693Y-144396228D01*
X96027693Y-144872419D02*
X96027693Y-143872419D01*
X96761027Y-143872419D02*
X96970551Y-143872419D01*
X96970551Y-143872419D02*
X97075313Y-143920038D01*
X97075313Y-143920038D02*
X97180075Y-144015276D01*
X97180075Y-144015276D02*
X97232456Y-144205752D01*
X97232456Y-144205752D02*
X97232456Y-144539085D01*
X97232456Y-144539085D02*
X97180075Y-144729561D01*
X97180075Y-144729561D02*
X97075313Y-144824800D01*
X97075313Y-144824800D02*
X96970551Y-144872419D01*
X96970551Y-144872419D02*
X96761027Y-144872419D01*
X96761027Y-144872419D02*
X96656265Y-144824800D01*
X96656265Y-144824800D02*
X96551503Y-144729561D01*
X96551503Y-144729561D02*
X96499122Y-144539085D01*
X96499122Y-144539085D02*
X96499122Y-144205752D01*
X96499122Y-144205752D02*
X96551503Y-144015276D01*
X96551503Y-144015276D02*
X96656265Y-143920038D01*
X96656265Y-143920038D02*
X96761027Y-143872419D01*
X97599122Y-143872419D02*
X98280075Y-143872419D01*
X98280075Y-143872419D02*
X97913408Y-144253371D01*
X97913408Y-144253371D02*
X98070551Y-144253371D01*
X98070551Y-144253371D02*
X98175313Y-144300990D01*
X98175313Y-144300990D02*
X98227694Y-144348609D01*
X98227694Y-144348609D02*
X98280075Y-144443847D01*
X98280075Y-144443847D02*
X98280075Y-144681942D01*
X98280075Y-144681942D02*
X98227694Y-144777180D01*
X98227694Y-144777180D02*
X98175313Y-144824800D01*
X98175313Y-144824800D02*
X98070551Y-144872419D01*
X98070551Y-144872419D02*
X97756265Y-144872419D01*
X97756265Y-144872419D02*
X97651503Y-144824800D01*
X97651503Y-144824800D02*
X97599122Y-144777180D01*
X75903884Y-151420038D02*
X75799122Y-151372419D01*
X75799122Y-151372419D02*
X75641979Y-151372419D01*
X75641979Y-151372419D02*
X75484836Y-151420038D01*
X75484836Y-151420038D02*
X75380074Y-151515276D01*
X75380074Y-151515276D02*
X75327693Y-151610514D01*
X75327693Y-151610514D02*
X75275312Y-151800990D01*
X75275312Y-151800990D02*
X75275312Y-151943847D01*
X75275312Y-151943847D02*
X75327693Y-152134323D01*
X75327693Y-152134323D02*
X75380074Y-152229561D01*
X75380074Y-152229561D02*
X75484836Y-152324800D01*
X75484836Y-152324800D02*
X75641979Y-152372419D01*
X75641979Y-152372419D02*
X75746741Y-152372419D01*
X75746741Y-152372419D02*
X75903884Y-152324800D01*
X75903884Y-152324800D02*
X75956265Y-152277180D01*
X75956265Y-152277180D02*
X75956265Y-151943847D01*
X75956265Y-151943847D02*
X75746741Y-151943847D01*
X76427693Y-152372419D02*
X76427693Y-151372419D01*
X76427693Y-151372419D02*
X76846741Y-151372419D01*
X76846741Y-151372419D02*
X76951503Y-151420038D01*
X76951503Y-151420038D02*
X77003884Y-151467657D01*
X77003884Y-151467657D02*
X77056265Y-151562895D01*
X77056265Y-151562895D02*
X77056265Y-151705752D01*
X77056265Y-151705752D02*
X77003884Y-151800990D01*
X77003884Y-151800990D02*
X76951503Y-151848609D01*
X76951503Y-151848609D02*
X76846741Y-151896228D01*
X76846741Y-151896228D02*
X76427693Y-151896228D01*
X77527693Y-152372419D02*
X77527693Y-151372419D01*
X78261027Y-151372419D02*
X78470551Y-151372419D01*
X78470551Y-151372419D02*
X78575313Y-151420038D01*
X78575313Y-151420038D02*
X78680075Y-151515276D01*
X78680075Y-151515276D02*
X78732456Y-151705752D01*
X78732456Y-151705752D02*
X78732456Y-152039085D01*
X78732456Y-152039085D02*
X78680075Y-152229561D01*
X78680075Y-152229561D02*
X78575313Y-152324800D01*
X78575313Y-152324800D02*
X78470551Y-152372419D01*
X78470551Y-152372419D02*
X78261027Y-152372419D01*
X78261027Y-152372419D02*
X78156265Y-152324800D01*
X78156265Y-152324800D02*
X78051503Y-152229561D01*
X78051503Y-152229561D02*
X77999122Y-152039085D01*
X77999122Y-152039085D02*
X77999122Y-151705752D01*
X77999122Y-151705752D02*
X78051503Y-151515276D01*
X78051503Y-151515276D02*
X78156265Y-151420038D01*
X78156265Y-151420038D02*
X78261027Y-151372419D01*
X79099122Y-151372419D02*
X79780075Y-151372419D01*
X79780075Y-151372419D02*
X79413408Y-151753371D01*
X79413408Y-151753371D02*
X79570551Y-151753371D01*
X79570551Y-151753371D02*
X79675313Y-151800990D01*
X79675313Y-151800990D02*
X79727694Y-151848609D01*
X79727694Y-151848609D02*
X79780075Y-151943847D01*
X79780075Y-151943847D02*
X79780075Y-152181942D01*
X79780075Y-152181942D02*
X79727694Y-152277180D01*
X79727694Y-152277180D02*
X79675313Y-152324800D01*
X79675313Y-152324800D02*
X79570551Y-152372419D01*
X79570551Y-152372419D02*
X79256265Y-152372419D01*
X79256265Y-152372419D02*
X79151503Y-152324800D01*
X79151503Y-152324800D02*
X79099122Y-152277180D01*
X80146741Y-151372419D02*
X80827694Y-151372419D01*
X80827694Y-151372419D02*
X80461027Y-151753371D01*
X80461027Y-151753371D02*
X80618170Y-151753371D01*
X80618170Y-151753371D02*
X80722932Y-151800990D01*
X80722932Y-151800990D02*
X80775313Y-151848609D01*
X80775313Y-151848609D02*
X80827694Y-151943847D01*
X80827694Y-151943847D02*
X80827694Y-152181942D01*
X80827694Y-152181942D02*
X80775313Y-152277180D01*
X80775313Y-152277180D02*
X80722932Y-152324800D01*
X80722932Y-152324800D02*
X80618170Y-152372419D01*
X80618170Y-152372419D02*
X80303884Y-152372419D01*
X80303884Y-152372419D02*
X80199122Y-152324800D01*
X80199122Y-152324800D02*
X80146741Y-152277180D01*
X93403884Y-156420038D02*
X93299122Y-156372419D01*
X93299122Y-156372419D02*
X93141979Y-156372419D01*
X93141979Y-156372419D02*
X92984836Y-156420038D01*
X92984836Y-156420038D02*
X92880074Y-156515276D01*
X92880074Y-156515276D02*
X92827693Y-156610514D01*
X92827693Y-156610514D02*
X92775312Y-156800990D01*
X92775312Y-156800990D02*
X92775312Y-156943847D01*
X92775312Y-156943847D02*
X92827693Y-157134323D01*
X92827693Y-157134323D02*
X92880074Y-157229561D01*
X92880074Y-157229561D02*
X92984836Y-157324800D01*
X92984836Y-157324800D02*
X93141979Y-157372419D01*
X93141979Y-157372419D02*
X93246741Y-157372419D01*
X93246741Y-157372419D02*
X93403884Y-157324800D01*
X93403884Y-157324800D02*
X93456265Y-157277180D01*
X93456265Y-157277180D02*
X93456265Y-156943847D01*
X93456265Y-156943847D02*
X93246741Y-156943847D01*
X93927693Y-157372419D02*
X93927693Y-156372419D01*
X93927693Y-156372419D02*
X94346741Y-156372419D01*
X94346741Y-156372419D02*
X94451503Y-156420038D01*
X94451503Y-156420038D02*
X94503884Y-156467657D01*
X94503884Y-156467657D02*
X94556265Y-156562895D01*
X94556265Y-156562895D02*
X94556265Y-156705752D01*
X94556265Y-156705752D02*
X94503884Y-156800990D01*
X94503884Y-156800990D02*
X94451503Y-156848609D01*
X94451503Y-156848609D02*
X94346741Y-156896228D01*
X94346741Y-156896228D02*
X93927693Y-156896228D01*
X95027693Y-157372419D02*
X95027693Y-156372419D01*
X95761027Y-156372419D02*
X95970551Y-156372419D01*
X95970551Y-156372419D02*
X96075313Y-156420038D01*
X96075313Y-156420038D02*
X96180075Y-156515276D01*
X96180075Y-156515276D02*
X96232456Y-156705752D01*
X96232456Y-156705752D02*
X96232456Y-157039085D01*
X96232456Y-157039085D02*
X96180075Y-157229561D01*
X96180075Y-157229561D02*
X96075313Y-157324800D01*
X96075313Y-157324800D02*
X95970551Y-157372419D01*
X95970551Y-157372419D02*
X95761027Y-157372419D01*
X95761027Y-157372419D02*
X95656265Y-157324800D01*
X95656265Y-157324800D02*
X95551503Y-157229561D01*
X95551503Y-157229561D02*
X95499122Y-157039085D01*
X95499122Y-157039085D02*
X95499122Y-156705752D01*
X95499122Y-156705752D02*
X95551503Y-156515276D01*
X95551503Y-156515276D02*
X95656265Y-156420038D01*
X95656265Y-156420038D02*
X95761027Y-156372419D01*
X97280075Y-157372419D02*
X96651503Y-157372419D01*
X96965789Y-157372419D02*
X96965789Y-156372419D01*
X96965789Y-156372419D02*
X96861027Y-156515276D01*
X96861027Y-156515276D02*
X96756265Y-156610514D01*
X96756265Y-156610514D02*
X96651503Y-156658133D01*
X97646741Y-156372419D02*
X98380075Y-156372419D01*
X98380075Y-156372419D02*
X97908646Y-157372419D01*
X75903884Y-163920038D02*
X75799122Y-163872419D01*
X75799122Y-163872419D02*
X75641979Y-163872419D01*
X75641979Y-163872419D02*
X75484836Y-163920038D01*
X75484836Y-163920038D02*
X75380074Y-164015276D01*
X75380074Y-164015276D02*
X75327693Y-164110514D01*
X75327693Y-164110514D02*
X75275312Y-164300990D01*
X75275312Y-164300990D02*
X75275312Y-164443847D01*
X75275312Y-164443847D02*
X75327693Y-164634323D01*
X75327693Y-164634323D02*
X75380074Y-164729561D01*
X75380074Y-164729561D02*
X75484836Y-164824800D01*
X75484836Y-164824800D02*
X75641979Y-164872419D01*
X75641979Y-164872419D02*
X75746741Y-164872419D01*
X75746741Y-164872419D02*
X75903884Y-164824800D01*
X75903884Y-164824800D02*
X75956265Y-164777180D01*
X75956265Y-164777180D02*
X75956265Y-164443847D01*
X75956265Y-164443847D02*
X75746741Y-164443847D01*
X76427693Y-164872419D02*
X76427693Y-163872419D01*
X76427693Y-163872419D02*
X76846741Y-163872419D01*
X76846741Y-163872419D02*
X76951503Y-163920038D01*
X76951503Y-163920038D02*
X77003884Y-163967657D01*
X77003884Y-163967657D02*
X77056265Y-164062895D01*
X77056265Y-164062895D02*
X77056265Y-164205752D01*
X77056265Y-164205752D02*
X77003884Y-164300990D01*
X77003884Y-164300990D02*
X76951503Y-164348609D01*
X76951503Y-164348609D02*
X76846741Y-164396228D01*
X76846741Y-164396228D02*
X76427693Y-164396228D01*
X77527693Y-164872419D02*
X77527693Y-163872419D01*
X78261027Y-163872419D02*
X78470551Y-163872419D01*
X78470551Y-163872419D02*
X78575313Y-163920038D01*
X78575313Y-163920038D02*
X78680075Y-164015276D01*
X78680075Y-164015276D02*
X78732456Y-164205752D01*
X78732456Y-164205752D02*
X78732456Y-164539085D01*
X78732456Y-164539085D02*
X78680075Y-164729561D01*
X78680075Y-164729561D02*
X78575313Y-164824800D01*
X78575313Y-164824800D02*
X78470551Y-164872419D01*
X78470551Y-164872419D02*
X78261027Y-164872419D01*
X78261027Y-164872419D02*
X78156265Y-164824800D01*
X78156265Y-164824800D02*
X78051503Y-164729561D01*
X78051503Y-164729561D02*
X77999122Y-164539085D01*
X77999122Y-164539085D02*
X77999122Y-164205752D01*
X77999122Y-164205752D02*
X78051503Y-164015276D01*
X78051503Y-164015276D02*
X78156265Y-163920038D01*
X78156265Y-163920038D02*
X78261027Y-163872419D01*
X79780075Y-164872419D02*
X79151503Y-164872419D01*
X79465789Y-164872419D02*
X79465789Y-163872419D01*
X79465789Y-163872419D02*
X79361027Y-164015276D01*
X79361027Y-164015276D02*
X79256265Y-164110514D01*
X79256265Y-164110514D02*
X79151503Y-164158133D01*
X80199122Y-163967657D02*
X80251503Y-163920038D01*
X80251503Y-163920038D02*
X80356265Y-163872419D01*
X80356265Y-163872419D02*
X80618170Y-163872419D01*
X80618170Y-163872419D02*
X80722932Y-163920038D01*
X80722932Y-163920038D02*
X80775313Y-163967657D01*
X80775313Y-163967657D02*
X80827694Y-164062895D01*
X80827694Y-164062895D02*
X80827694Y-164158133D01*
X80827694Y-164158133D02*
X80775313Y-164300990D01*
X80775313Y-164300990D02*
X80146741Y-164872419D01*
X80146741Y-164872419D02*
X80827694Y-164872419D01*
X93403884Y-135920038D02*
X93299122Y-135872419D01*
X93299122Y-135872419D02*
X93141979Y-135872419D01*
X93141979Y-135872419D02*
X92984836Y-135920038D01*
X92984836Y-135920038D02*
X92880074Y-136015276D01*
X92880074Y-136015276D02*
X92827693Y-136110514D01*
X92827693Y-136110514D02*
X92775312Y-136300990D01*
X92775312Y-136300990D02*
X92775312Y-136443847D01*
X92775312Y-136443847D02*
X92827693Y-136634323D01*
X92827693Y-136634323D02*
X92880074Y-136729561D01*
X92880074Y-136729561D02*
X92984836Y-136824800D01*
X92984836Y-136824800D02*
X93141979Y-136872419D01*
X93141979Y-136872419D02*
X93246741Y-136872419D01*
X93246741Y-136872419D02*
X93403884Y-136824800D01*
X93403884Y-136824800D02*
X93456265Y-136777180D01*
X93456265Y-136777180D02*
X93456265Y-136443847D01*
X93456265Y-136443847D02*
X93246741Y-136443847D01*
X93927693Y-136872419D02*
X93927693Y-135872419D01*
X93927693Y-135872419D02*
X94346741Y-135872419D01*
X94346741Y-135872419D02*
X94451503Y-135920038D01*
X94451503Y-135920038D02*
X94503884Y-135967657D01*
X94503884Y-135967657D02*
X94556265Y-136062895D01*
X94556265Y-136062895D02*
X94556265Y-136205752D01*
X94556265Y-136205752D02*
X94503884Y-136300990D01*
X94503884Y-136300990D02*
X94451503Y-136348609D01*
X94451503Y-136348609D02*
X94346741Y-136396228D01*
X94346741Y-136396228D02*
X93927693Y-136396228D01*
X95027693Y-136872419D02*
X95027693Y-135872419D01*
X95761027Y-135872419D02*
X95970551Y-135872419D01*
X95970551Y-135872419D02*
X96075313Y-135920038D01*
X96075313Y-135920038D02*
X96180075Y-136015276D01*
X96180075Y-136015276D02*
X96232456Y-136205752D01*
X96232456Y-136205752D02*
X96232456Y-136539085D01*
X96232456Y-136539085D02*
X96180075Y-136729561D01*
X96180075Y-136729561D02*
X96075313Y-136824800D01*
X96075313Y-136824800D02*
X95970551Y-136872419D01*
X95970551Y-136872419D02*
X95761027Y-136872419D01*
X95761027Y-136872419D02*
X95656265Y-136824800D01*
X95656265Y-136824800D02*
X95551503Y-136729561D01*
X95551503Y-136729561D02*
X95499122Y-136539085D01*
X95499122Y-136539085D02*
X95499122Y-136205752D01*
X95499122Y-136205752D02*
X95551503Y-136015276D01*
X95551503Y-136015276D02*
X95656265Y-135920038D01*
X95656265Y-135920038D02*
X95761027Y-135872419D01*
X96651503Y-135967657D02*
X96703884Y-135920038D01*
X96703884Y-135920038D02*
X96808646Y-135872419D01*
X96808646Y-135872419D02*
X97070551Y-135872419D01*
X97070551Y-135872419D02*
X97175313Y-135920038D01*
X97175313Y-135920038D02*
X97227694Y-135967657D01*
X97227694Y-135967657D02*
X97280075Y-136062895D01*
X97280075Y-136062895D02*
X97280075Y-136158133D01*
X97280075Y-136158133D02*
X97227694Y-136300990D01*
X97227694Y-136300990D02*
X96599122Y-136872419D01*
X96599122Y-136872419D02*
X97280075Y-136872419D01*
X97646741Y-135872419D02*
X98327694Y-135872419D01*
X98327694Y-135872419D02*
X97961027Y-136253371D01*
X97961027Y-136253371D02*
X98118170Y-136253371D01*
X98118170Y-136253371D02*
X98222932Y-136300990D01*
X98222932Y-136300990D02*
X98275313Y-136348609D01*
X98275313Y-136348609D02*
X98327694Y-136443847D01*
X98327694Y-136443847D02*
X98327694Y-136681942D01*
X98327694Y-136681942D02*
X98275313Y-136777180D01*
X98275313Y-136777180D02*
X98222932Y-136824800D01*
X98222932Y-136824800D02*
X98118170Y-136872419D01*
X98118170Y-136872419D02*
X97803884Y-136872419D01*
X97803884Y-136872419D02*
X97699122Y-136824800D01*
X97699122Y-136824800D02*
X97646741Y-136777180D01*
X75903884Y-166420038D02*
X75799122Y-166372419D01*
X75799122Y-166372419D02*
X75641979Y-166372419D01*
X75641979Y-166372419D02*
X75484836Y-166420038D01*
X75484836Y-166420038D02*
X75380074Y-166515276D01*
X75380074Y-166515276D02*
X75327693Y-166610514D01*
X75327693Y-166610514D02*
X75275312Y-166800990D01*
X75275312Y-166800990D02*
X75275312Y-166943847D01*
X75275312Y-166943847D02*
X75327693Y-167134323D01*
X75327693Y-167134323D02*
X75380074Y-167229561D01*
X75380074Y-167229561D02*
X75484836Y-167324800D01*
X75484836Y-167324800D02*
X75641979Y-167372419D01*
X75641979Y-167372419D02*
X75746741Y-167372419D01*
X75746741Y-167372419D02*
X75903884Y-167324800D01*
X75903884Y-167324800D02*
X75956265Y-167277180D01*
X75956265Y-167277180D02*
X75956265Y-166943847D01*
X75956265Y-166943847D02*
X75746741Y-166943847D01*
X76427693Y-167372419D02*
X76427693Y-166372419D01*
X76427693Y-166372419D02*
X76846741Y-166372419D01*
X76846741Y-166372419D02*
X76951503Y-166420038D01*
X76951503Y-166420038D02*
X77003884Y-166467657D01*
X77003884Y-166467657D02*
X77056265Y-166562895D01*
X77056265Y-166562895D02*
X77056265Y-166705752D01*
X77056265Y-166705752D02*
X77003884Y-166800990D01*
X77003884Y-166800990D02*
X76951503Y-166848609D01*
X76951503Y-166848609D02*
X76846741Y-166896228D01*
X76846741Y-166896228D02*
X76427693Y-166896228D01*
X77527693Y-167372419D02*
X77527693Y-166372419D01*
X78261027Y-166372419D02*
X78470551Y-166372419D01*
X78470551Y-166372419D02*
X78575313Y-166420038D01*
X78575313Y-166420038D02*
X78680075Y-166515276D01*
X78680075Y-166515276D02*
X78732456Y-166705752D01*
X78732456Y-166705752D02*
X78732456Y-167039085D01*
X78732456Y-167039085D02*
X78680075Y-167229561D01*
X78680075Y-167229561D02*
X78575313Y-167324800D01*
X78575313Y-167324800D02*
X78470551Y-167372419D01*
X78470551Y-167372419D02*
X78261027Y-167372419D01*
X78261027Y-167372419D02*
X78156265Y-167324800D01*
X78156265Y-167324800D02*
X78051503Y-167229561D01*
X78051503Y-167229561D02*
X77999122Y-167039085D01*
X77999122Y-167039085D02*
X77999122Y-166705752D01*
X77999122Y-166705752D02*
X78051503Y-166515276D01*
X78051503Y-166515276D02*
X78156265Y-166420038D01*
X78156265Y-166420038D02*
X78261027Y-166372419D01*
X79780075Y-167372419D02*
X79151503Y-167372419D01*
X79465789Y-167372419D02*
X79465789Y-166372419D01*
X79465789Y-166372419D02*
X79361027Y-166515276D01*
X79361027Y-166515276D02*
X79256265Y-166610514D01*
X79256265Y-166610514D02*
X79151503Y-166658133D01*
X80146741Y-166372419D02*
X80827694Y-166372419D01*
X80827694Y-166372419D02*
X80461027Y-166753371D01*
X80461027Y-166753371D02*
X80618170Y-166753371D01*
X80618170Y-166753371D02*
X80722932Y-166800990D01*
X80722932Y-166800990D02*
X80775313Y-166848609D01*
X80775313Y-166848609D02*
X80827694Y-166943847D01*
X80827694Y-166943847D02*
X80827694Y-167181942D01*
X80827694Y-167181942D02*
X80775313Y-167277180D01*
X80775313Y-167277180D02*
X80722932Y-167324800D01*
X80722932Y-167324800D02*
X80618170Y-167372419D01*
X80618170Y-167372419D02*
X80303884Y-167372419D01*
X80303884Y-167372419D02*
X80199122Y-167324800D01*
X80199122Y-167324800D02*
X80146741Y-167277180D01*
X75903884Y-153920038D02*
X75799122Y-153872419D01*
X75799122Y-153872419D02*
X75641979Y-153872419D01*
X75641979Y-153872419D02*
X75484836Y-153920038D01*
X75484836Y-153920038D02*
X75380074Y-154015276D01*
X75380074Y-154015276D02*
X75327693Y-154110514D01*
X75327693Y-154110514D02*
X75275312Y-154300990D01*
X75275312Y-154300990D02*
X75275312Y-154443847D01*
X75275312Y-154443847D02*
X75327693Y-154634323D01*
X75327693Y-154634323D02*
X75380074Y-154729561D01*
X75380074Y-154729561D02*
X75484836Y-154824800D01*
X75484836Y-154824800D02*
X75641979Y-154872419D01*
X75641979Y-154872419D02*
X75746741Y-154872419D01*
X75746741Y-154872419D02*
X75903884Y-154824800D01*
X75903884Y-154824800D02*
X75956265Y-154777180D01*
X75956265Y-154777180D02*
X75956265Y-154443847D01*
X75956265Y-154443847D02*
X75746741Y-154443847D01*
X76427693Y-154872419D02*
X76427693Y-153872419D01*
X76427693Y-153872419D02*
X76846741Y-153872419D01*
X76846741Y-153872419D02*
X76951503Y-153920038D01*
X76951503Y-153920038D02*
X77003884Y-153967657D01*
X77003884Y-153967657D02*
X77056265Y-154062895D01*
X77056265Y-154062895D02*
X77056265Y-154205752D01*
X77056265Y-154205752D02*
X77003884Y-154300990D01*
X77003884Y-154300990D02*
X76951503Y-154348609D01*
X76951503Y-154348609D02*
X76846741Y-154396228D01*
X76846741Y-154396228D02*
X76427693Y-154396228D01*
X77527693Y-154872419D02*
X77527693Y-153872419D01*
X78261027Y-153872419D02*
X78470551Y-153872419D01*
X78470551Y-153872419D02*
X78575313Y-153920038D01*
X78575313Y-153920038D02*
X78680075Y-154015276D01*
X78680075Y-154015276D02*
X78732456Y-154205752D01*
X78732456Y-154205752D02*
X78732456Y-154539085D01*
X78732456Y-154539085D02*
X78680075Y-154729561D01*
X78680075Y-154729561D02*
X78575313Y-154824800D01*
X78575313Y-154824800D02*
X78470551Y-154872419D01*
X78470551Y-154872419D02*
X78261027Y-154872419D01*
X78261027Y-154872419D02*
X78156265Y-154824800D01*
X78156265Y-154824800D02*
X78051503Y-154729561D01*
X78051503Y-154729561D02*
X77999122Y-154539085D01*
X77999122Y-154539085D02*
X77999122Y-154205752D01*
X77999122Y-154205752D02*
X78051503Y-154015276D01*
X78051503Y-154015276D02*
X78156265Y-153920038D01*
X78156265Y-153920038D02*
X78261027Y-153872419D01*
X79151503Y-153967657D02*
X79203884Y-153920038D01*
X79203884Y-153920038D02*
X79308646Y-153872419D01*
X79308646Y-153872419D02*
X79570551Y-153872419D01*
X79570551Y-153872419D02*
X79675313Y-153920038D01*
X79675313Y-153920038D02*
X79727694Y-153967657D01*
X79727694Y-153967657D02*
X79780075Y-154062895D01*
X79780075Y-154062895D02*
X79780075Y-154158133D01*
X79780075Y-154158133D02*
X79727694Y-154300990D01*
X79727694Y-154300990D02*
X79099122Y-154872419D01*
X79099122Y-154872419D02*
X79780075Y-154872419D01*
X80775313Y-153872419D02*
X80251503Y-153872419D01*
X80251503Y-153872419D02*
X80199122Y-154348609D01*
X80199122Y-154348609D02*
X80251503Y-154300990D01*
X80251503Y-154300990D02*
X80356265Y-154253371D01*
X80356265Y-154253371D02*
X80618170Y-154253371D01*
X80618170Y-154253371D02*
X80722932Y-154300990D01*
X80722932Y-154300990D02*
X80775313Y-154348609D01*
X80775313Y-154348609D02*
X80827694Y-154443847D01*
X80827694Y-154443847D02*
X80827694Y-154681942D01*
X80827694Y-154681942D02*
X80775313Y-154777180D01*
X80775313Y-154777180D02*
X80722932Y-154824800D01*
X80722932Y-154824800D02*
X80618170Y-154872419D01*
X80618170Y-154872419D02*
X80356265Y-154872419D01*
X80356265Y-154872419D02*
X80251503Y-154824800D01*
X80251503Y-154824800D02*
X80199122Y-154777180D01*
X93403884Y-148920038D02*
X93299122Y-148872419D01*
X93299122Y-148872419D02*
X93141979Y-148872419D01*
X93141979Y-148872419D02*
X92984836Y-148920038D01*
X92984836Y-148920038D02*
X92880074Y-149015276D01*
X92880074Y-149015276D02*
X92827693Y-149110514D01*
X92827693Y-149110514D02*
X92775312Y-149300990D01*
X92775312Y-149300990D02*
X92775312Y-149443847D01*
X92775312Y-149443847D02*
X92827693Y-149634323D01*
X92827693Y-149634323D02*
X92880074Y-149729561D01*
X92880074Y-149729561D02*
X92984836Y-149824800D01*
X92984836Y-149824800D02*
X93141979Y-149872419D01*
X93141979Y-149872419D02*
X93246741Y-149872419D01*
X93246741Y-149872419D02*
X93403884Y-149824800D01*
X93403884Y-149824800D02*
X93456265Y-149777180D01*
X93456265Y-149777180D02*
X93456265Y-149443847D01*
X93456265Y-149443847D02*
X93246741Y-149443847D01*
X93927693Y-149872419D02*
X93927693Y-148872419D01*
X93927693Y-148872419D02*
X94346741Y-148872419D01*
X94346741Y-148872419D02*
X94451503Y-148920038D01*
X94451503Y-148920038D02*
X94503884Y-148967657D01*
X94503884Y-148967657D02*
X94556265Y-149062895D01*
X94556265Y-149062895D02*
X94556265Y-149205752D01*
X94556265Y-149205752D02*
X94503884Y-149300990D01*
X94503884Y-149300990D02*
X94451503Y-149348609D01*
X94451503Y-149348609D02*
X94346741Y-149396228D01*
X94346741Y-149396228D02*
X93927693Y-149396228D01*
X95027693Y-149872419D02*
X95027693Y-148872419D01*
X95761027Y-148872419D02*
X95970551Y-148872419D01*
X95970551Y-148872419D02*
X96075313Y-148920038D01*
X96075313Y-148920038D02*
X96180075Y-149015276D01*
X96180075Y-149015276D02*
X96232456Y-149205752D01*
X96232456Y-149205752D02*
X96232456Y-149539085D01*
X96232456Y-149539085D02*
X96180075Y-149729561D01*
X96180075Y-149729561D02*
X96075313Y-149824800D01*
X96075313Y-149824800D02*
X95970551Y-149872419D01*
X95970551Y-149872419D02*
X95761027Y-149872419D01*
X95761027Y-149872419D02*
X95656265Y-149824800D01*
X95656265Y-149824800D02*
X95551503Y-149729561D01*
X95551503Y-149729561D02*
X95499122Y-149539085D01*
X95499122Y-149539085D02*
X95499122Y-149205752D01*
X95499122Y-149205752D02*
X95551503Y-149015276D01*
X95551503Y-149015276D02*
X95656265Y-148920038D01*
X95656265Y-148920038D02*
X95761027Y-148872419D01*
X97280075Y-149872419D02*
X96651503Y-149872419D01*
X96965789Y-149872419D02*
X96965789Y-148872419D01*
X96965789Y-148872419D02*
X96861027Y-149015276D01*
X96861027Y-149015276D02*
X96756265Y-149110514D01*
X96756265Y-149110514D02*
X96651503Y-149158133D01*
X97803884Y-149872419D02*
X98013408Y-149872419D01*
X98013408Y-149872419D02*
X98118170Y-149824800D01*
X98118170Y-149824800D02*
X98170551Y-149777180D01*
X98170551Y-149777180D02*
X98275313Y-149634323D01*
X98275313Y-149634323D02*
X98327694Y-149443847D01*
X98327694Y-149443847D02*
X98327694Y-149062895D01*
X98327694Y-149062895D02*
X98275313Y-148967657D01*
X98275313Y-148967657D02*
X98222932Y-148920038D01*
X98222932Y-148920038D02*
X98118170Y-148872419D01*
X98118170Y-148872419D02*
X97908646Y-148872419D01*
X97908646Y-148872419D02*
X97803884Y-148920038D01*
X97803884Y-148920038D02*
X97751503Y-148967657D01*
X97751503Y-148967657D02*
X97699122Y-149062895D01*
X97699122Y-149062895D02*
X97699122Y-149300990D01*
X97699122Y-149300990D02*
X97751503Y-149396228D01*
X97751503Y-149396228D02*
X97803884Y-149443847D01*
X97803884Y-149443847D02*
X97908646Y-149491466D01*
X97908646Y-149491466D02*
X98118170Y-149491466D01*
X98118170Y-149491466D02*
X98222932Y-149443847D01*
X98222932Y-149443847D02*
X98275313Y-149396228D01*
X98275313Y-149396228D02*
X98327694Y-149300990D01*
X93403884Y-166420038D02*
X93299122Y-166372419D01*
X93299122Y-166372419D02*
X93141979Y-166372419D01*
X93141979Y-166372419D02*
X92984836Y-166420038D01*
X92984836Y-166420038D02*
X92880074Y-166515276D01*
X92880074Y-166515276D02*
X92827693Y-166610514D01*
X92827693Y-166610514D02*
X92775312Y-166800990D01*
X92775312Y-166800990D02*
X92775312Y-166943847D01*
X92775312Y-166943847D02*
X92827693Y-167134323D01*
X92827693Y-167134323D02*
X92880074Y-167229561D01*
X92880074Y-167229561D02*
X92984836Y-167324800D01*
X92984836Y-167324800D02*
X93141979Y-167372419D01*
X93141979Y-167372419D02*
X93246741Y-167372419D01*
X93246741Y-167372419D02*
X93403884Y-167324800D01*
X93403884Y-167324800D02*
X93456265Y-167277180D01*
X93456265Y-167277180D02*
X93456265Y-166943847D01*
X93456265Y-166943847D02*
X93246741Y-166943847D01*
X93927693Y-167372419D02*
X93927693Y-166372419D01*
X93927693Y-166372419D02*
X94346741Y-166372419D01*
X94346741Y-166372419D02*
X94451503Y-166420038D01*
X94451503Y-166420038D02*
X94503884Y-166467657D01*
X94503884Y-166467657D02*
X94556265Y-166562895D01*
X94556265Y-166562895D02*
X94556265Y-166705752D01*
X94556265Y-166705752D02*
X94503884Y-166800990D01*
X94503884Y-166800990D02*
X94451503Y-166848609D01*
X94451503Y-166848609D02*
X94346741Y-166896228D01*
X94346741Y-166896228D02*
X93927693Y-166896228D01*
X95027693Y-167372419D02*
X95027693Y-166372419D01*
X95761027Y-166372419D02*
X95970551Y-166372419D01*
X95970551Y-166372419D02*
X96075313Y-166420038D01*
X96075313Y-166420038D02*
X96180075Y-166515276D01*
X96180075Y-166515276D02*
X96232456Y-166705752D01*
X96232456Y-166705752D02*
X96232456Y-167039085D01*
X96232456Y-167039085D02*
X96180075Y-167229561D01*
X96180075Y-167229561D02*
X96075313Y-167324800D01*
X96075313Y-167324800D02*
X95970551Y-167372419D01*
X95970551Y-167372419D02*
X95761027Y-167372419D01*
X95761027Y-167372419D02*
X95656265Y-167324800D01*
X95656265Y-167324800D02*
X95551503Y-167229561D01*
X95551503Y-167229561D02*
X95499122Y-167039085D01*
X95499122Y-167039085D02*
X95499122Y-166705752D01*
X95499122Y-166705752D02*
X95551503Y-166515276D01*
X95551503Y-166515276D02*
X95656265Y-166420038D01*
X95656265Y-166420038D02*
X95761027Y-166372419D01*
X97280075Y-167372419D02*
X96651503Y-167372419D01*
X96965789Y-167372419D02*
X96965789Y-166372419D01*
X96965789Y-166372419D02*
X96861027Y-166515276D01*
X96861027Y-166515276D02*
X96756265Y-166610514D01*
X96756265Y-166610514D02*
X96651503Y-166658133D01*
X98275313Y-166372419D02*
X97751503Y-166372419D01*
X97751503Y-166372419D02*
X97699122Y-166848609D01*
X97699122Y-166848609D02*
X97751503Y-166800990D01*
X97751503Y-166800990D02*
X97856265Y-166753371D01*
X97856265Y-166753371D02*
X98118170Y-166753371D01*
X98118170Y-166753371D02*
X98222932Y-166800990D01*
X98222932Y-166800990D02*
X98275313Y-166848609D01*
X98275313Y-166848609D02*
X98327694Y-166943847D01*
X98327694Y-166943847D02*
X98327694Y-167181942D01*
X98327694Y-167181942D02*
X98275313Y-167277180D01*
X98275313Y-167277180D02*
X98222932Y-167324800D01*
X98222932Y-167324800D02*
X98118170Y-167372419D01*
X98118170Y-167372419D02*
X97856265Y-167372419D01*
X97856265Y-167372419D02*
X97751503Y-167324800D01*
X97751503Y-167324800D02*
X97699122Y-167277180D01*
X75327693Y-136848609D02*
X75694360Y-136848609D01*
X75851503Y-137372419D02*
X75327693Y-137372419D01*
X75327693Y-137372419D02*
X75327693Y-136372419D01*
X75327693Y-136372419D02*
X75851503Y-136372419D01*
X76322931Y-137372419D02*
X76322931Y-136372419D01*
X76322931Y-136372419D02*
X76951503Y-137372419D01*
X76951503Y-137372419D02*
X76951503Y-136372419D01*
X94403884Y-153920038D02*
X94299122Y-153872419D01*
X94299122Y-153872419D02*
X94141979Y-153872419D01*
X94141979Y-153872419D02*
X93984836Y-153920038D01*
X93984836Y-153920038D02*
X93880074Y-154015276D01*
X93880074Y-154015276D02*
X93827693Y-154110514D01*
X93827693Y-154110514D02*
X93775312Y-154300990D01*
X93775312Y-154300990D02*
X93775312Y-154443847D01*
X93775312Y-154443847D02*
X93827693Y-154634323D01*
X93827693Y-154634323D02*
X93880074Y-154729561D01*
X93880074Y-154729561D02*
X93984836Y-154824800D01*
X93984836Y-154824800D02*
X94141979Y-154872419D01*
X94141979Y-154872419D02*
X94246741Y-154872419D01*
X94246741Y-154872419D02*
X94403884Y-154824800D01*
X94403884Y-154824800D02*
X94456265Y-154777180D01*
X94456265Y-154777180D02*
X94456265Y-154443847D01*
X94456265Y-154443847D02*
X94246741Y-154443847D01*
X94927693Y-154872419D02*
X94927693Y-153872419D01*
X94927693Y-153872419D02*
X95346741Y-153872419D01*
X95346741Y-153872419D02*
X95451503Y-153920038D01*
X95451503Y-153920038D02*
X95503884Y-153967657D01*
X95503884Y-153967657D02*
X95556265Y-154062895D01*
X95556265Y-154062895D02*
X95556265Y-154205752D01*
X95556265Y-154205752D02*
X95503884Y-154300990D01*
X95503884Y-154300990D02*
X95451503Y-154348609D01*
X95451503Y-154348609D02*
X95346741Y-154396228D01*
X95346741Y-154396228D02*
X94927693Y-154396228D01*
X96027693Y-154872419D02*
X96027693Y-153872419D01*
X96761027Y-153872419D02*
X96970551Y-153872419D01*
X96970551Y-153872419D02*
X97075313Y-153920038D01*
X97075313Y-153920038D02*
X97180075Y-154015276D01*
X97180075Y-154015276D02*
X97232456Y-154205752D01*
X97232456Y-154205752D02*
X97232456Y-154539085D01*
X97232456Y-154539085D02*
X97180075Y-154729561D01*
X97180075Y-154729561D02*
X97075313Y-154824800D01*
X97075313Y-154824800D02*
X96970551Y-154872419D01*
X96970551Y-154872419D02*
X96761027Y-154872419D01*
X96761027Y-154872419D02*
X96656265Y-154824800D01*
X96656265Y-154824800D02*
X96551503Y-154729561D01*
X96551503Y-154729561D02*
X96499122Y-154539085D01*
X96499122Y-154539085D02*
X96499122Y-154205752D01*
X96499122Y-154205752D02*
X96551503Y-154015276D01*
X96551503Y-154015276D02*
X96656265Y-153920038D01*
X96656265Y-153920038D02*
X96761027Y-153872419D01*
X98227694Y-153872419D02*
X97703884Y-153872419D01*
X97703884Y-153872419D02*
X97651503Y-154348609D01*
X97651503Y-154348609D02*
X97703884Y-154300990D01*
X97703884Y-154300990D02*
X97808646Y-154253371D01*
X97808646Y-154253371D02*
X98070551Y-154253371D01*
X98070551Y-154253371D02*
X98175313Y-154300990D01*
X98175313Y-154300990D02*
X98227694Y-154348609D01*
X98227694Y-154348609D02*
X98280075Y-154443847D01*
X98280075Y-154443847D02*
X98280075Y-154681942D01*
X98280075Y-154681942D02*
X98227694Y-154777180D01*
X98227694Y-154777180D02*
X98175313Y-154824800D01*
X98175313Y-154824800D02*
X98070551Y-154872419D01*
X98070551Y-154872419D02*
X97808646Y-154872419D01*
X97808646Y-154872419D02*
X97703884Y-154824800D01*
X97703884Y-154824800D02*
X97651503Y-154777180D01*
X95903884Y-168920038D02*
X95799122Y-168872419D01*
X95799122Y-168872419D02*
X95641979Y-168872419D01*
X95641979Y-168872419D02*
X95484836Y-168920038D01*
X95484836Y-168920038D02*
X95380074Y-169015276D01*
X95380074Y-169015276D02*
X95327693Y-169110514D01*
X95327693Y-169110514D02*
X95275312Y-169300990D01*
X95275312Y-169300990D02*
X95275312Y-169443847D01*
X95275312Y-169443847D02*
X95327693Y-169634323D01*
X95327693Y-169634323D02*
X95380074Y-169729561D01*
X95380074Y-169729561D02*
X95484836Y-169824800D01*
X95484836Y-169824800D02*
X95641979Y-169872419D01*
X95641979Y-169872419D02*
X95746741Y-169872419D01*
X95746741Y-169872419D02*
X95903884Y-169824800D01*
X95903884Y-169824800D02*
X95956265Y-169777180D01*
X95956265Y-169777180D02*
X95956265Y-169443847D01*
X95956265Y-169443847D02*
X95746741Y-169443847D01*
X96427693Y-169872419D02*
X96427693Y-168872419D01*
X96427693Y-168872419D02*
X97056265Y-169872419D01*
X97056265Y-169872419D02*
X97056265Y-168872419D01*
X97580074Y-169872419D02*
X97580074Y-168872419D01*
X97580074Y-168872419D02*
X97841979Y-168872419D01*
X97841979Y-168872419D02*
X97999122Y-168920038D01*
X97999122Y-168920038D02*
X98103884Y-169015276D01*
X98103884Y-169015276D02*
X98156265Y-169110514D01*
X98156265Y-169110514D02*
X98208646Y-169300990D01*
X98208646Y-169300990D02*
X98208646Y-169443847D01*
X98208646Y-169443847D02*
X98156265Y-169634323D01*
X98156265Y-169634323D02*
X98103884Y-169729561D01*
X98103884Y-169729561D02*
X97999122Y-169824800D01*
X97999122Y-169824800D02*
X97841979Y-169872419D01*
X97841979Y-169872419D02*
X97580074Y-169872419D01*
X75903884Y-146420038D02*
X75799122Y-146372419D01*
X75799122Y-146372419D02*
X75641979Y-146372419D01*
X75641979Y-146372419D02*
X75484836Y-146420038D01*
X75484836Y-146420038D02*
X75380074Y-146515276D01*
X75380074Y-146515276D02*
X75327693Y-146610514D01*
X75327693Y-146610514D02*
X75275312Y-146800990D01*
X75275312Y-146800990D02*
X75275312Y-146943847D01*
X75275312Y-146943847D02*
X75327693Y-147134323D01*
X75327693Y-147134323D02*
X75380074Y-147229561D01*
X75380074Y-147229561D02*
X75484836Y-147324800D01*
X75484836Y-147324800D02*
X75641979Y-147372419D01*
X75641979Y-147372419D02*
X75746741Y-147372419D01*
X75746741Y-147372419D02*
X75903884Y-147324800D01*
X75903884Y-147324800D02*
X75956265Y-147277180D01*
X75956265Y-147277180D02*
X75956265Y-146943847D01*
X75956265Y-146943847D02*
X75746741Y-146943847D01*
X76427693Y-147372419D02*
X76427693Y-146372419D01*
X76427693Y-146372419D02*
X76846741Y-146372419D01*
X76846741Y-146372419D02*
X76951503Y-146420038D01*
X76951503Y-146420038D02*
X77003884Y-146467657D01*
X77003884Y-146467657D02*
X77056265Y-146562895D01*
X77056265Y-146562895D02*
X77056265Y-146705752D01*
X77056265Y-146705752D02*
X77003884Y-146800990D01*
X77003884Y-146800990D02*
X76951503Y-146848609D01*
X76951503Y-146848609D02*
X76846741Y-146896228D01*
X76846741Y-146896228D02*
X76427693Y-146896228D01*
X77527693Y-147372419D02*
X77527693Y-146372419D01*
X78261027Y-146372419D02*
X78470551Y-146372419D01*
X78470551Y-146372419D02*
X78575313Y-146420038D01*
X78575313Y-146420038D02*
X78680075Y-146515276D01*
X78680075Y-146515276D02*
X78732456Y-146705752D01*
X78732456Y-146705752D02*
X78732456Y-147039085D01*
X78732456Y-147039085D02*
X78680075Y-147229561D01*
X78680075Y-147229561D02*
X78575313Y-147324800D01*
X78575313Y-147324800D02*
X78470551Y-147372419D01*
X78470551Y-147372419D02*
X78261027Y-147372419D01*
X78261027Y-147372419D02*
X78156265Y-147324800D01*
X78156265Y-147324800D02*
X78051503Y-147229561D01*
X78051503Y-147229561D02*
X77999122Y-147039085D01*
X77999122Y-147039085D02*
X77999122Y-146705752D01*
X77999122Y-146705752D02*
X78051503Y-146515276D01*
X78051503Y-146515276D02*
X78156265Y-146420038D01*
X78156265Y-146420038D02*
X78261027Y-146372419D01*
X79099122Y-146372419D02*
X79780075Y-146372419D01*
X79780075Y-146372419D02*
X79413408Y-146753371D01*
X79413408Y-146753371D02*
X79570551Y-146753371D01*
X79570551Y-146753371D02*
X79675313Y-146800990D01*
X79675313Y-146800990D02*
X79727694Y-146848609D01*
X79727694Y-146848609D02*
X79780075Y-146943847D01*
X79780075Y-146943847D02*
X79780075Y-147181942D01*
X79780075Y-147181942D02*
X79727694Y-147277180D01*
X79727694Y-147277180D02*
X79675313Y-147324800D01*
X79675313Y-147324800D02*
X79570551Y-147372419D01*
X79570551Y-147372419D02*
X79256265Y-147372419D01*
X79256265Y-147372419D02*
X79151503Y-147324800D01*
X79151503Y-147324800D02*
X79099122Y-147277180D01*
X80775313Y-146372419D02*
X80251503Y-146372419D01*
X80251503Y-146372419D02*
X80199122Y-146848609D01*
X80199122Y-146848609D02*
X80251503Y-146800990D01*
X80251503Y-146800990D02*
X80356265Y-146753371D01*
X80356265Y-146753371D02*
X80618170Y-146753371D01*
X80618170Y-146753371D02*
X80722932Y-146800990D01*
X80722932Y-146800990D02*
X80775313Y-146848609D01*
X80775313Y-146848609D02*
X80827694Y-146943847D01*
X80827694Y-146943847D02*
X80827694Y-147181942D01*
X80827694Y-147181942D02*
X80775313Y-147277180D01*
X80775313Y-147277180D02*
X80722932Y-147324800D01*
X80722932Y-147324800D02*
X80618170Y-147372419D01*
X80618170Y-147372419D02*
X80356265Y-147372419D01*
X80356265Y-147372419D02*
X80251503Y-147324800D01*
X80251503Y-147324800D02*
X80199122Y-147277180D01*
D10*
X47894819Y-138491904D02*
X48704342Y-138491904D01*
X48704342Y-138491904D02*
X48799580Y-138444285D01*
X48799580Y-138444285D02*
X48847200Y-138396666D01*
X48847200Y-138396666D02*
X48894819Y-138301428D01*
X48894819Y-138301428D02*
X48894819Y-138110952D01*
X48894819Y-138110952D02*
X48847200Y-138015714D01*
X48847200Y-138015714D02*
X48799580Y-137968095D01*
X48799580Y-137968095D02*
X48704342Y-137920476D01*
X48704342Y-137920476D02*
X47894819Y-137920476D01*
X48894819Y-136920476D02*
X48894819Y-137491904D01*
X48894819Y-137206190D02*
X47894819Y-137206190D01*
X47894819Y-137206190D02*
X48037676Y-137301428D01*
X48037676Y-137301428D02*
X48132914Y-137396666D01*
X48132914Y-137396666D02*
X48180533Y-137491904D01*
X39609580Y-161166666D02*
X39657200Y-161214285D01*
X39657200Y-161214285D02*
X39704819Y-161357142D01*
X39704819Y-161357142D02*
X39704819Y-161452380D01*
X39704819Y-161452380D02*
X39657200Y-161595237D01*
X39657200Y-161595237D02*
X39561961Y-161690475D01*
X39561961Y-161690475D02*
X39466723Y-161738094D01*
X39466723Y-161738094D02*
X39276247Y-161785713D01*
X39276247Y-161785713D02*
X39133390Y-161785713D01*
X39133390Y-161785713D02*
X38942914Y-161738094D01*
X38942914Y-161738094D02*
X38847676Y-161690475D01*
X38847676Y-161690475D02*
X38752438Y-161595237D01*
X38752438Y-161595237D02*
X38704819Y-161452380D01*
X38704819Y-161452380D02*
X38704819Y-161357142D01*
X38704819Y-161357142D02*
X38752438Y-161214285D01*
X38752438Y-161214285D02*
X38800057Y-161166666D01*
X38800057Y-160785713D02*
X38752438Y-160738094D01*
X38752438Y-160738094D02*
X38704819Y-160642856D01*
X38704819Y-160642856D02*
X38704819Y-160404761D01*
X38704819Y-160404761D02*
X38752438Y-160309523D01*
X38752438Y-160309523D02*
X38800057Y-160261904D01*
X38800057Y-160261904D02*
X38895295Y-160214285D01*
X38895295Y-160214285D02*
X38990533Y-160214285D01*
X38990533Y-160214285D02*
X39133390Y-160261904D01*
X39133390Y-160261904D02*
X39704819Y-160833332D01*
X39704819Y-160833332D02*
X39704819Y-160214285D01*
X51833333Y-97609580D02*
X51785714Y-97657200D01*
X51785714Y-97657200D02*
X51642857Y-97704819D01*
X51642857Y-97704819D02*
X51547619Y-97704819D01*
X51547619Y-97704819D02*
X51404762Y-97657200D01*
X51404762Y-97657200D02*
X51309524Y-97561961D01*
X51309524Y-97561961D02*
X51261905Y-97466723D01*
X51261905Y-97466723D02*
X51214286Y-97276247D01*
X51214286Y-97276247D02*
X51214286Y-97133390D01*
X51214286Y-97133390D02*
X51261905Y-96942914D01*
X51261905Y-96942914D02*
X51309524Y-96847676D01*
X51309524Y-96847676D02*
X51404762Y-96752438D01*
X51404762Y-96752438D02*
X51547619Y-96704819D01*
X51547619Y-96704819D02*
X51642857Y-96704819D01*
X51642857Y-96704819D02*
X51785714Y-96752438D01*
X51785714Y-96752438D02*
X51833333Y-96800057D01*
X52404762Y-97133390D02*
X52309524Y-97085771D01*
X52309524Y-97085771D02*
X52261905Y-97038152D01*
X52261905Y-97038152D02*
X52214286Y-96942914D01*
X52214286Y-96942914D02*
X52214286Y-96895295D01*
X52214286Y-96895295D02*
X52261905Y-96800057D01*
X52261905Y-96800057D02*
X52309524Y-96752438D01*
X52309524Y-96752438D02*
X52404762Y-96704819D01*
X52404762Y-96704819D02*
X52595238Y-96704819D01*
X52595238Y-96704819D02*
X52690476Y-96752438D01*
X52690476Y-96752438D02*
X52738095Y-96800057D01*
X52738095Y-96800057D02*
X52785714Y-96895295D01*
X52785714Y-96895295D02*
X52785714Y-96942914D01*
X52785714Y-96942914D02*
X52738095Y-97038152D01*
X52738095Y-97038152D02*
X52690476Y-97085771D01*
X52690476Y-97085771D02*
X52595238Y-97133390D01*
X52595238Y-97133390D02*
X52404762Y-97133390D01*
X52404762Y-97133390D02*
X52309524Y-97181009D01*
X52309524Y-97181009D02*
X52261905Y-97228628D01*
X52261905Y-97228628D02*
X52214286Y-97323866D01*
X52214286Y-97323866D02*
X52214286Y-97514342D01*
X52214286Y-97514342D02*
X52261905Y-97609580D01*
X52261905Y-97609580D02*
X52309524Y-97657200D01*
X52309524Y-97657200D02*
X52404762Y-97704819D01*
X52404762Y-97704819D02*
X52595238Y-97704819D01*
X52595238Y-97704819D02*
X52690476Y-97657200D01*
X52690476Y-97657200D02*
X52738095Y-97609580D01*
X52738095Y-97609580D02*
X52785714Y-97514342D01*
X52785714Y-97514342D02*
X52785714Y-97323866D01*
X52785714Y-97323866D02*
X52738095Y-97228628D01*
X52738095Y-97228628D02*
X52690476Y-97181009D01*
X52690476Y-97181009D02*
X52595238Y-97133390D01*
X65374819Y-115436666D02*
X64898628Y-115769999D01*
X65374819Y-116008094D02*
X64374819Y-116008094D01*
X64374819Y-116008094D02*
X64374819Y-115627142D01*
X64374819Y-115627142D02*
X64422438Y-115531904D01*
X64422438Y-115531904D02*
X64470057Y-115484285D01*
X64470057Y-115484285D02*
X64565295Y-115436666D01*
X64565295Y-115436666D02*
X64708152Y-115436666D01*
X64708152Y-115436666D02*
X64803390Y-115484285D01*
X64803390Y-115484285D02*
X64851009Y-115531904D01*
X64851009Y-115531904D02*
X64898628Y-115627142D01*
X64898628Y-115627142D02*
X64898628Y-116008094D01*
X64803390Y-114865237D02*
X64755771Y-114960475D01*
X64755771Y-114960475D02*
X64708152Y-115008094D01*
X64708152Y-115008094D02*
X64612914Y-115055713D01*
X64612914Y-115055713D02*
X64565295Y-115055713D01*
X64565295Y-115055713D02*
X64470057Y-115008094D01*
X64470057Y-115008094D02*
X64422438Y-114960475D01*
X64422438Y-114960475D02*
X64374819Y-114865237D01*
X64374819Y-114865237D02*
X64374819Y-114674761D01*
X64374819Y-114674761D02*
X64422438Y-114579523D01*
X64422438Y-114579523D02*
X64470057Y-114531904D01*
X64470057Y-114531904D02*
X64565295Y-114484285D01*
X64565295Y-114484285D02*
X64612914Y-114484285D01*
X64612914Y-114484285D02*
X64708152Y-114531904D01*
X64708152Y-114531904D02*
X64755771Y-114579523D01*
X64755771Y-114579523D02*
X64803390Y-114674761D01*
X64803390Y-114674761D02*
X64803390Y-114865237D01*
X64803390Y-114865237D02*
X64851009Y-114960475D01*
X64851009Y-114960475D02*
X64898628Y-115008094D01*
X64898628Y-115008094D02*
X64993866Y-115055713D01*
X64993866Y-115055713D02*
X65184342Y-115055713D01*
X65184342Y-115055713D02*
X65279580Y-115008094D01*
X65279580Y-115008094D02*
X65327200Y-114960475D01*
X65327200Y-114960475D02*
X65374819Y-114865237D01*
X65374819Y-114865237D02*
X65374819Y-114674761D01*
X65374819Y-114674761D02*
X65327200Y-114579523D01*
X65327200Y-114579523D02*
X65279580Y-114531904D01*
X65279580Y-114531904D02*
X65184342Y-114484285D01*
X65184342Y-114484285D02*
X64993866Y-114484285D01*
X64993866Y-114484285D02*
X64898628Y-114531904D01*
X64898628Y-114531904D02*
X64851009Y-114579523D01*
X64851009Y-114579523D02*
X64803390Y-114674761D01*
X47894819Y-161491904D02*
X48704342Y-161491904D01*
X48704342Y-161491904D02*
X48799580Y-161444285D01*
X48799580Y-161444285D02*
X48847200Y-161396666D01*
X48847200Y-161396666D02*
X48894819Y-161301428D01*
X48894819Y-161301428D02*
X48894819Y-161110952D01*
X48894819Y-161110952D02*
X48847200Y-161015714D01*
X48847200Y-161015714D02*
X48799580Y-160968095D01*
X48799580Y-160968095D02*
X48704342Y-160920476D01*
X48704342Y-160920476D02*
X47894819Y-160920476D01*
X47894819Y-160539523D02*
X47894819Y-159920476D01*
X47894819Y-159920476D02*
X48275771Y-160253809D01*
X48275771Y-160253809D02*
X48275771Y-160110952D01*
X48275771Y-160110952D02*
X48323390Y-160015714D01*
X48323390Y-160015714D02*
X48371009Y-159968095D01*
X48371009Y-159968095D02*
X48466247Y-159920476D01*
X48466247Y-159920476D02*
X48704342Y-159920476D01*
X48704342Y-159920476D02*
X48799580Y-159968095D01*
X48799580Y-159968095D02*
X48847200Y-160015714D01*
X48847200Y-160015714D02*
X48894819Y-160110952D01*
X48894819Y-160110952D02*
X48894819Y-160396666D01*
X48894819Y-160396666D02*
X48847200Y-160491904D01*
X48847200Y-160491904D02*
X48799580Y-160539523D01*
X53833333Y-142609580D02*
X53785714Y-142657200D01*
X53785714Y-142657200D02*
X53642857Y-142704819D01*
X53642857Y-142704819D02*
X53547619Y-142704819D01*
X53547619Y-142704819D02*
X53404762Y-142657200D01*
X53404762Y-142657200D02*
X53309524Y-142561961D01*
X53309524Y-142561961D02*
X53261905Y-142466723D01*
X53261905Y-142466723D02*
X53214286Y-142276247D01*
X53214286Y-142276247D02*
X53214286Y-142133390D01*
X53214286Y-142133390D02*
X53261905Y-141942914D01*
X53261905Y-141942914D02*
X53309524Y-141847676D01*
X53309524Y-141847676D02*
X53404762Y-141752438D01*
X53404762Y-141752438D02*
X53547619Y-141704819D01*
X53547619Y-141704819D02*
X53642857Y-141704819D01*
X53642857Y-141704819D02*
X53785714Y-141752438D01*
X53785714Y-141752438D02*
X53833333Y-141800057D01*
X54690476Y-142038152D02*
X54690476Y-142704819D01*
X54452381Y-141657200D02*
X54214286Y-142371485D01*
X54214286Y-142371485D02*
X54833333Y-142371485D01*
X65374819Y-102912857D02*
X64898628Y-103246190D01*
X65374819Y-103484285D02*
X64374819Y-103484285D01*
X64374819Y-103484285D02*
X64374819Y-103103333D01*
X64374819Y-103103333D02*
X64422438Y-103008095D01*
X64422438Y-103008095D02*
X64470057Y-102960476D01*
X64470057Y-102960476D02*
X64565295Y-102912857D01*
X64565295Y-102912857D02*
X64708152Y-102912857D01*
X64708152Y-102912857D02*
X64803390Y-102960476D01*
X64803390Y-102960476D02*
X64851009Y-103008095D01*
X64851009Y-103008095D02*
X64898628Y-103103333D01*
X64898628Y-103103333D02*
X64898628Y-103484285D01*
X65374819Y-101960476D02*
X65374819Y-102531904D01*
X65374819Y-102246190D02*
X64374819Y-102246190D01*
X64374819Y-102246190D02*
X64517676Y-102341428D01*
X64517676Y-102341428D02*
X64612914Y-102436666D01*
X64612914Y-102436666D02*
X64660533Y-102531904D01*
X64470057Y-101579523D02*
X64422438Y-101531904D01*
X64422438Y-101531904D02*
X64374819Y-101436666D01*
X64374819Y-101436666D02*
X64374819Y-101198571D01*
X64374819Y-101198571D02*
X64422438Y-101103333D01*
X64422438Y-101103333D02*
X64470057Y-101055714D01*
X64470057Y-101055714D02*
X64565295Y-101008095D01*
X64565295Y-101008095D02*
X64660533Y-101008095D01*
X64660533Y-101008095D02*
X64803390Y-101055714D01*
X64803390Y-101055714D02*
X65374819Y-101627142D01*
X65374819Y-101627142D02*
X65374819Y-101008095D01*
X75238095Y-94454819D02*
X75238095Y-95264342D01*
X75238095Y-95264342D02*
X75285714Y-95359580D01*
X75285714Y-95359580D02*
X75333333Y-95407200D01*
X75333333Y-95407200D02*
X75428571Y-95454819D01*
X75428571Y-95454819D02*
X75619047Y-95454819D01*
X75619047Y-95454819D02*
X75714285Y-95407200D01*
X75714285Y-95407200D02*
X75761904Y-95359580D01*
X75761904Y-95359580D02*
X75809523Y-95264342D01*
X75809523Y-95264342D02*
X75809523Y-94454819D01*
X76238095Y-94550057D02*
X76285714Y-94502438D01*
X76285714Y-94502438D02*
X76380952Y-94454819D01*
X76380952Y-94454819D02*
X76619047Y-94454819D01*
X76619047Y-94454819D02*
X76714285Y-94502438D01*
X76714285Y-94502438D02*
X76761904Y-94550057D01*
X76761904Y-94550057D02*
X76809523Y-94645295D01*
X76809523Y-94645295D02*
X76809523Y-94740533D01*
X76809523Y-94740533D02*
X76761904Y-94883390D01*
X76761904Y-94883390D02*
X76190476Y-95454819D01*
X76190476Y-95454819D02*
X76809523Y-95454819D01*
D11*
X76461027Y-99272419D02*
X76794360Y-100272419D01*
X76794360Y-100272419D02*
X77127693Y-99272419D01*
X77461027Y-100272419D02*
X77461027Y-99272419D01*
X77461027Y-99272419D02*
X77699122Y-99272419D01*
X77699122Y-99272419D02*
X77841979Y-99320038D01*
X77841979Y-99320038D02*
X77937217Y-99415276D01*
X77937217Y-99415276D02*
X77984836Y-99510514D01*
X77984836Y-99510514D02*
X78032455Y-99700990D01*
X78032455Y-99700990D02*
X78032455Y-99843847D01*
X78032455Y-99843847D02*
X77984836Y-100034323D01*
X77984836Y-100034323D02*
X77937217Y-100129561D01*
X77937217Y-100129561D02*
X77841979Y-100224800D01*
X77841979Y-100224800D02*
X77699122Y-100272419D01*
X77699122Y-100272419D02*
X77461027Y-100272419D01*
X78461027Y-100272419D02*
X78461027Y-99272419D01*
X78461027Y-99272419D02*
X78699122Y-99272419D01*
X78699122Y-99272419D02*
X78841979Y-99320038D01*
X78841979Y-99320038D02*
X78937217Y-99415276D01*
X78937217Y-99415276D02*
X78984836Y-99510514D01*
X78984836Y-99510514D02*
X79032455Y-99700990D01*
X79032455Y-99700990D02*
X79032455Y-99843847D01*
X79032455Y-99843847D02*
X78984836Y-100034323D01*
X78984836Y-100034323D02*
X78937217Y-100129561D01*
X78937217Y-100129561D02*
X78841979Y-100224800D01*
X78841979Y-100224800D02*
X78699122Y-100272419D01*
X78699122Y-100272419D02*
X78461027Y-100272419D01*
X76927693Y-102020038D02*
X76832455Y-101972419D01*
X76832455Y-101972419D02*
X76689598Y-101972419D01*
X76689598Y-101972419D02*
X76546741Y-102020038D01*
X76546741Y-102020038D02*
X76451503Y-102115276D01*
X76451503Y-102115276D02*
X76403884Y-102210514D01*
X76403884Y-102210514D02*
X76356265Y-102400990D01*
X76356265Y-102400990D02*
X76356265Y-102543847D01*
X76356265Y-102543847D02*
X76403884Y-102734323D01*
X76403884Y-102734323D02*
X76451503Y-102829561D01*
X76451503Y-102829561D02*
X76546741Y-102924800D01*
X76546741Y-102924800D02*
X76689598Y-102972419D01*
X76689598Y-102972419D02*
X76784836Y-102972419D01*
X76784836Y-102972419D02*
X76927693Y-102924800D01*
X76927693Y-102924800D02*
X76975312Y-102877180D01*
X76975312Y-102877180D02*
X76975312Y-102543847D01*
X76975312Y-102543847D02*
X76784836Y-102543847D01*
X77403884Y-102972419D02*
X77403884Y-101972419D01*
X77403884Y-101972419D02*
X77975312Y-102972419D01*
X77975312Y-102972419D02*
X77975312Y-101972419D01*
X78451503Y-102972419D02*
X78451503Y-101972419D01*
X78451503Y-101972419D02*
X78689598Y-101972419D01*
X78689598Y-101972419D02*
X78832455Y-102020038D01*
X78832455Y-102020038D02*
X78927693Y-102115276D01*
X78927693Y-102115276D02*
X78975312Y-102210514D01*
X78975312Y-102210514D02*
X79022931Y-102400990D01*
X79022931Y-102400990D02*
X79022931Y-102543847D01*
X79022931Y-102543847D02*
X78975312Y-102734323D01*
X78975312Y-102734323D02*
X78927693Y-102829561D01*
X78927693Y-102829561D02*
X78832455Y-102924800D01*
X78832455Y-102924800D02*
X78689598Y-102972419D01*
X78689598Y-102972419D02*
X78451503Y-102972419D01*
X76156265Y-122886704D02*
X76632455Y-122886704D01*
X76061027Y-123172419D02*
X76394360Y-122172419D01*
X76394360Y-122172419D02*
X76727693Y-123172419D01*
X76965789Y-122172419D02*
X77584836Y-122172419D01*
X77584836Y-122172419D02*
X77251503Y-122553371D01*
X77251503Y-122553371D02*
X77394360Y-122553371D01*
X77394360Y-122553371D02*
X77489598Y-122600990D01*
X77489598Y-122600990D02*
X77537217Y-122648609D01*
X77537217Y-122648609D02*
X77584836Y-122743847D01*
X77584836Y-122743847D02*
X77584836Y-122981942D01*
X77584836Y-122981942D02*
X77537217Y-123077180D01*
X77537217Y-123077180D02*
X77489598Y-123124800D01*
X77489598Y-123124800D02*
X77394360Y-123172419D01*
X77394360Y-123172419D02*
X77108646Y-123172419D01*
X77108646Y-123172419D02*
X77013408Y-123124800D01*
X77013408Y-123124800D02*
X76965789Y-123077180D01*
X76356265Y-107924800D02*
X76499122Y-107972419D01*
X76499122Y-107972419D02*
X76737217Y-107972419D01*
X76737217Y-107972419D02*
X76832455Y-107924800D01*
X76832455Y-107924800D02*
X76880074Y-107877180D01*
X76880074Y-107877180D02*
X76927693Y-107781942D01*
X76927693Y-107781942D02*
X76927693Y-107686704D01*
X76927693Y-107686704D02*
X76880074Y-107591466D01*
X76880074Y-107591466D02*
X76832455Y-107543847D01*
X76832455Y-107543847D02*
X76737217Y-107496228D01*
X76737217Y-107496228D02*
X76546741Y-107448609D01*
X76546741Y-107448609D02*
X76451503Y-107400990D01*
X76451503Y-107400990D02*
X76403884Y-107353371D01*
X76403884Y-107353371D02*
X76356265Y-107258133D01*
X76356265Y-107258133D02*
X76356265Y-107162895D01*
X76356265Y-107162895D02*
X76403884Y-107067657D01*
X76403884Y-107067657D02*
X76451503Y-107020038D01*
X76451503Y-107020038D02*
X76546741Y-106972419D01*
X76546741Y-106972419D02*
X76784836Y-106972419D01*
X76784836Y-106972419D02*
X76927693Y-107020038D01*
X77356265Y-107972419D02*
X77356265Y-106972419D01*
X77356265Y-106972419D02*
X77594360Y-106972419D01*
X77594360Y-106972419D02*
X77737217Y-107020038D01*
X77737217Y-107020038D02*
X77832455Y-107115276D01*
X77832455Y-107115276D02*
X77880074Y-107210514D01*
X77880074Y-107210514D02*
X77927693Y-107400990D01*
X77927693Y-107400990D02*
X77927693Y-107543847D01*
X77927693Y-107543847D02*
X77880074Y-107734323D01*
X77880074Y-107734323D02*
X77832455Y-107829561D01*
X77832455Y-107829561D02*
X77737217Y-107924800D01*
X77737217Y-107924800D02*
X77594360Y-107972419D01*
X77594360Y-107972419D02*
X77356265Y-107972419D01*
X78308646Y-107686704D02*
X78784836Y-107686704D01*
X78213408Y-107972419D02*
X78546741Y-106972419D01*
X78546741Y-106972419D02*
X78880074Y-107972419D01*
X76156265Y-120286704D02*
X76632455Y-120286704D01*
X76061027Y-120572419D02*
X76394360Y-119572419D01*
X76394360Y-119572419D02*
X76727693Y-120572419D01*
X77013408Y-119667657D02*
X77061027Y-119620038D01*
X77061027Y-119620038D02*
X77156265Y-119572419D01*
X77156265Y-119572419D02*
X77394360Y-119572419D01*
X77394360Y-119572419D02*
X77489598Y-119620038D01*
X77489598Y-119620038D02*
X77537217Y-119667657D01*
X77537217Y-119667657D02*
X77584836Y-119762895D01*
X77584836Y-119762895D02*
X77584836Y-119858133D01*
X77584836Y-119858133D02*
X77537217Y-120000990D01*
X77537217Y-120000990D02*
X76965789Y-120572419D01*
X76965789Y-120572419D02*
X77584836Y-120572419D01*
X76156265Y-115286704D02*
X76632455Y-115286704D01*
X76061027Y-115572419D02*
X76394360Y-114572419D01*
X76394360Y-114572419D02*
X76727693Y-115572419D01*
X77251503Y-114572419D02*
X77346741Y-114572419D01*
X77346741Y-114572419D02*
X77441979Y-114620038D01*
X77441979Y-114620038D02*
X77489598Y-114667657D01*
X77489598Y-114667657D02*
X77537217Y-114762895D01*
X77537217Y-114762895D02*
X77584836Y-114953371D01*
X77584836Y-114953371D02*
X77584836Y-115191466D01*
X77584836Y-115191466D02*
X77537217Y-115381942D01*
X77537217Y-115381942D02*
X77489598Y-115477180D01*
X77489598Y-115477180D02*
X77441979Y-115524800D01*
X77441979Y-115524800D02*
X77346741Y-115572419D01*
X77346741Y-115572419D02*
X77251503Y-115572419D01*
X77251503Y-115572419D02*
X77156265Y-115524800D01*
X77156265Y-115524800D02*
X77108646Y-115477180D01*
X77108646Y-115477180D02*
X77061027Y-115381942D01*
X77061027Y-115381942D02*
X77013408Y-115191466D01*
X77013408Y-115191466D02*
X77013408Y-114953371D01*
X77013408Y-114953371D02*
X77061027Y-114762895D01*
X77061027Y-114762895D02*
X77108646Y-114667657D01*
X77108646Y-114667657D02*
X77156265Y-114620038D01*
X77156265Y-114620038D02*
X77251503Y-114572419D01*
X76156265Y-117886704D02*
X76632455Y-117886704D01*
X76061027Y-118172419D02*
X76394360Y-117172419D01*
X76394360Y-117172419D02*
X76727693Y-118172419D01*
X77584836Y-118172419D02*
X77013408Y-118172419D01*
X77299122Y-118172419D02*
X77299122Y-117172419D01*
X77299122Y-117172419D02*
X77203884Y-117315276D01*
X77203884Y-117315276D02*
X77108646Y-117410514D01*
X77108646Y-117410514D02*
X77013408Y-117458133D01*
X76156265Y-110186704D02*
X76632455Y-110186704D01*
X76061027Y-110472419D02*
X76394360Y-109472419D01*
X76394360Y-109472419D02*
X76727693Y-110472419D01*
X77061027Y-110472419D02*
X77061027Y-109472419D01*
X77061027Y-109472419D02*
X77299122Y-109472419D01*
X77299122Y-109472419D02*
X77441979Y-109520038D01*
X77441979Y-109520038D02*
X77537217Y-109615276D01*
X77537217Y-109615276D02*
X77584836Y-109710514D01*
X77584836Y-109710514D02*
X77632455Y-109900990D01*
X77632455Y-109900990D02*
X77632455Y-110043847D01*
X77632455Y-110043847D02*
X77584836Y-110234323D01*
X77584836Y-110234323D02*
X77537217Y-110329561D01*
X77537217Y-110329561D02*
X77441979Y-110424800D01*
X77441979Y-110424800D02*
X77299122Y-110472419D01*
X77299122Y-110472419D02*
X77061027Y-110472419D01*
X78061027Y-110472419D02*
X78061027Y-109472419D01*
X78061027Y-109472419D02*
X78299122Y-109472419D01*
X78299122Y-109472419D02*
X78441979Y-109520038D01*
X78441979Y-109520038D02*
X78537217Y-109615276D01*
X78537217Y-109615276D02*
X78584836Y-109710514D01*
X78584836Y-109710514D02*
X78632455Y-109900990D01*
X78632455Y-109900990D02*
X78632455Y-110043847D01*
X78632455Y-110043847D02*
X78584836Y-110234323D01*
X78584836Y-110234323D02*
X78537217Y-110329561D01*
X78537217Y-110329561D02*
X78441979Y-110424800D01*
X78441979Y-110424800D02*
X78299122Y-110472419D01*
X78299122Y-110472419D02*
X78061027Y-110472419D01*
X79632455Y-110472419D02*
X79299122Y-109996228D01*
X79061027Y-110472419D02*
X79061027Y-109472419D01*
X79061027Y-109472419D02*
X79441979Y-109472419D01*
X79441979Y-109472419D02*
X79537217Y-109520038D01*
X79537217Y-109520038D02*
X79584836Y-109567657D01*
X79584836Y-109567657D02*
X79632455Y-109662895D01*
X79632455Y-109662895D02*
X79632455Y-109805752D01*
X79632455Y-109805752D02*
X79584836Y-109900990D01*
X79584836Y-109900990D02*
X79537217Y-109948609D01*
X79537217Y-109948609D02*
X79441979Y-109996228D01*
X79441979Y-109996228D02*
X79061027Y-109996228D01*
X76356265Y-105424800D02*
X76499122Y-105472419D01*
X76499122Y-105472419D02*
X76737217Y-105472419D01*
X76737217Y-105472419D02*
X76832455Y-105424800D01*
X76832455Y-105424800D02*
X76880074Y-105377180D01*
X76880074Y-105377180D02*
X76927693Y-105281942D01*
X76927693Y-105281942D02*
X76927693Y-105186704D01*
X76927693Y-105186704D02*
X76880074Y-105091466D01*
X76880074Y-105091466D02*
X76832455Y-105043847D01*
X76832455Y-105043847D02*
X76737217Y-104996228D01*
X76737217Y-104996228D02*
X76546741Y-104948609D01*
X76546741Y-104948609D02*
X76451503Y-104900990D01*
X76451503Y-104900990D02*
X76403884Y-104853371D01*
X76403884Y-104853371D02*
X76356265Y-104758133D01*
X76356265Y-104758133D02*
X76356265Y-104662895D01*
X76356265Y-104662895D02*
X76403884Y-104567657D01*
X76403884Y-104567657D02*
X76451503Y-104520038D01*
X76451503Y-104520038D02*
X76546741Y-104472419D01*
X76546741Y-104472419D02*
X76784836Y-104472419D01*
X76784836Y-104472419D02*
X76927693Y-104520038D01*
X77927693Y-105377180D02*
X77880074Y-105424800D01*
X77880074Y-105424800D02*
X77737217Y-105472419D01*
X77737217Y-105472419D02*
X77641979Y-105472419D01*
X77641979Y-105472419D02*
X77499122Y-105424800D01*
X77499122Y-105424800D02*
X77403884Y-105329561D01*
X77403884Y-105329561D02*
X77356265Y-105234323D01*
X77356265Y-105234323D02*
X77308646Y-105043847D01*
X77308646Y-105043847D02*
X77308646Y-104900990D01*
X77308646Y-104900990D02*
X77356265Y-104710514D01*
X77356265Y-104710514D02*
X77403884Y-104615276D01*
X77403884Y-104615276D02*
X77499122Y-104520038D01*
X77499122Y-104520038D02*
X77641979Y-104472419D01*
X77641979Y-104472419D02*
X77737217Y-104472419D01*
X77737217Y-104472419D02*
X77880074Y-104520038D01*
X77880074Y-104520038D02*
X77927693Y-104567657D01*
X78832455Y-105472419D02*
X78356265Y-105472419D01*
X78356265Y-105472419D02*
X78356265Y-104472419D01*
X76256265Y-112786704D02*
X76732455Y-112786704D01*
X76161027Y-113072419D02*
X76494360Y-112072419D01*
X76494360Y-112072419D02*
X76827693Y-113072419D01*
X77637217Y-113072419D02*
X77161027Y-113072419D01*
X77161027Y-113072419D02*
X77161027Y-112072419D01*
X78541979Y-113072419D02*
X78208646Y-112596228D01*
X77970551Y-113072419D02*
X77970551Y-112072419D01*
X77970551Y-112072419D02*
X78351503Y-112072419D01*
X78351503Y-112072419D02*
X78446741Y-112120038D01*
X78446741Y-112120038D02*
X78494360Y-112167657D01*
X78494360Y-112167657D02*
X78541979Y-112262895D01*
X78541979Y-112262895D02*
X78541979Y-112405752D01*
X78541979Y-112405752D02*
X78494360Y-112500990D01*
X78494360Y-112500990D02*
X78446741Y-112548609D01*
X78446741Y-112548609D02*
X78351503Y-112596228D01*
X78351503Y-112596228D02*
X77970551Y-112596228D01*
X78827694Y-112072419D02*
X79399122Y-112072419D01*
X79113408Y-113072419D02*
X79113408Y-112072419D01*
D10*
X65374819Y-137166666D02*
X64898628Y-137499999D01*
X65374819Y-137738094D02*
X64374819Y-137738094D01*
X64374819Y-137738094D02*
X64374819Y-137357142D01*
X64374819Y-137357142D02*
X64422438Y-137261904D01*
X64422438Y-137261904D02*
X64470057Y-137214285D01*
X64470057Y-137214285D02*
X64565295Y-137166666D01*
X64565295Y-137166666D02*
X64708152Y-137166666D01*
X64708152Y-137166666D02*
X64803390Y-137214285D01*
X64803390Y-137214285D02*
X64851009Y-137261904D01*
X64851009Y-137261904D02*
X64898628Y-137357142D01*
X64898628Y-137357142D02*
X64898628Y-137738094D01*
X64374819Y-136261904D02*
X64374819Y-136738094D01*
X64374819Y-136738094D02*
X64851009Y-136785713D01*
X64851009Y-136785713D02*
X64803390Y-136738094D01*
X64803390Y-136738094D02*
X64755771Y-136642856D01*
X64755771Y-136642856D02*
X64755771Y-136404761D01*
X64755771Y-136404761D02*
X64803390Y-136309523D01*
X64803390Y-136309523D02*
X64851009Y-136261904D01*
X64851009Y-136261904D02*
X64946247Y-136214285D01*
X64946247Y-136214285D02*
X65184342Y-136214285D01*
X65184342Y-136214285D02*
X65279580Y-136261904D01*
X65279580Y-136261904D02*
X65327200Y-136309523D01*
X65327200Y-136309523D02*
X65374819Y-136404761D01*
X65374819Y-136404761D02*
X65374819Y-136642856D01*
X65374819Y-136642856D02*
X65327200Y-136738094D01*
X65327200Y-136738094D02*
X65279580Y-136785713D01*
X58167142Y-161084819D02*
X57833809Y-160608628D01*
X57595714Y-161084819D02*
X57595714Y-160084819D01*
X57595714Y-160084819D02*
X57976666Y-160084819D01*
X57976666Y-160084819D02*
X58071904Y-160132438D01*
X58071904Y-160132438D02*
X58119523Y-160180057D01*
X58119523Y-160180057D02*
X58167142Y-160275295D01*
X58167142Y-160275295D02*
X58167142Y-160418152D01*
X58167142Y-160418152D02*
X58119523Y-160513390D01*
X58119523Y-160513390D02*
X58071904Y-160561009D01*
X58071904Y-160561009D02*
X57976666Y-160608628D01*
X57976666Y-160608628D02*
X57595714Y-160608628D01*
X59119523Y-161084819D02*
X58548095Y-161084819D01*
X58833809Y-161084819D02*
X58833809Y-160084819D01*
X58833809Y-160084819D02*
X58738571Y-160227676D01*
X58738571Y-160227676D02*
X58643333Y-160322914D01*
X58643333Y-160322914D02*
X58548095Y-160370533D01*
X59738571Y-160084819D02*
X59833809Y-160084819D01*
X59833809Y-160084819D02*
X59929047Y-160132438D01*
X59929047Y-160132438D02*
X59976666Y-160180057D01*
X59976666Y-160180057D02*
X60024285Y-160275295D01*
X60024285Y-160275295D02*
X60071904Y-160465771D01*
X60071904Y-160465771D02*
X60071904Y-160703866D01*
X60071904Y-160703866D02*
X60024285Y-160894342D01*
X60024285Y-160894342D02*
X59976666Y-160989580D01*
X59976666Y-160989580D02*
X59929047Y-161037200D01*
X59929047Y-161037200D02*
X59833809Y-161084819D01*
X59833809Y-161084819D02*
X59738571Y-161084819D01*
X59738571Y-161084819D02*
X59643333Y-161037200D01*
X59643333Y-161037200D02*
X59595714Y-160989580D01*
X59595714Y-160989580D02*
X59548095Y-160894342D01*
X59548095Y-160894342D02*
X59500476Y-160703866D01*
X59500476Y-160703866D02*
X59500476Y-160465771D01*
X59500476Y-160465771D02*
X59548095Y-160275295D01*
X59548095Y-160275295D02*
X59595714Y-160180057D01*
X59595714Y-160180057D02*
X59643333Y-160132438D01*
X59643333Y-160132438D02*
X59738571Y-160084819D01*
X48894819Y-116031904D02*
X49704342Y-116031904D01*
X49704342Y-116031904D02*
X49799580Y-115984285D01*
X49799580Y-115984285D02*
X49847200Y-115936666D01*
X49847200Y-115936666D02*
X49894819Y-115841428D01*
X49894819Y-115841428D02*
X49894819Y-115650952D01*
X49894819Y-115650952D02*
X49847200Y-115555714D01*
X49847200Y-115555714D02*
X49799580Y-115508095D01*
X49799580Y-115508095D02*
X49704342Y-115460476D01*
X49704342Y-115460476D02*
X48894819Y-115460476D01*
X48894819Y-114508095D02*
X48894819Y-114984285D01*
X48894819Y-114984285D02*
X49371009Y-115031904D01*
X49371009Y-115031904D02*
X49323390Y-114984285D01*
X49323390Y-114984285D02*
X49275771Y-114889047D01*
X49275771Y-114889047D02*
X49275771Y-114650952D01*
X49275771Y-114650952D02*
X49323390Y-114555714D01*
X49323390Y-114555714D02*
X49371009Y-114508095D01*
X49371009Y-114508095D02*
X49466247Y-114460476D01*
X49466247Y-114460476D02*
X49704342Y-114460476D01*
X49704342Y-114460476D02*
X49799580Y-114508095D01*
X49799580Y-114508095D02*
X49847200Y-114555714D01*
X49847200Y-114555714D02*
X49894819Y-114650952D01*
X49894819Y-114650952D02*
X49894819Y-114889047D01*
X49894819Y-114889047D02*
X49847200Y-114984285D01*
X49847200Y-114984285D02*
X49799580Y-115031904D01*
X54833333Y-153534819D02*
X54500000Y-153058628D01*
X54261905Y-153534819D02*
X54261905Y-152534819D01*
X54261905Y-152534819D02*
X54642857Y-152534819D01*
X54642857Y-152534819D02*
X54738095Y-152582438D01*
X54738095Y-152582438D02*
X54785714Y-152630057D01*
X54785714Y-152630057D02*
X54833333Y-152725295D01*
X54833333Y-152725295D02*
X54833333Y-152868152D01*
X54833333Y-152868152D02*
X54785714Y-152963390D01*
X54785714Y-152963390D02*
X54738095Y-153011009D01*
X54738095Y-153011009D02*
X54642857Y-153058628D01*
X54642857Y-153058628D02*
X54261905Y-153058628D01*
X55166667Y-152534819D02*
X55785714Y-152534819D01*
X55785714Y-152534819D02*
X55452381Y-152915771D01*
X55452381Y-152915771D02*
X55595238Y-152915771D01*
X55595238Y-152915771D02*
X55690476Y-152963390D01*
X55690476Y-152963390D02*
X55738095Y-153011009D01*
X55738095Y-153011009D02*
X55785714Y-153106247D01*
X55785714Y-153106247D02*
X55785714Y-153344342D01*
X55785714Y-153344342D02*
X55738095Y-153439580D01*
X55738095Y-153439580D02*
X55690476Y-153487200D01*
X55690476Y-153487200D02*
X55595238Y-153534819D01*
X55595238Y-153534819D02*
X55309524Y-153534819D01*
X55309524Y-153534819D02*
X55214286Y-153487200D01*
X55214286Y-153487200D02*
X55166667Y-153439580D01*
X53833333Y-130534819D02*
X53500000Y-130058628D01*
X53261905Y-130534819D02*
X53261905Y-129534819D01*
X53261905Y-129534819D02*
X53642857Y-129534819D01*
X53642857Y-129534819D02*
X53738095Y-129582438D01*
X53738095Y-129582438D02*
X53785714Y-129630057D01*
X53785714Y-129630057D02*
X53833333Y-129725295D01*
X53833333Y-129725295D02*
X53833333Y-129868152D01*
X53833333Y-129868152D02*
X53785714Y-129963390D01*
X53785714Y-129963390D02*
X53738095Y-130011009D01*
X53738095Y-130011009D02*
X53642857Y-130058628D01*
X53642857Y-130058628D02*
X53261905Y-130058628D01*
X54690476Y-129868152D02*
X54690476Y-130534819D01*
X54452381Y-129487200D02*
X54214286Y-130201485D01*
X54214286Y-130201485D02*
X54833333Y-130201485D01*
X47894819Y-93491904D02*
X48704342Y-93491904D01*
X48704342Y-93491904D02*
X48799580Y-93444285D01*
X48799580Y-93444285D02*
X48847200Y-93396666D01*
X48847200Y-93396666D02*
X48894819Y-93301428D01*
X48894819Y-93301428D02*
X48894819Y-93110952D01*
X48894819Y-93110952D02*
X48847200Y-93015714D01*
X48847200Y-93015714D02*
X48799580Y-92968095D01*
X48799580Y-92968095D02*
X48704342Y-92920476D01*
X48704342Y-92920476D02*
X47894819Y-92920476D01*
X47894819Y-92015714D02*
X47894819Y-92206190D01*
X47894819Y-92206190D02*
X47942438Y-92301428D01*
X47942438Y-92301428D02*
X47990057Y-92349047D01*
X47990057Y-92349047D02*
X48132914Y-92444285D01*
X48132914Y-92444285D02*
X48323390Y-92491904D01*
X48323390Y-92491904D02*
X48704342Y-92491904D01*
X48704342Y-92491904D02*
X48799580Y-92444285D01*
X48799580Y-92444285D02*
X48847200Y-92396666D01*
X48847200Y-92396666D02*
X48894819Y-92301428D01*
X48894819Y-92301428D02*
X48894819Y-92110952D01*
X48894819Y-92110952D02*
X48847200Y-92015714D01*
X48847200Y-92015714D02*
X48799580Y-91968095D01*
X48799580Y-91968095D02*
X48704342Y-91920476D01*
X48704342Y-91920476D02*
X48466247Y-91920476D01*
X48466247Y-91920476D02*
X48371009Y-91968095D01*
X48371009Y-91968095D02*
X48323390Y-92015714D01*
X48323390Y-92015714D02*
X48275771Y-92110952D01*
X48275771Y-92110952D02*
X48275771Y-92301428D01*
X48275771Y-92301428D02*
X48323390Y-92396666D01*
X48323390Y-92396666D02*
X48371009Y-92444285D01*
X48371009Y-92444285D02*
X48466247Y-92491904D01*
X54833333Y-106804819D02*
X54500000Y-106328628D01*
X54261905Y-106804819D02*
X54261905Y-105804819D01*
X54261905Y-105804819D02*
X54642857Y-105804819D01*
X54642857Y-105804819D02*
X54738095Y-105852438D01*
X54738095Y-105852438D02*
X54785714Y-105900057D01*
X54785714Y-105900057D02*
X54833333Y-105995295D01*
X54833333Y-105995295D02*
X54833333Y-106138152D01*
X54833333Y-106138152D02*
X54785714Y-106233390D01*
X54785714Y-106233390D02*
X54738095Y-106281009D01*
X54738095Y-106281009D02*
X54642857Y-106328628D01*
X54642857Y-106328628D02*
X54261905Y-106328628D01*
X55166667Y-105804819D02*
X55833333Y-105804819D01*
X55833333Y-105804819D02*
X55404762Y-106804819D01*
D11*
X38966666Y-152857419D02*
X38966666Y-153571704D01*
X38966666Y-153571704D02*
X38919047Y-153714561D01*
X38919047Y-153714561D02*
X38823809Y-153809800D01*
X38823809Y-153809800D02*
X38680952Y-153857419D01*
X38680952Y-153857419D02*
X38585714Y-153857419D01*
X39395238Y-152952657D02*
X39442857Y-152905038D01*
X39442857Y-152905038D02*
X39538095Y-152857419D01*
X39538095Y-152857419D02*
X39776190Y-152857419D01*
X39776190Y-152857419D02*
X39871428Y-152905038D01*
X39871428Y-152905038D02*
X39919047Y-152952657D01*
X39919047Y-152952657D02*
X39966666Y-153047895D01*
X39966666Y-153047895D02*
X39966666Y-153143133D01*
X39966666Y-153143133D02*
X39919047Y-153285990D01*
X39919047Y-153285990D02*
X39347619Y-153857419D01*
X39347619Y-153857419D02*
X39966666Y-153857419D01*
X34956265Y-150924800D02*
X35099122Y-150972419D01*
X35099122Y-150972419D02*
X35337217Y-150972419D01*
X35337217Y-150972419D02*
X35432455Y-150924800D01*
X35432455Y-150924800D02*
X35480074Y-150877180D01*
X35480074Y-150877180D02*
X35527693Y-150781942D01*
X35527693Y-150781942D02*
X35527693Y-150686704D01*
X35527693Y-150686704D02*
X35480074Y-150591466D01*
X35480074Y-150591466D02*
X35432455Y-150543847D01*
X35432455Y-150543847D02*
X35337217Y-150496228D01*
X35337217Y-150496228D02*
X35146741Y-150448609D01*
X35146741Y-150448609D02*
X35051503Y-150400990D01*
X35051503Y-150400990D02*
X35003884Y-150353371D01*
X35003884Y-150353371D02*
X34956265Y-150258133D01*
X34956265Y-150258133D02*
X34956265Y-150162895D01*
X34956265Y-150162895D02*
X35003884Y-150067657D01*
X35003884Y-150067657D02*
X35051503Y-150020038D01*
X35051503Y-150020038D02*
X35146741Y-149972419D01*
X35146741Y-149972419D02*
X35384836Y-149972419D01*
X35384836Y-149972419D02*
X35527693Y-150020038D01*
X37861027Y-149972419D02*
X38432455Y-149972419D01*
X38146741Y-150972419D02*
X38146741Y-149972419D01*
X37275312Y-146472419D02*
X36941979Y-145996228D01*
X36703884Y-146472419D02*
X36703884Y-145472419D01*
X36703884Y-145472419D02*
X37084836Y-145472419D01*
X37084836Y-145472419D02*
X37180074Y-145520038D01*
X37180074Y-145520038D02*
X37227693Y-145567657D01*
X37227693Y-145567657D02*
X37275312Y-145662895D01*
X37275312Y-145662895D02*
X37275312Y-145805752D01*
X37275312Y-145805752D02*
X37227693Y-145900990D01*
X37227693Y-145900990D02*
X37180074Y-145948609D01*
X37180074Y-145948609D02*
X37084836Y-145996228D01*
X37084836Y-145996228D02*
X36703884Y-145996228D01*
D10*
X65374819Y-148166666D02*
X64898628Y-148499999D01*
X65374819Y-148738094D02*
X64374819Y-148738094D01*
X64374819Y-148738094D02*
X64374819Y-148357142D01*
X64374819Y-148357142D02*
X64422438Y-148261904D01*
X64422438Y-148261904D02*
X64470057Y-148214285D01*
X64470057Y-148214285D02*
X64565295Y-148166666D01*
X64565295Y-148166666D02*
X64708152Y-148166666D01*
X64708152Y-148166666D02*
X64803390Y-148214285D01*
X64803390Y-148214285D02*
X64851009Y-148261904D01*
X64851009Y-148261904D02*
X64898628Y-148357142D01*
X64898628Y-148357142D02*
X64898628Y-148738094D01*
X64374819Y-147309523D02*
X64374819Y-147499999D01*
X64374819Y-147499999D02*
X64422438Y-147595237D01*
X64422438Y-147595237D02*
X64470057Y-147642856D01*
X64470057Y-147642856D02*
X64612914Y-147738094D01*
X64612914Y-147738094D02*
X64803390Y-147785713D01*
X64803390Y-147785713D02*
X65184342Y-147785713D01*
X65184342Y-147785713D02*
X65279580Y-147738094D01*
X65279580Y-147738094D02*
X65327200Y-147690475D01*
X65327200Y-147690475D02*
X65374819Y-147595237D01*
X65374819Y-147595237D02*
X65374819Y-147404761D01*
X65374819Y-147404761D02*
X65327200Y-147309523D01*
X65327200Y-147309523D02*
X65279580Y-147261904D01*
X65279580Y-147261904D02*
X65184342Y-147214285D01*
X65184342Y-147214285D02*
X64946247Y-147214285D01*
X64946247Y-147214285D02*
X64851009Y-147261904D01*
X64851009Y-147261904D02*
X64803390Y-147309523D01*
X64803390Y-147309523D02*
X64755771Y-147404761D01*
X64755771Y-147404761D02*
X64755771Y-147595237D01*
X64755771Y-147595237D02*
X64803390Y-147690475D01*
X64803390Y-147690475D02*
X64851009Y-147738094D01*
X64851009Y-147738094D02*
X64946247Y-147785713D01*
X51333333Y-120879580D02*
X51285714Y-120927200D01*
X51285714Y-120927200D02*
X51142857Y-120974819D01*
X51142857Y-120974819D02*
X51047619Y-120974819D01*
X51047619Y-120974819D02*
X50904762Y-120927200D01*
X50904762Y-120927200D02*
X50809524Y-120831961D01*
X50809524Y-120831961D02*
X50761905Y-120736723D01*
X50761905Y-120736723D02*
X50714286Y-120546247D01*
X50714286Y-120546247D02*
X50714286Y-120403390D01*
X50714286Y-120403390D02*
X50761905Y-120212914D01*
X50761905Y-120212914D02*
X50809524Y-120117676D01*
X50809524Y-120117676D02*
X50904762Y-120022438D01*
X50904762Y-120022438D02*
X51047619Y-119974819D01*
X51047619Y-119974819D02*
X51142857Y-119974819D01*
X51142857Y-119974819D02*
X51285714Y-120022438D01*
X51285714Y-120022438D02*
X51333333Y-120070057D01*
X52190476Y-119974819D02*
X52000000Y-119974819D01*
X52000000Y-119974819D02*
X51904762Y-120022438D01*
X51904762Y-120022438D02*
X51857143Y-120070057D01*
X51857143Y-120070057D02*
X51761905Y-120212914D01*
X51761905Y-120212914D02*
X51714286Y-120403390D01*
X51714286Y-120403390D02*
X51714286Y-120784342D01*
X51714286Y-120784342D02*
X51761905Y-120879580D01*
X51761905Y-120879580D02*
X51809524Y-120927200D01*
X51809524Y-120927200D02*
X51904762Y-120974819D01*
X51904762Y-120974819D02*
X52095238Y-120974819D01*
X52095238Y-120974819D02*
X52190476Y-120927200D01*
X52190476Y-120927200D02*
X52238095Y-120879580D01*
X52238095Y-120879580D02*
X52285714Y-120784342D01*
X52285714Y-120784342D02*
X52285714Y-120546247D01*
X52285714Y-120546247D02*
X52238095Y-120451009D01*
X52238095Y-120451009D02*
X52190476Y-120403390D01*
X52190476Y-120403390D02*
X52095238Y-120355771D01*
X52095238Y-120355771D02*
X51904762Y-120355771D01*
X51904762Y-120355771D02*
X51809524Y-120403390D01*
X51809524Y-120403390D02*
X51761905Y-120451009D01*
X51761905Y-120451009D02*
X51714286Y-120546247D01*
X65374819Y-91642857D02*
X64898628Y-91976190D01*
X65374819Y-92214285D02*
X64374819Y-92214285D01*
X64374819Y-92214285D02*
X64374819Y-91833333D01*
X64374819Y-91833333D02*
X64422438Y-91738095D01*
X64422438Y-91738095D02*
X64470057Y-91690476D01*
X64470057Y-91690476D02*
X64565295Y-91642857D01*
X64565295Y-91642857D02*
X64708152Y-91642857D01*
X64708152Y-91642857D02*
X64803390Y-91690476D01*
X64803390Y-91690476D02*
X64851009Y-91738095D01*
X64851009Y-91738095D02*
X64898628Y-91833333D01*
X64898628Y-91833333D02*
X64898628Y-92214285D01*
X65374819Y-90690476D02*
X65374819Y-91261904D01*
X65374819Y-90976190D02*
X64374819Y-90976190D01*
X64374819Y-90976190D02*
X64517676Y-91071428D01*
X64517676Y-91071428D02*
X64612914Y-91166666D01*
X64612914Y-91166666D02*
X64660533Y-91261904D01*
X65374819Y-89738095D02*
X65374819Y-90309523D01*
X65374819Y-90023809D02*
X64374819Y-90023809D01*
X64374819Y-90023809D02*
X64517676Y-90119047D01*
X64517676Y-90119047D02*
X64612914Y-90214285D01*
X64612914Y-90214285D02*
X64660533Y-90309523D01*
X38609580Y-94166666D02*
X38657200Y-94214285D01*
X38657200Y-94214285D02*
X38704819Y-94357142D01*
X38704819Y-94357142D02*
X38704819Y-94452380D01*
X38704819Y-94452380D02*
X38657200Y-94595237D01*
X38657200Y-94595237D02*
X38561961Y-94690475D01*
X38561961Y-94690475D02*
X38466723Y-94738094D01*
X38466723Y-94738094D02*
X38276247Y-94785713D01*
X38276247Y-94785713D02*
X38133390Y-94785713D01*
X38133390Y-94785713D02*
X37942914Y-94738094D01*
X37942914Y-94738094D02*
X37847676Y-94690475D01*
X37847676Y-94690475D02*
X37752438Y-94595237D01*
X37752438Y-94595237D02*
X37704819Y-94452380D01*
X37704819Y-94452380D02*
X37704819Y-94357142D01*
X37704819Y-94357142D02*
X37752438Y-94214285D01*
X37752438Y-94214285D02*
X37800057Y-94166666D01*
X37704819Y-93833332D02*
X37704819Y-93166666D01*
X37704819Y-93166666D02*
X38704819Y-93595237D01*
X39609580Y-116436666D02*
X39657200Y-116484285D01*
X39657200Y-116484285D02*
X39704819Y-116627142D01*
X39704819Y-116627142D02*
X39704819Y-116722380D01*
X39704819Y-116722380D02*
X39657200Y-116865237D01*
X39657200Y-116865237D02*
X39561961Y-116960475D01*
X39561961Y-116960475D02*
X39466723Y-117008094D01*
X39466723Y-117008094D02*
X39276247Y-117055713D01*
X39276247Y-117055713D02*
X39133390Y-117055713D01*
X39133390Y-117055713D02*
X38942914Y-117008094D01*
X38942914Y-117008094D02*
X38847676Y-116960475D01*
X38847676Y-116960475D02*
X38752438Y-116865237D01*
X38752438Y-116865237D02*
X38704819Y-116722380D01*
X38704819Y-116722380D02*
X38704819Y-116627142D01*
X38704819Y-116627142D02*
X38752438Y-116484285D01*
X38752438Y-116484285D02*
X38800057Y-116436666D01*
X38704819Y-115531904D02*
X38704819Y-116008094D01*
X38704819Y-116008094D02*
X39181009Y-116055713D01*
X39181009Y-116055713D02*
X39133390Y-116008094D01*
X39133390Y-116008094D02*
X39085771Y-115912856D01*
X39085771Y-115912856D02*
X39085771Y-115674761D01*
X39085771Y-115674761D02*
X39133390Y-115579523D01*
X39133390Y-115579523D02*
X39181009Y-115531904D01*
X39181009Y-115531904D02*
X39276247Y-115484285D01*
X39276247Y-115484285D02*
X39514342Y-115484285D01*
X39514342Y-115484285D02*
X39609580Y-115531904D01*
X39609580Y-115531904D02*
X39657200Y-115579523D01*
X39657200Y-115579523D02*
X39704819Y-115674761D01*
X39704819Y-115674761D02*
X39704819Y-115912856D01*
X39704819Y-115912856D02*
X39657200Y-116008094D01*
X39657200Y-116008094D02*
X39609580Y-116055713D01*
D11*
X38566666Y-174357419D02*
X38566666Y-175071704D01*
X38566666Y-175071704D02*
X38519047Y-175214561D01*
X38519047Y-175214561D02*
X38423809Y-175309800D01*
X38423809Y-175309800D02*
X38280952Y-175357419D01*
X38280952Y-175357419D02*
X38185714Y-175357419D01*
X39566666Y-175357419D02*
X38995238Y-175357419D01*
X39280952Y-175357419D02*
X39280952Y-174357419D01*
X39280952Y-174357419D02*
X39185714Y-174500276D01*
X39185714Y-174500276D02*
X39090476Y-174595514D01*
X39090476Y-174595514D02*
X38995238Y-174643133D01*
X36875312Y-167972419D02*
X36541979Y-167496228D01*
X36303884Y-167972419D02*
X36303884Y-166972419D01*
X36303884Y-166972419D02*
X36684836Y-166972419D01*
X36684836Y-166972419D02*
X36780074Y-167020038D01*
X36780074Y-167020038D02*
X36827693Y-167067657D01*
X36827693Y-167067657D02*
X36875312Y-167162895D01*
X36875312Y-167162895D02*
X36875312Y-167305752D01*
X36875312Y-167305752D02*
X36827693Y-167400990D01*
X36827693Y-167400990D02*
X36780074Y-167448609D01*
X36780074Y-167448609D02*
X36684836Y-167496228D01*
X36684836Y-167496228D02*
X36303884Y-167496228D01*
X37461027Y-171472419D02*
X38032455Y-171472419D01*
X37746741Y-172472419D02*
X37746741Y-171472419D01*
X34556265Y-172424800D02*
X34699122Y-172472419D01*
X34699122Y-172472419D02*
X34937217Y-172472419D01*
X34937217Y-172472419D02*
X35032455Y-172424800D01*
X35032455Y-172424800D02*
X35080074Y-172377180D01*
X35080074Y-172377180D02*
X35127693Y-172281942D01*
X35127693Y-172281942D02*
X35127693Y-172186704D01*
X35127693Y-172186704D02*
X35080074Y-172091466D01*
X35080074Y-172091466D02*
X35032455Y-172043847D01*
X35032455Y-172043847D02*
X34937217Y-171996228D01*
X34937217Y-171996228D02*
X34746741Y-171948609D01*
X34746741Y-171948609D02*
X34651503Y-171900990D01*
X34651503Y-171900990D02*
X34603884Y-171853371D01*
X34603884Y-171853371D02*
X34556265Y-171758133D01*
X34556265Y-171758133D02*
X34556265Y-171662895D01*
X34556265Y-171662895D02*
X34603884Y-171567657D01*
X34603884Y-171567657D02*
X34651503Y-171520038D01*
X34651503Y-171520038D02*
X34746741Y-171472419D01*
X34746741Y-171472419D02*
X34984836Y-171472419D01*
X34984836Y-171472419D02*
X35127693Y-171520038D01*
D10*
X65374819Y-161166666D02*
X64898628Y-161499999D01*
X65374819Y-161738094D02*
X64374819Y-161738094D01*
X64374819Y-161738094D02*
X64374819Y-161357142D01*
X64374819Y-161357142D02*
X64422438Y-161261904D01*
X64422438Y-161261904D02*
X64470057Y-161214285D01*
X64470057Y-161214285D02*
X64565295Y-161166666D01*
X64565295Y-161166666D02*
X64708152Y-161166666D01*
X64708152Y-161166666D02*
X64803390Y-161214285D01*
X64803390Y-161214285D02*
X64851009Y-161261904D01*
X64851009Y-161261904D02*
X64898628Y-161357142D01*
X64898628Y-161357142D02*
X64898628Y-161738094D01*
X64470057Y-160785713D02*
X64422438Y-160738094D01*
X64422438Y-160738094D02*
X64374819Y-160642856D01*
X64374819Y-160642856D02*
X64374819Y-160404761D01*
X64374819Y-160404761D02*
X64422438Y-160309523D01*
X64422438Y-160309523D02*
X64470057Y-160261904D01*
X64470057Y-160261904D02*
X64565295Y-160214285D01*
X64565295Y-160214285D02*
X64660533Y-160214285D01*
X64660533Y-160214285D02*
X64803390Y-160261904D01*
X64803390Y-160261904D02*
X65374819Y-160833332D01*
X65374819Y-160833332D02*
X65374819Y-160214285D01*
X65374819Y-126436666D02*
X64898628Y-126769999D01*
X65374819Y-127008094D02*
X64374819Y-127008094D01*
X64374819Y-127008094D02*
X64374819Y-126627142D01*
X64374819Y-126627142D02*
X64422438Y-126531904D01*
X64422438Y-126531904D02*
X64470057Y-126484285D01*
X64470057Y-126484285D02*
X64565295Y-126436666D01*
X64565295Y-126436666D02*
X64708152Y-126436666D01*
X64708152Y-126436666D02*
X64803390Y-126484285D01*
X64803390Y-126484285D02*
X64851009Y-126531904D01*
X64851009Y-126531904D02*
X64898628Y-126627142D01*
X64898628Y-126627142D02*
X64898628Y-127008094D01*
X65374819Y-125960475D02*
X65374819Y-125769999D01*
X65374819Y-125769999D02*
X65327200Y-125674761D01*
X65327200Y-125674761D02*
X65279580Y-125627142D01*
X65279580Y-125627142D02*
X65136723Y-125531904D01*
X65136723Y-125531904D02*
X64946247Y-125484285D01*
X64946247Y-125484285D02*
X64565295Y-125484285D01*
X64565295Y-125484285D02*
X64470057Y-125531904D01*
X64470057Y-125531904D02*
X64422438Y-125579523D01*
X64422438Y-125579523D02*
X64374819Y-125674761D01*
X64374819Y-125674761D02*
X64374819Y-125865237D01*
X64374819Y-125865237D02*
X64422438Y-125960475D01*
X64422438Y-125960475D02*
X64470057Y-126008094D01*
X64470057Y-126008094D02*
X64565295Y-126055713D01*
X64565295Y-126055713D02*
X64803390Y-126055713D01*
X64803390Y-126055713D02*
X64898628Y-126008094D01*
X64898628Y-126008094D02*
X64946247Y-125960475D01*
X64946247Y-125960475D02*
X64993866Y-125865237D01*
X64993866Y-125865237D02*
X64993866Y-125674761D01*
X64993866Y-125674761D02*
X64946247Y-125579523D01*
X64946247Y-125579523D02*
X64898628Y-125531904D01*
X64898628Y-125531904D02*
X64803390Y-125484285D01*
X53833333Y-166609580D02*
X53785714Y-166657200D01*
X53785714Y-166657200D02*
X53642857Y-166704819D01*
X53642857Y-166704819D02*
X53547619Y-166704819D01*
X53547619Y-166704819D02*
X53404762Y-166657200D01*
X53404762Y-166657200D02*
X53309524Y-166561961D01*
X53309524Y-166561961D02*
X53261905Y-166466723D01*
X53261905Y-166466723D02*
X53214286Y-166276247D01*
X53214286Y-166276247D02*
X53214286Y-166133390D01*
X53214286Y-166133390D02*
X53261905Y-165942914D01*
X53261905Y-165942914D02*
X53309524Y-165847676D01*
X53309524Y-165847676D02*
X53404762Y-165752438D01*
X53404762Y-165752438D02*
X53547619Y-165704819D01*
X53547619Y-165704819D02*
X53642857Y-165704819D01*
X53642857Y-165704819D02*
X53785714Y-165752438D01*
X53785714Y-165752438D02*
X53833333Y-165800057D01*
X54785714Y-166704819D02*
X54214286Y-166704819D01*
X54500000Y-166704819D02*
X54500000Y-165704819D01*
X54500000Y-165704819D02*
X54404762Y-165847676D01*
X54404762Y-165847676D02*
X54309524Y-165942914D01*
X54309524Y-165942914D02*
X54214286Y-165990533D01*
X39609580Y-139166666D02*
X39657200Y-139214285D01*
X39657200Y-139214285D02*
X39704819Y-139357142D01*
X39704819Y-139357142D02*
X39704819Y-139452380D01*
X39704819Y-139452380D02*
X39657200Y-139595237D01*
X39657200Y-139595237D02*
X39561961Y-139690475D01*
X39561961Y-139690475D02*
X39466723Y-139738094D01*
X39466723Y-139738094D02*
X39276247Y-139785713D01*
X39276247Y-139785713D02*
X39133390Y-139785713D01*
X39133390Y-139785713D02*
X38942914Y-139738094D01*
X38942914Y-139738094D02*
X38847676Y-139690475D01*
X38847676Y-139690475D02*
X38752438Y-139595237D01*
X38752438Y-139595237D02*
X38704819Y-139452380D01*
X38704819Y-139452380D02*
X38704819Y-139357142D01*
X38704819Y-139357142D02*
X38752438Y-139214285D01*
X38752438Y-139214285D02*
X38800057Y-139166666D01*
X38704819Y-138833332D02*
X38704819Y-138214285D01*
X38704819Y-138214285D02*
X39085771Y-138547618D01*
X39085771Y-138547618D02*
X39085771Y-138404761D01*
X39085771Y-138404761D02*
X39133390Y-138309523D01*
X39133390Y-138309523D02*
X39181009Y-138261904D01*
X39181009Y-138261904D02*
X39276247Y-138214285D01*
X39276247Y-138214285D02*
X39514342Y-138214285D01*
X39514342Y-138214285D02*
X39609580Y-138261904D01*
X39609580Y-138261904D02*
X39657200Y-138309523D01*
X39657200Y-138309523D02*
X39704819Y-138404761D01*
X39704819Y-138404761D02*
X39704819Y-138690475D01*
X39704819Y-138690475D02*
X39657200Y-138785713D01*
X39657200Y-138785713D02*
X39609580Y-138833332D01*
D11*
%TO.C,J4*%
X27240000Y-100770000D02*
X30740000Y-100770000D01*
X27240000Y-105520000D02*
X27240000Y-100770000D01*
X30740000Y-100270000D02*
X41990000Y-100270000D01*
X30740000Y-100770000D02*
X30740000Y-100270000D01*
X30740000Y-105520000D02*
X27240000Y-105520000D01*
X30740000Y-106270000D02*
X30740000Y-105520000D01*
X41990000Y-100270000D02*
X41990000Y-106270000D01*
X41990000Y-106270000D02*
X30740000Y-106270000D01*
%TO.C,J3*%
X26850000Y-123520000D02*
X30350000Y-123520000D01*
X26850000Y-128270000D02*
X26850000Y-123520000D01*
X30350000Y-123020000D02*
X41600000Y-123020000D01*
X30350000Y-123520000D02*
X30350000Y-123020000D01*
X30350000Y-128270000D02*
X26850000Y-128270000D01*
X30350000Y-129020000D02*
X30350000Y-128270000D01*
X41600000Y-123020000D02*
X41600000Y-129020000D01*
X41600000Y-129020000D02*
X30350000Y-129020000D01*
D12*
%TO.C,R1*%
X62080000Y-170080000D02*
X62080000Y-173920000D01*
X62080000Y-173920000D02*
X63920000Y-173920000D01*
X63000000Y-169130000D02*
X63000000Y-170080000D01*
X63000000Y-174870000D02*
X63000000Y-173920000D01*
X63920000Y-170080000D02*
X62080000Y-170080000D01*
X63920000Y-173920000D02*
X63920000Y-170080000D01*
%TO.C,U4*%
D13*
X72670000Y-128600000D02*
X100970000Y-128600000D01*
X100970000Y-180100000D01*
X72670000Y-180100000D01*
X72670000Y-128600000D01*
D11*
X83190000Y-176860000D02*
X90810000Y-176860000D01*
X90810000Y-181114179D01*
X83190000Y-181114179D01*
X83190000Y-176860000D01*
D12*
%TO.C,U1*%
X53850000Y-139530000D02*
X53850000Y-135930000D01*
X49400000Y-137730000D02*
G75*
G02*
X53838478Y-135891522I2600000J0D01*
G01*
X53838478Y-139568478D02*
G75*
G02*
X49399999Y-137730000I-1838478J1838478D01*
G01*
%TO.C,C2*%
X40380000Y-157130000D02*
X45620000Y-157130000D01*
X40380000Y-164870000D02*
X40380000Y-157130000D01*
X40380000Y-164870000D02*
X45620000Y-164870000D01*
X45620000Y-164870000D02*
X45620000Y-157130000D01*
%TO.C,C8*%
X48130000Y-98380000D02*
X48130000Y-103620000D01*
X48130000Y-98380000D02*
X55870000Y-98380000D01*
X48130000Y-103620000D02*
X55870000Y-103620000D01*
X55870000Y-98380000D02*
X55870000Y-103620000D01*
%TO.C,R8*%
X62080000Y-113350000D02*
X62080000Y-117190000D01*
X62080000Y-117190000D02*
X63920000Y-117190000D01*
X63000000Y-112400000D02*
X63000000Y-113350000D01*
X63000000Y-118140000D02*
X63000000Y-117190000D01*
X63920000Y-113350000D02*
X62080000Y-113350000D01*
X63920000Y-117190000D02*
X63920000Y-113350000D01*
%TO.C,U3*%
X53850000Y-162530000D02*
X53850000Y-158930000D01*
X49400000Y-160730000D02*
G75*
G02*
X53838478Y-158891522I2600000J0D01*
G01*
X53838478Y-162568478D02*
G75*
G02*
X49399999Y-160730000I-1838478J1838478D01*
G01*
%TO.C,C4*%
X50130000Y-143380000D02*
X50130000Y-148620000D01*
X50130000Y-143380000D02*
X57870000Y-143380000D01*
X50130000Y-148620000D02*
X57870000Y-148620000D01*
X57870000Y-143380000D02*
X57870000Y-148620000D01*
%TO.C,R12*%
X62080000Y-100350000D02*
X62080000Y-104190000D01*
X62080000Y-104190000D02*
X63920000Y-104190000D01*
X63000000Y-99400000D02*
X63000000Y-100350000D01*
X63000000Y-105140000D02*
X63000000Y-104190000D01*
X63920000Y-100350000D02*
X62080000Y-100350000D01*
X63920000Y-104190000D02*
X63920000Y-100350000D01*
%TO.C,U2*%
X73276000Y-98376000D02*
X82420000Y-98376000D01*
X73276000Y-124792000D02*
X73276000Y-98376000D01*
X82420000Y-98376000D02*
X82420000Y-124792000D01*
X82420000Y-124792000D02*
X73276000Y-124792000D01*
D11*
X72500000Y-96700000D02*
X91500000Y-96700000D01*
X91500000Y-125300000D01*
X72500000Y-125300000D01*
X72500000Y-96700000D01*
D12*
%TO.C,R5*%
X62080000Y-135080000D02*
X62080000Y-138920000D01*
X62080000Y-138920000D02*
X63920000Y-138920000D01*
X63000000Y-134130000D02*
X63000000Y-135080000D01*
X63000000Y-139870000D02*
X63000000Y-138920000D01*
X63920000Y-135080000D02*
X62080000Y-135080000D01*
X63920000Y-138920000D02*
X63920000Y-135080000D01*
%TO.C,R10*%
X52130000Y-85000000D02*
X53080000Y-85000000D01*
X53080000Y-84080000D02*
X53080000Y-85920000D01*
X53080000Y-85920000D02*
X56920000Y-85920000D01*
X56920000Y-84080000D02*
X53080000Y-84080000D01*
X56920000Y-85920000D02*
X56920000Y-84080000D01*
X57870000Y-85000000D02*
X56920000Y-85000000D01*
%TO.C,U5*%
X54850000Y-117070000D02*
X54850000Y-113470000D01*
X50400000Y-115270000D02*
G75*
G02*
X54838478Y-113431522I2600000J0D01*
G01*
X54838478Y-117108478D02*
G75*
G02*
X50399999Y-115270000I-1838478J1838478D01*
G01*
%TO.C,R3*%
X52130000Y-155000000D02*
X53080000Y-155000000D01*
X53080000Y-154080000D02*
X53080000Y-155920000D01*
X53080000Y-155920000D02*
X56920000Y-155920000D01*
X56920000Y-154080000D02*
X53080000Y-154080000D01*
X56920000Y-155920000D02*
X56920000Y-154080000D01*
X57870000Y-155000000D02*
X56920000Y-155000000D01*
%TO.C,R4*%
X51130000Y-132000000D02*
X52080000Y-132000000D01*
X52080000Y-131080000D02*
X52080000Y-132920000D01*
X52080000Y-132920000D02*
X55920000Y-132920000D01*
X55920000Y-131080000D02*
X52080000Y-131080000D01*
X55920000Y-132920000D02*
X55920000Y-131080000D01*
X56870000Y-132000000D02*
X55920000Y-132000000D01*
%TO.C,U6*%
X53850000Y-94530000D02*
X53850000Y-90930000D01*
X49400000Y-92730000D02*
G75*
G02*
X53838478Y-90891522I2600000J0D01*
G01*
X53838478Y-94568478D02*
G75*
G02*
X49399999Y-92730000I-1838478J1838478D01*
G01*
%TO.C,R7*%
X52130000Y-108270000D02*
X53080000Y-108270000D01*
X53080000Y-107350000D02*
X53080000Y-109190000D01*
X53080000Y-109190000D02*
X56920000Y-109190000D01*
X56920000Y-107350000D02*
X53080000Y-107350000D01*
X56920000Y-109190000D02*
X56920000Y-107350000D01*
X57870000Y-108270000D02*
X56920000Y-108270000D01*
D11*
%TO.C,J2*%
X27250000Y-145750000D02*
X30750000Y-145750000D01*
X27250000Y-150500000D02*
X27250000Y-145750000D01*
X30750000Y-145250000D02*
X42000000Y-145250000D01*
X30750000Y-145750000D02*
X30750000Y-145250000D01*
X30750000Y-150500000D02*
X27250000Y-150500000D01*
X30750000Y-151250000D02*
X30750000Y-150500000D01*
X42000000Y-145250000D02*
X42000000Y-151250000D01*
X42000000Y-151250000D02*
X30750000Y-151250000D01*
D12*
%TO.C,R6*%
X62080000Y-146080000D02*
X62080000Y-149920000D01*
X62080000Y-149920000D02*
X63920000Y-149920000D01*
X63000000Y-145130000D02*
X63000000Y-146080000D01*
X63000000Y-150870000D02*
X63000000Y-149920000D01*
X63920000Y-146080000D02*
X62080000Y-146080000D01*
X63920000Y-149920000D02*
X63920000Y-146080000D01*
%TO.C,C6*%
X47630000Y-121650000D02*
X47630000Y-126890000D01*
X47630000Y-121650000D02*
X55370000Y-121650000D01*
X47630000Y-126890000D02*
X55370000Y-126890000D01*
X55370000Y-121650000D02*
X55370000Y-126890000D01*
%TO.C,R11*%
X62080000Y-89080000D02*
X62080000Y-92920000D01*
X62080000Y-92920000D02*
X63920000Y-92920000D01*
X63000000Y-88130000D02*
X63000000Y-89080000D01*
X63000000Y-93870000D02*
X63000000Y-92920000D01*
X63920000Y-89080000D02*
X62080000Y-89080000D01*
X63920000Y-92920000D02*
X63920000Y-89080000D01*
%TO.C,C7*%
X39380000Y-90130000D02*
X44620000Y-90130000D01*
X39380000Y-97870000D02*
X39380000Y-90130000D01*
X39380000Y-97870000D02*
X44620000Y-97870000D01*
X44620000Y-97870000D02*
X44620000Y-90130000D01*
%TO.C,C5*%
X40380000Y-112400000D02*
X45620000Y-112400000D01*
X40380000Y-120140000D02*
X40380000Y-112400000D01*
X40380000Y-120140000D02*
X45620000Y-120140000D01*
X45620000Y-120140000D02*
X45620000Y-112400000D01*
D11*
%TO.C,J1*%
X26850000Y-167250000D02*
X30350000Y-167250000D01*
X26850000Y-172000000D02*
X26850000Y-167250000D01*
X30350000Y-166750000D02*
X41600000Y-166750000D01*
X30350000Y-167250000D02*
X30350000Y-166750000D01*
X30350000Y-172000000D02*
X26850000Y-172000000D01*
X30350000Y-172750000D02*
X30350000Y-172000000D01*
X41600000Y-166750000D02*
X41600000Y-172750000D01*
X41600000Y-172750000D02*
X30350000Y-172750000D01*
D12*
%TO.C,R2*%
X62080000Y-159080000D02*
X62080000Y-162920000D01*
X62080000Y-162920000D02*
X63920000Y-162920000D01*
X63000000Y-158130000D02*
X63000000Y-159080000D01*
X63000000Y-163870000D02*
X63000000Y-162920000D01*
X63920000Y-159080000D02*
X62080000Y-159080000D01*
X63920000Y-162920000D02*
X63920000Y-159080000D01*
%TO.C,R9*%
X62080000Y-124350000D02*
X62080000Y-128190000D01*
X62080000Y-128190000D02*
X63920000Y-128190000D01*
X63000000Y-123400000D02*
X63000000Y-124350000D01*
X63000000Y-129140000D02*
X63000000Y-128190000D01*
X63920000Y-124350000D02*
X62080000Y-124350000D01*
X63920000Y-128190000D02*
X63920000Y-124350000D01*
%TO.C,C1*%
X50130000Y-167380000D02*
X50130000Y-172620000D01*
X50130000Y-167380000D02*
X57870000Y-167380000D01*
X50130000Y-172620000D02*
X57870000Y-172620000D01*
X57870000Y-167380000D02*
X57870000Y-172620000D01*
%TO.C,C3*%
X40380000Y-135130000D02*
X45620000Y-135130000D01*
X40380000Y-142870000D02*
X40380000Y-135130000D01*
X40380000Y-142870000D02*
X45620000Y-142870000D01*
X45620000Y-142870000D02*
X45620000Y-135130000D01*
%TD*%
M02*
