%TF.GenerationSoftware,KiCad,Pcbnew,8.0.2*%
%TF.CreationDate,2025-12-22T10:01:20-05:00*%
%TF.ProjectId,ct4,6374342e-6b69-4636-9164-5f7063625858,rev?*%
%TF.SameCoordinates,Original*%
%TF.FileFunction,Soldermask,Bot*%
%TF.FilePolarity,Negative*%
%FSLAX46Y46*%
G04 Gerber Fmt 4.6, Leading zero omitted, Abs format (unit mm)*
G04 Created by KiCad (PCBNEW 8.0.2) date 2025-12-22 10:01:20*
%MOMM*%
%LPD*%
G01*
G04 APERTURE LIST*
G04 APERTURE END LIST*
G36*
X100320504Y-175429092D02*
G01*
X100571140Y-175506403D01*
X100807454Y-175620206D01*
X101024167Y-175767958D01*
X101216438Y-175946360D01*
X101269368Y-176012733D01*
X101379972Y-176151425D01*
X101411225Y-176205557D01*
X101511117Y-176378574D01*
X101606941Y-176622732D01*
X101665306Y-176878445D01*
X101684907Y-177140000D01*
X101665306Y-177401555D01*
X101606941Y-177657268D01*
X101511117Y-177901426D01*
X101379972Y-178128574D01*
X101216438Y-178333640D01*
X101024167Y-178512042D01*
X100807454Y-178659794D01*
X100571140Y-178773597D01*
X100320504Y-178850908D01*
X100061144Y-178890000D01*
X100061143Y-178890000D01*
X99798857Y-178890000D01*
X99798856Y-178890000D01*
X99539496Y-178850908D01*
X99288860Y-178773597D01*
X99052547Y-178659794D01*
X98835833Y-178512042D01*
X98643562Y-178333640D01*
X98561795Y-178231107D01*
X98480027Y-178128574D01*
X98425895Y-178034814D01*
X98348883Y-177901426D01*
X98253059Y-177657268D01*
X98194694Y-177401555D01*
X98194693Y-177401552D01*
X98175093Y-177140000D01*
X98194693Y-176878447D01*
X98253059Y-176622733D01*
X98253059Y-176622732D01*
X98348883Y-176378574D01*
X98412465Y-176268447D01*
X98480027Y-176151425D01*
X98643563Y-175946359D01*
X98835830Y-175767961D01*
X98835833Y-175767958D01*
X99052547Y-175620206D01*
X99052547Y-175620205D01*
X99052550Y-175620204D01*
X99288862Y-175506402D01*
X99539492Y-175429093D01*
X99539493Y-175429092D01*
X99539496Y-175429092D01*
X99798856Y-175390000D01*
X100061144Y-175390000D01*
X100320504Y-175429092D01*
G37*
G36*
X39760504Y-174819092D02*
G01*
X40011140Y-174896403D01*
X40247454Y-175010206D01*
X40464167Y-175157958D01*
X40656438Y-175336360D01*
X40754764Y-175459658D01*
X40819972Y-175541425D01*
X40851225Y-175595557D01*
X40951117Y-175768574D01*
X41046941Y-176012732D01*
X41105306Y-176268445D01*
X41124907Y-176530000D01*
X41105306Y-176791555D01*
X41046941Y-177047268D01*
X40951117Y-177291426D01*
X40819972Y-177518574D01*
X40656438Y-177723640D01*
X40464167Y-177902042D01*
X40247454Y-178049794D01*
X40011140Y-178163597D01*
X39760504Y-178240908D01*
X39501144Y-178280000D01*
X39501143Y-178280000D01*
X39238857Y-178280000D01*
X39238856Y-178280000D01*
X38979496Y-178240908D01*
X38728860Y-178163597D01*
X38492547Y-178049794D01*
X38275833Y-177902042D01*
X38083562Y-177723640D01*
X38001795Y-177621107D01*
X37920027Y-177518574D01*
X37852465Y-177401552D01*
X37788883Y-177291426D01*
X37693059Y-177047268D01*
X37634694Y-176791555D01*
X37634693Y-176791552D01*
X37615093Y-176530000D01*
X37634693Y-176268447D01*
X37693059Y-176012733D01*
X37693059Y-176012732D01*
X37788883Y-175768574D01*
X37834642Y-175689317D01*
X37920027Y-175541425D01*
X38083563Y-175336359D01*
X38162610Y-175263014D01*
X38275833Y-175157958D01*
X38492547Y-175010206D01*
X38492547Y-175010205D01*
X38492550Y-175010204D01*
X38728862Y-174896402D01*
X38979492Y-174819093D01*
X38979493Y-174819092D01*
X38979496Y-174819092D01*
X39238856Y-174780000D01*
X39501144Y-174780000D01*
X39760504Y-174819092D01*
G37*
G36*
X63041933Y-175115104D02*
G01*
X63084376Y-175115104D01*
X63120119Y-175123914D01*
X63155680Y-175127921D01*
X63201679Y-175144017D01*
X63248223Y-175155489D01*
X63275745Y-175169933D01*
X63303553Y-175179664D01*
X63350549Y-175209193D01*
X63397645Y-175233911D01*
X63416568Y-175250675D01*
X63436205Y-175263014D01*
X63480541Y-175307350D01*
X63523958Y-175345814D01*
X63534994Y-175361803D01*
X63546985Y-175373794D01*
X63584680Y-175433786D01*
X63619819Y-175484694D01*
X63624617Y-175497346D01*
X63630335Y-175506446D01*
X63657370Y-175583710D01*
X63679659Y-175642479D01*
X63680575Y-175650024D01*
X63682078Y-175654319D01*
X63694723Y-175766543D01*
X63700000Y-175810000D01*
X63694722Y-175853459D01*
X63682078Y-175965680D01*
X63680575Y-175969974D01*
X63679659Y-175977521D01*
X63657366Y-176036301D01*
X63630335Y-176113553D01*
X63624618Y-176122650D01*
X63619819Y-176135306D01*
X63584673Y-176186223D01*
X63546985Y-176246205D01*
X63534997Y-176258192D01*
X63523958Y-176274186D01*
X63480532Y-176312657D01*
X63436205Y-176356985D01*
X63416572Y-176369320D01*
X63397645Y-176386089D01*
X63350540Y-176410811D01*
X63303553Y-176440335D01*
X63275750Y-176450063D01*
X63248223Y-176464511D01*
X63201670Y-176475985D01*
X63155680Y-176492078D01*
X63120126Y-176496084D01*
X63084376Y-176504896D01*
X63041924Y-176504896D01*
X63000000Y-176509620D01*
X62958076Y-176504896D01*
X62915624Y-176504896D01*
X62879873Y-176496084D01*
X62844319Y-176492078D01*
X62798326Y-176475984D01*
X62751777Y-176464511D01*
X62724251Y-176450064D01*
X62696446Y-176440335D01*
X62649453Y-176410808D01*
X62602355Y-176386089D01*
X62583430Y-176369323D01*
X62563794Y-176356985D01*
X62519458Y-176312649D01*
X62476042Y-176274186D01*
X62465005Y-176258196D01*
X62453014Y-176246205D01*
X62415315Y-176186207D01*
X62380181Y-176135306D01*
X62375383Y-176122654D01*
X62369664Y-176113553D01*
X62342620Y-176036267D01*
X62320341Y-175977521D01*
X62319425Y-175969978D01*
X62317921Y-175965680D01*
X62305263Y-175853345D01*
X62300000Y-175810000D01*
X62305262Y-175766658D01*
X62317921Y-175654319D01*
X62319425Y-175650019D01*
X62320341Y-175642479D01*
X62342616Y-175583744D01*
X62369664Y-175506446D01*
X62375384Y-175497342D01*
X62380181Y-175484694D01*
X62415308Y-175433802D01*
X62453014Y-175373794D01*
X62465007Y-175361800D01*
X62476042Y-175345814D01*
X62519449Y-175307358D01*
X62563794Y-175263014D01*
X62583433Y-175250673D01*
X62602355Y-175233911D01*
X62649444Y-175209196D01*
X62696446Y-175179664D01*
X62724256Y-175169932D01*
X62751777Y-175155489D01*
X62798316Y-175144017D01*
X62844319Y-175127921D01*
X62879881Y-175123913D01*
X62915624Y-175115104D01*
X62958067Y-175115104D01*
X63000000Y-175110379D01*
X63041933Y-175115104D01*
G37*
G36*
X33217060Y-170768990D02*
G01*
X33427525Y-170825384D01*
X33625000Y-170917468D01*
X33803485Y-171042444D01*
X33957556Y-171196515D01*
X34082532Y-171375000D01*
X34174616Y-171572475D01*
X34231010Y-171782940D01*
X34250000Y-172000000D01*
X34231010Y-172217060D01*
X34174616Y-172427525D01*
X34082532Y-172625000D01*
X33957556Y-172803485D01*
X33803485Y-172957556D01*
X33625000Y-173082532D01*
X33427525Y-173174616D01*
X33217060Y-173231010D01*
X33000000Y-173250000D01*
X32782940Y-173231010D01*
X32572475Y-173174616D01*
X32375000Y-173082532D01*
X32196515Y-172957556D01*
X32042444Y-172803485D01*
X31917468Y-172625000D01*
X31825384Y-172427525D01*
X31768990Y-172217060D01*
X31750000Y-172000000D01*
X31768990Y-171782940D01*
X31825384Y-171572475D01*
X31917468Y-171375000D01*
X32042444Y-171196515D01*
X32196515Y-171042444D01*
X32375000Y-170917468D01*
X32572475Y-170825384D01*
X32782940Y-170768990D01*
X33000000Y-170750000D01*
X33217060Y-170768990D01*
G37*
G36*
X39817060Y-170768990D02*
G01*
X40027525Y-170825384D01*
X40225000Y-170917468D01*
X40403485Y-171042444D01*
X40557556Y-171196515D01*
X40682532Y-171375000D01*
X40774616Y-171572475D01*
X40831010Y-171782940D01*
X40850000Y-172000000D01*
X40831010Y-172217060D01*
X40774616Y-172427525D01*
X40682532Y-172625000D01*
X40557556Y-172803485D01*
X40403485Y-172957556D01*
X40225000Y-173082532D01*
X40027525Y-173174616D01*
X39817060Y-173231010D01*
X39600000Y-173250000D01*
X39382940Y-173231010D01*
X39172475Y-173174616D01*
X38975000Y-173082532D01*
X38796515Y-172957556D01*
X38642444Y-172803485D01*
X38517468Y-172625000D01*
X38425384Y-172427525D01*
X38368990Y-172217060D01*
X38350000Y-172000000D01*
X38368990Y-171782940D01*
X38425384Y-171572475D01*
X38517468Y-171375000D01*
X38642444Y-171196515D01*
X38796515Y-171042444D01*
X38975000Y-170917468D01*
X39172475Y-170825384D01*
X39382940Y-170768990D01*
X39600000Y-170750000D01*
X39817060Y-170768990D01*
G37*
G36*
X74335149Y-171261482D02*
G01*
X74481657Y-171290624D01*
X74619664Y-171347789D01*
X74743868Y-171430779D01*
X74849494Y-171536405D01*
X74932484Y-171660609D01*
X74989649Y-171798616D01*
X75018791Y-171945124D01*
X75018791Y-172094502D01*
X74989649Y-172241010D01*
X74932484Y-172379017D01*
X74849494Y-172503221D01*
X74743868Y-172608847D01*
X74619664Y-172691837D01*
X74481657Y-172749002D01*
X74335149Y-172778144D01*
X73884460Y-172781813D01*
X73809771Y-172778144D01*
X73663263Y-172749002D01*
X73525256Y-172691837D01*
X73401052Y-172608847D01*
X73295426Y-172503221D01*
X73212436Y-172379017D01*
X73155271Y-172241010D01*
X73126129Y-172094502D01*
X73126129Y-171945124D01*
X73155271Y-171798616D01*
X73212436Y-171660609D01*
X73295426Y-171536405D01*
X73401052Y-171430779D01*
X73525256Y-171347789D01*
X73663263Y-171290624D01*
X73809771Y-171261482D01*
X74260460Y-171257813D01*
X74335149Y-171261482D01*
G37*
G36*
X99735149Y-171261482D02*
G01*
X99881657Y-171290624D01*
X100019664Y-171347789D01*
X100143868Y-171430779D01*
X100249494Y-171536405D01*
X100332484Y-171660609D01*
X100389649Y-171798616D01*
X100418791Y-171945124D01*
X100418791Y-172094502D01*
X100389649Y-172241010D01*
X100332484Y-172379017D01*
X100249494Y-172503221D01*
X100143868Y-172608847D01*
X100019664Y-172691837D01*
X99881657Y-172749002D01*
X99735149Y-172778144D01*
X99284460Y-172781813D01*
X99209771Y-172778144D01*
X99063263Y-172749002D01*
X98925256Y-172691837D01*
X98801052Y-172608847D01*
X98695426Y-172503221D01*
X98612436Y-172379017D01*
X98555271Y-172241010D01*
X98526129Y-172094502D01*
X98526129Y-171945124D01*
X98555271Y-171798616D01*
X98612436Y-171660609D01*
X98695426Y-171536405D01*
X98801052Y-171430779D01*
X98925256Y-171347789D01*
X99063263Y-171290624D01*
X99209771Y-171261482D01*
X99660460Y-171257813D01*
X99735149Y-171261482D01*
G37*
G36*
X51695090Y-169019215D02*
G01*
X51882683Y-169076120D01*
X52055570Y-169168530D01*
X52207107Y-169292893D01*
X52331470Y-169444430D01*
X52423880Y-169617317D01*
X52480785Y-169804910D01*
X52500000Y-170000000D01*
X52480785Y-170195090D01*
X52423880Y-170382683D01*
X52331470Y-170555570D01*
X52207107Y-170707107D01*
X52055570Y-170831470D01*
X51882683Y-170923880D01*
X51695090Y-170980785D01*
X51500000Y-171000000D01*
X51304910Y-170980785D01*
X51117317Y-170923880D01*
X50944430Y-170831470D01*
X50792893Y-170707107D01*
X50668530Y-170555570D01*
X50576120Y-170382683D01*
X50519215Y-170195090D01*
X50500000Y-170000000D01*
X50519215Y-169804910D01*
X50576120Y-169617317D01*
X50668530Y-169444430D01*
X50792893Y-169292893D01*
X50944430Y-169168530D01*
X51117317Y-169076120D01*
X51304910Y-169019215D01*
X51500000Y-169000000D01*
X51695090Y-169019215D01*
G37*
G36*
X56695090Y-169019215D02*
G01*
X56882683Y-169076120D01*
X57055570Y-169168530D01*
X57207107Y-169292893D01*
X57331470Y-169444430D01*
X57423880Y-169617317D01*
X57480785Y-169804910D01*
X57500000Y-170000000D01*
X57480785Y-170195090D01*
X57423880Y-170382683D01*
X57331470Y-170555570D01*
X57207107Y-170707107D01*
X57055570Y-170831470D01*
X56882683Y-170923880D01*
X56695090Y-170980785D01*
X56500000Y-171000000D01*
X56304910Y-170980785D01*
X56117317Y-170923880D01*
X55944430Y-170831470D01*
X55792893Y-170707107D01*
X55668530Y-170555570D01*
X55576120Y-170382683D01*
X55519215Y-170195090D01*
X55500000Y-170000000D01*
X55519215Y-169804910D01*
X55576120Y-169617317D01*
X55668530Y-169444430D01*
X55792893Y-169292893D01*
X55944430Y-169168530D01*
X56117317Y-169076120D01*
X56304910Y-169019215D01*
X56500000Y-169000000D01*
X56695090Y-169019215D01*
G37*
G36*
X32833785Y-169204448D02*
G01*
X32866241Y-169204448D01*
X32903454Y-169213620D01*
X32942350Y-169218741D01*
X32968974Y-169229769D01*
X32994879Y-169236154D01*
X33034154Y-169256767D01*
X33075000Y-169273686D01*
X33093635Y-169287985D01*
X33112183Y-169297720D01*
X33150106Y-169331317D01*
X33188909Y-169361091D01*
X33199935Y-169375461D01*
X33211353Y-169385576D01*
X33244090Y-169433005D01*
X33276314Y-169475000D01*
X33281171Y-169486727D01*
X33286609Y-169494605D01*
X33310199Y-169556807D01*
X33331259Y-169607650D01*
X33332204Y-169614828D01*
X33333589Y-169618480D01*
X33344314Y-169706817D01*
X33350000Y-169750000D01*
X33344314Y-169793186D01*
X33333589Y-169881519D01*
X33332204Y-169885170D01*
X33331259Y-169892350D01*
X33310194Y-169943203D01*
X33286609Y-170005394D01*
X33281172Y-170013269D01*
X33276314Y-170025000D01*
X33244083Y-170067003D01*
X33211353Y-170114423D01*
X33199937Y-170124535D01*
X33188909Y-170138909D01*
X33150098Y-170168689D01*
X33112183Y-170202279D01*
X33093639Y-170212011D01*
X33075000Y-170226314D01*
X33034145Y-170243236D01*
X32994879Y-170263845D01*
X32968979Y-170270228D01*
X32942350Y-170281259D01*
X32903452Y-170286380D01*
X32866241Y-170295552D01*
X32833785Y-170295552D01*
X32800000Y-170300000D01*
X32766215Y-170295552D01*
X32733759Y-170295552D01*
X32696546Y-170286379D01*
X32657650Y-170281259D01*
X32631021Y-170270229D01*
X32605120Y-170263845D01*
X32565850Y-170243234D01*
X32525000Y-170226314D01*
X32506362Y-170212012D01*
X32487816Y-170202279D01*
X32449894Y-170168683D01*
X32411091Y-170138909D01*
X32400064Y-170124538D01*
X32388646Y-170114423D01*
X32355906Y-170066990D01*
X32323686Y-170025000D01*
X32318828Y-170013273D01*
X32313390Y-170005394D01*
X32289793Y-169943175D01*
X32268741Y-169892350D01*
X32267796Y-169885174D01*
X32266410Y-169881519D01*
X32255672Y-169793088D01*
X32250000Y-169750000D01*
X32255672Y-169706914D01*
X32266410Y-169618480D01*
X32267796Y-169614824D01*
X32268741Y-169607650D01*
X32289788Y-169556835D01*
X32313390Y-169494605D01*
X32318829Y-169486723D01*
X32323686Y-169475000D01*
X32355899Y-169433018D01*
X32388646Y-169385576D01*
X32400066Y-169375458D01*
X32411091Y-169361091D01*
X32449885Y-169331322D01*
X32487816Y-169297720D01*
X32506366Y-169287983D01*
X32525000Y-169273686D01*
X32565841Y-169256769D01*
X32605120Y-169236154D01*
X32631026Y-169229768D01*
X32657650Y-169218741D01*
X32696544Y-169213620D01*
X32733759Y-169204448D01*
X32766215Y-169204448D01*
X32800000Y-169200000D01*
X32833785Y-169204448D01*
G37*
G36*
X38833785Y-169204448D02*
G01*
X38866241Y-169204448D01*
X38903454Y-169213620D01*
X38942350Y-169218741D01*
X38968974Y-169229769D01*
X38994879Y-169236154D01*
X39034154Y-169256767D01*
X39075000Y-169273686D01*
X39093635Y-169287985D01*
X39112183Y-169297720D01*
X39150106Y-169331317D01*
X39188909Y-169361091D01*
X39199935Y-169375461D01*
X39211353Y-169385576D01*
X39244090Y-169433005D01*
X39276314Y-169475000D01*
X39281171Y-169486727D01*
X39286609Y-169494605D01*
X39310199Y-169556807D01*
X39331259Y-169607650D01*
X39332204Y-169614828D01*
X39333589Y-169618480D01*
X39344314Y-169706817D01*
X39350000Y-169750000D01*
X39344314Y-169793186D01*
X39333589Y-169881519D01*
X39332204Y-169885170D01*
X39331259Y-169892350D01*
X39310194Y-169943203D01*
X39286609Y-170005394D01*
X39281172Y-170013269D01*
X39276314Y-170025000D01*
X39244083Y-170067003D01*
X39211353Y-170114423D01*
X39199937Y-170124535D01*
X39188909Y-170138909D01*
X39150098Y-170168689D01*
X39112183Y-170202279D01*
X39093639Y-170212011D01*
X39075000Y-170226314D01*
X39034145Y-170243236D01*
X38994879Y-170263845D01*
X38968979Y-170270228D01*
X38942350Y-170281259D01*
X38903452Y-170286380D01*
X38866241Y-170295552D01*
X38833785Y-170295552D01*
X38800000Y-170300000D01*
X38766215Y-170295552D01*
X38733759Y-170295552D01*
X38696546Y-170286379D01*
X38657650Y-170281259D01*
X38631021Y-170270229D01*
X38605120Y-170263845D01*
X38565850Y-170243234D01*
X38525000Y-170226314D01*
X38506362Y-170212012D01*
X38487816Y-170202279D01*
X38449894Y-170168683D01*
X38411091Y-170138909D01*
X38400064Y-170124538D01*
X38388646Y-170114423D01*
X38355906Y-170066990D01*
X38323686Y-170025000D01*
X38318828Y-170013273D01*
X38313390Y-170005394D01*
X38289793Y-169943175D01*
X38268741Y-169892350D01*
X38267796Y-169885174D01*
X38266410Y-169881519D01*
X38255672Y-169793088D01*
X38250000Y-169750000D01*
X38255672Y-169706914D01*
X38266410Y-169618480D01*
X38267796Y-169614824D01*
X38268741Y-169607650D01*
X38289788Y-169556835D01*
X38313390Y-169494605D01*
X38318829Y-169486723D01*
X38323686Y-169475000D01*
X38355899Y-169433018D01*
X38388646Y-169385576D01*
X38400066Y-169375458D01*
X38411091Y-169361091D01*
X38449885Y-169331322D01*
X38487816Y-169297720D01*
X38506366Y-169287983D01*
X38525000Y-169273686D01*
X38565841Y-169256769D01*
X38605120Y-169236154D01*
X38631026Y-169229768D01*
X38657650Y-169218741D01*
X38696544Y-169213620D01*
X38733759Y-169204448D01*
X38766215Y-169204448D01*
X38800000Y-169200000D01*
X38833785Y-169204448D01*
G37*
G36*
X74335149Y-168721482D02*
G01*
X74481657Y-168750624D01*
X74619664Y-168807789D01*
X74743868Y-168890779D01*
X74849494Y-168996405D01*
X74932484Y-169120609D01*
X74989649Y-169258616D01*
X75018791Y-169405124D01*
X75018791Y-169554502D01*
X74989649Y-169701010D01*
X74932484Y-169839017D01*
X74849494Y-169963221D01*
X74743868Y-170068847D01*
X74619664Y-170151837D01*
X74481657Y-170209002D01*
X74335149Y-170238144D01*
X73884460Y-170241813D01*
X73809771Y-170238144D01*
X73663263Y-170209002D01*
X73525256Y-170151837D01*
X73401052Y-170068847D01*
X73295426Y-169963221D01*
X73212436Y-169839017D01*
X73155271Y-169701010D01*
X73126129Y-169554502D01*
X73126129Y-169405124D01*
X73155271Y-169258616D01*
X73212436Y-169120609D01*
X73295426Y-168996405D01*
X73401052Y-168890779D01*
X73525256Y-168807789D01*
X73663263Y-168750624D01*
X73809771Y-168721482D01*
X74260460Y-168717813D01*
X74335149Y-168721482D01*
G37*
G36*
X99735149Y-168721482D02*
G01*
X99881657Y-168750624D01*
X100019664Y-168807789D01*
X100143868Y-168890779D01*
X100249494Y-168996405D01*
X100332484Y-169120609D01*
X100389649Y-169258616D01*
X100418791Y-169405124D01*
X100418791Y-169554502D01*
X100389649Y-169701010D01*
X100332484Y-169839017D01*
X100249494Y-169963221D01*
X100143868Y-170068847D01*
X100019664Y-170151837D01*
X99881657Y-170209002D01*
X99735149Y-170238144D01*
X99284460Y-170241813D01*
X99209771Y-170238144D01*
X99063263Y-170209002D01*
X98925256Y-170151837D01*
X98801052Y-170068847D01*
X98695426Y-169963221D01*
X98612436Y-169839017D01*
X98555271Y-169701010D01*
X98526129Y-169554502D01*
X98526129Y-169405124D01*
X98555271Y-169258616D01*
X98612436Y-169120609D01*
X98695426Y-168996405D01*
X98801052Y-168890779D01*
X98925256Y-168807789D01*
X99063263Y-168750624D01*
X99209771Y-168721482D01*
X99660460Y-168717813D01*
X99735149Y-168721482D01*
G37*
G36*
X63041933Y-167495104D02*
G01*
X63084376Y-167495104D01*
X63120119Y-167503914D01*
X63155680Y-167507921D01*
X63201679Y-167524017D01*
X63248223Y-167535489D01*
X63275745Y-167549933D01*
X63303553Y-167559664D01*
X63350549Y-167589193D01*
X63397645Y-167613911D01*
X63416568Y-167630675D01*
X63436205Y-167643014D01*
X63480541Y-167687350D01*
X63523958Y-167725814D01*
X63534994Y-167741803D01*
X63546985Y-167753794D01*
X63584680Y-167813786D01*
X63619819Y-167864694D01*
X63624617Y-167877346D01*
X63630335Y-167886446D01*
X63657370Y-167963710D01*
X63679659Y-168022479D01*
X63680575Y-168030024D01*
X63682078Y-168034319D01*
X63694723Y-168146543D01*
X63700000Y-168190000D01*
X63694722Y-168233459D01*
X63682078Y-168345680D01*
X63680575Y-168349974D01*
X63679659Y-168357521D01*
X63657366Y-168416301D01*
X63630335Y-168493553D01*
X63624618Y-168502650D01*
X63619819Y-168515306D01*
X63584673Y-168566223D01*
X63546985Y-168626205D01*
X63534997Y-168638192D01*
X63523958Y-168654186D01*
X63480532Y-168692657D01*
X63436205Y-168736985D01*
X63416572Y-168749320D01*
X63397645Y-168766089D01*
X63350540Y-168790811D01*
X63303553Y-168820335D01*
X63275750Y-168830063D01*
X63248223Y-168844511D01*
X63201670Y-168855985D01*
X63155680Y-168872078D01*
X63120126Y-168876084D01*
X63084376Y-168884896D01*
X63041924Y-168884896D01*
X63000000Y-168889620D01*
X62958076Y-168884896D01*
X62915624Y-168884896D01*
X62879873Y-168876084D01*
X62844319Y-168872078D01*
X62798326Y-168855984D01*
X62751777Y-168844511D01*
X62724251Y-168830064D01*
X62696446Y-168820335D01*
X62649453Y-168790808D01*
X62602355Y-168766089D01*
X62583430Y-168749323D01*
X62563794Y-168736985D01*
X62519458Y-168692649D01*
X62476042Y-168654186D01*
X62465005Y-168638196D01*
X62453014Y-168626205D01*
X62415315Y-168566207D01*
X62380181Y-168515306D01*
X62375383Y-168502654D01*
X62369664Y-168493553D01*
X62342620Y-168416267D01*
X62320341Y-168357521D01*
X62319425Y-168349978D01*
X62317921Y-168345680D01*
X62305263Y-168233345D01*
X62300000Y-168190000D01*
X62305262Y-168146658D01*
X62317921Y-168034319D01*
X62319425Y-168030019D01*
X62320341Y-168022479D01*
X62342616Y-167963744D01*
X62369664Y-167886446D01*
X62375384Y-167877342D01*
X62380181Y-167864694D01*
X62415308Y-167813802D01*
X62453014Y-167753794D01*
X62465007Y-167741800D01*
X62476042Y-167725814D01*
X62519449Y-167687358D01*
X62563794Y-167643014D01*
X62583433Y-167630673D01*
X62602355Y-167613911D01*
X62649444Y-167589196D01*
X62696446Y-167559664D01*
X62724256Y-167549932D01*
X62751777Y-167535489D01*
X62798316Y-167524017D01*
X62844319Y-167507921D01*
X62879881Y-167503913D01*
X62915624Y-167495104D01*
X62958067Y-167495104D01*
X63000000Y-167490379D01*
X63041933Y-167495104D01*
G37*
G36*
X34817060Y-166268990D02*
G01*
X35027525Y-166325384D01*
X35225000Y-166417468D01*
X35403485Y-166542444D01*
X35557556Y-166696515D01*
X35682532Y-166875000D01*
X35774616Y-167072475D01*
X35831010Y-167282940D01*
X35850000Y-167500000D01*
X35831010Y-167717060D01*
X35774616Y-167927525D01*
X35682532Y-168125000D01*
X35557556Y-168303485D01*
X35403485Y-168457556D01*
X35225000Y-168582532D01*
X35027525Y-168674616D01*
X34817060Y-168731010D01*
X34600000Y-168750000D01*
X34382940Y-168731010D01*
X34172475Y-168674616D01*
X33975000Y-168582532D01*
X33796515Y-168457556D01*
X33642444Y-168303485D01*
X33517468Y-168125000D01*
X33425384Y-167927525D01*
X33368990Y-167717060D01*
X33350000Y-167500000D01*
X33368990Y-167282940D01*
X33425384Y-167072475D01*
X33517468Y-166875000D01*
X33642444Y-166696515D01*
X33796515Y-166542444D01*
X33975000Y-166417468D01*
X34172475Y-166325384D01*
X34382940Y-166268990D01*
X34600000Y-166250000D01*
X34817060Y-166268990D01*
G37*
G36*
X74335149Y-166181482D02*
G01*
X74481657Y-166210624D01*
X74619664Y-166267789D01*
X74743868Y-166350779D01*
X74849494Y-166456405D01*
X74932484Y-166580609D01*
X74989649Y-166718616D01*
X75018791Y-166865124D01*
X75018791Y-167014502D01*
X74989649Y-167161010D01*
X74932484Y-167299017D01*
X74849494Y-167423221D01*
X74743868Y-167528847D01*
X74619664Y-167611837D01*
X74481657Y-167669002D01*
X74335149Y-167698144D01*
X73884460Y-167701813D01*
X73809771Y-167698144D01*
X73663263Y-167669002D01*
X73525256Y-167611837D01*
X73401052Y-167528847D01*
X73295426Y-167423221D01*
X73212436Y-167299017D01*
X73155271Y-167161010D01*
X73126129Y-167014502D01*
X73126129Y-166865124D01*
X73155271Y-166718616D01*
X73212436Y-166580609D01*
X73295426Y-166456405D01*
X73401052Y-166350779D01*
X73525256Y-166267789D01*
X73663263Y-166210624D01*
X73809771Y-166181482D01*
X74260460Y-166177813D01*
X74335149Y-166181482D01*
G37*
G36*
X99735149Y-166181482D02*
G01*
X99881657Y-166210624D01*
X100019664Y-166267789D01*
X100143868Y-166350779D01*
X100249494Y-166456405D01*
X100332484Y-166580609D01*
X100389649Y-166718616D01*
X100418791Y-166865124D01*
X100418791Y-167014502D01*
X100389649Y-167161010D01*
X100332484Y-167299017D01*
X100249494Y-167423221D01*
X100143868Y-167528847D01*
X100019664Y-167611837D01*
X99881657Y-167669002D01*
X99735149Y-167698144D01*
X99284460Y-167701813D01*
X99209771Y-167698144D01*
X99063263Y-167669002D01*
X98925256Y-167611837D01*
X98801052Y-167528847D01*
X98695426Y-167423221D01*
X98612436Y-167299017D01*
X98555271Y-167161010D01*
X98526129Y-167014502D01*
X98526129Y-166865124D01*
X98555271Y-166718616D01*
X98612436Y-166580609D01*
X98695426Y-166456405D01*
X98801052Y-166350779D01*
X98925256Y-166267789D01*
X99063263Y-166210624D01*
X99209771Y-166181482D01*
X99660460Y-166177813D01*
X99735149Y-166181482D01*
G37*
G36*
X63041933Y-164115104D02*
G01*
X63084376Y-164115104D01*
X63120119Y-164123914D01*
X63155680Y-164127921D01*
X63201679Y-164144017D01*
X63248223Y-164155489D01*
X63275745Y-164169933D01*
X63303553Y-164179664D01*
X63350549Y-164209193D01*
X63397645Y-164233911D01*
X63416568Y-164250675D01*
X63436205Y-164263014D01*
X63480541Y-164307350D01*
X63523958Y-164345814D01*
X63534994Y-164361803D01*
X63546985Y-164373794D01*
X63584680Y-164433786D01*
X63619819Y-164484694D01*
X63624617Y-164497346D01*
X63630335Y-164506446D01*
X63657370Y-164583710D01*
X63679659Y-164642479D01*
X63680575Y-164650024D01*
X63682078Y-164654319D01*
X63694723Y-164766543D01*
X63700000Y-164810000D01*
X63694722Y-164853459D01*
X63682078Y-164965680D01*
X63680575Y-164969974D01*
X63679659Y-164977521D01*
X63657366Y-165036301D01*
X63630335Y-165113553D01*
X63624618Y-165122650D01*
X63619819Y-165135306D01*
X63584673Y-165186223D01*
X63546985Y-165246205D01*
X63534997Y-165258192D01*
X63523958Y-165274186D01*
X63480532Y-165312657D01*
X63436205Y-165356985D01*
X63416572Y-165369320D01*
X63397645Y-165386089D01*
X63350540Y-165410811D01*
X63303553Y-165440335D01*
X63275750Y-165450063D01*
X63248223Y-165464511D01*
X63201670Y-165475985D01*
X63155680Y-165492078D01*
X63120126Y-165496084D01*
X63084376Y-165504896D01*
X63041924Y-165504896D01*
X63000000Y-165509620D01*
X62958076Y-165504896D01*
X62915624Y-165504896D01*
X62879873Y-165496084D01*
X62844319Y-165492078D01*
X62798326Y-165475984D01*
X62751777Y-165464511D01*
X62724251Y-165450064D01*
X62696446Y-165440335D01*
X62649453Y-165410808D01*
X62602355Y-165386089D01*
X62583430Y-165369323D01*
X62563794Y-165356985D01*
X62519458Y-165312649D01*
X62476042Y-165274186D01*
X62465005Y-165258196D01*
X62453014Y-165246205D01*
X62415315Y-165186207D01*
X62380181Y-165135306D01*
X62375383Y-165122654D01*
X62369664Y-165113553D01*
X62342620Y-165036267D01*
X62320341Y-164977521D01*
X62319425Y-164969978D01*
X62317921Y-164965680D01*
X62305263Y-164853345D01*
X62300000Y-164810000D01*
X62305262Y-164766658D01*
X62317921Y-164654319D01*
X62319425Y-164650019D01*
X62320341Y-164642479D01*
X62342616Y-164583744D01*
X62369664Y-164506446D01*
X62375384Y-164497342D01*
X62380181Y-164484694D01*
X62415308Y-164433802D01*
X62453014Y-164373794D01*
X62465007Y-164361800D01*
X62476042Y-164345814D01*
X62519449Y-164307358D01*
X62563794Y-164263014D01*
X62583433Y-164250673D01*
X62602355Y-164233911D01*
X62649444Y-164209196D01*
X62696446Y-164179664D01*
X62724256Y-164169932D01*
X62751777Y-164155489D01*
X62798316Y-164144017D01*
X62844319Y-164127921D01*
X62879881Y-164123913D01*
X62915624Y-164115104D01*
X62958067Y-164115104D01*
X63000000Y-164110379D01*
X63041933Y-164115104D01*
G37*
G36*
X74335149Y-163641482D02*
G01*
X74481657Y-163670624D01*
X74619664Y-163727789D01*
X74743868Y-163810779D01*
X74849494Y-163916405D01*
X74932484Y-164040609D01*
X74989649Y-164178616D01*
X75018791Y-164325124D01*
X75018791Y-164474502D01*
X74989649Y-164621010D01*
X74932484Y-164759017D01*
X74849494Y-164883221D01*
X74743868Y-164988847D01*
X74619664Y-165071837D01*
X74481657Y-165129002D01*
X74335149Y-165158144D01*
X73884460Y-165161813D01*
X73809771Y-165158144D01*
X73663263Y-165129002D01*
X73525256Y-165071837D01*
X73401052Y-164988847D01*
X73295426Y-164883221D01*
X73212436Y-164759017D01*
X73155271Y-164621010D01*
X73126129Y-164474502D01*
X73126129Y-164325124D01*
X73155271Y-164178616D01*
X73212436Y-164040609D01*
X73295426Y-163916405D01*
X73401052Y-163810779D01*
X73525256Y-163727789D01*
X73663263Y-163670624D01*
X73809771Y-163641482D01*
X74260460Y-163637813D01*
X74335149Y-163641482D01*
G37*
G36*
X99735149Y-163641482D02*
G01*
X99881657Y-163670624D01*
X100019664Y-163727789D01*
X100143868Y-163810779D01*
X100249494Y-163916405D01*
X100332484Y-164040609D01*
X100389649Y-164178616D01*
X100418791Y-164325124D01*
X100418791Y-164474502D01*
X100389649Y-164621010D01*
X100332484Y-164759017D01*
X100249494Y-164883221D01*
X100143868Y-164988847D01*
X100019664Y-165071837D01*
X99881657Y-165129002D01*
X99735149Y-165158144D01*
X99284460Y-165161813D01*
X99209771Y-165158144D01*
X99063263Y-165129002D01*
X98925256Y-165071837D01*
X98801052Y-164988847D01*
X98695426Y-164883221D01*
X98612436Y-164759017D01*
X98555271Y-164621010D01*
X98526129Y-164474502D01*
X98526129Y-164325124D01*
X98555271Y-164178616D01*
X98612436Y-164040609D01*
X98695426Y-163916405D01*
X98801052Y-163810779D01*
X98925256Y-163727789D01*
X99063263Y-163670624D01*
X99209771Y-163641482D01*
X99660460Y-163637813D01*
X99735149Y-163641482D01*
G37*
G36*
X43195090Y-162519215D02*
G01*
X43382683Y-162576120D01*
X43555570Y-162668530D01*
X43707107Y-162792893D01*
X43831470Y-162944430D01*
X43923880Y-163117317D01*
X43980785Y-163304910D01*
X44000000Y-163500000D01*
X43980785Y-163695090D01*
X43923880Y-163882683D01*
X43831470Y-164055570D01*
X43707107Y-164207107D01*
X43555570Y-164331470D01*
X43382683Y-164423880D01*
X43195090Y-164480785D01*
X43000000Y-164500000D01*
X42804910Y-164480785D01*
X42617317Y-164423880D01*
X42444430Y-164331470D01*
X42292893Y-164207107D01*
X42168530Y-164055570D01*
X42076120Y-163882683D01*
X42019215Y-163695090D01*
X42000000Y-163500000D01*
X42019215Y-163304910D01*
X42076120Y-163117317D01*
X42168530Y-162944430D01*
X42292893Y-162792893D01*
X42444430Y-162668530D01*
X42617317Y-162576120D01*
X42804910Y-162519215D01*
X43000000Y-162500000D01*
X43195090Y-162519215D01*
G37*
G36*
X74335149Y-161101482D02*
G01*
X74481657Y-161130624D01*
X74619664Y-161187789D01*
X74743868Y-161270779D01*
X74849494Y-161376405D01*
X74932484Y-161500609D01*
X74989649Y-161638616D01*
X75018791Y-161785124D01*
X75018791Y-161934502D01*
X74989649Y-162081010D01*
X74932484Y-162219017D01*
X74849494Y-162343221D01*
X74743868Y-162448847D01*
X74619664Y-162531837D01*
X74481657Y-162589002D01*
X74335149Y-162618144D01*
X73884460Y-162621813D01*
X73809771Y-162618144D01*
X73663263Y-162589002D01*
X73525256Y-162531837D01*
X73401052Y-162448847D01*
X73295426Y-162343221D01*
X73212436Y-162219017D01*
X73155271Y-162081010D01*
X73126129Y-161934502D01*
X73126129Y-161785124D01*
X73155271Y-161638616D01*
X73212436Y-161500609D01*
X73295426Y-161376405D01*
X73401052Y-161270779D01*
X73525256Y-161187789D01*
X73663263Y-161130624D01*
X73809771Y-161101482D01*
X74260460Y-161097813D01*
X74335149Y-161101482D01*
G37*
G36*
X99735149Y-161101482D02*
G01*
X99881657Y-161130624D01*
X100019664Y-161187789D01*
X100143868Y-161270779D01*
X100249494Y-161376405D01*
X100332484Y-161500609D01*
X100389649Y-161638616D01*
X100418791Y-161785124D01*
X100418791Y-161934502D01*
X100389649Y-162081010D01*
X100332484Y-162219017D01*
X100249494Y-162343221D01*
X100143868Y-162448847D01*
X100019664Y-162531837D01*
X99881657Y-162589002D01*
X99735149Y-162618144D01*
X99284460Y-162621813D01*
X99209771Y-162618144D01*
X99063263Y-162589002D01*
X98925256Y-162531837D01*
X98801052Y-162448847D01*
X98695426Y-162343221D01*
X98612436Y-162219017D01*
X98555271Y-162081010D01*
X98526129Y-161934502D01*
X98526129Y-161785124D01*
X98555271Y-161638616D01*
X98612436Y-161500609D01*
X98695426Y-161376405D01*
X98801052Y-161270779D01*
X98925256Y-161187789D01*
X99063263Y-161130624D01*
X99209771Y-161101482D01*
X99660460Y-161097813D01*
X99735149Y-161101482D01*
G37*
G36*
X52750000Y-162525000D02*
G01*
X51250000Y-162525000D01*
X51250000Y-161475000D01*
X52750000Y-161475000D01*
X52750000Y-162525000D01*
G37*
G36*
X52293526Y-160209491D02*
G01*
X52425909Y-160244963D01*
X52544600Y-160313489D01*
X52641511Y-160410400D01*
X52710037Y-160529091D01*
X52745509Y-160661474D01*
X52745509Y-160798526D01*
X52710037Y-160930909D01*
X52641511Y-161049600D01*
X52544600Y-161146511D01*
X52425909Y-161215037D01*
X52293526Y-161250509D01*
X51775000Y-161255000D01*
X51706474Y-161250509D01*
X51574091Y-161215037D01*
X51455400Y-161146511D01*
X51358489Y-161049600D01*
X51289963Y-160930909D01*
X51254491Y-160798526D01*
X51254491Y-160661474D01*
X51289963Y-160529091D01*
X51358489Y-160410400D01*
X51455400Y-160313489D01*
X51574091Y-160244963D01*
X51706474Y-160209491D01*
X52225000Y-160205000D01*
X52293526Y-160209491D01*
G37*
G36*
X74335149Y-158561482D02*
G01*
X74481657Y-158590624D01*
X74619664Y-158647789D01*
X74743868Y-158730779D01*
X74849494Y-158836405D01*
X74932484Y-158960609D01*
X74989649Y-159098616D01*
X75018791Y-159245124D01*
X75018791Y-159394502D01*
X74989649Y-159541010D01*
X74932484Y-159679017D01*
X74849494Y-159803221D01*
X74743868Y-159908847D01*
X74619664Y-159991837D01*
X74481657Y-160049002D01*
X74335149Y-160078144D01*
X73884460Y-160081813D01*
X73809771Y-160078144D01*
X73663263Y-160049002D01*
X73525256Y-159991837D01*
X73401052Y-159908847D01*
X73295426Y-159803221D01*
X73212436Y-159679017D01*
X73155271Y-159541010D01*
X73126129Y-159394502D01*
X73126129Y-159245124D01*
X73155271Y-159098616D01*
X73212436Y-158960609D01*
X73295426Y-158836405D01*
X73401052Y-158730779D01*
X73525256Y-158647789D01*
X73663263Y-158590624D01*
X73809771Y-158561482D01*
X74260460Y-158557813D01*
X74335149Y-158561482D01*
G37*
G36*
X99735149Y-158561482D02*
G01*
X99881657Y-158590624D01*
X100019664Y-158647789D01*
X100143868Y-158730779D01*
X100249494Y-158836405D01*
X100332484Y-158960609D01*
X100389649Y-159098616D01*
X100418791Y-159245124D01*
X100418791Y-159394502D01*
X100389649Y-159541010D01*
X100332484Y-159679017D01*
X100249494Y-159803221D01*
X100143868Y-159908847D01*
X100019664Y-159991837D01*
X99881657Y-160049002D01*
X99735149Y-160078144D01*
X99284460Y-160081813D01*
X99209771Y-160078144D01*
X99063263Y-160049002D01*
X98925256Y-159991837D01*
X98801052Y-159908847D01*
X98695426Y-159803221D01*
X98612436Y-159679017D01*
X98555271Y-159541010D01*
X98526129Y-159394502D01*
X98526129Y-159245124D01*
X98555271Y-159098616D01*
X98612436Y-158960609D01*
X98695426Y-158836405D01*
X98801052Y-158730779D01*
X98925256Y-158647789D01*
X99063263Y-158590624D01*
X99209771Y-158561482D01*
X99660460Y-158557813D01*
X99735149Y-158561482D01*
G37*
G36*
X52293526Y-158939491D02*
G01*
X52425909Y-158974963D01*
X52544600Y-159043489D01*
X52641511Y-159140400D01*
X52710037Y-159259091D01*
X52745509Y-159391474D01*
X52745509Y-159528526D01*
X52710037Y-159660909D01*
X52641511Y-159779600D01*
X52544600Y-159876511D01*
X52425909Y-159945037D01*
X52293526Y-159980509D01*
X51775000Y-159985000D01*
X51706474Y-159980509D01*
X51574091Y-159945037D01*
X51455400Y-159876511D01*
X51358489Y-159779600D01*
X51289963Y-159660909D01*
X51254491Y-159528526D01*
X51254491Y-159391474D01*
X51289963Y-159259091D01*
X51358489Y-159140400D01*
X51455400Y-159043489D01*
X51574091Y-158974963D01*
X51706474Y-158939491D01*
X52225000Y-158935000D01*
X52293526Y-158939491D01*
G37*
G36*
X43195090Y-157519215D02*
G01*
X43382683Y-157576120D01*
X43555570Y-157668530D01*
X43707107Y-157792893D01*
X43831470Y-157944430D01*
X43923880Y-158117317D01*
X43980785Y-158304910D01*
X44000000Y-158500000D01*
X43980785Y-158695090D01*
X43923880Y-158882683D01*
X43831470Y-159055570D01*
X43707107Y-159207107D01*
X43555570Y-159331470D01*
X43382683Y-159423880D01*
X43195090Y-159480785D01*
X43000000Y-159500000D01*
X42804910Y-159480785D01*
X42617317Y-159423880D01*
X42444430Y-159331470D01*
X42292893Y-159207107D01*
X42168530Y-159055570D01*
X42076120Y-158882683D01*
X42019215Y-158695090D01*
X42000000Y-158500000D01*
X42019215Y-158304910D01*
X42076120Y-158117317D01*
X42168530Y-157944430D01*
X42292893Y-157792893D01*
X42444430Y-157668530D01*
X42617317Y-157576120D01*
X42804910Y-157519215D01*
X43000000Y-157500000D01*
X43195090Y-157519215D01*
G37*
G36*
X63041933Y-156495104D02*
G01*
X63084376Y-156495104D01*
X63120119Y-156503914D01*
X63155680Y-156507921D01*
X63201679Y-156524017D01*
X63248223Y-156535489D01*
X63275745Y-156549933D01*
X63303553Y-156559664D01*
X63350549Y-156589193D01*
X63397645Y-156613911D01*
X63416568Y-156630675D01*
X63436205Y-156643014D01*
X63480541Y-156687350D01*
X63523958Y-156725814D01*
X63534994Y-156741803D01*
X63546985Y-156753794D01*
X63584680Y-156813786D01*
X63619819Y-156864694D01*
X63624617Y-156877346D01*
X63630335Y-156886446D01*
X63657370Y-156963710D01*
X63679659Y-157022479D01*
X63680575Y-157030024D01*
X63682078Y-157034319D01*
X63694723Y-157146543D01*
X63700000Y-157190000D01*
X63694722Y-157233459D01*
X63682078Y-157345680D01*
X63680575Y-157349974D01*
X63679659Y-157357521D01*
X63657366Y-157416301D01*
X63630335Y-157493553D01*
X63624618Y-157502650D01*
X63619819Y-157515306D01*
X63584673Y-157566223D01*
X63546985Y-157626205D01*
X63534997Y-157638192D01*
X63523958Y-157654186D01*
X63480532Y-157692657D01*
X63436205Y-157736985D01*
X63416572Y-157749320D01*
X63397645Y-157766089D01*
X63350540Y-157790811D01*
X63303553Y-157820335D01*
X63275750Y-157830063D01*
X63248223Y-157844511D01*
X63201670Y-157855985D01*
X63155680Y-157872078D01*
X63120126Y-157876084D01*
X63084376Y-157884896D01*
X63041924Y-157884896D01*
X63000000Y-157889620D01*
X62958076Y-157884896D01*
X62915624Y-157884896D01*
X62879873Y-157876084D01*
X62844319Y-157872078D01*
X62798326Y-157855984D01*
X62751777Y-157844511D01*
X62724251Y-157830064D01*
X62696446Y-157820335D01*
X62649453Y-157790808D01*
X62602355Y-157766089D01*
X62583430Y-157749323D01*
X62563794Y-157736985D01*
X62519458Y-157692649D01*
X62476042Y-157654186D01*
X62465005Y-157638196D01*
X62453014Y-157626205D01*
X62415315Y-157566207D01*
X62380181Y-157515306D01*
X62375383Y-157502654D01*
X62369664Y-157493553D01*
X62342620Y-157416267D01*
X62320341Y-157357521D01*
X62319425Y-157349978D01*
X62317921Y-157345680D01*
X62305263Y-157233345D01*
X62300000Y-157190000D01*
X62305262Y-157146658D01*
X62317921Y-157034319D01*
X62319425Y-157030019D01*
X62320341Y-157022479D01*
X62342616Y-156963744D01*
X62369664Y-156886446D01*
X62375384Y-156877342D01*
X62380181Y-156864694D01*
X62415308Y-156813802D01*
X62453014Y-156753794D01*
X62465007Y-156741800D01*
X62476042Y-156725814D01*
X62519449Y-156687358D01*
X62563794Y-156643014D01*
X62583433Y-156630673D01*
X62602355Y-156613911D01*
X62649444Y-156589196D01*
X62696446Y-156559664D01*
X62724256Y-156549932D01*
X62751777Y-156535489D01*
X62798316Y-156524017D01*
X62844319Y-156507921D01*
X62879881Y-156503913D01*
X62915624Y-156495104D01*
X62958067Y-156495104D01*
X63000000Y-156490379D01*
X63041933Y-156495104D01*
G37*
G36*
X74335149Y-156021482D02*
G01*
X74481657Y-156050624D01*
X74619664Y-156107789D01*
X74743868Y-156190779D01*
X74849494Y-156296405D01*
X74932484Y-156420609D01*
X74989649Y-156558616D01*
X75018791Y-156705124D01*
X75018791Y-156854502D01*
X74989649Y-157001010D01*
X74932484Y-157139017D01*
X74849494Y-157263221D01*
X74743868Y-157368847D01*
X74619664Y-157451837D01*
X74481657Y-157509002D01*
X74335149Y-157538144D01*
X73884460Y-157541813D01*
X73809771Y-157538144D01*
X73663263Y-157509002D01*
X73525256Y-157451837D01*
X73401052Y-157368847D01*
X73295426Y-157263221D01*
X73212436Y-157139017D01*
X73155271Y-157001010D01*
X73126129Y-156854502D01*
X73126129Y-156705124D01*
X73155271Y-156558616D01*
X73212436Y-156420609D01*
X73295426Y-156296405D01*
X73401052Y-156190779D01*
X73525256Y-156107789D01*
X73663263Y-156050624D01*
X73809771Y-156021482D01*
X74260460Y-156017813D01*
X74335149Y-156021482D01*
G37*
G36*
X99735149Y-156021482D02*
G01*
X99881657Y-156050624D01*
X100019664Y-156107789D01*
X100143868Y-156190779D01*
X100249494Y-156296405D01*
X100332484Y-156420609D01*
X100389649Y-156558616D01*
X100418791Y-156705124D01*
X100418791Y-156854502D01*
X100389649Y-157001010D01*
X100332484Y-157139017D01*
X100249494Y-157263221D01*
X100143868Y-157368847D01*
X100019664Y-157451837D01*
X99881657Y-157509002D01*
X99735149Y-157538144D01*
X99284460Y-157541813D01*
X99209771Y-157538144D01*
X99063263Y-157509002D01*
X98925256Y-157451837D01*
X98801052Y-157368847D01*
X98695426Y-157263221D01*
X98612436Y-157139017D01*
X98555271Y-157001010D01*
X98526129Y-156854502D01*
X98526129Y-156705124D01*
X98555271Y-156558616D01*
X98612436Y-156420609D01*
X98695426Y-156296405D01*
X98801052Y-156190779D01*
X98925256Y-156107789D01*
X99063263Y-156050624D01*
X99209771Y-156021482D01*
X99660460Y-156017813D01*
X99735149Y-156021482D01*
G37*
G36*
X51231933Y-154305104D02*
G01*
X51274376Y-154305104D01*
X51310119Y-154313914D01*
X51345680Y-154317921D01*
X51391679Y-154334017D01*
X51438223Y-154345489D01*
X51465745Y-154359933D01*
X51493553Y-154369664D01*
X51540549Y-154399193D01*
X51587645Y-154423911D01*
X51606568Y-154440675D01*
X51626205Y-154453014D01*
X51670541Y-154497350D01*
X51713958Y-154535814D01*
X51724994Y-154551803D01*
X51736985Y-154563794D01*
X51774680Y-154623786D01*
X51809819Y-154674694D01*
X51814617Y-154687346D01*
X51820335Y-154696446D01*
X51847370Y-154773710D01*
X51869659Y-154832479D01*
X51870575Y-154840024D01*
X51872078Y-154844319D01*
X51884723Y-154956543D01*
X51890000Y-155000000D01*
X51884722Y-155043459D01*
X51872078Y-155155680D01*
X51870575Y-155159974D01*
X51869659Y-155167521D01*
X51847366Y-155226301D01*
X51820335Y-155303553D01*
X51814618Y-155312650D01*
X51809819Y-155325306D01*
X51774673Y-155376223D01*
X51736985Y-155436205D01*
X51724997Y-155448192D01*
X51713958Y-155464186D01*
X51670532Y-155502657D01*
X51626205Y-155546985D01*
X51606572Y-155559320D01*
X51587645Y-155576089D01*
X51540540Y-155600811D01*
X51493553Y-155630335D01*
X51465750Y-155640063D01*
X51438223Y-155654511D01*
X51391670Y-155665985D01*
X51345680Y-155682078D01*
X51310126Y-155686084D01*
X51274376Y-155694896D01*
X51231924Y-155694896D01*
X51190000Y-155699620D01*
X51148076Y-155694896D01*
X51105624Y-155694896D01*
X51069873Y-155686084D01*
X51034319Y-155682078D01*
X50988326Y-155665984D01*
X50941777Y-155654511D01*
X50914251Y-155640064D01*
X50886446Y-155630335D01*
X50839453Y-155600808D01*
X50792355Y-155576089D01*
X50773430Y-155559323D01*
X50753794Y-155546985D01*
X50709458Y-155502649D01*
X50666042Y-155464186D01*
X50655005Y-155448196D01*
X50643014Y-155436205D01*
X50605315Y-155376207D01*
X50570181Y-155325306D01*
X50565383Y-155312654D01*
X50559664Y-155303553D01*
X50532620Y-155226267D01*
X50510341Y-155167521D01*
X50509425Y-155159978D01*
X50507921Y-155155680D01*
X50495263Y-155043345D01*
X50490000Y-155000000D01*
X50495262Y-154956658D01*
X50507921Y-154844319D01*
X50509425Y-154840019D01*
X50510341Y-154832479D01*
X50532616Y-154773744D01*
X50559664Y-154696446D01*
X50565384Y-154687342D01*
X50570181Y-154674694D01*
X50605308Y-154623802D01*
X50643014Y-154563794D01*
X50655007Y-154551800D01*
X50666042Y-154535814D01*
X50709449Y-154497358D01*
X50753794Y-154453014D01*
X50773433Y-154440673D01*
X50792355Y-154423911D01*
X50839444Y-154399196D01*
X50886446Y-154369664D01*
X50914256Y-154359932D01*
X50941777Y-154345489D01*
X50988316Y-154334017D01*
X51034319Y-154317921D01*
X51069881Y-154313913D01*
X51105624Y-154305104D01*
X51148067Y-154305104D01*
X51190000Y-154300379D01*
X51231933Y-154305104D01*
G37*
G36*
X58851933Y-154305104D02*
G01*
X58894376Y-154305104D01*
X58930119Y-154313914D01*
X58965680Y-154317921D01*
X59011679Y-154334017D01*
X59058223Y-154345489D01*
X59085745Y-154359933D01*
X59113553Y-154369664D01*
X59160549Y-154399193D01*
X59207645Y-154423911D01*
X59226568Y-154440675D01*
X59246205Y-154453014D01*
X59290541Y-154497350D01*
X59333958Y-154535814D01*
X59344994Y-154551803D01*
X59356985Y-154563794D01*
X59394680Y-154623786D01*
X59429819Y-154674694D01*
X59434617Y-154687346D01*
X59440335Y-154696446D01*
X59467370Y-154773710D01*
X59489659Y-154832479D01*
X59490575Y-154840024D01*
X59492078Y-154844319D01*
X59504723Y-154956543D01*
X59510000Y-155000000D01*
X59504722Y-155043459D01*
X59492078Y-155155680D01*
X59490575Y-155159974D01*
X59489659Y-155167521D01*
X59467366Y-155226301D01*
X59440335Y-155303553D01*
X59434618Y-155312650D01*
X59429819Y-155325306D01*
X59394673Y-155376223D01*
X59356985Y-155436205D01*
X59344997Y-155448192D01*
X59333958Y-155464186D01*
X59290532Y-155502657D01*
X59246205Y-155546985D01*
X59226572Y-155559320D01*
X59207645Y-155576089D01*
X59160540Y-155600811D01*
X59113553Y-155630335D01*
X59085750Y-155640063D01*
X59058223Y-155654511D01*
X59011670Y-155665985D01*
X58965680Y-155682078D01*
X58930126Y-155686084D01*
X58894376Y-155694896D01*
X58851924Y-155694896D01*
X58810000Y-155699620D01*
X58768076Y-155694896D01*
X58725624Y-155694896D01*
X58689873Y-155686084D01*
X58654319Y-155682078D01*
X58608326Y-155665984D01*
X58561777Y-155654511D01*
X58534251Y-155640064D01*
X58506446Y-155630335D01*
X58459453Y-155600808D01*
X58412355Y-155576089D01*
X58393430Y-155559323D01*
X58373794Y-155546985D01*
X58329458Y-155502649D01*
X58286042Y-155464186D01*
X58275005Y-155448196D01*
X58263014Y-155436205D01*
X58225315Y-155376207D01*
X58190181Y-155325306D01*
X58185383Y-155312654D01*
X58179664Y-155303553D01*
X58152620Y-155226267D01*
X58130341Y-155167521D01*
X58129425Y-155159978D01*
X58127921Y-155155680D01*
X58115263Y-155043345D01*
X58110000Y-155000000D01*
X58115262Y-154956658D01*
X58127921Y-154844319D01*
X58129425Y-154840019D01*
X58130341Y-154832479D01*
X58152616Y-154773744D01*
X58179664Y-154696446D01*
X58185384Y-154687342D01*
X58190181Y-154674694D01*
X58225308Y-154623802D01*
X58263014Y-154563794D01*
X58275007Y-154551800D01*
X58286042Y-154535814D01*
X58329449Y-154497358D01*
X58373794Y-154453014D01*
X58393433Y-154440673D01*
X58412355Y-154423911D01*
X58459444Y-154399196D01*
X58506446Y-154369664D01*
X58534256Y-154359932D01*
X58561777Y-154345489D01*
X58608316Y-154334017D01*
X58654319Y-154317921D01*
X58689881Y-154313913D01*
X58725624Y-154305104D01*
X58768067Y-154305104D01*
X58810000Y-154300379D01*
X58851933Y-154305104D01*
G37*
G36*
X74335149Y-153481482D02*
G01*
X74481657Y-153510624D01*
X74619664Y-153567789D01*
X74743868Y-153650779D01*
X74849494Y-153756405D01*
X74932484Y-153880609D01*
X74989649Y-154018616D01*
X75018791Y-154165124D01*
X75018791Y-154314502D01*
X74989649Y-154461010D01*
X74932484Y-154599017D01*
X74849494Y-154723221D01*
X74743868Y-154828847D01*
X74619664Y-154911837D01*
X74481657Y-154969002D01*
X74335149Y-154998144D01*
X73884460Y-155001813D01*
X73809771Y-154998144D01*
X73663263Y-154969002D01*
X73525256Y-154911837D01*
X73401052Y-154828847D01*
X73295426Y-154723221D01*
X73212436Y-154599017D01*
X73155271Y-154461010D01*
X73126129Y-154314502D01*
X73126129Y-154165124D01*
X73155271Y-154018616D01*
X73212436Y-153880609D01*
X73295426Y-153756405D01*
X73401052Y-153650779D01*
X73525256Y-153567789D01*
X73663263Y-153510624D01*
X73809771Y-153481482D01*
X74260460Y-153477813D01*
X74335149Y-153481482D01*
G37*
G36*
X99735149Y-153481482D02*
G01*
X99881657Y-153510624D01*
X100019664Y-153567789D01*
X100143868Y-153650779D01*
X100249494Y-153756405D01*
X100332484Y-153880609D01*
X100389649Y-154018616D01*
X100418791Y-154165124D01*
X100418791Y-154314502D01*
X100389649Y-154461010D01*
X100332484Y-154599017D01*
X100249494Y-154723221D01*
X100143868Y-154828847D01*
X100019664Y-154911837D01*
X99881657Y-154969002D01*
X99735149Y-154998144D01*
X99284460Y-155001813D01*
X99209771Y-154998144D01*
X99063263Y-154969002D01*
X98925256Y-154911837D01*
X98801052Y-154828847D01*
X98695426Y-154723221D01*
X98612436Y-154599017D01*
X98555271Y-154461010D01*
X98526129Y-154314502D01*
X98526129Y-154165124D01*
X98555271Y-154018616D01*
X98612436Y-153880609D01*
X98695426Y-153756405D01*
X98801052Y-153650779D01*
X98925256Y-153567789D01*
X99063263Y-153510624D01*
X99209771Y-153481482D01*
X99660460Y-153477813D01*
X99735149Y-153481482D01*
G37*
G36*
X63041933Y-151115104D02*
G01*
X63084376Y-151115104D01*
X63120119Y-151123914D01*
X63155680Y-151127921D01*
X63201679Y-151144017D01*
X63248223Y-151155489D01*
X63275745Y-151169933D01*
X63303553Y-151179664D01*
X63350549Y-151209193D01*
X63397645Y-151233911D01*
X63416568Y-151250675D01*
X63436205Y-151263014D01*
X63480541Y-151307350D01*
X63523958Y-151345814D01*
X63534994Y-151361803D01*
X63546985Y-151373794D01*
X63584680Y-151433786D01*
X63619819Y-151484694D01*
X63624617Y-151497346D01*
X63630335Y-151506446D01*
X63657370Y-151583710D01*
X63679659Y-151642479D01*
X63680575Y-151650024D01*
X63682078Y-151654319D01*
X63694724Y-151766553D01*
X63700000Y-151810000D01*
X63694721Y-151853469D01*
X63682078Y-151965680D01*
X63680575Y-151969974D01*
X63679659Y-151977521D01*
X63657366Y-152036301D01*
X63630335Y-152113553D01*
X63624618Y-152122650D01*
X63619819Y-152135306D01*
X63584673Y-152186223D01*
X63546985Y-152246205D01*
X63534997Y-152258192D01*
X63523958Y-152274186D01*
X63480532Y-152312657D01*
X63436205Y-152356985D01*
X63416572Y-152369320D01*
X63397645Y-152386089D01*
X63350540Y-152410811D01*
X63303553Y-152440335D01*
X63275750Y-152450063D01*
X63248223Y-152464511D01*
X63201670Y-152475985D01*
X63155680Y-152492078D01*
X63120126Y-152496084D01*
X63084376Y-152504896D01*
X63041924Y-152504896D01*
X63000000Y-152509620D01*
X62958076Y-152504896D01*
X62915624Y-152504896D01*
X62879873Y-152496084D01*
X62844319Y-152492078D01*
X62798326Y-152475984D01*
X62751777Y-152464511D01*
X62724251Y-152450064D01*
X62696446Y-152440335D01*
X62649453Y-152410808D01*
X62602355Y-152386089D01*
X62583430Y-152369323D01*
X62563794Y-152356985D01*
X62519458Y-152312649D01*
X62476042Y-152274186D01*
X62465005Y-152258196D01*
X62453014Y-152246205D01*
X62415315Y-152186207D01*
X62380181Y-152135306D01*
X62375383Y-152122654D01*
X62369664Y-152113553D01*
X62342620Y-152036267D01*
X62320341Y-151977521D01*
X62319425Y-151969978D01*
X62317921Y-151965680D01*
X62305274Y-151853437D01*
X62300000Y-151810000D01*
X62305271Y-151766585D01*
X62317921Y-151654319D01*
X62319425Y-151650019D01*
X62320341Y-151642479D01*
X62342616Y-151583744D01*
X62369664Y-151506446D01*
X62375384Y-151497342D01*
X62380181Y-151484694D01*
X62415308Y-151433802D01*
X62453014Y-151373794D01*
X62465007Y-151361800D01*
X62476042Y-151345814D01*
X62519449Y-151307358D01*
X62563794Y-151263014D01*
X62583433Y-151250673D01*
X62602355Y-151233911D01*
X62649444Y-151209196D01*
X62696446Y-151179664D01*
X62724256Y-151169932D01*
X62751777Y-151155489D01*
X62798316Y-151144017D01*
X62844319Y-151127921D01*
X62879881Y-151123913D01*
X62915624Y-151115104D01*
X62958067Y-151115104D01*
X63000000Y-151110379D01*
X63041933Y-151115104D01*
G37*
G36*
X74335149Y-150941482D02*
G01*
X74481657Y-150970624D01*
X74619664Y-151027789D01*
X74743868Y-151110779D01*
X74849494Y-151216405D01*
X74932484Y-151340609D01*
X74989649Y-151478616D01*
X75018791Y-151625124D01*
X75018791Y-151774502D01*
X74989649Y-151921010D01*
X74932484Y-152059017D01*
X74849494Y-152183221D01*
X74743868Y-152288847D01*
X74619664Y-152371837D01*
X74481657Y-152429002D01*
X74335149Y-152458144D01*
X73884460Y-152461813D01*
X73809771Y-152458144D01*
X73663263Y-152429002D01*
X73525256Y-152371837D01*
X73401052Y-152288847D01*
X73295426Y-152183221D01*
X73212436Y-152059017D01*
X73155271Y-151921010D01*
X73126129Y-151774502D01*
X73126129Y-151625124D01*
X73155271Y-151478616D01*
X73212436Y-151340609D01*
X73295426Y-151216405D01*
X73401052Y-151110779D01*
X73525256Y-151027789D01*
X73663263Y-150970624D01*
X73809771Y-150941482D01*
X74260460Y-150937813D01*
X74335149Y-150941482D01*
G37*
G36*
X99735149Y-150941482D02*
G01*
X99881657Y-150970624D01*
X100019664Y-151027789D01*
X100143868Y-151110779D01*
X100249494Y-151216405D01*
X100332484Y-151340609D01*
X100389649Y-151478616D01*
X100418791Y-151625124D01*
X100418791Y-151774502D01*
X100389649Y-151921010D01*
X100332484Y-152059017D01*
X100249494Y-152183221D01*
X100143868Y-152288847D01*
X100019664Y-152371837D01*
X99881657Y-152429002D01*
X99735149Y-152458144D01*
X99284460Y-152461813D01*
X99209771Y-152458144D01*
X99063263Y-152429002D01*
X98925256Y-152371837D01*
X98801052Y-152288847D01*
X98695426Y-152183221D01*
X98612436Y-152059017D01*
X98555271Y-151921010D01*
X98526129Y-151774502D01*
X98526129Y-151625124D01*
X98555271Y-151478616D01*
X98612436Y-151340609D01*
X98695426Y-151216405D01*
X98801052Y-151110779D01*
X98925256Y-151027789D01*
X99063263Y-150970624D01*
X99209771Y-150941482D01*
X99660460Y-150937813D01*
X99735149Y-150941482D01*
G37*
G36*
X33617060Y-149268990D02*
G01*
X33827525Y-149325384D01*
X34025000Y-149417468D01*
X34203485Y-149542444D01*
X34357556Y-149696515D01*
X34482532Y-149875000D01*
X34574616Y-150072475D01*
X34631010Y-150282940D01*
X34650000Y-150500000D01*
X34631010Y-150717060D01*
X34574616Y-150927525D01*
X34482532Y-151125000D01*
X34357556Y-151303485D01*
X34203485Y-151457556D01*
X34025000Y-151582532D01*
X33827525Y-151674616D01*
X33617060Y-151731010D01*
X33400000Y-151750000D01*
X33182940Y-151731010D01*
X32972475Y-151674616D01*
X32775000Y-151582532D01*
X32596515Y-151457556D01*
X32442444Y-151303485D01*
X32317468Y-151125000D01*
X32225384Y-150927525D01*
X32168990Y-150717060D01*
X32150000Y-150500000D01*
X32168990Y-150282940D01*
X32225384Y-150072475D01*
X32317468Y-149875000D01*
X32442444Y-149696515D01*
X32596515Y-149542444D01*
X32775000Y-149417468D01*
X32972475Y-149325384D01*
X33182940Y-149268990D01*
X33400000Y-149250000D01*
X33617060Y-149268990D01*
G37*
G36*
X40217060Y-149268990D02*
G01*
X40427525Y-149325384D01*
X40625000Y-149417468D01*
X40803485Y-149542444D01*
X40957556Y-149696515D01*
X41082532Y-149875000D01*
X41174616Y-150072475D01*
X41231010Y-150282940D01*
X41250000Y-150500000D01*
X41231010Y-150717060D01*
X41174616Y-150927525D01*
X41082532Y-151125000D01*
X40957556Y-151303485D01*
X40803485Y-151457556D01*
X40625000Y-151582532D01*
X40427525Y-151674616D01*
X40217060Y-151731010D01*
X40000000Y-151750000D01*
X39782940Y-151731010D01*
X39572475Y-151674616D01*
X39375000Y-151582532D01*
X39196515Y-151457556D01*
X39042444Y-151303485D01*
X38917468Y-151125000D01*
X38825384Y-150927525D01*
X38768990Y-150717060D01*
X38750000Y-150500000D01*
X38768990Y-150282940D01*
X38825384Y-150072475D01*
X38917468Y-149875000D01*
X39042444Y-149696515D01*
X39196515Y-149542444D01*
X39375000Y-149417468D01*
X39572475Y-149325384D01*
X39782940Y-149268990D01*
X40000000Y-149250000D01*
X40217060Y-149268990D01*
G37*
G36*
X74335149Y-148401482D02*
G01*
X74481657Y-148430624D01*
X74619664Y-148487789D01*
X74743868Y-148570779D01*
X74849494Y-148676405D01*
X74932484Y-148800609D01*
X74989649Y-148938616D01*
X75018791Y-149085124D01*
X75018791Y-149234502D01*
X74989649Y-149381010D01*
X74932484Y-149519017D01*
X74849494Y-149643221D01*
X74743868Y-149748847D01*
X74619664Y-149831837D01*
X74481657Y-149889002D01*
X74335149Y-149918144D01*
X73884460Y-149921813D01*
X73809771Y-149918144D01*
X73663263Y-149889002D01*
X73525256Y-149831837D01*
X73401052Y-149748847D01*
X73295426Y-149643221D01*
X73212436Y-149519017D01*
X73155271Y-149381010D01*
X73126129Y-149234502D01*
X73126129Y-149085124D01*
X73155271Y-148938616D01*
X73212436Y-148800609D01*
X73295426Y-148676405D01*
X73401052Y-148570779D01*
X73525256Y-148487789D01*
X73663263Y-148430624D01*
X73809771Y-148401482D01*
X74260460Y-148397813D01*
X74335149Y-148401482D01*
G37*
G36*
X99735149Y-148401482D02*
G01*
X99881657Y-148430624D01*
X100019664Y-148487789D01*
X100143868Y-148570779D01*
X100249494Y-148676405D01*
X100332484Y-148800609D01*
X100389649Y-148938616D01*
X100418791Y-149085124D01*
X100418791Y-149234502D01*
X100389649Y-149381010D01*
X100332484Y-149519017D01*
X100249494Y-149643221D01*
X100143868Y-149748847D01*
X100019664Y-149831837D01*
X99881657Y-149889002D01*
X99735149Y-149918144D01*
X99284460Y-149921813D01*
X99209771Y-149918144D01*
X99063263Y-149889002D01*
X98925256Y-149831837D01*
X98801052Y-149748847D01*
X98695426Y-149643221D01*
X98612436Y-149519017D01*
X98555271Y-149381010D01*
X98526129Y-149234502D01*
X98526129Y-149085124D01*
X98555271Y-148938616D01*
X98612436Y-148800609D01*
X98695426Y-148676405D01*
X98801052Y-148570779D01*
X98925256Y-148487789D01*
X99063263Y-148430624D01*
X99209771Y-148401482D01*
X99660460Y-148397813D01*
X99735149Y-148401482D01*
G37*
G36*
X33233785Y-147704448D02*
G01*
X33266241Y-147704448D01*
X33303454Y-147713620D01*
X33342350Y-147718741D01*
X33368974Y-147729769D01*
X33394879Y-147736154D01*
X33434154Y-147756767D01*
X33475000Y-147773686D01*
X33493635Y-147787985D01*
X33512183Y-147797720D01*
X33550106Y-147831317D01*
X33588909Y-147861091D01*
X33599935Y-147875461D01*
X33611353Y-147885576D01*
X33644090Y-147933005D01*
X33676314Y-147975000D01*
X33681171Y-147986727D01*
X33686609Y-147994605D01*
X33710199Y-148056807D01*
X33731259Y-148107650D01*
X33732204Y-148114828D01*
X33733589Y-148118480D01*
X33744314Y-148206817D01*
X33750000Y-148250000D01*
X33744314Y-148293186D01*
X33733589Y-148381519D01*
X33732204Y-148385170D01*
X33731259Y-148392350D01*
X33710194Y-148443203D01*
X33686609Y-148505394D01*
X33681172Y-148513269D01*
X33676314Y-148525000D01*
X33644083Y-148567003D01*
X33611353Y-148614423D01*
X33599937Y-148624535D01*
X33588909Y-148638909D01*
X33550098Y-148668689D01*
X33512183Y-148702279D01*
X33493639Y-148712011D01*
X33475000Y-148726314D01*
X33434145Y-148743236D01*
X33394879Y-148763845D01*
X33368979Y-148770228D01*
X33342350Y-148781259D01*
X33303452Y-148786380D01*
X33266241Y-148795552D01*
X33233785Y-148795552D01*
X33200000Y-148800000D01*
X33166215Y-148795552D01*
X33133759Y-148795552D01*
X33096546Y-148786379D01*
X33057650Y-148781259D01*
X33031021Y-148770229D01*
X33005120Y-148763845D01*
X32965850Y-148743234D01*
X32925000Y-148726314D01*
X32906362Y-148712012D01*
X32887816Y-148702279D01*
X32849894Y-148668683D01*
X32811091Y-148638909D01*
X32800064Y-148624538D01*
X32788646Y-148614423D01*
X32755906Y-148566990D01*
X32723686Y-148525000D01*
X32718828Y-148513273D01*
X32713390Y-148505394D01*
X32689793Y-148443175D01*
X32668741Y-148392350D01*
X32667796Y-148385174D01*
X32666410Y-148381519D01*
X32655672Y-148293088D01*
X32650000Y-148250000D01*
X32655672Y-148206914D01*
X32666410Y-148118480D01*
X32667796Y-148114824D01*
X32668741Y-148107650D01*
X32689788Y-148056835D01*
X32713390Y-147994605D01*
X32718829Y-147986723D01*
X32723686Y-147975000D01*
X32755899Y-147933018D01*
X32788646Y-147885576D01*
X32800066Y-147875458D01*
X32811091Y-147861091D01*
X32849885Y-147831322D01*
X32887816Y-147797720D01*
X32906366Y-147787983D01*
X32925000Y-147773686D01*
X32965841Y-147756769D01*
X33005120Y-147736154D01*
X33031026Y-147729768D01*
X33057650Y-147718741D01*
X33096544Y-147713620D01*
X33133759Y-147704448D01*
X33166215Y-147704448D01*
X33200000Y-147700000D01*
X33233785Y-147704448D01*
G37*
G36*
X39233785Y-147704448D02*
G01*
X39266241Y-147704448D01*
X39303454Y-147713620D01*
X39342350Y-147718741D01*
X39368974Y-147729769D01*
X39394879Y-147736154D01*
X39434154Y-147756767D01*
X39475000Y-147773686D01*
X39493635Y-147787985D01*
X39512183Y-147797720D01*
X39550106Y-147831317D01*
X39588909Y-147861091D01*
X39599935Y-147875461D01*
X39611353Y-147885576D01*
X39644090Y-147933005D01*
X39676314Y-147975000D01*
X39681171Y-147986727D01*
X39686609Y-147994605D01*
X39710199Y-148056807D01*
X39731259Y-148107650D01*
X39732204Y-148114828D01*
X39733589Y-148118480D01*
X39744314Y-148206817D01*
X39750000Y-148250000D01*
X39744314Y-148293186D01*
X39733589Y-148381519D01*
X39732204Y-148385170D01*
X39731259Y-148392350D01*
X39710194Y-148443203D01*
X39686609Y-148505394D01*
X39681172Y-148513269D01*
X39676314Y-148525000D01*
X39644083Y-148567003D01*
X39611353Y-148614423D01*
X39599937Y-148624535D01*
X39588909Y-148638909D01*
X39550098Y-148668689D01*
X39512183Y-148702279D01*
X39493639Y-148712011D01*
X39475000Y-148726314D01*
X39434145Y-148743236D01*
X39394879Y-148763845D01*
X39368979Y-148770228D01*
X39342350Y-148781259D01*
X39303452Y-148786380D01*
X39266241Y-148795552D01*
X39233785Y-148795552D01*
X39200000Y-148800000D01*
X39166215Y-148795552D01*
X39133759Y-148795552D01*
X39096546Y-148786379D01*
X39057650Y-148781259D01*
X39031021Y-148770229D01*
X39005120Y-148763845D01*
X38965850Y-148743234D01*
X38925000Y-148726314D01*
X38906362Y-148712012D01*
X38887816Y-148702279D01*
X38849894Y-148668683D01*
X38811091Y-148638909D01*
X38800064Y-148624538D01*
X38788646Y-148614423D01*
X38755906Y-148566990D01*
X38723686Y-148525000D01*
X38718828Y-148513273D01*
X38713390Y-148505394D01*
X38689793Y-148443175D01*
X38668741Y-148392350D01*
X38667796Y-148385174D01*
X38666410Y-148381519D01*
X38655672Y-148293088D01*
X38650000Y-148250000D01*
X38655672Y-148206914D01*
X38666410Y-148118480D01*
X38667796Y-148114824D01*
X38668741Y-148107650D01*
X38689788Y-148056835D01*
X38713390Y-147994605D01*
X38718829Y-147986723D01*
X38723686Y-147975000D01*
X38755899Y-147933018D01*
X38788646Y-147885576D01*
X38800066Y-147875458D01*
X38811091Y-147861091D01*
X38849885Y-147831322D01*
X38887816Y-147797720D01*
X38906366Y-147787983D01*
X38925000Y-147773686D01*
X38965841Y-147756769D01*
X39005120Y-147736154D01*
X39031026Y-147729768D01*
X39057650Y-147718741D01*
X39096544Y-147713620D01*
X39133759Y-147704448D01*
X39166215Y-147704448D01*
X39200000Y-147700000D01*
X39233785Y-147704448D01*
G37*
G36*
X74335149Y-145861482D02*
G01*
X74481657Y-145890624D01*
X74619664Y-145947789D01*
X74743868Y-146030779D01*
X74849494Y-146136405D01*
X74932484Y-146260609D01*
X74989649Y-146398616D01*
X75018791Y-146545124D01*
X75018791Y-146694502D01*
X74989649Y-146841010D01*
X74932484Y-146979017D01*
X74849494Y-147103221D01*
X74743868Y-147208847D01*
X74619664Y-147291837D01*
X74481657Y-147349002D01*
X74335149Y-147378144D01*
X73884460Y-147381813D01*
X73809771Y-147378144D01*
X73663263Y-147349002D01*
X73525256Y-147291837D01*
X73401052Y-147208847D01*
X73295426Y-147103221D01*
X73212436Y-146979017D01*
X73155271Y-146841010D01*
X73126129Y-146694502D01*
X73126129Y-146545124D01*
X73155271Y-146398616D01*
X73212436Y-146260609D01*
X73295426Y-146136405D01*
X73401052Y-146030779D01*
X73525256Y-145947789D01*
X73663263Y-145890624D01*
X73809771Y-145861482D01*
X74260460Y-145857813D01*
X74335149Y-145861482D01*
G37*
G36*
X99735149Y-145861482D02*
G01*
X99881657Y-145890624D01*
X100019664Y-145947789D01*
X100143868Y-146030779D01*
X100249494Y-146136405D01*
X100332484Y-146260609D01*
X100389649Y-146398616D01*
X100418791Y-146545124D01*
X100418791Y-146694502D01*
X100389649Y-146841010D01*
X100332484Y-146979017D01*
X100249494Y-147103221D01*
X100143868Y-147208847D01*
X100019664Y-147291837D01*
X99881657Y-147349002D01*
X99735149Y-147378144D01*
X99284460Y-147381813D01*
X99209771Y-147378144D01*
X99063263Y-147349002D01*
X98925256Y-147291837D01*
X98801052Y-147208847D01*
X98695426Y-147103221D01*
X98612436Y-146979017D01*
X98555271Y-146841010D01*
X98526129Y-146694502D01*
X98526129Y-146545124D01*
X98555271Y-146398616D01*
X98612436Y-146260609D01*
X98695426Y-146136405D01*
X98801052Y-146030779D01*
X98925256Y-145947789D01*
X99063263Y-145890624D01*
X99209771Y-145861482D01*
X99660460Y-145857813D01*
X99735149Y-145861482D01*
G37*
G36*
X35217060Y-144768990D02*
G01*
X35427525Y-144825384D01*
X35625000Y-144917468D01*
X35803485Y-145042444D01*
X35957556Y-145196515D01*
X36082532Y-145375000D01*
X36174616Y-145572475D01*
X36231010Y-145782940D01*
X36250000Y-146000000D01*
X36231010Y-146217060D01*
X36174616Y-146427525D01*
X36082532Y-146625000D01*
X35957556Y-146803485D01*
X35803485Y-146957556D01*
X35625000Y-147082532D01*
X35427525Y-147174616D01*
X35217060Y-147231010D01*
X35000000Y-147250000D01*
X34782940Y-147231010D01*
X34572475Y-147174616D01*
X34375000Y-147082532D01*
X34196515Y-146957556D01*
X34042444Y-146803485D01*
X33917468Y-146625000D01*
X33825384Y-146427525D01*
X33768990Y-146217060D01*
X33750000Y-146000000D01*
X33768990Y-145782940D01*
X33825384Y-145572475D01*
X33917468Y-145375000D01*
X34042444Y-145196515D01*
X34196515Y-145042444D01*
X34375000Y-144917468D01*
X34572475Y-144825384D01*
X34782940Y-144768990D01*
X35000000Y-144750000D01*
X35217060Y-144768990D01*
G37*
G36*
X51695090Y-145019215D02*
G01*
X51882683Y-145076120D01*
X52055570Y-145168530D01*
X52207107Y-145292893D01*
X52331470Y-145444430D01*
X52423880Y-145617317D01*
X52480785Y-145804910D01*
X52500000Y-146000000D01*
X52480785Y-146195090D01*
X52423880Y-146382683D01*
X52331470Y-146555570D01*
X52207107Y-146707107D01*
X52055570Y-146831470D01*
X51882683Y-146923880D01*
X51695090Y-146980785D01*
X51500000Y-147000000D01*
X51304910Y-146980785D01*
X51117317Y-146923880D01*
X50944430Y-146831470D01*
X50792893Y-146707107D01*
X50668530Y-146555570D01*
X50576120Y-146382683D01*
X50519215Y-146195090D01*
X50500000Y-146000000D01*
X50519215Y-145804910D01*
X50576120Y-145617317D01*
X50668530Y-145444430D01*
X50792893Y-145292893D01*
X50944430Y-145168530D01*
X51117317Y-145076120D01*
X51304910Y-145019215D01*
X51500000Y-145000000D01*
X51695090Y-145019215D01*
G37*
G36*
X56695090Y-145019215D02*
G01*
X56882683Y-145076120D01*
X57055570Y-145168530D01*
X57207107Y-145292893D01*
X57331470Y-145444430D01*
X57423880Y-145617317D01*
X57480785Y-145804910D01*
X57500000Y-146000000D01*
X57480785Y-146195090D01*
X57423880Y-146382683D01*
X57331470Y-146555570D01*
X57207107Y-146707107D01*
X57055570Y-146831470D01*
X56882683Y-146923880D01*
X56695090Y-146980785D01*
X56500000Y-147000000D01*
X56304910Y-146980785D01*
X56117317Y-146923880D01*
X55944430Y-146831470D01*
X55792893Y-146707107D01*
X55668530Y-146555570D01*
X55576120Y-146382683D01*
X55519215Y-146195090D01*
X55500000Y-146000000D01*
X55519215Y-145804910D01*
X55576120Y-145617317D01*
X55668530Y-145444430D01*
X55792893Y-145292893D01*
X55944430Y-145168530D01*
X56117317Y-145076120D01*
X56304910Y-145019215D01*
X56500000Y-145000000D01*
X56695090Y-145019215D01*
G37*
G36*
X63041933Y-143495104D02*
G01*
X63084376Y-143495104D01*
X63120119Y-143503914D01*
X63155680Y-143507921D01*
X63201679Y-143524017D01*
X63248223Y-143535489D01*
X63275745Y-143549933D01*
X63303553Y-143559664D01*
X63350549Y-143589193D01*
X63397645Y-143613911D01*
X63416568Y-143630675D01*
X63436205Y-143643014D01*
X63480541Y-143687350D01*
X63523958Y-143725814D01*
X63534994Y-143741803D01*
X63546985Y-143753794D01*
X63584680Y-143813786D01*
X63619819Y-143864694D01*
X63624617Y-143877346D01*
X63630335Y-143886446D01*
X63657370Y-143963710D01*
X63679659Y-144022479D01*
X63680575Y-144030024D01*
X63682078Y-144034319D01*
X63694723Y-144146543D01*
X63700000Y-144190000D01*
X63694722Y-144233459D01*
X63682078Y-144345680D01*
X63680575Y-144349974D01*
X63679659Y-144357521D01*
X63657366Y-144416301D01*
X63630335Y-144493553D01*
X63624618Y-144502650D01*
X63619819Y-144515306D01*
X63584673Y-144566223D01*
X63546985Y-144626205D01*
X63534997Y-144638192D01*
X63523958Y-144654186D01*
X63480532Y-144692657D01*
X63436205Y-144736985D01*
X63416572Y-144749320D01*
X63397645Y-144766089D01*
X63350540Y-144790811D01*
X63303553Y-144820335D01*
X63275750Y-144830063D01*
X63248223Y-144844511D01*
X63201670Y-144855985D01*
X63155680Y-144872078D01*
X63120126Y-144876084D01*
X63084376Y-144884896D01*
X63041924Y-144884896D01*
X63000000Y-144889620D01*
X62958076Y-144884896D01*
X62915624Y-144884896D01*
X62879873Y-144876084D01*
X62844319Y-144872078D01*
X62798326Y-144855984D01*
X62751777Y-144844511D01*
X62724251Y-144830064D01*
X62696446Y-144820335D01*
X62649453Y-144790808D01*
X62602355Y-144766089D01*
X62583430Y-144749323D01*
X62563794Y-144736985D01*
X62519458Y-144692649D01*
X62476042Y-144654186D01*
X62465005Y-144638196D01*
X62453014Y-144626205D01*
X62415315Y-144566207D01*
X62380181Y-144515306D01*
X62375383Y-144502654D01*
X62369664Y-144493553D01*
X62342620Y-144416267D01*
X62320341Y-144357521D01*
X62319425Y-144349978D01*
X62317921Y-144345680D01*
X62305263Y-144233345D01*
X62300000Y-144190000D01*
X62305262Y-144146658D01*
X62317921Y-144034319D01*
X62319425Y-144030019D01*
X62320341Y-144022479D01*
X62342616Y-143963744D01*
X62369664Y-143886446D01*
X62375384Y-143877342D01*
X62380181Y-143864694D01*
X62415308Y-143813802D01*
X62453014Y-143753794D01*
X62465007Y-143741800D01*
X62476042Y-143725814D01*
X62519449Y-143687358D01*
X62563794Y-143643014D01*
X62583433Y-143630673D01*
X62602355Y-143613911D01*
X62649444Y-143589196D01*
X62696446Y-143559664D01*
X62724256Y-143549932D01*
X62751777Y-143535489D01*
X62798316Y-143524017D01*
X62844319Y-143507921D01*
X62879881Y-143503913D01*
X62915624Y-143495104D01*
X62958067Y-143495104D01*
X63000000Y-143490379D01*
X63041933Y-143495104D01*
G37*
G36*
X74335149Y-143321482D02*
G01*
X74481657Y-143350624D01*
X74619664Y-143407789D01*
X74743868Y-143490779D01*
X74849494Y-143596405D01*
X74932484Y-143720609D01*
X74989649Y-143858616D01*
X75018791Y-144005124D01*
X75018791Y-144154502D01*
X74989649Y-144301010D01*
X74932484Y-144439017D01*
X74849494Y-144563221D01*
X74743868Y-144668847D01*
X74619664Y-144751837D01*
X74481657Y-144809002D01*
X74335149Y-144838144D01*
X73884460Y-144841813D01*
X73809771Y-144838144D01*
X73663263Y-144809002D01*
X73525256Y-144751837D01*
X73401052Y-144668847D01*
X73295426Y-144563221D01*
X73212436Y-144439017D01*
X73155271Y-144301010D01*
X73126129Y-144154502D01*
X73126129Y-144005124D01*
X73155271Y-143858616D01*
X73212436Y-143720609D01*
X73295426Y-143596405D01*
X73401052Y-143490779D01*
X73525256Y-143407789D01*
X73663263Y-143350624D01*
X73809771Y-143321482D01*
X74260460Y-143317813D01*
X74335149Y-143321482D01*
G37*
G36*
X99735149Y-143321482D02*
G01*
X99881657Y-143350624D01*
X100019664Y-143407789D01*
X100143868Y-143490779D01*
X100249494Y-143596405D01*
X100332484Y-143720609D01*
X100389649Y-143858616D01*
X100418791Y-144005124D01*
X100418791Y-144154502D01*
X100389649Y-144301010D01*
X100332484Y-144439017D01*
X100249494Y-144563221D01*
X100143868Y-144668847D01*
X100019664Y-144751837D01*
X99881657Y-144809002D01*
X99735149Y-144838144D01*
X99284460Y-144841813D01*
X99209771Y-144838144D01*
X99063263Y-144809002D01*
X98925256Y-144751837D01*
X98801052Y-144668847D01*
X98695426Y-144563221D01*
X98612436Y-144439017D01*
X98555271Y-144301010D01*
X98526129Y-144154502D01*
X98526129Y-144005124D01*
X98555271Y-143858616D01*
X98612436Y-143720609D01*
X98695426Y-143596405D01*
X98801052Y-143490779D01*
X98925256Y-143407789D01*
X99063263Y-143350624D01*
X99209771Y-143321482D01*
X99660460Y-143317813D01*
X99735149Y-143321482D01*
G37*
G36*
X43195090Y-140519215D02*
G01*
X43382683Y-140576120D01*
X43555570Y-140668530D01*
X43707107Y-140792893D01*
X43831470Y-140944430D01*
X43923880Y-141117317D01*
X43980785Y-141304910D01*
X44000000Y-141500000D01*
X43980785Y-141695090D01*
X43923880Y-141882683D01*
X43831470Y-142055570D01*
X43707107Y-142207107D01*
X43555570Y-142331470D01*
X43382683Y-142423880D01*
X43195090Y-142480785D01*
X43000000Y-142500000D01*
X42804910Y-142480785D01*
X42617317Y-142423880D01*
X42444430Y-142331470D01*
X42292893Y-142207107D01*
X42168530Y-142055570D01*
X42076120Y-141882683D01*
X42019215Y-141695090D01*
X42000000Y-141500000D01*
X42019215Y-141304910D01*
X42076120Y-141117317D01*
X42168530Y-140944430D01*
X42292893Y-140792893D01*
X42444430Y-140668530D01*
X42617317Y-140576120D01*
X42804910Y-140519215D01*
X43000000Y-140500000D01*
X43195090Y-140519215D01*
G37*
G36*
X74335149Y-140781482D02*
G01*
X74481657Y-140810624D01*
X74619664Y-140867789D01*
X74743868Y-140950779D01*
X74849494Y-141056405D01*
X74932484Y-141180609D01*
X74989649Y-141318616D01*
X75018791Y-141465124D01*
X75018791Y-141614502D01*
X74989649Y-141761010D01*
X74932484Y-141899017D01*
X74849494Y-142023221D01*
X74743868Y-142128847D01*
X74619664Y-142211837D01*
X74481657Y-142269002D01*
X74335149Y-142298144D01*
X73884460Y-142301813D01*
X73809771Y-142298144D01*
X73663263Y-142269002D01*
X73525256Y-142211837D01*
X73401052Y-142128847D01*
X73295426Y-142023221D01*
X73212436Y-141899017D01*
X73155271Y-141761010D01*
X73126129Y-141614502D01*
X73126129Y-141465124D01*
X73155271Y-141318616D01*
X73212436Y-141180609D01*
X73295426Y-141056405D01*
X73401052Y-140950779D01*
X73525256Y-140867789D01*
X73663263Y-140810624D01*
X73809771Y-140781482D01*
X74260460Y-140777813D01*
X74335149Y-140781482D01*
G37*
G36*
X99735149Y-140781482D02*
G01*
X99881657Y-140810624D01*
X100019664Y-140867789D01*
X100143868Y-140950779D01*
X100249494Y-141056405D01*
X100332484Y-141180609D01*
X100389649Y-141318616D01*
X100418791Y-141465124D01*
X100418791Y-141614502D01*
X100389649Y-141761010D01*
X100332484Y-141899017D01*
X100249494Y-142023221D01*
X100143868Y-142128847D01*
X100019664Y-142211837D01*
X99881657Y-142269002D01*
X99735149Y-142298144D01*
X99284460Y-142301813D01*
X99209771Y-142298144D01*
X99063263Y-142269002D01*
X98925256Y-142211837D01*
X98801052Y-142128847D01*
X98695426Y-142023221D01*
X98612436Y-141899017D01*
X98555271Y-141761010D01*
X98526129Y-141614502D01*
X98526129Y-141465124D01*
X98555271Y-141318616D01*
X98612436Y-141180609D01*
X98695426Y-141056405D01*
X98801052Y-140950779D01*
X98925256Y-140867789D01*
X99063263Y-140810624D01*
X99209771Y-140781482D01*
X99660460Y-140777813D01*
X99735149Y-140781482D01*
G37*
G36*
X63041933Y-140115104D02*
G01*
X63084376Y-140115104D01*
X63120119Y-140123914D01*
X63155680Y-140127921D01*
X63201679Y-140144017D01*
X63248223Y-140155489D01*
X63275745Y-140169933D01*
X63303553Y-140179664D01*
X63350549Y-140209193D01*
X63397645Y-140233911D01*
X63416568Y-140250675D01*
X63436205Y-140263014D01*
X63480541Y-140307350D01*
X63523958Y-140345814D01*
X63534994Y-140361803D01*
X63546985Y-140373794D01*
X63584680Y-140433786D01*
X63619819Y-140484694D01*
X63624617Y-140497346D01*
X63630335Y-140506446D01*
X63657370Y-140583710D01*
X63679659Y-140642479D01*
X63680575Y-140650024D01*
X63682078Y-140654319D01*
X63694723Y-140766543D01*
X63700000Y-140810000D01*
X63694722Y-140853459D01*
X63682078Y-140965680D01*
X63680575Y-140969974D01*
X63679659Y-140977521D01*
X63657366Y-141036301D01*
X63630335Y-141113553D01*
X63624618Y-141122650D01*
X63619819Y-141135306D01*
X63584673Y-141186223D01*
X63546985Y-141246205D01*
X63534997Y-141258192D01*
X63523958Y-141274186D01*
X63480532Y-141312657D01*
X63436205Y-141356985D01*
X63416572Y-141369320D01*
X63397645Y-141386089D01*
X63350540Y-141410811D01*
X63303553Y-141440335D01*
X63275750Y-141450063D01*
X63248223Y-141464511D01*
X63201670Y-141475985D01*
X63155680Y-141492078D01*
X63120126Y-141496084D01*
X63084376Y-141504896D01*
X63041924Y-141504896D01*
X63000000Y-141509620D01*
X62958076Y-141504896D01*
X62915624Y-141504896D01*
X62879873Y-141496084D01*
X62844319Y-141492078D01*
X62798326Y-141475984D01*
X62751777Y-141464511D01*
X62724251Y-141450064D01*
X62696446Y-141440335D01*
X62649453Y-141410808D01*
X62602355Y-141386089D01*
X62583430Y-141369323D01*
X62563794Y-141356985D01*
X62519458Y-141312649D01*
X62476042Y-141274186D01*
X62465005Y-141258196D01*
X62453014Y-141246205D01*
X62415315Y-141186207D01*
X62380181Y-141135306D01*
X62375383Y-141122654D01*
X62369664Y-141113553D01*
X62342620Y-141036267D01*
X62320341Y-140977521D01*
X62319425Y-140969978D01*
X62317921Y-140965680D01*
X62305263Y-140853345D01*
X62300000Y-140810000D01*
X62305262Y-140766658D01*
X62317921Y-140654319D01*
X62319425Y-140650019D01*
X62320341Y-140642479D01*
X62342616Y-140583744D01*
X62369664Y-140506446D01*
X62375384Y-140497342D01*
X62380181Y-140484694D01*
X62415308Y-140433802D01*
X62453014Y-140373794D01*
X62465007Y-140361800D01*
X62476042Y-140345814D01*
X62519449Y-140307358D01*
X62563794Y-140263014D01*
X62583433Y-140250673D01*
X62602355Y-140233911D01*
X62649444Y-140209196D01*
X62696446Y-140179664D01*
X62724256Y-140169932D01*
X62751777Y-140155489D01*
X62798316Y-140144017D01*
X62844319Y-140127921D01*
X62879881Y-140123913D01*
X62915624Y-140115104D01*
X62958067Y-140115104D01*
X63000000Y-140110379D01*
X63041933Y-140115104D01*
G37*
G36*
X74335149Y-138241482D02*
G01*
X74481657Y-138270624D01*
X74619664Y-138327789D01*
X74743868Y-138410779D01*
X74849494Y-138516405D01*
X74932484Y-138640609D01*
X74989649Y-138778616D01*
X75018791Y-138925124D01*
X75018791Y-139074502D01*
X74989649Y-139221010D01*
X74932484Y-139359017D01*
X74849494Y-139483221D01*
X74743868Y-139588847D01*
X74619664Y-139671837D01*
X74481657Y-139729002D01*
X74335149Y-139758144D01*
X73884460Y-139761813D01*
X73809771Y-139758144D01*
X73663263Y-139729002D01*
X73525256Y-139671837D01*
X73401052Y-139588847D01*
X73295426Y-139483221D01*
X73212436Y-139359017D01*
X73155271Y-139221010D01*
X73126129Y-139074502D01*
X73126129Y-138925124D01*
X73155271Y-138778616D01*
X73212436Y-138640609D01*
X73295426Y-138516405D01*
X73401052Y-138410779D01*
X73525256Y-138327789D01*
X73663263Y-138270624D01*
X73809771Y-138241482D01*
X74260460Y-138237813D01*
X74335149Y-138241482D01*
G37*
G36*
X99735149Y-138241482D02*
G01*
X99881657Y-138270624D01*
X100019664Y-138327789D01*
X100143868Y-138410779D01*
X100249494Y-138516405D01*
X100332484Y-138640609D01*
X100389649Y-138778616D01*
X100418791Y-138925124D01*
X100418791Y-139074502D01*
X100389649Y-139221010D01*
X100332484Y-139359017D01*
X100249494Y-139483221D01*
X100143868Y-139588847D01*
X100019664Y-139671837D01*
X99881657Y-139729002D01*
X99735149Y-139758144D01*
X99284460Y-139761813D01*
X99209771Y-139758144D01*
X99063263Y-139729002D01*
X98925256Y-139671837D01*
X98801052Y-139588847D01*
X98695426Y-139483221D01*
X98612436Y-139359017D01*
X98555271Y-139221010D01*
X98526129Y-139074502D01*
X98526129Y-138925124D01*
X98555271Y-138778616D01*
X98612436Y-138640609D01*
X98695426Y-138516405D01*
X98801052Y-138410779D01*
X98925256Y-138327789D01*
X99063263Y-138270624D01*
X99209771Y-138241482D01*
X99660460Y-138237813D01*
X99735149Y-138241482D01*
G37*
G36*
X52750000Y-139525000D02*
G01*
X51250000Y-139525000D01*
X51250000Y-138475000D01*
X52750000Y-138475000D01*
X52750000Y-139525000D01*
G37*
G36*
X52293526Y-137209491D02*
G01*
X52425909Y-137244963D01*
X52544600Y-137313489D01*
X52641511Y-137410400D01*
X52710037Y-137529091D01*
X52745509Y-137661474D01*
X52745509Y-137798526D01*
X52710037Y-137930909D01*
X52641511Y-138049600D01*
X52544600Y-138146511D01*
X52425909Y-138215037D01*
X52293526Y-138250509D01*
X51775000Y-138255000D01*
X51706474Y-138250509D01*
X51574091Y-138215037D01*
X51455400Y-138146511D01*
X51358489Y-138049600D01*
X51289963Y-137930909D01*
X51254491Y-137798526D01*
X51254491Y-137661474D01*
X51289963Y-137529091D01*
X51358489Y-137410400D01*
X51455400Y-137313489D01*
X51574091Y-137244963D01*
X51706474Y-137209491D01*
X52225000Y-137205000D01*
X52293526Y-137209491D01*
G37*
G36*
X43195090Y-135519215D02*
G01*
X43382683Y-135576120D01*
X43555570Y-135668530D01*
X43707107Y-135792893D01*
X43831470Y-135944430D01*
X43923880Y-136117317D01*
X43980785Y-136304910D01*
X44000000Y-136500000D01*
X43980785Y-136695090D01*
X43923880Y-136882683D01*
X43831470Y-137055570D01*
X43707107Y-137207107D01*
X43555570Y-137331470D01*
X43382683Y-137423880D01*
X43195090Y-137480785D01*
X43000000Y-137500000D01*
X42804910Y-137480785D01*
X42617317Y-137423880D01*
X42444430Y-137331470D01*
X42292893Y-137207107D01*
X42168530Y-137055570D01*
X42076120Y-136882683D01*
X42019215Y-136695090D01*
X42000000Y-136500000D01*
X42019215Y-136304910D01*
X42076120Y-136117317D01*
X42168530Y-135944430D01*
X42292893Y-135792893D01*
X42444430Y-135668530D01*
X42617317Y-135576120D01*
X42804910Y-135519215D01*
X43000000Y-135500000D01*
X43195090Y-135519215D01*
G37*
G36*
X74335149Y-135701482D02*
G01*
X74481657Y-135730624D01*
X74619664Y-135787789D01*
X74743868Y-135870779D01*
X74849494Y-135976405D01*
X74932484Y-136100609D01*
X74989649Y-136238616D01*
X75018791Y-136385124D01*
X75018791Y-136534502D01*
X74989649Y-136681010D01*
X74932484Y-136819017D01*
X74849494Y-136943221D01*
X74743868Y-137048847D01*
X74619664Y-137131837D01*
X74481657Y-137189002D01*
X74335149Y-137218144D01*
X73884460Y-137221813D01*
X73809771Y-137218144D01*
X73663263Y-137189002D01*
X73525256Y-137131837D01*
X73401052Y-137048847D01*
X73295426Y-136943221D01*
X73212436Y-136819017D01*
X73155271Y-136681010D01*
X73126129Y-136534502D01*
X73126129Y-136385124D01*
X73155271Y-136238616D01*
X73212436Y-136100609D01*
X73295426Y-135976405D01*
X73401052Y-135870779D01*
X73525256Y-135787789D01*
X73663263Y-135730624D01*
X73809771Y-135701482D01*
X74260460Y-135697813D01*
X74335149Y-135701482D01*
G37*
G36*
X99735149Y-135701482D02*
G01*
X99881657Y-135730624D01*
X100019664Y-135787789D01*
X100143868Y-135870779D01*
X100249494Y-135976405D01*
X100332484Y-136100609D01*
X100389649Y-136238616D01*
X100418791Y-136385124D01*
X100418791Y-136534502D01*
X100389649Y-136681010D01*
X100332484Y-136819017D01*
X100249494Y-136943221D01*
X100143868Y-137048847D01*
X100019664Y-137131837D01*
X99881657Y-137189002D01*
X99735149Y-137218144D01*
X99284460Y-137221813D01*
X99209771Y-137218144D01*
X99063263Y-137189002D01*
X98925256Y-137131837D01*
X98801052Y-137048847D01*
X98695426Y-136943221D01*
X98612436Y-136819017D01*
X98555271Y-136681010D01*
X98526129Y-136534502D01*
X98526129Y-136385124D01*
X98555271Y-136238616D01*
X98612436Y-136100609D01*
X98695426Y-135976405D01*
X98801052Y-135870779D01*
X98925256Y-135787789D01*
X99063263Y-135730624D01*
X99209771Y-135701482D01*
X99660460Y-135697813D01*
X99735149Y-135701482D01*
G37*
G36*
X52293526Y-135939491D02*
G01*
X52425909Y-135974963D01*
X52544600Y-136043489D01*
X52641511Y-136140400D01*
X52710037Y-136259091D01*
X52745509Y-136391474D01*
X52745509Y-136528526D01*
X52710037Y-136660909D01*
X52641511Y-136779600D01*
X52544600Y-136876511D01*
X52425909Y-136945037D01*
X52293526Y-136980509D01*
X51775000Y-136985000D01*
X51706474Y-136980509D01*
X51574091Y-136945037D01*
X51455400Y-136876511D01*
X51358489Y-136779600D01*
X51289963Y-136660909D01*
X51254491Y-136528526D01*
X51254491Y-136391474D01*
X51289963Y-136259091D01*
X51358489Y-136140400D01*
X51455400Y-136043489D01*
X51574091Y-135974963D01*
X51706474Y-135939491D01*
X52225000Y-135935000D01*
X52293526Y-135939491D01*
G37*
G36*
X63041933Y-132495104D02*
G01*
X63084376Y-132495104D01*
X63120119Y-132503914D01*
X63155680Y-132507921D01*
X63201679Y-132524017D01*
X63248223Y-132535489D01*
X63275745Y-132549933D01*
X63303553Y-132559664D01*
X63350549Y-132589193D01*
X63397645Y-132613911D01*
X63416568Y-132630675D01*
X63436205Y-132643014D01*
X63480541Y-132687350D01*
X63523958Y-132725814D01*
X63534994Y-132741803D01*
X63546985Y-132753794D01*
X63584680Y-132813786D01*
X63619819Y-132864694D01*
X63624617Y-132877346D01*
X63630335Y-132886446D01*
X63657370Y-132963710D01*
X63679659Y-133022479D01*
X63680575Y-133030024D01*
X63682078Y-133034319D01*
X63694723Y-133146543D01*
X63700000Y-133190000D01*
X63694722Y-133233459D01*
X63682078Y-133345680D01*
X63680575Y-133349974D01*
X63679659Y-133357521D01*
X63657366Y-133416301D01*
X63630335Y-133493553D01*
X63624618Y-133502650D01*
X63619819Y-133515306D01*
X63584673Y-133566223D01*
X63546985Y-133626205D01*
X63534997Y-133638192D01*
X63523958Y-133654186D01*
X63480532Y-133692657D01*
X63436205Y-133736985D01*
X63416572Y-133749320D01*
X63397645Y-133766089D01*
X63350540Y-133790811D01*
X63303553Y-133820335D01*
X63275750Y-133830063D01*
X63248223Y-133844511D01*
X63201670Y-133855985D01*
X63155680Y-133872078D01*
X63120126Y-133876084D01*
X63084376Y-133884896D01*
X63041924Y-133884896D01*
X63000000Y-133889620D01*
X62958076Y-133884896D01*
X62915624Y-133884896D01*
X62879873Y-133876084D01*
X62844319Y-133872078D01*
X62798326Y-133855984D01*
X62751777Y-133844511D01*
X62724251Y-133830064D01*
X62696446Y-133820335D01*
X62649453Y-133790808D01*
X62602355Y-133766089D01*
X62583430Y-133749323D01*
X62563794Y-133736985D01*
X62519458Y-133692649D01*
X62476042Y-133654186D01*
X62465005Y-133638196D01*
X62453014Y-133626205D01*
X62415315Y-133566207D01*
X62380181Y-133515306D01*
X62375383Y-133502654D01*
X62369664Y-133493553D01*
X62342620Y-133416267D01*
X62320341Y-133357521D01*
X62319425Y-133349978D01*
X62317921Y-133345680D01*
X62305263Y-133233345D01*
X62300000Y-133190000D01*
X62305262Y-133146658D01*
X62317921Y-133034319D01*
X62319425Y-133030019D01*
X62320341Y-133022479D01*
X62342616Y-132963744D01*
X62369664Y-132886446D01*
X62375384Y-132877342D01*
X62380181Y-132864694D01*
X62415308Y-132813802D01*
X62453014Y-132753794D01*
X62465007Y-132741800D01*
X62476042Y-132725814D01*
X62519449Y-132687358D01*
X62563794Y-132643014D01*
X62583433Y-132630673D01*
X62602355Y-132613911D01*
X62649444Y-132589196D01*
X62696446Y-132559664D01*
X62724256Y-132549932D01*
X62751777Y-132535489D01*
X62798316Y-132524017D01*
X62844319Y-132507921D01*
X62879881Y-132503913D01*
X62915624Y-132495104D01*
X62958067Y-132495104D01*
X63000000Y-132490379D01*
X63041933Y-132495104D01*
G37*
G36*
X50231933Y-131305104D02*
G01*
X50274376Y-131305104D01*
X50310119Y-131313914D01*
X50345680Y-131317921D01*
X50391679Y-131334017D01*
X50438223Y-131345489D01*
X50465745Y-131359933D01*
X50493553Y-131369664D01*
X50540549Y-131399193D01*
X50587645Y-131423911D01*
X50606568Y-131440675D01*
X50626205Y-131453014D01*
X50670541Y-131497350D01*
X50713958Y-131535814D01*
X50724994Y-131551803D01*
X50736985Y-131563794D01*
X50774680Y-131623786D01*
X50809819Y-131674694D01*
X50814617Y-131687346D01*
X50820335Y-131696446D01*
X50847370Y-131773710D01*
X50869659Y-131832479D01*
X50870575Y-131840024D01*
X50872078Y-131844319D01*
X50884723Y-131956543D01*
X50890000Y-132000000D01*
X50884722Y-132043459D01*
X50872078Y-132155680D01*
X50870575Y-132159974D01*
X50869659Y-132167521D01*
X50847366Y-132226301D01*
X50820335Y-132303553D01*
X50814618Y-132312650D01*
X50809819Y-132325306D01*
X50774673Y-132376223D01*
X50736985Y-132436205D01*
X50724997Y-132448192D01*
X50713958Y-132464186D01*
X50670532Y-132502657D01*
X50626205Y-132546985D01*
X50606572Y-132559320D01*
X50587645Y-132576089D01*
X50540540Y-132600811D01*
X50493553Y-132630335D01*
X50465750Y-132640063D01*
X50438223Y-132654511D01*
X50391670Y-132665985D01*
X50345680Y-132682078D01*
X50310126Y-132686084D01*
X50274376Y-132694896D01*
X50231924Y-132694896D01*
X50190000Y-132699620D01*
X50148076Y-132694896D01*
X50105624Y-132694896D01*
X50069873Y-132686084D01*
X50034319Y-132682078D01*
X49988326Y-132665984D01*
X49941777Y-132654511D01*
X49914251Y-132640064D01*
X49886446Y-132630335D01*
X49839453Y-132600808D01*
X49792355Y-132576089D01*
X49773430Y-132559323D01*
X49753794Y-132546985D01*
X49709458Y-132502649D01*
X49666042Y-132464186D01*
X49655005Y-132448196D01*
X49643014Y-132436205D01*
X49605315Y-132376207D01*
X49570181Y-132325306D01*
X49565383Y-132312654D01*
X49559664Y-132303553D01*
X49532620Y-132226267D01*
X49510341Y-132167521D01*
X49509425Y-132159978D01*
X49507921Y-132155680D01*
X49495263Y-132043345D01*
X49490000Y-132000000D01*
X49495262Y-131956658D01*
X49507921Y-131844319D01*
X49509425Y-131840019D01*
X49510341Y-131832479D01*
X49532616Y-131773744D01*
X49559664Y-131696446D01*
X49565384Y-131687342D01*
X49570181Y-131674694D01*
X49605308Y-131623802D01*
X49643014Y-131563794D01*
X49655007Y-131551800D01*
X49666042Y-131535814D01*
X49709449Y-131497358D01*
X49753794Y-131453014D01*
X49773433Y-131440673D01*
X49792355Y-131423911D01*
X49839444Y-131399196D01*
X49886446Y-131369664D01*
X49914256Y-131359932D01*
X49941777Y-131345489D01*
X49988316Y-131334017D01*
X50034319Y-131317921D01*
X50069881Y-131313913D01*
X50105624Y-131305104D01*
X50148067Y-131305104D01*
X50190000Y-131300379D01*
X50231933Y-131305104D01*
G37*
G36*
X57851933Y-131305104D02*
G01*
X57894376Y-131305104D01*
X57930119Y-131313914D01*
X57965680Y-131317921D01*
X58011679Y-131334017D01*
X58058223Y-131345489D01*
X58085745Y-131359933D01*
X58113553Y-131369664D01*
X58160549Y-131399193D01*
X58207645Y-131423911D01*
X58226568Y-131440675D01*
X58246205Y-131453014D01*
X58290541Y-131497350D01*
X58333958Y-131535814D01*
X58344994Y-131551803D01*
X58356985Y-131563794D01*
X58394680Y-131623786D01*
X58429819Y-131674694D01*
X58434617Y-131687346D01*
X58440335Y-131696446D01*
X58467370Y-131773710D01*
X58489659Y-131832479D01*
X58490575Y-131840024D01*
X58492078Y-131844319D01*
X58504723Y-131956543D01*
X58510000Y-132000000D01*
X58504722Y-132043459D01*
X58492078Y-132155680D01*
X58490575Y-132159974D01*
X58489659Y-132167521D01*
X58467366Y-132226301D01*
X58440335Y-132303553D01*
X58434618Y-132312650D01*
X58429819Y-132325306D01*
X58394673Y-132376223D01*
X58356985Y-132436205D01*
X58344997Y-132448192D01*
X58333958Y-132464186D01*
X58290532Y-132502657D01*
X58246205Y-132546985D01*
X58226572Y-132559320D01*
X58207645Y-132576089D01*
X58160540Y-132600811D01*
X58113553Y-132630335D01*
X58085750Y-132640063D01*
X58058223Y-132654511D01*
X58011670Y-132665985D01*
X57965680Y-132682078D01*
X57930126Y-132686084D01*
X57894376Y-132694896D01*
X57851924Y-132694896D01*
X57810000Y-132699620D01*
X57768076Y-132694896D01*
X57725624Y-132694896D01*
X57689873Y-132686084D01*
X57654319Y-132682078D01*
X57608326Y-132665984D01*
X57561777Y-132654511D01*
X57534251Y-132640064D01*
X57506446Y-132630335D01*
X57459453Y-132600808D01*
X57412355Y-132576089D01*
X57393430Y-132559323D01*
X57373794Y-132546985D01*
X57329458Y-132502649D01*
X57286042Y-132464186D01*
X57275005Y-132448196D01*
X57263014Y-132436205D01*
X57225315Y-132376207D01*
X57190181Y-132325306D01*
X57185383Y-132312654D01*
X57179664Y-132303553D01*
X57152620Y-132226267D01*
X57130341Y-132167521D01*
X57129425Y-132159978D01*
X57127921Y-132155680D01*
X57115263Y-132043345D01*
X57110000Y-132000000D01*
X57115262Y-131956658D01*
X57127921Y-131844319D01*
X57129425Y-131840019D01*
X57130341Y-131832479D01*
X57152616Y-131773744D01*
X57179664Y-131696446D01*
X57185384Y-131687342D01*
X57190181Y-131674694D01*
X57225308Y-131623802D01*
X57263014Y-131563794D01*
X57275007Y-131551800D01*
X57286042Y-131535814D01*
X57329449Y-131497358D01*
X57373794Y-131453014D01*
X57393433Y-131440673D01*
X57412355Y-131423911D01*
X57459444Y-131399196D01*
X57506446Y-131369664D01*
X57534256Y-131359932D01*
X57561777Y-131345489D01*
X57608316Y-131334017D01*
X57654319Y-131317921D01*
X57689881Y-131313913D01*
X57725624Y-131305104D01*
X57768067Y-131305104D01*
X57810000Y-131300379D01*
X57851933Y-131305104D01*
G37*
G36*
X63041933Y-129385104D02*
G01*
X63084376Y-129385104D01*
X63120119Y-129393914D01*
X63155680Y-129397921D01*
X63201679Y-129414017D01*
X63248223Y-129425489D01*
X63275745Y-129439933D01*
X63303553Y-129449664D01*
X63350549Y-129479193D01*
X63397645Y-129503911D01*
X63416568Y-129520675D01*
X63436205Y-129533014D01*
X63480541Y-129577350D01*
X63523958Y-129615814D01*
X63534994Y-129631803D01*
X63546985Y-129643794D01*
X63584680Y-129703786D01*
X63619819Y-129754694D01*
X63624617Y-129767346D01*
X63630335Y-129776446D01*
X63657370Y-129853710D01*
X63679659Y-129912479D01*
X63680575Y-129920024D01*
X63682078Y-129924319D01*
X63694723Y-130036543D01*
X63700000Y-130080000D01*
X63694722Y-130123459D01*
X63682078Y-130235680D01*
X63680575Y-130239974D01*
X63679659Y-130247521D01*
X63657366Y-130306301D01*
X63630335Y-130383553D01*
X63624618Y-130392650D01*
X63619819Y-130405306D01*
X63584673Y-130456223D01*
X63546985Y-130516205D01*
X63534997Y-130528192D01*
X63523958Y-130544186D01*
X63480532Y-130582657D01*
X63436205Y-130626985D01*
X63416572Y-130639320D01*
X63397645Y-130656089D01*
X63350540Y-130680811D01*
X63303553Y-130710335D01*
X63275750Y-130720063D01*
X63248223Y-130734511D01*
X63201670Y-130745985D01*
X63155680Y-130762078D01*
X63120126Y-130766084D01*
X63084376Y-130774896D01*
X63041924Y-130774896D01*
X63000000Y-130779620D01*
X62958076Y-130774896D01*
X62915624Y-130774896D01*
X62879873Y-130766084D01*
X62844319Y-130762078D01*
X62798326Y-130745984D01*
X62751777Y-130734511D01*
X62724251Y-130720064D01*
X62696446Y-130710335D01*
X62649453Y-130680808D01*
X62602355Y-130656089D01*
X62583430Y-130639323D01*
X62563794Y-130626985D01*
X62519458Y-130582649D01*
X62476042Y-130544186D01*
X62465005Y-130528196D01*
X62453014Y-130516205D01*
X62415315Y-130456207D01*
X62380181Y-130405306D01*
X62375383Y-130392654D01*
X62369664Y-130383553D01*
X62342620Y-130306267D01*
X62320341Y-130247521D01*
X62319425Y-130239978D01*
X62317921Y-130235680D01*
X62305263Y-130123345D01*
X62300000Y-130080000D01*
X62305262Y-130036658D01*
X62317921Y-129924319D01*
X62319425Y-129920019D01*
X62320341Y-129912479D01*
X62342616Y-129853744D01*
X62369664Y-129776446D01*
X62375384Y-129767342D01*
X62380181Y-129754694D01*
X62415308Y-129703802D01*
X62453014Y-129643794D01*
X62465007Y-129631800D01*
X62476042Y-129615814D01*
X62519449Y-129577358D01*
X62563794Y-129533014D01*
X62583433Y-129520673D01*
X62602355Y-129503911D01*
X62649444Y-129479196D01*
X62696446Y-129449664D01*
X62724256Y-129439932D01*
X62751777Y-129425489D01*
X62798316Y-129414017D01*
X62844319Y-129397921D01*
X62879881Y-129393913D01*
X62915624Y-129385104D01*
X62958067Y-129385104D01*
X63000000Y-129380379D01*
X63041933Y-129385104D01*
G37*
G36*
X33217060Y-127038990D02*
G01*
X33427525Y-127095384D01*
X33625000Y-127187468D01*
X33803485Y-127312444D01*
X33957556Y-127466515D01*
X34082532Y-127645000D01*
X34174616Y-127842475D01*
X34231010Y-128052940D01*
X34250000Y-128270000D01*
X34231010Y-128487060D01*
X34174616Y-128697525D01*
X34082532Y-128895000D01*
X33957556Y-129073485D01*
X33803485Y-129227556D01*
X33625000Y-129352532D01*
X33427525Y-129444616D01*
X33217060Y-129501010D01*
X33000000Y-129520000D01*
X32782940Y-129501010D01*
X32572475Y-129444616D01*
X32375000Y-129352532D01*
X32196515Y-129227556D01*
X32042444Y-129073485D01*
X31917468Y-128895000D01*
X31825384Y-128697525D01*
X31768990Y-128487060D01*
X31750000Y-128270000D01*
X31768990Y-128052940D01*
X31825384Y-127842475D01*
X31917468Y-127645000D01*
X32042444Y-127466515D01*
X32196515Y-127312444D01*
X32375000Y-127187468D01*
X32572475Y-127095384D01*
X32782940Y-127038990D01*
X33000000Y-127020000D01*
X33217060Y-127038990D01*
G37*
G36*
X39817060Y-127038990D02*
G01*
X40027525Y-127095384D01*
X40225000Y-127187468D01*
X40403485Y-127312444D01*
X40557556Y-127466515D01*
X40682532Y-127645000D01*
X40774616Y-127842475D01*
X40831010Y-128052940D01*
X40850000Y-128270000D01*
X40831010Y-128487060D01*
X40774616Y-128697525D01*
X40682532Y-128895000D01*
X40557556Y-129073485D01*
X40403485Y-129227556D01*
X40225000Y-129352532D01*
X40027525Y-129444616D01*
X39817060Y-129501010D01*
X39600000Y-129520000D01*
X39382940Y-129501010D01*
X39172475Y-129444616D01*
X38975000Y-129352532D01*
X38796515Y-129227556D01*
X38642444Y-129073485D01*
X38517468Y-128895000D01*
X38425384Y-128697525D01*
X38368990Y-128487060D01*
X38350000Y-128270000D01*
X38368990Y-128052940D01*
X38425384Y-127842475D01*
X38517468Y-127645000D01*
X38642444Y-127466515D01*
X38796515Y-127312444D01*
X38975000Y-127187468D01*
X39172475Y-127095384D01*
X39382940Y-127038990D01*
X39600000Y-127020000D01*
X39817060Y-127038990D01*
G37*
G36*
X32833785Y-125474448D02*
G01*
X32866241Y-125474448D01*
X32903454Y-125483620D01*
X32942350Y-125488741D01*
X32968974Y-125499769D01*
X32994879Y-125506154D01*
X33034154Y-125526767D01*
X33075000Y-125543686D01*
X33093635Y-125557985D01*
X33112183Y-125567720D01*
X33150106Y-125601317D01*
X33188909Y-125631091D01*
X33199935Y-125645461D01*
X33211353Y-125655576D01*
X33244090Y-125703005D01*
X33276314Y-125745000D01*
X33281171Y-125756727D01*
X33286609Y-125764605D01*
X33310199Y-125826807D01*
X33331259Y-125877650D01*
X33332204Y-125884828D01*
X33333589Y-125888480D01*
X33344314Y-125976817D01*
X33350000Y-126020000D01*
X33344314Y-126063186D01*
X33333589Y-126151519D01*
X33332204Y-126155170D01*
X33331259Y-126162350D01*
X33310194Y-126213203D01*
X33286609Y-126275394D01*
X33281172Y-126283269D01*
X33276314Y-126295000D01*
X33244083Y-126337003D01*
X33211353Y-126384423D01*
X33199937Y-126394535D01*
X33188909Y-126408909D01*
X33150098Y-126438689D01*
X33112183Y-126472279D01*
X33093639Y-126482011D01*
X33075000Y-126496314D01*
X33034145Y-126513236D01*
X32994879Y-126533845D01*
X32968979Y-126540228D01*
X32942350Y-126551259D01*
X32903452Y-126556380D01*
X32866241Y-126565552D01*
X32833785Y-126565552D01*
X32800000Y-126570000D01*
X32766215Y-126565552D01*
X32733759Y-126565552D01*
X32696546Y-126556379D01*
X32657650Y-126551259D01*
X32631021Y-126540229D01*
X32605120Y-126533845D01*
X32565850Y-126513234D01*
X32525000Y-126496314D01*
X32506362Y-126482012D01*
X32487816Y-126472279D01*
X32449894Y-126438683D01*
X32411091Y-126408909D01*
X32400064Y-126394538D01*
X32388646Y-126384423D01*
X32355906Y-126336990D01*
X32323686Y-126295000D01*
X32318828Y-126283273D01*
X32313390Y-126275394D01*
X32289793Y-126213175D01*
X32268741Y-126162350D01*
X32267796Y-126155174D01*
X32266410Y-126151519D01*
X32255672Y-126063088D01*
X32250000Y-126020000D01*
X32255672Y-125976914D01*
X32266410Y-125888480D01*
X32267796Y-125884824D01*
X32268741Y-125877650D01*
X32289788Y-125826835D01*
X32313390Y-125764605D01*
X32318829Y-125756723D01*
X32323686Y-125745000D01*
X32355899Y-125703018D01*
X32388646Y-125655576D01*
X32400066Y-125645458D01*
X32411091Y-125631091D01*
X32449885Y-125601322D01*
X32487816Y-125567720D01*
X32506366Y-125557983D01*
X32525000Y-125543686D01*
X32565841Y-125526769D01*
X32605120Y-125506154D01*
X32631026Y-125499768D01*
X32657650Y-125488741D01*
X32696544Y-125483620D01*
X32733759Y-125474448D01*
X32766215Y-125474448D01*
X32800000Y-125470000D01*
X32833785Y-125474448D01*
G37*
G36*
X38833785Y-125474448D02*
G01*
X38866241Y-125474448D01*
X38903454Y-125483620D01*
X38942350Y-125488741D01*
X38968974Y-125499769D01*
X38994879Y-125506154D01*
X39034154Y-125526767D01*
X39075000Y-125543686D01*
X39093635Y-125557985D01*
X39112183Y-125567720D01*
X39150106Y-125601317D01*
X39188909Y-125631091D01*
X39199935Y-125645461D01*
X39211353Y-125655576D01*
X39244090Y-125703005D01*
X39276314Y-125745000D01*
X39281171Y-125756727D01*
X39286609Y-125764605D01*
X39310199Y-125826807D01*
X39331259Y-125877650D01*
X39332204Y-125884828D01*
X39333589Y-125888480D01*
X39344314Y-125976817D01*
X39350000Y-126020000D01*
X39344314Y-126063186D01*
X39333589Y-126151519D01*
X39332204Y-126155170D01*
X39331259Y-126162350D01*
X39310194Y-126213203D01*
X39286609Y-126275394D01*
X39281172Y-126283269D01*
X39276314Y-126295000D01*
X39244083Y-126337003D01*
X39211353Y-126384423D01*
X39199937Y-126394535D01*
X39188909Y-126408909D01*
X39150098Y-126438689D01*
X39112183Y-126472279D01*
X39093639Y-126482011D01*
X39075000Y-126496314D01*
X39034145Y-126513236D01*
X38994879Y-126533845D01*
X38968979Y-126540228D01*
X38942350Y-126551259D01*
X38903452Y-126556380D01*
X38866241Y-126565552D01*
X38833785Y-126565552D01*
X38800000Y-126570000D01*
X38766215Y-126565552D01*
X38733759Y-126565552D01*
X38696546Y-126556379D01*
X38657650Y-126551259D01*
X38631021Y-126540229D01*
X38605120Y-126533845D01*
X38565850Y-126513234D01*
X38525000Y-126496314D01*
X38506362Y-126482012D01*
X38487816Y-126472279D01*
X38449894Y-126438683D01*
X38411091Y-126408909D01*
X38400064Y-126394538D01*
X38388646Y-126384423D01*
X38355906Y-126336990D01*
X38323686Y-126295000D01*
X38318828Y-126283273D01*
X38313390Y-126275394D01*
X38289793Y-126213175D01*
X38268741Y-126162350D01*
X38267796Y-126155174D01*
X38266410Y-126151519D01*
X38255672Y-126063088D01*
X38250000Y-126020000D01*
X38255672Y-125976914D01*
X38266410Y-125888480D01*
X38267796Y-125884824D01*
X38268741Y-125877650D01*
X38289788Y-125826835D01*
X38313390Y-125764605D01*
X38318829Y-125756723D01*
X38323686Y-125745000D01*
X38355899Y-125703018D01*
X38388646Y-125655576D01*
X38400066Y-125645458D01*
X38411091Y-125631091D01*
X38449885Y-125601322D01*
X38487816Y-125567720D01*
X38506366Y-125557983D01*
X38525000Y-125543686D01*
X38565841Y-125526769D01*
X38605120Y-125506154D01*
X38631026Y-125499768D01*
X38657650Y-125488741D01*
X38696544Y-125483620D01*
X38733759Y-125474448D01*
X38766215Y-125474448D01*
X38800000Y-125470000D01*
X38833785Y-125474448D01*
G37*
G36*
X49195090Y-123289215D02*
G01*
X49382683Y-123346120D01*
X49555570Y-123438530D01*
X49707107Y-123562893D01*
X49831470Y-123714430D01*
X49923880Y-123887317D01*
X49980785Y-124074910D01*
X50000000Y-124270000D01*
X49980785Y-124465090D01*
X49923880Y-124652683D01*
X49831470Y-124825570D01*
X49707107Y-124977107D01*
X49555570Y-125101470D01*
X49382683Y-125193880D01*
X49195090Y-125250785D01*
X49000000Y-125270000D01*
X48804910Y-125250785D01*
X48617317Y-125193880D01*
X48444430Y-125101470D01*
X48292893Y-124977107D01*
X48168530Y-124825570D01*
X48076120Y-124652683D01*
X48019215Y-124465090D01*
X48000000Y-124270000D01*
X48019215Y-124074910D01*
X48076120Y-123887317D01*
X48168530Y-123714430D01*
X48292893Y-123562893D01*
X48444430Y-123438530D01*
X48617317Y-123346120D01*
X48804910Y-123289215D01*
X49000000Y-123270000D01*
X49195090Y-123289215D01*
G37*
G36*
X54195090Y-123289215D02*
G01*
X54382683Y-123346120D01*
X54555570Y-123438530D01*
X54707107Y-123562893D01*
X54831470Y-123714430D01*
X54923880Y-123887317D01*
X54980785Y-124074910D01*
X55000000Y-124270000D01*
X54980785Y-124465090D01*
X54923880Y-124652683D01*
X54831470Y-124825570D01*
X54707107Y-124977107D01*
X54555570Y-125101470D01*
X54382683Y-125193880D01*
X54195090Y-125250785D01*
X54000000Y-125270000D01*
X53804910Y-125250785D01*
X53617317Y-125193880D01*
X53444430Y-125101470D01*
X53292893Y-124977107D01*
X53168530Y-124825570D01*
X53076120Y-124652683D01*
X53019215Y-124465090D01*
X53000000Y-124270000D01*
X53019215Y-124074910D01*
X53076120Y-123887317D01*
X53168530Y-123714430D01*
X53292893Y-123562893D01*
X53444430Y-123438530D01*
X53617317Y-123346120D01*
X53804910Y-123289215D01*
X54000000Y-123270000D01*
X54195090Y-123289215D01*
G37*
G36*
X34817060Y-122538990D02*
G01*
X35027525Y-122595384D01*
X35225000Y-122687468D01*
X35403485Y-122812444D01*
X35557556Y-122966515D01*
X35682532Y-123145000D01*
X35774616Y-123342475D01*
X35831010Y-123552940D01*
X35850000Y-123770000D01*
X35831010Y-123987060D01*
X35774616Y-124197525D01*
X35682532Y-124395000D01*
X35557556Y-124573485D01*
X35403485Y-124727556D01*
X35225000Y-124852532D01*
X35027525Y-124944616D01*
X34817060Y-125001010D01*
X34600000Y-125020000D01*
X34382940Y-125001010D01*
X34172475Y-124944616D01*
X33975000Y-124852532D01*
X33796515Y-124727556D01*
X33642444Y-124573485D01*
X33517468Y-124395000D01*
X33425384Y-124197525D01*
X33368990Y-123987060D01*
X33350000Y-123770000D01*
X33368990Y-123552940D01*
X33425384Y-123342475D01*
X33517468Y-123145000D01*
X33642444Y-122966515D01*
X33796515Y-122812444D01*
X33975000Y-122687468D01*
X34172475Y-122595384D01*
X34382940Y-122538990D01*
X34600000Y-122520000D01*
X34817060Y-122538990D01*
G37*
G36*
X88120533Y-121649294D02*
G01*
X88334366Y-121706590D01*
X88535000Y-121800148D01*
X88716340Y-121927124D01*
X88872876Y-122083660D01*
X88999852Y-122265000D01*
X89093410Y-122465634D01*
X89150706Y-122679467D01*
X89170000Y-122900000D01*
X89150706Y-123120533D01*
X89093410Y-123334366D01*
X88999852Y-123535000D01*
X88872876Y-123716340D01*
X88716340Y-123872876D01*
X88535000Y-123999852D01*
X88334366Y-124093410D01*
X88120533Y-124150706D01*
X87900000Y-124170000D01*
X87679467Y-124150706D01*
X87465634Y-124093410D01*
X87265000Y-123999852D01*
X87083660Y-123872876D01*
X86927124Y-123716340D01*
X86800148Y-123535000D01*
X86706590Y-123334366D01*
X86649294Y-123120533D01*
X86630000Y-122900000D01*
X86649294Y-122679467D01*
X86706590Y-122465634D01*
X86800148Y-122265000D01*
X86927124Y-122083660D01*
X87083660Y-121927124D01*
X87265000Y-121800148D01*
X87465634Y-121706590D01*
X87679467Y-121649294D01*
X87900000Y-121630000D01*
X88120533Y-121649294D01*
G37*
G36*
X74969561Y-122017105D02*
G01*
X75130619Y-122073462D01*
X75275099Y-122164244D01*
X75395756Y-122284901D01*
X75486538Y-122429381D01*
X75542895Y-122590439D01*
X75562000Y-122760000D01*
X75542895Y-122929561D01*
X75486538Y-123090619D01*
X75395756Y-123235099D01*
X75275099Y-123355756D01*
X75130619Y-123446538D01*
X74969561Y-123502895D01*
X74800000Y-123522000D01*
X74630439Y-123502895D01*
X74469381Y-123446538D01*
X74324901Y-123355756D01*
X74204244Y-123235099D01*
X74113462Y-123090619D01*
X74057105Y-122929561D01*
X74038000Y-122760000D01*
X74057105Y-122590439D01*
X74113462Y-122429381D01*
X74204244Y-122284901D01*
X74324901Y-122164244D01*
X74469381Y-122073462D01*
X74630439Y-122017105D01*
X74800000Y-121998000D01*
X74969561Y-122017105D01*
G37*
G36*
X63041933Y-121765104D02*
G01*
X63084376Y-121765104D01*
X63120119Y-121773914D01*
X63155680Y-121777921D01*
X63201679Y-121794017D01*
X63248223Y-121805489D01*
X63275745Y-121819933D01*
X63303553Y-121829664D01*
X63350549Y-121859193D01*
X63397645Y-121883911D01*
X63416568Y-121900675D01*
X63436205Y-121913014D01*
X63480541Y-121957350D01*
X63523958Y-121995814D01*
X63534994Y-122011803D01*
X63546985Y-122023794D01*
X63584680Y-122083786D01*
X63619819Y-122134694D01*
X63624617Y-122147346D01*
X63630335Y-122156446D01*
X63657370Y-122233710D01*
X63679659Y-122292479D01*
X63680575Y-122300024D01*
X63682078Y-122304319D01*
X63694723Y-122416543D01*
X63700000Y-122460000D01*
X63694722Y-122503459D01*
X63682078Y-122615680D01*
X63680575Y-122619974D01*
X63679659Y-122627521D01*
X63657366Y-122686301D01*
X63630335Y-122763553D01*
X63624618Y-122772650D01*
X63619819Y-122785306D01*
X63584673Y-122836223D01*
X63546985Y-122896205D01*
X63534997Y-122908192D01*
X63523958Y-122924186D01*
X63480532Y-122962657D01*
X63436205Y-123006985D01*
X63416572Y-123019320D01*
X63397645Y-123036089D01*
X63350540Y-123060811D01*
X63303553Y-123090335D01*
X63275750Y-123100063D01*
X63248223Y-123114511D01*
X63201670Y-123125985D01*
X63155680Y-123142078D01*
X63120126Y-123146084D01*
X63084376Y-123154896D01*
X63041924Y-123154896D01*
X63000000Y-123159620D01*
X62958076Y-123154896D01*
X62915624Y-123154896D01*
X62879873Y-123146084D01*
X62844319Y-123142078D01*
X62798326Y-123125984D01*
X62751777Y-123114511D01*
X62724251Y-123100064D01*
X62696446Y-123090335D01*
X62649453Y-123060808D01*
X62602355Y-123036089D01*
X62583430Y-123019323D01*
X62563794Y-123006985D01*
X62519458Y-122962649D01*
X62476042Y-122924186D01*
X62465005Y-122908196D01*
X62453014Y-122896205D01*
X62415315Y-122836207D01*
X62380181Y-122785306D01*
X62375383Y-122772654D01*
X62369664Y-122763553D01*
X62342620Y-122686267D01*
X62320341Y-122627521D01*
X62319425Y-122619978D01*
X62317921Y-122615680D01*
X62305263Y-122503345D01*
X62300000Y-122460000D01*
X62305262Y-122416658D01*
X62317921Y-122304319D01*
X62319425Y-122300019D01*
X62320341Y-122292479D01*
X62342616Y-122233744D01*
X62369664Y-122156446D01*
X62375384Y-122147342D01*
X62380181Y-122134694D01*
X62415308Y-122083802D01*
X62453014Y-122023794D01*
X62465007Y-122011800D01*
X62476042Y-121995814D01*
X62519449Y-121957358D01*
X62563794Y-121913014D01*
X62583433Y-121900673D01*
X62602355Y-121883911D01*
X62649444Y-121859196D01*
X62696446Y-121829664D01*
X62724256Y-121819932D01*
X62751777Y-121805489D01*
X62798316Y-121794017D01*
X62844319Y-121777921D01*
X62879881Y-121773913D01*
X62915624Y-121765104D01*
X62958067Y-121765104D01*
X63000000Y-121760379D01*
X63041933Y-121765104D01*
G37*
G36*
X74969561Y-119477105D02*
G01*
X75130619Y-119533462D01*
X75275099Y-119624244D01*
X75395756Y-119744901D01*
X75486538Y-119889381D01*
X75542895Y-120050439D01*
X75562000Y-120220000D01*
X75542895Y-120389561D01*
X75486538Y-120550619D01*
X75395756Y-120695099D01*
X75275099Y-120815756D01*
X75130619Y-120906538D01*
X74969561Y-120962895D01*
X74800000Y-120982000D01*
X74630439Y-120962895D01*
X74469381Y-120906538D01*
X74324901Y-120815756D01*
X74204244Y-120695099D01*
X74113462Y-120550619D01*
X74057105Y-120389561D01*
X74038000Y-120220000D01*
X74057105Y-120050439D01*
X74113462Y-119889381D01*
X74204244Y-119744901D01*
X74324901Y-119624244D01*
X74469381Y-119533462D01*
X74630439Y-119477105D01*
X74800000Y-119458000D01*
X74969561Y-119477105D01*
G37*
G36*
X63041933Y-118385104D02*
G01*
X63084376Y-118385104D01*
X63120119Y-118393914D01*
X63155680Y-118397921D01*
X63201679Y-118414017D01*
X63248223Y-118425489D01*
X63275745Y-118439933D01*
X63303553Y-118449664D01*
X63350549Y-118479193D01*
X63397645Y-118503911D01*
X63416568Y-118520675D01*
X63436205Y-118533014D01*
X63480541Y-118577350D01*
X63523958Y-118615814D01*
X63534994Y-118631803D01*
X63546985Y-118643794D01*
X63584680Y-118703786D01*
X63619819Y-118754694D01*
X63624617Y-118767346D01*
X63630335Y-118776446D01*
X63657370Y-118853710D01*
X63679659Y-118912479D01*
X63680575Y-118920024D01*
X63682078Y-118924319D01*
X63694723Y-119036543D01*
X63700000Y-119080000D01*
X63694722Y-119123459D01*
X63682078Y-119235680D01*
X63680575Y-119239974D01*
X63679659Y-119247521D01*
X63657366Y-119306301D01*
X63630335Y-119383553D01*
X63624618Y-119392650D01*
X63619819Y-119405306D01*
X63584673Y-119456223D01*
X63546985Y-119516205D01*
X63534997Y-119528192D01*
X63523958Y-119544186D01*
X63480532Y-119582657D01*
X63436205Y-119626985D01*
X63416572Y-119639320D01*
X63397645Y-119656089D01*
X63350540Y-119680811D01*
X63303553Y-119710335D01*
X63275750Y-119720063D01*
X63248223Y-119734511D01*
X63201670Y-119745985D01*
X63155680Y-119762078D01*
X63120126Y-119766084D01*
X63084376Y-119774896D01*
X63041924Y-119774896D01*
X63000000Y-119779620D01*
X62958076Y-119774896D01*
X62915624Y-119774896D01*
X62879873Y-119766084D01*
X62844319Y-119762078D01*
X62798326Y-119745984D01*
X62751777Y-119734511D01*
X62724251Y-119720064D01*
X62696446Y-119710335D01*
X62649453Y-119680808D01*
X62602355Y-119656089D01*
X62583430Y-119639323D01*
X62563794Y-119626985D01*
X62519458Y-119582649D01*
X62476042Y-119544186D01*
X62465005Y-119528196D01*
X62453014Y-119516205D01*
X62415315Y-119456207D01*
X62380181Y-119405306D01*
X62375383Y-119392654D01*
X62369664Y-119383553D01*
X62342620Y-119306267D01*
X62320341Y-119247521D01*
X62319425Y-119239978D01*
X62317921Y-119235680D01*
X62305263Y-119123345D01*
X62300000Y-119080000D01*
X62305262Y-119036658D01*
X62317921Y-118924319D01*
X62319425Y-118920019D01*
X62320341Y-118912479D01*
X62342616Y-118853744D01*
X62369664Y-118776446D01*
X62375384Y-118767342D01*
X62380181Y-118754694D01*
X62415308Y-118703802D01*
X62453014Y-118643794D01*
X62465007Y-118631800D01*
X62476042Y-118615814D01*
X62519449Y-118577358D01*
X62563794Y-118533014D01*
X62583433Y-118520673D01*
X62602355Y-118503911D01*
X62649444Y-118479196D01*
X62696446Y-118449664D01*
X62724256Y-118439932D01*
X62751777Y-118425489D01*
X62798316Y-118414017D01*
X62844319Y-118397921D01*
X62879881Y-118393913D01*
X62915624Y-118385104D01*
X62958067Y-118385104D01*
X63000000Y-118380379D01*
X63041933Y-118385104D01*
G37*
G36*
X43195090Y-117789215D02*
G01*
X43382683Y-117846120D01*
X43555570Y-117938530D01*
X43707107Y-118062893D01*
X43831470Y-118214430D01*
X43923880Y-118387317D01*
X43980785Y-118574910D01*
X44000000Y-118770000D01*
X43980785Y-118965090D01*
X43923880Y-119152683D01*
X43831470Y-119325570D01*
X43707107Y-119477107D01*
X43555570Y-119601470D01*
X43382683Y-119693880D01*
X43195090Y-119750785D01*
X43000000Y-119770000D01*
X42804910Y-119750785D01*
X42617317Y-119693880D01*
X42444430Y-119601470D01*
X42292893Y-119477107D01*
X42168530Y-119325570D01*
X42076120Y-119152683D01*
X42019215Y-118965090D01*
X42000000Y-118770000D01*
X42019215Y-118574910D01*
X42076120Y-118387317D01*
X42168530Y-118214430D01*
X42292893Y-118062893D01*
X42444430Y-117938530D01*
X42617317Y-117846120D01*
X42804910Y-117789215D01*
X43000000Y-117770000D01*
X43195090Y-117789215D01*
G37*
G36*
X74969561Y-116937105D02*
G01*
X75130619Y-116993462D01*
X75275099Y-117084244D01*
X75395756Y-117204901D01*
X75486538Y-117349381D01*
X75542895Y-117510439D01*
X75562000Y-117680000D01*
X75542895Y-117849561D01*
X75486538Y-118010619D01*
X75395756Y-118155099D01*
X75275099Y-118275756D01*
X75130619Y-118366538D01*
X74969561Y-118422895D01*
X74800000Y-118442000D01*
X74630439Y-118422895D01*
X74469381Y-118366538D01*
X74324901Y-118275756D01*
X74204244Y-118155099D01*
X74113462Y-118010619D01*
X74057105Y-117849561D01*
X74038000Y-117680000D01*
X74057105Y-117510439D01*
X74113462Y-117349381D01*
X74204244Y-117204901D01*
X74324901Y-117084244D01*
X74469381Y-116993462D01*
X74630439Y-116937105D01*
X74800000Y-116918000D01*
X74969561Y-116937105D01*
G37*
G36*
X53750000Y-117065000D02*
G01*
X52250000Y-117065000D01*
X52250000Y-116015000D01*
X53750000Y-116015000D01*
X53750000Y-117065000D01*
G37*
G36*
X74969561Y-114397105D02*
G01*
X75130619Y-114453462D01*
X75275099Y-114544244D01*
X75395756Y-114664901D01*
X75486538Y-114809381D01*
X75542895Y-114970439D01*
X75562000Y-115140000D01*
X75542895Y-115309561D01*
X75486538Y-115470619D01*
X75395756Y-115615099D01*
X75275099Y-115735756D01*
X75130619Y-115826538D01*
X74969561Y-115882895D01*
X74800000Y-115902000D01*
X74630439Y-115882895D01*
X74469381Y-115826538D01*
X74324901Y-115735756D01*
X74204244Y-115615099D01*
X74113462Y-115470619D01*
X74057105Y-115309561D01*
X74038000Y-115140000D01*
X74057105Y-114970439D01*
X74113462Y-114809381D01*
X74204244Y-114664901D01*
X74324901Y-114544244D01*
X74469381Y-114453462D01*
X74630439Y-114397105D01*
X74800000Y-114378000D01*
X74969561Y-114397105D01*
G37*
G36*
X53293526Y-114749491D02*
G01*
X53425909Y-114784963D01*
X53544600Y-114853489D01*
X53641511Y-114950400D01*
X53710037Y-115069091D01*
X53745509Y-115201474D01*
X53745509Y-115338526D01*
X53710037Y-115470909D01*
X53641511Y-115589600D01*
X53544600Y-115686511D01*
X53425909Y-115755037D01*
X53293526Y-115790509D01*
X52775000Y-115795000D01*
X52706474Y-115790509D01*
X52574091Y-115755037D01*
X52455400Y-115686511D01*
X52358489Y-115589600D01*
X52289963Y-115470909D01*
X52254491Y-115338526D01*
X52254491Y-115201474D01*
X52289963Y-115069091D01*
X52358489Y-114950400D01*
X52455400Y-114853489D01*
X52574091Y-114784963D01*
X52706474Y-114749491D01*
X53225000Y-114745000D01*
X53293526Y-114749491D01*
G37*
G36*
X43195090Y-112789215D02*
G01*
X43382683Y-112846120D01*
X43555570Y-112938530D01*
X43707107Y-113062893D01*
X43831470Y-113214430D01*
X43923880Y-113387317D01*
X43980785Y-113574910D01*
X44000000Y-113770000D01*
X43980785Y-113965090D01*
X43923880Y-114152683D01*
X43831470Y-114325570D01*
X43707107Y-114477107D01*
X43555570Y-114601470D01*
X43382683Y-114693880D01*
X43195090Y-114750785D01*
X43000000Y-114770000D01*
X42804910Y-114750785D01*
X42617317Y-114693880D01*
X42444430Y-114601470D01*
X42292893Y-114477107D01*
X42168530Y-114325570D01*
X42076120Y-114152683D01*
X42019215Y-113965090D01*
X42000000Y-113770000D01*
X42019215Y-113574910D01*
X42076120Y-113387317D01*
X42168530Y-113214430D01*
X42292893Y-113062893D01*
X42444430Y-112938530D01*
X42617317Y-112846120D01*
X42804910Y-112789215D01*
X43000000Y-112770000D01*
X43195090Y-112789215D01*
G37*
G36*
X53293526Y-113479491D02*
G01*
X53425909Y-113514963D01*
X53544600Y-113583489D01*
X53641511Y-113680400D01*
X53710037Y-113799091D01*
X53745509Y-113931474D01*
X53745509Y-114068526D01*
X53710037Y-114200909D01*
X53641511Y-114319600D01*
X53544600Y-114416511D01*
X53425909Y-114485037D01*
X53293526Y-114520509D01*
X52775000Y-114525000D01*
X52706474Y-114520509D01*
X52574091Y-114485037D01*
X52455400Y-114416511D01*
X52358489Y-114319600D01*
X52289963Y-114200909D01*
X52254491Y-114068526D01*
X52254491Y-113931474D01*
X52289963Y-113799091D01*
X52358489Y-113680400D01*
X52455400Y-113583489D01*
X52574091Y-113514963D01*
X52706474Y-113479491D01*
X53225000Y-113475000D01*
X53293526Y-113479491D01*
G37*
G36*
X74969561Y-111857105D02*
G01*
X75130619Y-111913462D01*
X75275099Y-112004244D01*
X75395756Y-112124901D01*
X75486538Y-112269381D01*
X75542895Y-112430439D01*
X75562000Y-112600000D01*
X75542895Y-112769561D01*
X75486538Y-112930619D01*
X75395756Y-113075099D01*
X75275099Y-113195756D01*
X75130619Y-113286538D01*
X74969561Y-113342895D01*
X74800000Y-113362000D01*
X74630439Y-113342895D01*
X74469381Y-113286538D01*
X74324901Y-113195756D01*
X74204244Y-113075099D01*
X74113462Y-112930619D01*
X74057105Y-112769561D01*
X74038000Y-112600000D01*
X74057105Y-112430439D01*
X74113462Y-112269381D01*
X74204244Y-112124901D01*
X74324901Y-112004244D01*
X74469381Y-111913462D01*
X74630439Y-111857105D01*
X74800000Y-111838000D01*
X74969561Y-111857105D01*
G37*
G36*
X63041933Y-110765104D02*
G01*
X63084376Y-110765104D01*
X63120119Y-110773914D01*
X63155680Y-110777921D01*
X63201679Y-110794017D01*
X63248223Y-110805489D01*
X63275745Y-110819933D01*
X63303553Y-110829664D01*
X63350549Y-110859193D01*
X63397645Y-110883911D01*
X63416568Y-110900675D01*
X63436205Y-110913014D01*
X63480541Y-110957350D01*
X63523958Y-110995814D01*
X63534994Y-111011803D01*
X63546985Y-111023794D01*
X63584680Y-111083786D01*
X63619819Y-111134694D01*
X63624617Y-111147346D01*
X63630335Y-111156446D01*
X63657370Y-111233710D01*
X63679659Y-111292479D01*
X63680575Y-111300024D01*
X63682078Y-111304319D01*
X63694723Y-111416543D01*
X63700000Y-111460000D01*
X63694722Y-111503459D01*
X63682078Y-111615680D01*
X63680575Y-111619974D01*
X63679659Y-111627521D01*
X63657366Y-111686301D01*
X63630335Y-111763553D01*
X63624618Y-111772650D01*
X63619819Y-111785306D01*
X63584673Y-111836223D01*
X63546985Y-111896205D01*
X63534997Y-111908192D01*
X63523958Y-111924186D01*
X63480532Y-111962657D01*
X63436205Y-112006985D01*
X63416572Y-112019320D01*
X63397645Y-112036089D01*
X63350540Y-112060811D01*
X63303553Y-112090335D01*
X63275750Y-112100063D01*
X63248223Y-112114511D01*
X63201670Y-112125985D01*
X63155680Y-112142078D01*
X63120126Y-112146084D01*
X63084376Y-112154896D01*
X63041924Y-112154896D01*
X63000000Y-112159620D01*
X62958076Y-112154896D01*
X62915624Y-112154896D01*
X62879873Y-112146084D01*
X62844319Y-112142078D01*
X62798326Y-112125984D01*
X62751777Y-112114511D01*
X62724251Y-112100064D01*
X62696446Y-112090335D01*
X62649453Y-112060808D01*
X62602355Y-112036089D01*
X62583430Y-112019323D01*
X62563794Y-112006985D01*
X62519458Y-111962649D01*
X62476042Y-111924186D01*
X62465005Y-111908196D01*
X62453014Y-111896205D01*
X62415315Y-111836207D01*
X62380181Y-111785306D01*
X62375383Y-111772654D01*
X62369664Y-111763553D01*
X62342620Y-111686267D01*
X62320341Y-111627521D01*
X62319425Y-111619978D01*
X62317921Y-111615680D01*
X62305263Y-111503345D01*
X62300000Y-111460000D01*
X62305262Y-111416658D01*
X62317921Y-111304319D01*
X62319425Y-111300019D01*
X62320341Y-111292479D01*
X62342616Y-111233744D01*
X62369664Y-111156446D01*
X62375384Y-111147342D01*
X62380181Y-111134694D01*
X62415308Y-111083802D01*
X62453014Y-111023794D01*
X62465007Y-111011800D01*
X62476042Y-110995814D01*
X62519449Y-110957358D01*
X62563794Y-110913014D01*
X62583433Y-110900673D01*
X62602355Y-110883911D01*
X62649444Y-110859196D01*
X62696446Y-110829664D01*
X62724256Y-110819932D01*
X62751777Y-110805489D01*
X62798316Y-110794017D01*
X62844319Y-110777921D01*
X62879881Y-110773913D01*
X62915624Y-110765104D01*
X62958067Y-110765104D01*
X63000000Y-110760379D01*
X63041933Y-110765104D01*
G37*
G36*
X74969561Y-109317105D02*
G01*
X75130619Y-109373462D01*
X75275099Y-109464244D01*
X75395756Y-109584901D01*
X75486538Y-109729381D01*
X75542895Y-109890439D01*
X75562000Y-110060000D01*
X75542895Y-110229561D01*
X75486538Y-110390619D01*
X75395756Y-110535099D01*
X75275099Y-110655756D01*
X75130619Y-110746538D01*
X74969561Y-110802895D01*
X74800000Y-110822000D01*
X74630439Y-110802895D01*
X74469381Y-110746538D01*
X74324901Y-110655756D01*
X74204244Y-110535099D01*
X74113462Y-110390619D01*
X74057105Y-110229561D01*
X74038000Y-110060000D01*
X74057105Y-109890439D01*
X74113462Y-109729381D01*
X74204244Y-109584901D01*
X74324901Y-109464244D01*
X74469381Y-109373462D01*
X74630439Y-109317105D01*
X74800000Y-109298000D01*
X74969561Y-109317105D01*
G37*
G36*
X51231933Y-107575104D02*
G01*
X51274376Y-107575104D01*
X51310119Y-107583914D01*
X51345680Y-107587921D01*
X51391679Y-107604017D01*
X51438223Y-107615489D01*
X51465745Y-107629933D01*
X51493553Y-107639664D01*
X51540549Y-107669193D01*
X51587645Y-107693911D01*
X51606568Y-107710675D01*
X51626205Y-107723014D01*
X51670541Y-107767350D01*
X51713958Y-107805814D01*
X51724994Y-107821803D01*
X51736985Y-107833794D01*
X51774680Y-107893786D01*
X51809819Y-107944694D01*
X51814617Y-107957346D01*
X51820335Y-107966446D01*
X51847370Y-108043710D01*
X51869659Y-108102479D01*
X51870575Y-108110024D01*
X51872078Y-108114319D01*
X51884723Y-108226543D01*
X51890000Y-108270000D01*
X51884722Y-108313459D01*
X51872078Y-108425680D01*
X51870575Y-108429974D01*
X51869659Y-108437521D01*
X51847366Y-108496301D01*
X51820335Y-108573553D01*
X51814618Y-108582650D01*
X51809819Y-108595306D01*
X51774673Y-108646223D01*
X51736985Y-108706205D01*
X51724997Y-108718192D01*
X51713958Y-108734186D01*
X51670532Y-108772657D01*
X51626205Y-108816985D01*
X51606572Y-108829320D01*
X51587645Y-108846089D01*
X51540540Y-108870811D01*
X51493553Y-108900335D01*
X51465750Y-108910063D01*
X51438223Y-108924511D01*
X51391670Y-108935985D01*
X51345680Y-108952078D01*
X51310126Y-108956084D01*
X51274376Y-108964896D01*
X51231924Y-108964896D01*
X51190000Y-108969620D01*
X51148076Y-108964896D01*
X51105624Y-108964896D01*
X51069873Y-108956084D01*
X51034319Y-108952078D01*
X50988326Y-108935984D01*
X50941777Y-108924511D01*
X50914251Y-108910064D01*
X50886446Y-108900335D01*
X50839453Y-108870808D01*
X50792355Y-108846089D01*
X50773430Y-108829323D01*
X50753794Y-108816985D01*
X50709458Y-108772649D01*
X50666042Y-108734186D01*
X50655005Y-108718196D01*
X50643014Y-108706205D01*
X50605315Y-108646207D01*
X50570181Y-108595306D01*
X50565383Y-108582654D01*
X50559664Y-108573553D01*
X50532620Y-108496267D01*
X50510341Y-108437521D01*
X50509425Y-108429978D01*
X50507921Y-108425680D01*
X50495263Y-108313345D01*
X50490000Y-108270000D01*
X50495262Y-108226658D01*
X50507921Y-108114319D01*
X50509425Y-108110019D01*
X50510341Y-108102479D01*
X50532616Y-108043744D01*
X50559664Y-107966446D01*
X50565384Y-107957342D01*
X50570181Y-107944694D01*
X50605308Y-107893802D01*
X50643014Y-107833794D01*
X50655007Y-107821800D01*
X50666042Y-107805814D01*
X50709449Y-107767358D01*
X50753794Y-107723014D01*
X50773433Y-107710673D01*
X50792355Y-107693911D01*
X50839444Y-107669196D01*
X50886446Y-107639664D01*
X50914256Y-107629932D01*
X50941777Y-107615489D01*
X50988316Y-107604017D01*
X51034319Y-107587921D01*
X51069881Y-107583913D01*
X51105624Y-107575104D01*
X51148067Y-107575104D01*
X51190000Y-107570379D01*
X51231933Y-107575104D01*
G37*
G36*
X58851933Y-107575104D02*
G01*
X58894376Y-107575104D01*
X58930119Y-107583914D01*
X58965680Y-107587921D01*
X59011679Y-107604017D01*
X59058223Y-107615489D01*
X59085745Y-107629933D01*
X59113553Y-107639664D01*
X59160549Y-107669193D01*
X59207645Y-107693911D01*
X59226568Y-107710675D01*
X59246205Y-107723014D01*
X59290541Y-107767350D01*
X59333958Y-107805814D01*
X59344994Y-107821803D01*
X59356985Y-107833794D01*
X59394680Y-107893786D01*
X59429819Y-107944694D01*
X59434617Y-107957346D01*
X59440335Y-107966446D01*
X59467370Y-108043710D01*
X59489659Y-108102479D01*
X59490575Y-108110024D01*
X59492078Y-108114319D01*
X59504723Y-108226543D01*
X59510000Y-108270000D01*
X59504722Y-108313459D01*
X59492078Y-108425680D01*
X59490575Y-108429974D01*
X59489659Y-108437521D01*
X59467366Y-108496301D01*
X59440335Y-108573553D01*
X59434618Y-108582650D01*
X59429819Y-108595306D01*
X59394673Y-108646223D01*
X59356985Y-108706205D01*
X59344997Y-108718192D01*
X59333958Y-108734186D01*
X59290532Y-108772657D01*
X59246205Y-108816985D01*
X59226572Y-108829320D01*
X59207645Y-108846089D01*
X59160540Y-108870811D01*
X59113553Y-108900335D01*
X59085750Y-108910063D01*
X59058223Y-108924511D01*
X59011670Y-108935985D01*
X58965680Y-108952078D01*
X58930126Y-108956084D01*
X58894376Y-108964896D01*
X58851924Y-108964896D01*
X58810000Y-108969620D01*
X58768076Y-108964896D01*
X58725624Y-108964896D01*
X58689873Y-108956084D01*
X58654319Y-108952078D01*
X58608326Y-108935984D01*
X58561777Y-108924511D01*
X58534251Y-108910064D01*
X58506446Y-108900335D01*
X58459453Y-108870808D01*
X58412355Y-108846089D01*
X58393430Y-108829323D01*
X58373794Y-108816985D01*
X58329458Y-108772649D01*
X58286042Y-108734186D01*
X58275005Y-108718196D01*
X58263014Y-108706205D01*
X58225315Y-108646207D01*
X58190181Y-108595306D01*
X58185383Y-108582654D01*
X58179664Y-108573553D01*
X58152620Y-108496267D01*
X58130341Y-108437521D01*
X58129425Y-108429978D01*
X58127921Y-108425680D01*
X58115263Y-108313345D01*
X58110000Y-108270000D01*
X58115262Y-108226658D01*
X58127921Y-108114319D01*
X58129425Y-108110019D01*
X58130341Y-108102479D01*
X58152616Y-108043744D01*
X58179664Y-107966446D01*
X58185384Y-107957342D01*
X58190181Y-107944694D01*
X58225308Y-107893802D01*
X58263014Y-107833794D01*
X58275007Y-107821800D01*
X58286042Y-107805814D01*
X58329449Y-107767358D01*
X58373794Y-107723014D01*
X58393433Y-107710673D01*
X58412355Y-107693911D01*
X58459444Y-107669196D01*
X58506446Y-107639664D01*
X58534256Y-107629932D01*
X58561777Y-107615489D01*
X58608316Y-107604017D01*
X58654319Y-107587921D01*
X58689881Y-107583913D01*
X58725624Y-107575104D01*
X58768067Y-107575104D01*
X58810000Y-107570379D01*
X58851933Y-107575104D01*
G37*
G36*
X74969561Y-106777105D02*
G01*
X75130619Y-106833462D01*
X75275099Y-106924244D01*
X75395756Y-107044901D01*
X75486538Y-107189381D01*
X75542895Y-107350439D01*
X75562000Y-107520000D01*
X75542895Y-107689561D01*
X75486538Y-107850619D01*
X75395756Y-107995099D01*
X75275099Y-108115756D01*
X75130619Y-108206538D01*
X74969561Y-108262895D01*
X74800000Y-108282000D01*
X74630439Y-108262895D01*
X74469381Y-108206538D01*
X74324901Y-108115756D01*
X74204244Y-107995099D01*
X74113462Y-107850619D01*
X74057105Y-107689561D01*
X74038000Y-107520000D01*
X74057105Y-107350439D01*
X74113462Y-107189381D01*
X74204244Y-107044901D01*
X74324901Y-106924244D01*
X74469381Y-106833462D01*
X74630439Y-106777105D01*
X74800000Y-106758000D01*
X74969561Y-106777105D01*
G37*
G36*
X63041933Y-105385104D02*
G01*
X63084376Y-105385104D01*
X63120119Y-105393914D01*
X63155680Y-105397921D01*
X63201679Y-105414017D01*
X63248223Y-105425489D01*
X63275745Y-105439933D01*
X63303553Y-105449664D01*
X63350549Y-105479193D01*
X63397645Y-105503911D01*
X63416568Y-105520675D01*
X63436205Y-105533014D01*
X63480541Y-105577350D01*
X63523958Y-105615814D01*
X63534994Y-105631803D01*
X63546985Y-105643794D01*
X63584680Y-105703786D01*
X63619819Y-105754694D01*
X63624617Y-105767346D01*
X63630335Y-105776446D01*
X63657370Y-105853710D01*
X63679659Y-105912479D01*
X63680575Y-105920024D01*
X63682078Y-105924319D01*
X63694723Y-106036543D01*
X63700000Y-106080000D01*
X63694722Y-106123459D01*
X63682078Y-106235680D01*
X63680575Y-106239974D01*
X63679659Y-106247521D01*
X63657366Y-106306301D01*
X63630335Y-106383553D01*
X63624618Y-106392650D01*
X63619819Y-106405306D01*
X63584673Y-106456223D01*
X63546985Y-106516205D01*
X63534997Y-106528192D01*
X63523958Y-106544186D01*
X63480532Y-106582657D01*
X63436205Y-106626985D01*
X63416572Y-106639320D01*
X63397645Y-106656089D01*
X63350540Y-106680811D01*
X63303553Y-106710335D01*
X63275750Y-106720063D01*
X63248223Y-106734511D01*
X63201670Y-106745985D01*
X63155680Y-106762078D01*
X63120126Y-106766084D01*
X63084376Y-106774896D01*
X63041924Y-106774896D01*
X63000000Y-106779620D01*
X62958076Y-106774896D01*
X62915624Y-106774896D01*
X62879873Y-106766084D01*
X62844319Y-106762078D01*
X62798326Y-106745984D01*
X62751777Y-106734511D01*
X62724251Y-106720064D01*
X62696446Y-106710335D01*
X62649453Y-106680808D01*
X62602355Y-106656089D01*
X62583430Y-106639323D01*
X62563794Y-106626985D01*
X62519458Y-106582649D01*
X62476042Y-106544186D01*
X62465005Y-106528196D01*
X62453014Y-106516205D01*
X62415315Y-106456207D01*
X62380181Y-106405306D01*
X62375383Y-106392654D01*
X62369664Y-106383553D01*
X62342620Y-106306267D01*
X62320341Y-106247521D01*
X62319425Y-106239978D01*
X62317921Y-106235680D01*
X62305263Y-106123345D01*
X62300000Y-106080000D01*
X62305262Y-106036658D01*
X62317921Y-105924319D01*
X62319425Y-105920019D01*
X62320341Y-105912479D01*
X62342616Y-105853744D01*
X62369664Y-105776446D01*
X62375384Y-105767342D01*
X62380181Y-105754694D01*
X62415308Y-105703802D01*
X62453014Y-105643794D01*
X62465007Y-105631800D01*
X62476042Y-105615814D01*
X62519449Y-105577358D01*
X62563794Y-105533014D01*
X62583433Y-105520673D01*
X62602355Y-105503911D01*
X62649444Y-105479196D01*
X62696446Y-105449664D01*
X62724256Y-105439932D01*
X62751777Y-105425489D01*
X62798316Y-105414017D01*
X62844319Y-105397921D01*
X62879881Y-105393913D01*
X62915624Y-105385104D01*
X62958067Y-105385104D01*
X63000000Y-105380379D01*
X63041933Y-105385104D01*
G37*
G36*
X33607060Y-104288990D02*
G01*
X33817525Y-104345384D01*
X34015000Y-104437468D01*
X34193485Y-104562444D01*
X34347556Y-104716515D01*
X34472532Y-104895000D01*
X34564616Y-105092475D01*
X34621010Y-105302940D01*
X34640000Y-105520000D01*
X34621010Y-105737060D01*
X34564616Y-105947525D01*
X34472532Y-106145000D01*
X34347556Y-106323485D01*
X34193485Y-106477556D01*
X34015000Y-106602532D01*
X33817525Y-106694616D01*
X33607060Y-106751010D01*
X33390000Y-106770000D01*
X33172940Y-106751010D01*
X32962475Y-106694616D01*
X32765000Y-106602532D01*
X32586515Y-106477556D01*
X32432444Y-106323485D01*
X32307468Y-106145000D01*
X32215384Y-105947525D01*
X32158990Y-105737060D01*
X32140000Y-105520000D01*
X32158990Y-105302940D01*
X32215384Y-105092475D01*
X32307468Y-104895000D01*
X32432444Y-104716515D01*
X32586515Y-104562444D01*
X32765000Y-104437468D01*
X32962475Y-104345384D01*
X33172940Y-104288990D01*
X33390000Y-104270000D01*
X33607060Y-104288990D01*
G37*
G36*
X40207060Y-104288990D02*
G01*
X40417525Y-104345384D01*
X40615000Y-104437468D01*
X40793485Y-104562444D01*
X40947556Y-104716515D01*
X41072532Y-104895000D01*
X41164616Y-105092475D01*
X41221010Y-105302940D01*
X41240000Y-105520000D01*
X41221010Y-105737060D01*
X41164616Y-105947525D01*
X41072532Y-106145000D01*
X40947556Y-106323485D01*
X40793485Y-106477556D01*
X40615000Y-106602532D01*
X40417525Y-106694616D01*
X40207060Y-106751010D01*
X39990000Y-106770000D01*
X39772940Y-106751010D01*
X39562475Y-106694616D01*
X39365000Y-106602532D01*
X39186515Y-106477556D01*
X39032444Y-106323485D01*
X38907468Y-106145000D01*
X38815384Y-105947525D01*
X38758990Y-105737060D01*
X38740000Y-105520000D01*
X38758990Y-105302940D01*
X38815384Y-105092475D01*
X38907468Y-104895000D01*
X39032444Y-104716515D01*
X39186515Y-104562444D01*
X39365000Y-104437468D01*
X39562475Y-104345384D01*
X39772940Y-104288990D01*
X39990000Y-104270000D01*
X40207060Y-104288990D01*
G37*
G36*
X74969561Y-104237105D02*
G01*
X75130619Y-104293462D01*
X75275099Y-104384244D01*
X75395756Y-104504901D01*
X75486538Y-104649381D01*
X75542895Y-104810439D01*
X75562000Y-104980000D01*
X75542895Y-105149561D01*
X75486538Y-105310619D01*
X75395756Y-105455099D01*
X75275099Y-105575756D01*
X75130619Y-105666538D01*
X74969561Y-105722895D01*
X74800000Y-105742000D01*
X74630439Y-105722895D01*
X74469381Y-105666538D01*
X74324901Y-105575756D01*
X74204244Y-105455099D01*
X74113462Y-105310619D01*
X74057105Y-105149561D01*
X74038000Y-104980000D01*
X74057105Y-104810439D01*
X74113462Y-104649381D01*
X74204244Y-104504901D01*
X74324901Y-104384244D01*
X74469381Y-104293462D01*
X74630439Y-104237105D01*
X74800000Y-104218000D01*
X74969561Y-104237105D01*
G37*
G36*
X33223785Y-102724448D02*
G01*
X33256241Y-102724448D01*
X33293454Y-102733620D01*
X33332350Y-102738741D01*
X33358974Y-102749769D01*
X33384879Y-102756154D01*
X33424154Y-102776767D01*
X33465000Y-102793686D01*
X33483635Y-102807985D01*
X33502183Y-102817720D01*
X33540106Y-102851317D01*
X33578909Y-102881091D01*
X33589935Y-102895461D01*
X33601353Y-102905576D01*
X33634090Y-102953005D01*
X33666314Y-102995000D01*
X33671171Y-103006727D01*
X33676609Y-103014605D01*
X33700199Y-103076807D01*
X33721259Y-103127650D01*
X33722204Y-103134828D01*
X33723589Y-103138480D01*
X33734314Y-103226817D01*
X33740000Y-103270000D01*
X33734314Y-103313186D01*
X33723589Y-103401519D01*
X33722204Y-103405170D01*
X33721259Y-103412350D01*
X33700194Y-103463203D01*
X33676609Y-103525394D01*
X33671172Y-103533269D01*
X33666314Y-103545000D01*
X33634083Y-103587003D01*
X33601353Y-103634423D01*
X33589937Y-103644535D01*
X33578909Y-103658909D01*
X33540098Y-103688689D01*
X33502183Y-103722279D01*
X33483639Y-103732011D01*
X33465000Y-103746314D01*
X33424145Y-103763236D01*
X33384879Y-103783845D01*
X33358979Y-103790228D01*
X33332350Y-103801259D01*
X33293452Y-103806380D01*
X33256241Y-103815552D01*
X33223785Y-103815552D01*
X33190000Y-103820000D01*
X33156215Y-103815552D01*
X33123759Y-103815552D01*
X33086546Y-103806379D01*
X33047650Y-103801259D01*
X33021021Y-103790229D01*
X32995120Y-103783845D01*
X32955850Y-103763234D01*
X32915000Y-103746314D01*
X32896362Y-103732012D01*
X32877816Y-103722279D01*
X32839894Y-103688683D01*
X32801091Y-103658909D01*
X32790064Y-103644538D01*
X32778646Y-103634423D01*
X32745906Y-103586990D01*
X32713686Y-103545000D01*
X32708828Y-103533273D01*
X32703390Y-103525394D01*
X32679793Y-103463175D01*
X32658741Y-103412350D01*
X32657796Y-103405174D01*
X32656410Y-103401519D01*
X32645672Y-103313088D01*
X32640000Y-103270000D01*
X32645672Y-103226914D01*
X32656410Y-103138480D01*
X32657796Y-103134824D01*
X32658741Y-103127650D01*
X32679788Y-103076835D01*
X32703390Y-103014605D01*
X32708829Y-103006723D01*
X32713686Y-102995000D01*
X32745899Y-102953018D01*
X32778646Y-102905576D01*
X32790066Y-102895458D01*
X32801091Y-102881091D01*
X32839885Y-102851322D01*
X32877816Y-102817720D01*
X32896366Y-102807983D01*
X32915000Y-102793686D01*
X32955841Y-102776769D01*
X32995120Y-102756154D01*
X33021026Y-102749768D01*
X33047650Y-102738741D01*
X33086544Y-102733620D01*
X33123759Y-102724448D01*
X33156215Y-102724448D01*
X33190000Y-102720000D01*
X33223785Y-102724448D01*
G37*
G36*
X39223785Y-102724448D02*
G01*
X39256241Y-102724448D01*
X39293454Y-102733620D01*
X39332350Y-102738741D01*
X39358974Y-102749769D01*
X39384879Y-102756154D01*
X39424154Y-102776767D01*
X39465000Y-102793686D01*
X39483635Y-102807985D01*
X39502183Y-102817720D01*
X39540106Y-102851317D01*
X39578909Y-102881091D01*
X39589935Y-102895461D01*
X39601353Y-102905576D01*
X39634090Y-102953005D01*
X39666314Y-102995000D01*
X39671171Y-103006727D01*
X39676609Y-103014605D01*
X39700199Y-103076807D01*
X39721259Y-103127650D01*
X39722204Y-103134828D01*
X39723589Y-103138480D01*
X39734314Y-103226817D01*
X39740000Y-103270000D01*
X39734314Y-103313186D01*
X39723589Y-103401519D01*
X39722204Y-103405170D01*
X39721259Y-103412350D01*
X39700194Y-103463203D01*
X39676609Y-103525394D01*
X39671172Y-103533269D01*
X39666314Y-103545000D01*
X39634083Y-103587003D01*
X39601353Y-103634423D01*
X39589937Y-103644535D01*
X39578909Y-103658909D01*
X39540098Y-103688689D01*
X39502183Y-103722279D01*
X39483639Y-103732011D01*
X39465000Y-103746314D01*
X39424145Y-103763236D01*
X39384879Y-103783845D01*
X39358979Y-103790228D01*
X39332350Y-103801259D01*
X39293452Y-103806380D01*
X39256241Y-103815552D01*
X39223785Y-103815552D01*
X39190000Y-103820000D01*
X39156215Y-103815552D01*
X39123759Y-103815552D01*
X39086546Y-103806379D01*
X39047650Y-103801259D01*
X39021021Y-103790229D01*
X38995120Y-103783845D01*
X38955850Y-103763234D01*
X38915000Y-103746314D01*
X38896362Y-103732012D01*
X38877816Y-103722279D01*
X38839894Y-103688683D01*
X38801091Y-103658909D01*
X38790064Y-103644538D01*
X38778646Y-103634423D01*
X38745906Y-103586990D01*
X38713686Y-103545000D01*
X38708828Y-103533273D01*
X38703390Y-103525394D01*
X38679793Y-103463175D01*
X38658741Y-103412350D01*
X38657796Y-103405174D01*
X38656410Y-103401519D01*
X38645672Y-103313088D01*
X38640000Y-103270000D01*
X38645672Y-103226914D01*
X38656410Y-103138480D01*
X38657796Y-103134824D01*
X38658741Y-103127650D01*
X38679788Y-103076835D01*
X38703390Y-103014605D01*
X38708829Y-103006723D01*
X38713686Y-102995000D01*
X38745899Y-102953018D01*
X38778646Y-102905576D01*
X38790066Y-102895458D01*
X38801091Y-102881091D01*
X38839885Y-102851322D01*
X38877816Y-102817720D01*
X38896366Y-102807983D01*
X38915000Y-102793686D01*
X38955841Y-102776769D01*
X38995120Y-102756154D01*
X39021026Y-102749768D01*
X39047650Y-102738741D01*
X39086544Y-102733620D01*
X39123759Y-102724448D01*
X39156215Y-102724448D01*
X39190000Y-102720000D01*
X39223785Y-102724448D01*
G37*
G36*
X74969561Y-101697105D02*
G01*
X75130619Y-101753462D01*
X75275099Y-101844244D01*
X75395756Y-101964901D01*
X75486538Y-102109381D01*
X75542895Y-102270439D01*
X75562000Y-102440000D01*
X75542895Y-102609561D01*
X75486538Y-102770619D01*
X75395756Y-102915099D01*
X75275099Y-103035756D01*
X75130619Y-103126538D01*
X74969561Y-103182895D01*
X74800000Y-103202000D01*
X74630439Y-103182895D01*
X74469381Y-103126538D01*
X74324901Y-103035756D01*
X74204244Y-102915099D01*
X74113462Y-102770619D01*
X74057105Y-102609561D01*
X74038000Y-102440000D01*
X74057105Y-102270439D01*
X74113462Y-102109381D01*
X74204244Y-101964901D01*
X74324901Y-101844244D01*
X74469381Y-101753462D01*
X74630439Y-101697105D01*
X74800000Y-101678000D01*
X74969561Y-101697105D01*
G37*
G36*
X35207060Y-99788990D02*
G01*
X35417525Y-99845384D01*
X35615000Y-99937468D01*
X35793485Y-100062444D01*
X35947556Y-100216515D01*
X36072532Y-100395000D01*
X36164616Y-100592475D01*
X36221010Y-100802940D01*
X36240000Y-101020000D01*
X36221010Y-101237060D01*
X36164616Y-101447525D01*
X36072532Y-101645000D01*
X35947556Y-101823485D01*
X35793485Y-101977556D01*
X35615000Y-102102532D01*
X35417525Y-102194616D01*
X35207060Y-102251010D01*
X34990000Y-102270000D01*
X34772940Y-102251010D01*
X34562475Y-102194616D01*
X34365000Y-102102532D01*
X34186515Y-101977556D01*
X34032444Y-101823485D01*
X33907468Y-101645000D01*
X33815384Y-101447525D01*
X33758990Y-101237060D01*
X33740000Y-101020000D01*
X33758990Y-100802940D01*
X33815384Y-100592475D01*
X33907468Y-100395000D01*
X34032444Y-100216515D01*
X34186515Y-100062444D01*
X34365000Y-99937468D01*
X34562475Y-99845384D01*
X34772940Y-99788990D01*
X34990000Y-99770000D01*
X35207060Y-99788990D01*
G37*
G36*
X49695090Y-100019215D02*
G01*
X49882683Y-100076120D01*
X50055570Y-100168530D01*
X50207107Y-100292893D01*
X50331470Y-100444430D01*
X50423880Y-100617317D01*
X50480785Y-100804910D01*
X50500000Y-101000000D01*
X50480785Y-101195090D01*
X50423880Y-101382683D01*
X50331470Y-101555570D01*
X50207107Y-101707107D01*
X50055570Y-101831470D01*
X49882683Y-101923880D01*
X49695090Y-101980785D01*
X49500000Y-102000000D01*
X49304910Y-101980785D01*
X49117317Y-101923880D01*
X48944430Y-101831470D01*
X48792893Y-101707107D01*
X48668530Y-101555570D01*
X48576120Y-101382683D01*
X48519215Y-101195090D01*
X48500000Y-101000000D01*
X48519215Y-100804910D01*
X48576120Y-100617317D01*
X48668530Y-100444430D01*
X48792893Y-100292893D01*
X48944430Y-100168530D01*
X49117317Y-100076120D01*
X49304910Y-100019215D01*
X49500000Y-100000000D01*
X49695090Y-100019215D01*
G37*
G36*
X54695090Y-100019215D02*
G01*
X54882683Y-100076120D01*
X55055570Y-100168530D01*
X55207107Y-100292893D01*
X55331470Y-100444430D01*
X55423880Y-100617317D01*
X55480785Y-100804910D01*
X55500000Y-101000000D01*
X55480785Y-101195090D01*
X55423880Y-101382683D01*
X55331470Y-101555570D01*
X55207107Y-101707107D01*
X55055570Y-101831470D01*
X54882683Y-101923880D01*
X54695090Y-101980785D01*
X54500000Y-102000000D01*
X54304910Y-101980785D01*
X54117317Y-101923880D01*
X53944430Y-101831470D01*
X53792893Y-101707107D01*
X53668530Y-101555570D01*
X53576120Y-101382683D01*
X53519215Y-101195090D01*
X53500000Y-101000000D01*
X53519215Y-100804910D01*
X53576120Y-100617317D01*
X53668530Y-100444430D01*
X53792893Y-100292893D01*
X53944430Y-100168530D01*
X54117317Y-100076120D01*
X54304910Y-100019215D01*
X54500000Y-100000000D01*
X54695090Y-100019215D01*
G37*
G36*
X88020533Y-98549294D02*
G01*
X88234366Y-98606590D01*
X88435000Y-98700148D01*
X88616340Y-98827124D01*
X88772876Y-98983660D01*
X88899852Y-99165000D01*
X88993410Y-99365634D01*
X89050706Y-99579467D01*
X89070000Y-99800000D01*
X89050706Y-100020533D01*
X88993410Y-100234366D01*
X88899852Y-100435000D01*
X88772876Y-100616340D01*
X88616340Y-100772876D01*
X88435000Y-100899852D01*
X88234366Y-100993410D01*
X88020533Y-101050706D01*
X87800000Y-101070000D01*
X87579467Y-101050706D01*
X87365634Y-100993410D01*
X87165000Y-100899852D01*
X86983660Y-100772876D01*
X86827124Y-100616340D01*
X86700148Y-100435000D01*
X86606590Y-100234366D01*
X86549294Y-100020533D01*
X86530000Y-99800000D01*
X86549294Y-99579467D01*
X86606590Y-99365634D01*
X86700148Y-99165000D01*
X86827124Y-98983660D01*
X86983660Y-98827124D01*
X87165000Y-98700148D01*
X87365634Y-98606590D01*
X87579467Y-98549294D01*
X87800000Y-98530000D01*
X88020533Y-98549294D01*
G37*
G36*
X75562000Y-100662000D02*
G01*
X74038000Y-100662000D01*
X74038000Y-99138000D01*
X75562000Y-99138000D01*
X75562000Y-100662000D01*
G37*
G36*
X63041933Y-97765104D02*
G01*
X63084376Y-97765104D01*
X63120119Y-97773914D01*
X63155680Y-97777921D01*
X63201679Y-97794017D01*
X63248223Y-97805489D01*
X63275745Y-97819933D01*
X63303553Y-97829664D01*
X63350549Y-97859193D01*
X63397645Y-97883911D01*
X63416568Y-97900675D01*
X63436205Y-97913014D01*
X63480541Y-97957350D01*
X63523958Y-97995814D01*
X63534994Y-98011803D01*
X63546985Y-98023794D01*
X63584680Y-98083786D01*
X63619819Y-98134694D01*
X63624617Y-98147346D01*
X63630335Y-98156446D01*
X63657370Y-98233710D01*
X63679659Y-98292479D01*
X63680575Y-98300024D01*
X63682078Y-98304319D01*
X63694723Y-98416543D01*
X63700000Y-98460000D01*
X63694722Y-98503459D01*
X63682078Y-98615680D01*
X63680575Y-98619974D01*
X63679659Y-98627521D01*
X63657366Y-98686301D01*
X63630335Y-98763553D01*
X63624618Y-98772650D01*
X63619819Y-98785306D01*
X63584673Y-98836223D01*
X63546985Y-98896205D01*
X63534997Y-98908192D01*
X63523958Y-98924186D01*
X63480532Y-98962657D01*
X63436205Y-99006985D01*
X63416572Y-99019320D01*
X63397645Y-99036089D01*
X63350540Y-99060811D01*
X63303553Y-99090335D01*
X63275750Y-99100063D01*
X63248223Y-99114511D01*
X63201670Y-99125985D01*
X63155680Y-99142078D01*
X63120126Y-99146084D01*
X63084376Y-99154896D01*
X63041924Y-99154896D01*
X63000000Y-99159620D01*
X62958076Y-99154896D01*
X62915624Y-99154896D01*
X62879873Y-99146084D01*
X62844319Y-99142078D01*
X62798326Y-99125984D01*
X62751777Y-99114511D01*
X62724251Y-99100064D01*
X62696446Y-99090335D01*
X62649453Y-99060808D01*
X62602355Y-99036089D01*
X62583430Y-99019323D01*
X62563794Y-99006985D01*
X62519458Y-98962649D01*
X62476042Y-98924186D01*
X62465005Y-98908196D01*
X62453014Y-98896205D01*
X62415315Y-98836207D01*
X62380181Y-98785306D01*
X62375383Y-98772654D01*
X62369664Y-98763553D01*
X62342620Y-98686267D01*
X62320341Y-98627521D01*
X62319425Y-98619978D01*
X62317921Y-98615680D01*
X62305263Y-98503345D01*
X62300000Y-98460000D01*
X62305262Y-98416658D01*
X62317921Y-98304319D01*
X62319425Y-98300019D01*
X62320341Y-98292479D01*
X62342616Y-98233744D01*
X62369664Y-98156446D01*
X62375384Y-98147342D01*
X62380181Y-98134694D01*
X62415308Y-98083802D01*
X62453014Y-98023794D01*
X62465007Y-98011800D01*
X62476042Y-97995814D01*
X62519449Y-97957358D01*
X62563794Y-97913014D01*
X62583433Y-97900673D01*
X62602355Y-97883911D01*
X62649444Y-97859196D01*
X62696446Y-97829664D01*
X62724256Y-97819932D01*
X62751777Y-97805489D01*
X62798316Y-97794017D01*
X62844319Y-97777921D01*
X62879881Y-97773913D01*
X62915624Y-97765104D01*
X62958067Y-97765104D01*
X63000000Y-97760379D01*
X63041933Y-97765104D01*
G37*
G36*
X42195090Y-95519215D02*
G01*
X42382683Y-95576120D01*
X42555570Y-95668530D01*
X42707107Y-95792893D01*
X42831470Y-95944430D01*
X42923880Y-96117317D01*
X42980785Y-96304910D01*
X43000000Y-96500000D01*
X42980785Y-96695090D01*
X42923880Y-96882683D01*
X42831470Y-97055570D01*
X42707107Y-97207107D01*
X42555570Y-97331470D01*
X42382683Y-97423880D01*
X42195090Y-97480785D01*
X42000000Y-97500000D01*
X41804910Y-97480785D01*
X41617317Y-97423880D01*
X41444430Y-97331470D01*
X41292893Y-97207107D01*
X41168530Y-97055570D01*
X41076120Y-96882683D01*
X41019215Y-96695090D01*
X41000000Y-96500000D01*
X41019215Y-96304910D01*
X41076120Y-96117317D01*
X41168530Y-95944430D01*
X41292893Y-95792893D01*
X41444430Y-95668530D01*
X41617317Y-95576120D01*
X41804910Y-95519215D01*
X42000000Y-95500000D01*
X42195090Y-95519215D01*
G37*
G36*
X63041933Y-94115104D02*
G01*
X63084376Y-94115104D01*
X63120119Y-94123914D01*
X63155680Y-94127921D01*
X63201679Y-94144017D01*
X63248223Y-94155489D01*
X63275745Y-94169933D01*
X63303553Y-94179664D01*
X63350549Y-94209193D01*
X63397645Y-94233911D01*
X63416568Y-94250675D01*
X63436205Y-94263014D01*
X63480541Y-94307350D01*
X63523958Y-94345814D01*
X63534994Y-94361803D01*
X63546985Y-94373794D01*
X63584680Y-94433786D01*
X63619819Y-94484694D01*
X63624617Y-94497346D01*
X63630335Y-94506446D01*
X63657370Y-94583710D01*
X63679659Y-94642479D01*
X63680575Y-94650024D01*
X63682078Y-94654319D01*
X63694723Y-94766543D01*
X63700000Y-94810000D01*
X63694722Y-94853459D01*
X63682078Y-94965680D01*
X63680575Y-94969974D01*
X63679659Y-94977521D01*
X63657366Y-95036301D01*
X63630335Y-95113553D01*
X63624618Y-95122650D01*
X63619819Y-95135306D01*
X63584673Y-95186223D01*
X63546985Y-95246205D01*
X63534997Y-95258192D01*
X63523958Y-95274186D01*
X63480532Y-95312657D01*
X63436205Y-95356985D01*
X63416572Y-95369320D01*
X63397645Y-95386089D01*
X63350540Y-95410811D01*
X63303553Y-95440335D01*
X63275750Y-95450063D01*
X63248223Y-95464511D01*
X63201670Y-95475985D01*
X63155680Y-95492078D01*
X63120126Y-95496084D01*
X63084376Y-95504896D01*
X63041924Y-95504896D01*
X63000000Y-95509620D01*
X62958076Y-95504896D01*
X62915624Y-95504896D01*
X62879873Y-95496084D01*
X62844319Y-95492078D01*
X62798326Y-95475984D01*
X62751777Y-95464511D01*
X62724251Y-95450064D01*
X62696446Y-95440335D01*
X62649453Y-95410808D01*
X62602355Y-95386089D01*
X62583430Y-95369323D01*
X62563794Y-95356985D01*
X62519458Y-95312649D01*
X62476042Y-95274186D01*
X62465005Y-95258196D01*
X62453014Y-95246205D01*
X62415315Y-95186207D01*
X62380181Y-95135306D01*
X62375383Y-95122654D01*
X62369664Y-95113553D01*
X62342620Y-95036267D01*
X62320341Y-94977521D01*
X62319425Y-94969978D01*
X62317921Y-94965680D01*
X62305263Y-94853345D01*
X62300000Y-94810000D01*
X62305262Y-94766658D01*
X62317921Y-94654319D01*
X62319425Y-94650019D01*
X62320341Y-94642479D01*
X62342616Y-94583744D01*
X62369664Y-94506446D01*
X62375384Y-94497342D01*
X62380181Y-94484694D01*
X62415308Y-94433802D01*
X62453014Y-94373794D01*
X62465007Y-94361800D01*
X62476042Y-94345814D01*
X62519449Y-94307358D01*
X62563794Y-94263014D01*
X62583433Y-94250673D01*
X62602355Y-94233911D01*
X62649444Y-94209196D01*
X62696446Y-94179664D01*
X62724256Y-94169932D01*
X62751777Y-94155489D01*
X62798316Y-94144017D01*
X62844319Y-94127921D01*
X62879881Y-94123913D01*
X62915624Y-94115104D01*
X62958067Y-94115104D01*
X63000000Y-94110379D01*
X63041933Y-94115104D01*
G37*
G36*
X52750000Y-94525000D02*
G01*
X51250000Y-94525000D01*
X51250000Y-93475000D01*
X52750000Y-93475000D01*
X52750000Y-94525000D01*
G37*
G36*
X52293526Y-92209491D02*
G01*
X52425909Y-92244963D01*
X52544600Y-92313489D01*
X52641511Y-92410400D01*
X52710037Y-92529091D01*
X52745509Y-92661474D01*
X52745509Y-92798526D01*
X52710037Y-92930909D01*
X52641511Y-93049600D01*
X52544600Y-93146511D01*
X52425909Y-93215037D01*
X52293526Y-93250509D01*
X51775000Y-93255000D01*
X51706474Y-93250509D01*
X51574091Y-93215037D01*
X51455400Y-93146511D01*
X51358489Y-93049600D01*
X51289963Y-92930909D01*
X51254491Y-92798526D01*
X51254491Y-92661474D01*
X51289963Y-92529091D01*
X51358489Y-92410400D01*
X51455400Y-92313489D01*
X51574091Y-92244963D01*
X51706474Y-92209491D01*
X52225000Y-92205000D01*
X52293526Y-92209491D01*
G37*
G36*
X42195090Y-90519215D02*
G01*
X42382683Y-90576120D01*
X42555570Y-90668530D01*
X42707107Y-90792893D01*
X42831470Y-90944430D01*
X42923880Y-91117317D01*
X42980785Y-91304910D01*
X43000000Y-91500000D01*
X42980785Y-91695090D01*
X42923880Y-91882683D01*
X42831470Y-92055570D01*
X42707107Y-92207107D01*
X42555570Y-92331470D01*
X42382683Y-92423880D01*
X42195090Y-92480785D01*
X42000000Y-92500000D01*
X41804910Y-92480785D01*
X41617317Y-92423880D01*
X41444430Y-92331470D01*
X41292893Y-92207107D01*
X41168530Y-92055570D01*
X41076120Y-91882683D01*
X41019215Y-91695090D01*
X41000000Y-91500000D01*
X41019215Y-91304910D01*
X41076120Y-91117317D01*
X41168530Y-90944430D01*
X41292893Y-90792893D01*
X41444430Y-90668530D01*
X41617317Y-90576120D01*
X41804910Y-90519215D01*
X42000000Y-90500000D01*
X42195090Y-90519215D01*
G37*
G36*
X52293526Y-90939491D02*
G01*
X52425909Y-90974963D01*
X52544600Y-91043489D01*
X52641511Y-91140400D01*
X52710037Y-91259091D01*
X52745509Y-91391474D01*
X52745509Y-91528526D01*
X52710037Y-91660909D01*
X52641511Y-91779600D01*
X52544600Y-91876511D01*
X52425909Y-91945037D01*
X52293526Y-91980509D01*
X51775000Y-91985000D01*
X51706474Y-91980509D01*
X51574091Y-91945037D01*
X51455400Y-91876511D01*
X51358489Y-91779600D01*
X51289963Y-91660909D01*
X51254491Y-91528526D01*
X51254491Y-91391474D01*
X51289963Y-91259091D01*
X51358489Y-91140400D01*
X51455400Y-91043489D01*
X51574091Y-90974963D01*
X51706474Y-90939491D01*
X52225000Y-90935000D01*
X52293526Y-90939491D01*
G37*
G36*
X63041933Y-86495104D02*
G01*
X63084376Y-86495104D01*
X63120119Y-86503914D01*
X63155680Y-86507921D01*
X63201679Y-86524017D01*
X63248223Y-86535489D01*
X63275745Y-86549933D01*
X63303553Y-86559664D01*
X63350549Y-86589193D01*
X63397645Y-86613911D01*
X63416568Y-86630675D01*
X63436205Y-86643014D01*
X63480541Y-86687350D01*
X63523958Y-86725814D01*
X63534994Y-86741803D01*
X63546985Y-86753794D01*
X63584680Y-86813786D01*
X63619819Y-86864694D01*
X63624617Y-86877346D01*
X63630335Y-86886446D01*
X63657370Y-86963710D01*
X63679659Y-87022479D01*
X63680575Y-87030024D01*
X63682078Y-87034319D01*
X63694723Y-87146543D01*
X63700000Y-87190000D01*
X63694722Y-87233459D01*
X63682078Y-87345680D01*
X63680575Y-87349974D01*
X63679659Y-87357521D01*
X63657366Y-87416301D01*
X63630335Y-87493553D01*
X63624618Y-87502650D01*
X63619819Y-87515306D01*
X63584673Y-87566223D01*
X63546985Y-87626205D01*
X63534997Y-87638192D01*
X63523958Y-87654186D01*
X63480532Y-87692657D01*
X63436205Y-87736985D01*
X63416572Y-87749320D01*
X63397645Y-87766089D01*
X63350540Y-87790811D01*
X63303553Y-87820335D01*
X63275750Y-87830063D01*
X63248223Y-87844511D01*
X63201670Y-87855985D01*
X63155680Y-87872078D01*
X63120126Y-87876084D01*
X63084376Y-87884896D01*
X63041924Y-87884896D01*
X63000000Y-87889620D01*
X62958076Y-87884896D01*
X62915624Y-87884896D01*
X62879873Y-87876084D01*
X62844319Y-87872078D01*
X62798326Y-87855984D01*
X62751777Y-87844511D01*
X62724251Y-87830064D01*
X62696446Y-87820335D01*
X62649453Y-87790808D01*
X62602355Y-87766089D01*
X62583430Y-87749323D01*
X62563794Y-87736985D01*
X62519458Y-87692649D01*
X62476042Y-87654186D01*
X62465005Y-87638196D01*
X62453014Y-87626205D01*
X62415315Y-87566207D01*
X62380181Y-87515306D01*
X62375383Y-87502654D01*
X62369664Y-87493553D01*
X62342620Y-87416267D01*
X62320341Y-87357521D01*
X62319425Y-87349978D01*
X62317921Y-87345680D01*
X62305263Y-87233345D01*
X62300000Y-87190000D01*
X62305262Y-87146658D01*
X62317921Y-87034319D01*
X62319425Y-87030019D01*
X62320341Y-87022479D01*
X62342616Y-86963744D01*
X62369664Y-86886446D01*
X62375384Y-86877342D01*
X62380181Y-86864694D01*
X62415308Y-86813802D01*
X62453014Y-86753794D01*
X62465007Y-86741800D01*
X62476042Y-86725814D01*
X62519449Y-86687358D01*
X62563794Y-86643014D01*
X62583433Y-86630673D01*
X62602355Y-86613911D01*
X62649444Y-86589196D01*
X62696446Y-86559664D01*
X62724256Y-86549932D01*
X62751777Y-86535489D01*
X62798316Y-86524017D01*
X62844319Y-86507921D01*
X62879881Y-86503913D01*
X62915624Y-86495104D01*
X62958067Y-86495104D01*
X63000000Y-86490379D01*
X63041933Y-86495104D01*
G37*
G36*
X51231933Y-84305104D02*
G01*
X51274376Y-84305104D01*
X51310119Y-84313914D01*
X51345680Y-84317921D01*
X51391679Y-84334017D01*
X51438223Y-84345489D01*
X51465745Y-84359933D01*
X51493553Y-84369664D01*
X51540549Y-84399193D01*
X51587645Y-84423911D01*
X51606568Y-84440675D01*
X51626205Y-84453014D01*
X51670541Y-84497350D01*
X51713958Y-84535814D01*
X51724994Y-84551803D01*
X51736985Y-84563794D01*
X51774680Y-84623786D01*
X51809819Y-84674694D01*
X51814617Y-84687346D01*
X51820335Y-84696446D01*
X51847370Y-84773710D01*
X51869659Y-84832479D01*
X51870575Y-84840024D01*
X51872078Y-84844319D01*
X51884723Y-84956543D01*
X51890000Y-85000000D01*
X51884722Y-85043459D01*
X51872078Y-85155680D01*
X51870575Y-85159974D01*
X51869659Y-85167521D01*
X51847366Y-85226301D01*
X51820335Y-85303553D01*
X51814618Y-85312650D01*
X51809819Y-85325306D01*
X51774673Y-85376223D01*
X51736985Y-85436205D01*
X51724997Y-85448192D01*
X51713958Y-85464186D01*
X51670532Y-85502657D01*
X51626205Y-85546985D01*
X51606572Y-85559320D01*
X51587645Y-85576089D01*
X51540540Y-85600811D01*
X51493553Y-85630335D01*
X51465750Y-85640063D01*
X51438223Y-85654511D01*
X51391670Y-85665985D01*
X51345680Y-85682078D01*
X51310126Y-85686084D01*
X51274376Y-85694896D01*
X51231924Y-85694896D01*
X51190000Y-85699620D01*
X51148076Y-85694896D01*
X51105624Y-85694896D01*
X51069873Y-85686084D01*
X51034319Y-85682078D01*
X50988326Y-85665984D01*
X50941777Y-85654511D01*
X50914251Y-85640064D01*
X50886446Y-85630335D01*
X50839453Y-85600808D01*
X50792355Y-85576089D01*
X50773430Y-85559323D01*
X50753794Y-85546985D01*
X50709458Y-85502649D01*
X50666042Y-85464186D01*
X50655005Y-85448196D01*
X50643014Y-85436205D01*
X50605315Y-85376207D01*
X50570181Y-85325306D01*
X50565383Y-85312654D01*
X50559664Y-85303553D01*
X50532620Y-85226267D01*
X50510341Y-85167521D01*
X50509425Y-85159978D01*
X50507921Y-85155680D01*
X50495263Y-85043345D01*
X50490000Y-85000000D01*
X50495262Y-84956658D01*
X50507921Y-84844319D01*
X50509425Y-84840019D01*
X50510341Y-84832479D01*
X50532616Y-84773744D01*
X50559664Y-84696446D01*
X50565384Y-84687342D01*
X50570181Y-84674694D01*
X50605308Y-84623802D01*
X50643014Y-84563794D01*
X50655007Y-84551800D01*
X50666042Y-84535814D01*
X50709449Y-84497358D01*
X50753794Y-84453014D01*
X50773433Y-84440673D01*
X50792355Y-84423911D01*
X50839444Y-84399196D01*
X50886446Y-84369664D01*
X50914256Y-84359932D01*
X50941777Y-84345489D01*
X50988316Y-84334017D01*
X51034319Y-84317921D01*
X51069881Y-84313913D01*
X51105624Y-84305104D01*
X51148067Y-84305104D01*
X51190000Y-84300379D01*
X51231933Y-84305104D01*
G37*
G36*
X58851933Y-84305104D02*
G01*
X58894376Y-84305104D01*
X58930119Y-84313914D01*
X58965680Y-84317921D01*
X59011679Y-84334017D01*
X59058223Y-84345489D01*
X59085745Y-84359933D01*
X59113553Y-84369664D01*
X59160549Y-84399193D01*
X59207645Y-84423911D01*
X59226568Y-84440675D01*
X59246205Y-84453014D01*
X59290541Y-84497350D01*
X59333958Y-84535814D01*
X59344994Y-84551803D01*
X59356985Y-84563794D01*
X59394680Y-84623786D01*
X59429819Y-84674694D01*
X59434617Y-84687346D01*
X59440335Y-84696446D01*
X59467370Y-84773710D01*
X59489659Y-84832479D01*
X59490575Y-84840024D01*
X59492078Y-84844319D01*
X59504723Y-84956543D01*
X59510000Y-85000000D01*
X59504722Y-85043459D01*
X59492078Y-85155680D01*
X59490575Y-85159974D01*
X59489659Y-85167521D01*
X59467366Y-85226301D01*
X59440335Y-85303553D01*
X59434618Y-85312650D01*
X59429819Y-85325306D01*
X59394673Y-85376223D01*
X59356985Y-85436205D01*
X59344997Y-85448192D01*
X59333958Y-85464186D01*
X59290532Y-85502657D01*
X59246205Y-85546985D01*
X59226572Y-85559320D01*
X59207645Y-85576089D01*
X59160540Y-85600811D01*
X59113553Y-85630335D01*
X59085750Y-85640063D01*
X59058223Y-85654511D01*
X59011670Y-85665985D01*
X58965680Y-85682078D01*
X58930126Y-85686084D01*
X58894376Y-85694896D01*
X58851924Y-85694896D01*
X58810000Y-85699620D01*
X58768076Y-85694896D01*
X58725624Y-85694896D01*
X58689873Y-85686084D01*
X58654319Y-85682078D01*
X58608326Y-85665984D01*
X58561777Y-85654511D01*
X58534251Y-85640064D01*
X58506446Y-85630335D01*
X58459453Y-85600808D01*
X58412355Y-85576089D01*
X58393430Y-85559323D01*
X58373794Y-85546985D01*
X58329458Y-85502649D01*
X58286042Y-85464186D01*
X58275005Y-85448196D01*
X58263014Y-85436205D01*
X58225315Y-85376207D01*
X58190181Y-85325306D01*
X58185383Y-85312654D01*
X58179664Y-85303553D01*
X58152620Y-85226267D01*
X58130341Y-85167521D01*
X58129425Y-85159978D01*
X58127921Y-85155680D01*
X58115263Y-85043345D01*
X58110000Y-85000000D01*
X58115262Y-84956658D01*
X58127921Y-84844319D01*
X58129425Y-84840019D01*
X58130341Y-84832479D01*
X58152616Y-84773744D01*
X58179664Y-84696446D01*
X58185384Y-84687342D01*
X58190181Y-84674694D01*
X58225308Y-84623802D01*
X58263014Y-84563794D01*
X58275007Y-84551800D01*
X58286042Y-84535814D01*
X58329449Y-84497358D01*
X58373794Y-84453014D01*
X58393433Y-84440673D01*
X58412355Y-84423911D01*
X58459444Y-84399196D01*
X58506446Y-84369664D01*
X58534256Y-84359932D01*
X58561777Y-84345489D01*
X58608316Y-84334017D01*
X58654319Y-84317921D01*
X58689881Y-84313913D01*
X58725624Y-84305104D01*
X58768067Y-84305104D01*
X58810000Y-84300379D01*
X58851933Y-84305104D01*
G37*
G36*
X32140504Y-78299092D02*
G01*
X32391140Y-78376403D01*
X32627454Y-78490206D01*
X32844167Y-78637958D01*
X33036438Y-78816360D01*
X33134764Y-78939658D01*
X33199972Y-79021425D01*
X33231225Y-79075557D01*
X33331117Y-79248574D01*
X33426941Y-79492732D01*
X33485306Y-79748445D01*
X33504907Y-80010000D01*
X33485306Y-80271555D01*
X33426941Y-80527268D01*
X33331117Y-80771426D01*
X33199972Y-80998574D01*
X33036438Y-81203640D01*
X32844167Y-81382042D01*
X32627454Y-81529794D01*
X32391140Y-81643597D01*
X32140504Y-81720908D01*
X31881144Y-81760000D01*
X31881143Y-81760000D01*
X31618857Y-81760000D01*
X31618856Y-81760000D01*
X31359496Y-81720908D01*
X31108860Y-81643597D01*
X30872547Y-81529794D01*
X30655833Y-81382042D01*
X30463562Y-81203640D01*
X30381795Y-81101107D01*
X30300027Y-80998574D01*
X30245895Y-80904814D01*
X30168883Y-80771426D01*
X30073059Y-80527268D01*
X30014694Y-80271555D01*
X30014693Y-80271552D01*
X29995093Y-80010000D01*
X30014693Y-79748447D01*
X30073059Y-79492733D01*
X30073059Y-79492732D01*
X30168883Y-79248574D01*
X30214642Y-79169317D01*
X30300027Y-79021425D01*
X30463563Y-78816359D01*
X30655830Y-78637961D01*
X30655833Y-78637958D01*
X30872547Y-78490206D01*
X30872547Y-78490205D01*
X30872550Y-78490204D01*
X31108862Y-78376402D01*
X31359492Y-78299093D01*
X31359493Y-78299092D01*
X31359496Y-78299092D01*
X31618856Y-78260000D01*
X31881144Y-78260000D01*
X32140504Y-78299092D01*
G37*
G36*
X100720504Y-78299092D02*
G01*
X100971140Y-78376403D01*
X101207454Y-78490206D01*
X101424167Y-78637958D01*
X101616438Y-78816360D01*
X101714764Y-78939658D01*
X101779972Y-79021425D01*
X101811225Y-79075557D01*
X101911117Y-79248574D01*
X102006941Y-79492732D01*
X102065306Y-79748445D01*
X102084907Y-80010000D01*
X102065306Y-80271555D01*
X102006941Y-80527268D01*
X101911117Y-80771426D01*
X101779972Y-80998574D01*
X101616438Y-81203640D01*
X101424167Y-81382042D01*
X101207454Y-81529794D01*
X100971140Y-81643597D01*
X100720504Y-81720908D01*
X100461144Y-81760000D01*
X100461143Y-81760000D01*
X100198857Y-81760000D01*
X100198856Y-81760000D01*
X99939496Y-81720908D01*
X99688860Y-81643597D01*
X99452547Y-81529794D01*
X99235833Y-81382042D01*
X99043562Y-81203640D01*
X98961795Y-81101107D01*
X98880027Y-80998574D01*
X98825895Y-80904814D01*
X98748883Y-80771426D01*
X98653059Y-80527268D01*
X98594694Y-80271555D01*
X98594693Y-80271552D01*
X98575093Y-80010000D01*
X98594693Y-79748447D01*
X98653059Y-79492733D01*
X98653059Y-79492732D01*
X98748883Y-79248574D01*
X98794642Y-79169317D01*
X98880027Y-79021425D01*
X99043563Y-78816359D01*
X99235830Y-78637961D01*
X99235833Y-78637958D01*
X99452547Y-78490206D01*
X99452547Y-78490205D01*
X99452550Y-78490204D01*
X99688862Y-78376402D01*
X99939492Y-78299093D01*
X99939493Y-78299092D01*
X99939496Y-78299092D01*
X100198856Y-78260000D01*
X100461144Y-78260000D01*
X100720504Y-78299092D01*
G37*
M02*
