%TF.GenerationSoftware,KiCad,Pcbnew,8.0.2*%
%TF.CreationDate,2025-12-22T10:03:40-05:00*%
%TF.ProjectId,ct4,6374342e-6b69-4636-9164-5f7063625858,rev?*%
%TF.SameCoordinates,Original*%
%TF.FileFunction,Drillmap*%
%TF.FilePolarity,Positive*%
%FSLAX45Y45*%
G04 Gerber Fmt 4.5, Leading zero omitted, Abs format (unit mm)*
G04 Created by KiCad (PCBNEW 8.0.2) date 2025-12-22 10:03:40*
%MOMM*%
%LPD*%
G01*
G04 APERTURE LIST*
%ADD10C,0.038100*%
%ADD11C,0.100000*%
%ADD12C,0.200000*%
%ADD13C,0.110000*%
%ADD14C,0.254000*%
%ADD15C,0.350000*%
G04 APERTURE END LIST*
D10*
X2794000Y-7620000D02*
X10414000Y-7620000D01*
X10414000Y-18034000D01*
X2794000Y-18034000D01*
X2794000Y-7620000D01*
D11*
X7693000Y-13114000D02*
G75*
G02*
X7393000Y-13114000I-150000J0D01*
G01*
X7393000Y-13114000D02*
G75*
G02*
X7693000Y-13114000I150000J0D01*
G01*
X7693000Y-17714000D02*
G75*
G02*
X7393000Y-17714000I-150000J0D01*
G01*
X7393000Y-17714000D02*
G75*
G02*
X7693000Y-17714000I150000J0D01*
G01*
X9993000Y-13114000D02*
G75*
G02*
X9693000Y-13114000I-150000J0D01*
G01*
X9693000Y-13114000D02*
G75*
G02*
X9993000Y-13114000I150000J0D01*
G01*
X9993000Y-17714000D02*
G75*
G02*
X9693000Y-17714000I-150000J0D01*
G01*
X9693000Y-17714000D02*
G75*
G02*
X9993000Y-17714000I150000J0D01*
G01*
D12*
D13*
X3225000Y-12547000D02*
X3335000Y-12657000D01*
X3335000Y-12547000D02*
X3225000Y-12657000D01*
X3225000Y-16920000D02*
X3335000Y-17030000D01*
X3335000Y-16920000D02*
X3225000Y-17030000D01*
X3264000Y-10272000D02*
X3374000Y-10382000D01*
X3374000Y-10272000D02*
X3264000Y-10382000D01*
X3265000Y-14770000D02*
X3375000Y-14880000D01*
X3375000Y-14770000D02*
X3265000Y-14880000D01*
X3825000Y-12547000D02*
X3935000Y-12657000D01*
X3935000Y-12547000D02*
X3825000Y-12657000D01*
X3825000Y-16920000D02*
X3935000Y-17030000D01*
X3935000Y-16920000D02*
X3825000Y-17030000D01*
X3864000Y-10272000D02*
X3974000Y-10382000D01*
X3974000Y-10272000D02*
X3864000Y-10382000D01*
X3865000Y-14770000D02*
X3975000Y-14880000D01*
X3975000Y-14770000D02*
X3865000Y-14880000D01*
D14*
X8907000Y-9980000D02*
G75*
G02*
X8653000Y-9980000I-127000J0D01*
G01*
X8653000Y-9980000D02*
G75*
G02*
X8907000Y-9980000I127000J0D01*
G01*
X8917000Y-12290000D02*
G75*
G02*
X8663000Y-12290000I-127000J0D01*
G01*
X8663000Y-12290000D02*
G75*
G02*
X8917000Y-12290000I127000J0D01*
G01*
D15*
X3175000Y-7826000D02*
X3175000Y-8176000D01*
X3000000Y-8001000D02*
X3350000Y-8001000D01*
X3937000Y-17478000D02*
X3937000Y-17828000D01*
X3762000Y-17653000D02*
X4112000Y-17653000D01*
X9993000Y-17539000D02*
X9993000Y-17889000D01*
X9818000Y-17714000D02*
X10168000Y-17714000D01*
X10033000Y-7826000D02*
X10033000Y-8176000D01*
X9858000Y-8001000D02*
X10208000Y-8001000D01*
D12*
X3052872Y-18347389D02*
X3052872Y-18147389D01*
X3052872Y-18147389D02*
X3100491Y-18147389D01*
X3100491Y-18147389D02*
X3129062Y-18156913D01*
X3129062Y-18156913D02*
X3148110Y-18175960D01*
X3148110Y-18175960D02*
X3157634Y-18195008D01*
X3157634Y-18195008D02*
X3167157Y-18233103D01*
X3167157Y-18233103D02*
X3167157Y-18261675D01*
X3167157Y-18261675D02*
X3157634Y-18299770D01*
X3157634Y-18299770D02*
X3148110Y-18318817D01*
X3148110Y-18318817D02*
X3129062Y-18337865D01*
X3129062Y-18337865D02*
X3100491Y-18347389D01*
X3100491Y-18347389D02*
X3052872Y-18347389D01*
X3252872Y-18347389D02*
X3252872Y-18214055D01*
X3252872Y-18252151D02*
X3262396Y-18233103D01*
X3262396Y-18233103D02*
X3271919Y-18223579D01*
X3271919Y-18223579D02*
X3290967Y-18214055D01*
X3290967Y-18214055D02*
X3310015Y-18214055D01*
X3376681Y-18347389D02*
X3376681Y-18214055D01*
X3376681Y-18147389D02*
X3367157Y-18156913D01*
X3367157Y-18156913D02*
X3376681Y-18166436D01*
X3376681Y-18166436D02*
X3386205Y-18156913D01*
X3386205Y-18156913D02*
X3376681Y-18147389D01*
X3376681Y-18147389D02*
X3376681Y-18166436D01*
X3500491Y-18347389D02*
X3481443Y-18337865D01*
X3481443Y-18337865D02*
X3471919Y-18318817D01*
X3471919Y-18318817D02*
X3471919Y-18147389D01*
X3605253Y-18347389D02*
X3586205Y-18337865D01*
X3586205Y-18337865D02*
X3576681Y-18318817D01*
X3576681Y-18318817D02*
X3576681Y-18147389D01*
X3833824Y-18347389D02*
X3833824Y-18147389D01*
X3833824Y-18147389D02*
X3900491Y-18290246D01*
X3900491Y-18290246D02*
X3967157Y-18147389D01*
X3967157Y-18147389D02*
X3967157Y-18347389D01*
X4148110Y-18347389D02*
X4148110Y-18242627D01*
X4148110Y-18242627D02*
X4138586Y-18223579D01*
X4138586Y-18223579D02*
X4119538Y-18214055D01*
X4119538Y-18214055D02*
X4081443Y-18214055D01*
X4081443Y-18214055D02*
X4062396Y-18223579D01*
X4148110Y-18337865D02*
X4129062Y-18347389D01*
X4129062Y-18347389D02*
X4081443Y-18347389D01*
X4081443Y-18347389D02*
X4062396Y-18337865D01*
X4062396Y-18337865D02*
X4052872Y-18318817D01*
X4052872Y-18318817D02*
X4052872Y-18299770D01*
X4052872Y-18299770D02*
X4062396Y-18280722D01*
X4062396Y-18280722D02*
X4081443Y-18271198D01*
X4081443Y-18271198D02*
X4129062Y-18271198D01*
X4129062Y-18271198D02*
X4148110Y-18261675D01*
X4243348Y-18214055D02*
X4243348Y-18414055D01*
X4243348Y-18223579D02*
X4262396Y-18214055D01*
X4262396Y-18214055D02*
X4300491Y-18214055D01*
X4300491Y-18214055D02*
X4319539Y-18223579D01*
X4319539Y-18223579D02*
X4329062Y-18233103D01*
X4329062Y-18233103D02*
X4338586Y-18252151D01*
X4338586Y-18252151D02*
X4338586Y-18309294D01*
X4338586Y-18309294D02*
X4329062Y-18328341D01*
X4329062Y-18328341D02*
X4319539Y-18337865D01*
X4319539Y-18337865D02*
X4300491Y-18347389D01*
X4300491Y-18347389D02*
X4262396Y-18347389D01*
X4262396Y-18347389D02*
X4243348Y-18337865D01*
X4424300Y-18328341D02*
X4433824Y-18337865D01*
X4433824Y-18337865D02*
X4424300Y-18347389D01*
X4424300Y-18347389D02*
X4414777Y-18337865D01*
X4414777Y-18337865D02*
X4424300Y-18328341D01*
X4424300Y-18328341D02*
X4424300Y-18347389D01*
X4424300Y-18223579D02*
X4433824Y-18233103D01*
X4433824Y-18233103D02*
X4424300Y-18242627D01*
X4424300Y-18242627D02*
X4414777Y-18233103D01*
X4414777Y-18233103D02*
X4424300Y-18223579D01*
X4424300Y-18223579D02*
X4424300Y-18242627D01*
D13*
X2682095Y-18620905D02*
X2792095Y-18730905D01*
X2792095Y-18620905D02*
X2682095Y-18730905D01*
D12*
X3157634Y-18767389D02*
X3043348Y-18767389D01*
X3100491Y-18767389D02*
X3100491Y-18567389D01*
X3100491Y-18567389D02*
X3081443Y-18595960D01*
X3081443Y-18595960D02*
X3062396Y-18615008D01*
X3062396Y-18615008D02*
X3043348Y-18624532D01*
X3243348Y-18748341D02*
X3252872Y-18757865D01*
X3252872Y-18757865D02*
X3243348Y-18767389D01*
X3243348Y-18767389D02*
X3233824Y-18757865D01*
X3233824Y-18757865D02*
X3243348Y-18748341D01*
X3243348Y-18748341D02*
X3243348Y-18767389D01*
X3443348Y-18767389D02*
X3329062Y-18767389D01*
X3386205Y-18767389D02*
X3386205Y-18567389D01*
X3386205Y-18567389D02*
X3367157Y-18595960D01*
X3367157Y-18595960D02*
X3348110Y-18615008D01*
X3348110Y-18615008D02*
X3329062Y-18624532D01*
X3567157Y-18567389D02*
X3586205Y-18567389D01*
X3586205Y-18567389D02*
X3605253Y-18576913D01*
X3605253Y-18576913D02*
X3614777Y-18586436D01*
X3614777Y-18586436D02*
X3624300Y-18605484D01*
X3624300Y-18605484D02*
X3633824Y-18643579D01*
X3633824Y-18643579D02*
X3633824Y-18691198D01*
X3633824Y-18691198D02*
X3624300Y-18729294D01*
X3624300Y-18729294D02*
X3614777Y-18748341D01*
X3614777Y-18748341D02*
X3605253Y-18757865D01*
X3605253Y-18757865D02*
X3586205Y-18767389D01*
X3586205Y-18767389D02*
X3567157Y-18767389D01*
X3567157Y-18767389D02*
X3548110Y-18757865D01*
X3548110Y-18757865D02*
X3538586Y-18748341D01*
X3538586Y-18748341D02*
X3529062Y-18729294D01*
X3529062Y-18729294D02*
X3519538Y-18691198D01*
X3519538Y-18691198D02*
X3519538Y-18643579D01*
X3519538Y-18643579D02*
X3529062Y-18605484D01*
X3529062Y-18605484D02*
X3538586Y-18586436D01*
X3538586Y-18586436D02*
X3548110Y-18576913D01*
X3548110Y-18576913D02*
X3567157Y-18567389D01*
X3757634Y-18567389D02*
X3776681Y-18567389D01*
X3776681Y-18567389D02*
X3795729Y-18576913D01*
X3795729Y-18576913D02*
X3805253Y-18586436D01*
X3805253Y-18586436D02*
X3814777Y-18605484D01*
X3814777Y-18605484D02*
X3824300Y-18643579D01*
X3824300Y-18643579D02*
X3824300Y-18691198D01*
X3824300Y-18691198D02*
X3814777Y-18729294D01*
X3814777Y-18729294D02*
X3805253Y-18748341D01*
X3805253Y-18748341D02*
X3795729Y-18757865D01*
X3795729Y-18757865D02*
X3776681Y-18767389D01*
X3776681Y-18767389D02*
X3757634Y-18767389D01*
X3757634Y-18767389D02*
X3738586Y-18757865D01*
X3738586Y-18757865D02*
X3729062Y-18748341D01*
X3729062Y-18748341D02*
X3719538Y-18729294D01*
X3719538Y-18729294D02*
X3710015Y-18691198D01*
X3710015Y-18691198D02*
X3710015Y-18643579D01*
X3710015Y-18643579D02*
X3719538Y-18605484D01*
X3719538Y-18605484D02*
X3729062Y-18586436D01*
X3729062Y-18586436D02*
X3738586Y-18576913D01*
X3738586Y-18576913D02*
X3757634Y-18567389D01*
X3910015Y-18767389D02*
X3910015Y-18634055D01*
X3910015Y-18653103D02*
X3919538Y-18643579D01*
X3919538Y-18643579D02*
X3938586Y-18634055D01*
X3938586Y-18634055D02*
X3967158Y-18634055D01*
X3967158Y-18634055D02*
X3986205Y-18643579D01*
X3986205Y-18643579D02*
X3995729Y-18662627D01*
X3995729Y-18662627D02*
X3995729Y-18767389D01*
X3995729Y-18662627D02*
X4005253Y-18643579D01*
X4005253Y-18643579D02*
X4024300Y-18634055D01*
X4024300Y-18634055D02*
X4052872Y-18634055D01*
X4052872Y-18634055D02*
X4071919Y-18643579D01*
X4071919Y-18643579D02*
X4081443Y-18662627D01*
X4081443Y-18662627D02*
X4081443Y-18767389D01*
X4176681Y-18767389D02*
X4176681Y-18634055D01*
X4176681Y-18653103D02*
X4186205Y-18643579D01*
X4186205Y-18643579D02*
X4205253Y-18634055D01*
X4205253Y-18634055D02*
X4233824Y-18634055D01*
X4233824Y-18634055D02*
X4252872Y-18643579D01*
X4252872Y-18643579D02*
X4262396Y-18662627D01*
X4262396Y-18662627D02*
X4262396Y-18767389D01*
X4262396Y-18662627D02*
X4271920Y-18643579D01*
X4271920Y-18643579D02*
X4290967Y-18634055D01*
X4290967Y-18634055D02*
X4319539Y-18634055D01*
X4319539Y-18634055D02*
X4338586Y-18643579D01*
X4338586Y-18643579D02*
X4348110Y-18662627D01*
X4348110Y-18662627D02*
X4348110Y-18767389D01*
X4738586Y-18557865D02*
X4567158Y-18815008D01*
X4995729Y-18567389D02*
X5014777Y-18567389D01*
X5014777Y-18567389D02*
X5033824Y-18576913D01*
X5033824Y-18576913D02*
X5043348Y-18586436D01*
X5043348Y-18586436D02*
X5052872Y-18605484D01*
X5052872Y-18605484D02*
X5062396Y-18643579D01*
X5062396Y-18643579D02*
X5062396Y-18691198D01*
X5062396Y-18691198D02*
X5052872Y-18729294D01*
X5052872Y-18729294D02*
X5043348Y-18748341D01*
X5043348Y-18748341D02*
X5033824Y-18757865D01*
X5033824Y-18757865D02*
X5014777Y-18767389D01*
X5014777Y-18767389D02*
X4995729Y-18767389D01*
X4995729Y-18767389D02*
X4976682Y-18757865D01*
X4976682Y-18757865D02*
X4967158Y-18748341D01*
X4967158Y-18748341D02*
X4957634Y-18729294D01*
X4957634Y-18729294D02*
X4948110Y-18691198D01*
X4948110Y-18691198D02*
X4948110Y-18643579D01*
X4948110Y-18643579D02*
X4957634Y-18605484D01*
X4957634Y-18605484D02*
X4967158Y-18586436D01*
X4967158Y-18586436D02*
X4976682Y-18576913D01*
X4976682Y-18576913D02*
X4995729Y-18567389D01*
X5148110Y-18748341D02*
X5157634Y-18757865D01*
X5157634Y-18757865D02*
X5148110Y-18767389D01*
X5148110Y-18767389D02*
X5138586Y-18757865D01*
X5138586Y-18757865D02*
X5148110Y-18748341D01*
X5148110Y-18748341D02*
X5148110Y-18767389D01*
X5281443Y-18567389D02*
X5300491Y-18567389D01*
X5300491Y-18567389D02*
X5319539Y-18576913D01*
X5319539Y-18576913D02*
X5329063Y-18586436D01*
X5329063Y-18586436D02*
X5338586Y-18605484D01*
X5338586Y-18605484D02*
X5348110Y-18643579D01*
X5348110Y-18643579D02*
X5348110Y-18691198D01*
X5348110Y-18691198D02*
X5338586Y-18729294D01*
X5338586Y-18729294D02*
X5329063Y-18748341D01*
X5329063Y-18748341D02*
X5319539Y-18757865D01*
X5319539Y-18757865D02*
X5300491Y-18767389D01*
X5300491Y-18767389D02*
X5281443Y-18767389D01*
X5281443Y-18767389D02*
X5262396Y-18757865D01*
X5262396Y-18757865D02*
X5252872Y-18748341D01*
X5252872Y-18748341D02*
X5243348Y-18729294D01*
X5243348Y-18729294D02*
X5233824Y-18691198D01*
X5233824Y-18691198D02*
X5233824Y-18643579D01*
X5233824Y-18643579D02*
X5243348Y-18605484D01*
X5243348Y-18605484D02*
X5252872Y-18586436D01*
X5252872Y-18586436D02*
X5262396Y-18576913D01*
X5262396Y-18576913D02*
X5281443Y-18567389D01*
X5519539Y-18634055D02*
X5519539Y-18767389D01*
X5471920Y-18557865D02*
X5424301Y-18700722D01*
X5424301Y-18700722D02*
X5548110Y-18700722D01*
X5605253Y-18567389D02*
X5729062Y-18567389D01*
X5729062Y-18567389D02*
X5662396Y-18643579D01*
X5662396Y-18643579D02*
X5690967Y-18643579D01*
X5690967Y-18643579D02*
X5710015Y-18653103D01*
X5710015Y-18653103D02*
X5719539Y-18662627D01*
X5719539Y-18662627D02*
X5729062Y-18681675D01*
X5729062Y-18681675D02*
X5729062Y-18729294D01*
X5729062Y-18729294D02*
X5719539Y-18748341D01*
X5719539Y-18748341D02*
X5710015Y-18757865D01*
X5710015Y-18757865D02*
X5690967Y-18767389D01*
X5690967Y-18767389D02*
X5633824Y-18767389D01*
X5633824Y-18767389D02*
X5614777Y-18757865D01*
X5614777Y-18757865D02*
X5605253Y-18748341D01*
X5795729Y-18567389D02*
X5919539Y-18567389D01*
X5919539Y-18567389D02*
X5852872Y-18643579D01*
X5852872Y-18643579D02*
X5881443Y-18643579D01*
X5881443Y-18643579D02*
X5900491Y-18653103D01*
X5900491Y-18653103D02*
X5910015Y-18662627D01*
X5910015Y-18662627D02*
X5919539Y-18681675D01*
X5919539Y-18681675D02*
X5919539Y-18729294D01*
X5919539Y-18729294D02*
X5910015Y-18748341D01*
X5910015Y-18748341D02*
X5900491Y-18757865D01*
X5900491Y-18757865D02*
X5881443Y-18767389D01*
X5881443Y-18767389D02*
X5824301Y-18767389D01*
X5824301Y-18767389D02*
X5805253Y-18757865D01*
X5805253Y-18757865D02*
X5795729Y-18748341D01*
X5995729Y-18567389D02*
X5995729Y-18605484D01*
X6071920Y-18567389D02*
X6071920Y-18605484D01*
X6367158Y-18843579D02*
X6357634Y-18834055D01*
X6357634Y-18834055D02*
X6338586Y-18805484D01*
X6338586Y-18805484D02*
X6329063Y-18786436D01*
X6329063Y-18786436D02*
X6319539Y-18757865D01*
X6319539Y-18757865D02*
X6310015Y-18710246D01*
X6310015Y-18710246D02*
X6310015Y-18672151D01*
X6310015Y-18672151D02*
X6319539Y-18624532D01*
X6319539Y-18624532D02*
X6329063Y-18595960D01*
X6329063Y-18595960D02*
X6338586Y-18576913D01*
X6338586Y-18576913D02*
X6357634Y-18548341D01*
X6357634Y-18548341D02*
X6367158Y-18538817D01*
X6471920Y-18653103D02*
X6452872Y-18643579D01*
X6452872Y-18643579D02*
X6443348Y-18634055D01*
X6443348Y-18634055D02*
X6433824Y-18615008D01*
X6433824Y-18615008D02*
X6433824Y-18605484D01*
X6433824Y-18605484D02*
X6443348Y-18586436D01*
X6443348Y-18586436D02*
X6452872Y-18576913D01*
X6452872Y-18576913D02*
X6471920Y-18567389D01*
X6471920Y-18567389D02*
X6510015Y-18567389D01*
X6510015Y-18567389D02*
X6529063Y-18576913D01*
X6529063Y-18576913D02*
X6538586Y-18586436D01*
X6538586Y-18586436D02*
X6548110Y-18605484D01*
X6548110Y-18605484D02*
X6548110Y-18615008D01*
X6548110Y-18615008D02*
X6538586Y-18634055D01*
X6538586Y-18634055D02*
X6529063Y-18643579D01*
X6529063Y-18643579D02*
X6510015Y-18653103D01*
X6510015Y-18653103D02*
X6471920Y-18653103D01*
X6471920Y-18653103D02*
X6452872Y-18662627D01*
X6452872Y-18662627D02*
X6443348Y-18672151D01*
X6443348Y-18672151D02*
X6433824Y-18691198D01*
X6433824Y-18691198D02*
X6433824Y-18729294D01*
X6433824Y-18729294D02*
X6443348Y-18748341D01*
X6443348Y-18748341D02*
X6452872Y-18757865D01*
X6452872Y-18757865D02*
X6471920Y-18767389D01*
X6471920Y-18767389D02*
X6510015Y-18767389D01*
X6510015Y-18767389D02*
X6529063Y-18757865D01*
X6529063Y-18757865D02*
X6538586Y-18748341D01*
X6538586Y-18748341D02*
X6548110Y-18729294D01*
X6548110Y-18729294D02*
X6548110Y-18691198D01*
X6548110Y-18691198D02*
X6538586Y-18672151D01*
X6538586Y-18672151D02*
X6529063Y-18662627D01*
X6529063Y-18662627D02*
X6510015Y-18653103D01*
X6786205Y-18767389D02*
X6786205Y-18567389D01*
X6871920Y-18767389D02*
X6871920Y-18662627D01*
X6871920Y-18662627D02*
X6862396Y-18643579D01*
X6862396Y-18643579D02*
X6843348Y-18634055D01*
X6843348Y-18634055D02*
X6814777Y-18634055D01*
X6814777Y-18634055D02*
X6795729Y-18643579D01*
X6795729Y-18643579D02*
X6786205Y-18653103D01*
X6995729Y-18767389D02*
X6976682Y-18757865D01*
X6976682Y-18757865D02*
X6967158Y-18748341D01*
X6967158Y-18748341D02*
X6957634Y-18729294D01*
X6957634Y-18729294D02*
X6957634Y-18672151D01*
X6957634Y-18672151D02*
X6967158Y-18653103D01*
X6967158Y-18653103D02*
X6976682Y-18643579D01*
X6976682Y-18643579D02*
X6995729Y-18634055D01*
X6995729Y-18634055D02*
X7024301Y-18634055D01*
X7024301Y-18634055D02*
X7043348Y-18643579D01*
X7043348Y-18643579D02*
X7052872Y-18653103D01*
X7052872Y-18653103D02*
X7062396Y-18672151D01*
X7062396Y-18672151D02*
X7062396Y-18729294D01*
X7062396Y-18729294D02*
X7052872Y-18748341D01*
X7052872Y-18748341D02*
X7043348Y-18757865D01*
X7043348Y-18757865D02*
X7024301Y-18767389D01*
X7024301Y-18767389D02*
X6995729Y-18767389D01*
X7176682Y-18767389D02*
X7157634Y-18757865D01*
X7157634Y-18757865D02*
X7148110Y-18738817D01*
X7148110Y-18738817D02*
X7148110Y-18567389D01*
X7329063Y-18757865D02*
X7310015Y-18767389D01*
X7310015Y-18767389D02*
X7271920Y-18767389D01*
X7271920Y-18767389D02*
X7252872Y-18757865D01*
X7252872Y-18757865D02*
X7243348Y-18738817D01*
X7243348Y-18738817D02*
X7243348Y-18662627D01*
X7243348Y-18662627D02*
X7252872Y-18643579D01*
X7252872Y-18643579D02*
X7271920Y-18634055D01*
X7271920Y-18634055D02*
X7310015Y-18634055D01*
X7310015Y-18634055D02*
X7329063Y-18643579D01*
X7329063Y-18643579D02*
X7338586Y-18662627D01*
X7338586Y-18662627D02*
X7338586Y-18681675D01*
X7338586Y-18681675D02*
X7243348Y-18700722D01*
X7414777Y-18757865D02*
X7433825Y-18767389D01*
X7433825Y-18767389D02*
X7471920Y-18767389D01*
X7471920Y-18767389D02*
X7490967Y-18757865D01*
X7490967Y-18757865D02*
X7500491Y-18738817D01*
X7500491Y-18738817D02*
X7500491Y-18729294D01*
X7500491Y-18729294D02*
X7490967Y-18710246D01*
X7490967Y-18710246D02*
X7471920Y-18700722D01*
X7471920Y-18700722D02*
X7443348Y-18700722D01*
X7443348Y-18700722D02*
X7424301Y-18691198D01*
X7424301Y-18691198D02*
X7414777Y-18672151D01*
X7414777Y-18672151D02*
X7414777Y-18662627D01*
X7414777Y-18662627D02*
X7424301Y-18643579D01*
X7424301Y-18643579D02*
X7443348Y-18634055D01*
X7443348Y-18634055D02*
X7471920Y-18634055D01*
X7471920Y-18634055D02*
X7490967Y-18643579D01*
X7567158Y-18843579D02*
X7576682Y-18834055D01*
X7576682Y-18834055D02*
X7595729Y-18805484D01*
X7595729Y-18805484D02*
X7605253Y-18786436D01*
X7605253Y-18786436D02*
X7614777Y-18757865D01*
X7614777Y-18757865D02*
X7624301Y-18710246D01*
X7624301Y-18710246D02*
X7624301Y-18672151D01*
X7624301Y-18672151D02*
X7614777Y-18624532D01*
X7614777Y-18624532D02*
X7605253Y-18595960D01*
X7605253Y-18595960D02*
X7595729Y-18576913D01*
X7595729Y-18576913D02*
X7576682Y-18548341D01*
X7576682Y-18548341D02*
X7567158Y-18538817D01*
X7929063Y-18843579D02*
X7919539Y-18834055D01*
X7919539Y-18834055D02*
X7900491Y-18805484D01*
X7900491Y-18805484D02*
X7890967Y-18786436D01*
X7890967Y-18786436D02*
X7881444Y-18757865D01*
X7881444Y-18757865D02*
X7871920Y-18710246D01*
X7871920Y-18710246D02*
X7871920Y-18672151D01*
X7871920Y-18672151D02*
X7881444Y-18624532D01*
X7881444Y-18624532D02*
X7890967Y-18595960D01*
X7890967Y-18595960D02*
X7900491Y-18576913D01*
X7900491Y-18576913D02*
X7919539Y-18548341D01*
X7919539Y-18548341D02*
X7929063Y-18538817D01*
X8005253Y-18634055D02*
X8005253Y-18767389D01*
X8005253Y-18653103D02*
X8014777Y-18643579D01*
X8014777Y-18643579D02*
X8033825Y-18634055D01*
X8033825Y-18634055D02*
X8062396Y-18634055D01*
X8062396Y-18634055D02*
X8081444Y-18643579D01*
X8081444Y-18643579D02*
X8090967Y-18662627D01*
X8090967Y-18662627D02*
X8090967Y-18767389D01*
X8214777Y-18767389D02*
X8195729Y-18757865D01*
X8195729Y-18757865D02*
X8186206Y-18748341D01*
X8186206Y-18748341D02*
X8176682Y-18729294D01*
X8176682Y-18729294D02*
X8176682Y-18672151D01*
X8176682Y-18672151D02*
X8186206Y-18653103D01*
X8186206Y-18653103D02*
X8195729Y-18643579D01*
X8195729Y-18643579D02*
X8214777Y-18634055D01*
X8214777Y-18634055D02*
X8243348Y-18634055D01*
X8243348Y-18634055D02*
X8262396Y-18643579D01*
X8262396Y-18643579D02*
X8271920Y-18653103D01*
X8271920Y-18653103D02*
X8281444Y-18672151D01*
X8281444Y-18672151D02*
X8281444Y-18729294D01*
X8281444Y-18729294D02*
X8271920Y-18748341D01*
X8271920Y-18748341D02*
X8262396Y-18757865D01*
X8262396Y-18757865D02*
X8243348Y-18767389D01*
X8243348Y-18767389D02*
X8214777Y-18767389D01*
X8338587Y-18634055D02*
X8414777Y-18634055D01*
X8367158Y-18567389D02*
X8367158Y-18738817D01*
X8367158Y-18738817D02*
X8376682Y-18757865D01*
X8376682Y-18757865D02*
X8395729Y-18767389D01*
X8395729Y-18767389D02*
X8414777Y-18767389D01*
X8633825Y-18634055D02*
X8633825Y-18834055D01*
X8633825Y-18643579D02*
X8652872Y-18634055D01*
X8652872Y-18634055D02*
X8690968Y-18634055D01*
X8690968Y-18634055D02*
X8710015Y-18643579D01*
X8710015Y-18643579D02*
X8719539Y-18653103D01*
X8719539Y-18653103D02*
X8729063Y-18672151D01*
X8729063Y-18672151D02*
X8729063Y-18729294D01*
X8729063Y-18729294D02*
X8719539Y-18748341D01*
X8719539Y-18748341D02*
X8710015Y-18757865D01*
X8710015Y-18757865D02*
X8690968Y-18767389D01*
X8690968Y-18767389D02*
X8652872Y-18767389D01*
X8652872Y-18767389D02*
X8633825Y-18757865D01*
X8843349Y-18767389D02*
X8824301Y-18757865D01*
X8824301Y-18757865D02*
X8814777Y-18738817D01*
X8814777Y-18738817D02*
X8814777Y-18567389D01*
X9005253Y-18767389D02*
X9005253Y-18662627D01*
X9005253Y-18662627D02*
X8995730Y-18643579D01*
X8995730Y-18643579D02*
X8976682Y-18634055D01*
X8976682Y-18634055D02*
X8938587Y-18634055D01*
X8938587Y-18634055D02*
X8919539Y-18643579D01*
X9005253Y-18757865D02*
X8986206Y-18767389D01*
X8986206Y-18767389D02*
X8938587Y-18767389D01*
X8938587Y-18767389D02*
X8919539Y-18757865D01*
X8919539Y-18757865D02*
X8910015Y-18738817D01*
X8910015Y-18738817D02*
X8910015Y-18719770D01*
X8910015Y-18719770D02*
X8919539Y-18700722D01*
X8919539Y-18700722D02*
X8938587Y-18691198D01*
X8938587Y-18691198D02*
X8986206Y-18691198D01*
X8986206Y-18691198D02*
X9005253Y-18681675D01*
X9071920Y-18634055D02*
X9148110Y-18634055D01*
X9100491Y-18567389D02*
X9100491Y-18738817D01*
X9100491Y-18738817D02*
X9110015Y-18757865D01*
X9110015Y-18757865D02*
X9129063Y-18767389D01*
X9129063Y-18767389D02*
X9148110Y-18767389D01*
X9290968Y-18757865D02*
X9271920Y-18767389D01*
X9271920Y-18767389D02*
X9233825Y-18767389D01*
X9233825Y-18767389D02*
X9214777Y-18757865D01*
X9214777Y-18757865D02*
X9205253Y-18738817D01*
X9205253Y-18738817D02*
X9205253Y-18662627D01*
X9205253Y-18662627D02*
X9214777Y-18643579D01*
X9214777Y-18643579D02*
X9233825Y-18634055D01*
X9233825Y-18634055D02*
X9271920Y-18634055D01*
X9271920Y-18634055D02*
X9290968Y-18643579D01*
X9290968Y-18643579D02*
X9300491Y-18662627D01*
X9300491Y-18662627D02*
X9300491Y-18681675D01*
X9300491Y-18681675D02*
X9205253Y-18700722D01*
X9471920Y-18767389D02*
X9471920Y-18567389D01*
X9471920Y-18757865D02*
X9452872Y-18767389D01*
X9452872Y-18767389D02*
X9414777Y-18767389D01*
X9414777Y-18767389D02*
X9395730Y-18757865D01*
X9395730Y-18757865D02*
X9386206Y-18748341D01*
X9386206Y-18748341D02*
X9376682Y-18729294D01*
X9376682Y-18729294D02*
X9376682Y-18672151D01*
X9376682Y-18672151D02*
X9386206Y-18653103D01*
X9386206Y-18653103D02*
X9395730Y-18643579D01*
X9395730Y-18643579D02*
X9414777Y-18634055D01*
X9414777Y-18634055D02*
X9452872Y-18634055D01*
X9452872Y-18634055D02*
X9471920Y-18643579D01*
X9548111Y-18843579D02*
X9557634Y-18834055D01*
X9557634Y-18834055D02*
X9576682Y-18805484D01*
X9576682Y-18805484D02*
X9586206Y-18786436D01*
X9586206Y-18786436D02*
X9595730Y-18757865D01*
X9595730Y-18757865D02*
X9605253Y-18710246D01*
X9605253Y-18710246D02*
X9605253Y-18672151D01*
X9605253Y-18672151D02*
X9595730Y-18624532D01*
X9595730Y-18624532D02*
X9586206Y-18595960D01*
X9586206Y-18595960D02*
X9576682Y-18576913D01*
X9576682Y-18576913D02*
X9557634Y-18548341D01*
X9557634Y-18548341D02*
X9548111Y-18538817D01*
X2792095Y-18939905D02*
G75*
G02*
X2592095Y-18939905I-100000J0D01*
G01*
X2592095Y-18939905D02*
G75*
G02*
X2792095Y-18939905I100000J0D01*
G01*
X3043348Y-18850436D02*
X3052872Y-18840913D01*
X3052872Y-18840913D02*
X3071919Y-18831389D01*
X3071919Y-18831389D02*
X3119538Y-18831389D01*
X3119538Y-18831389D02*
X3138586Y-18840913D01*
X3138586Y-18840913D02*
X3148110Y-18850436D01*
X3148110Y-18850436D02*
X3157634Y-18869484D01*
X3157634Y-18869484D02*
X3157634Y-18888532D01*
X3157634Y-18888532D02*
X3148110Y-18917103D01*
X3148110Y-18917103D02*
X3033824Y-19031389D01*
X3033824Y-19031389D02*
X3157634Y-19031389D01*
X3243348Y-19012341D02*
X3252872Y-19021865D01*
X3252872Y-19021865D02*
X3243348Y-19031389D01*
X3243348Y-19031389D02*
X3233824Y-19021865D01*
X3233824Y-19021865D02*
X3243348Y-19012341D01*
X3243348Y-19012341D02*
X3243348Y-19031389D01*
X3433824Y-18831389D02*
X3338586Y-18831389D01*
X3338586Y-18831389D02*
X3329062Y-18926627D01*
X3329062Y-18926627D02*
X3338586Y-18917103D01*
X3338586Y-18917103D02*
X3357634Y-18907579D01*
X3357634Y-18907579D02*
X3405253Y-18907579D01*
X3405253Y-18907579D02*
X3424300Y-18917103D01*
X3424300Y-18917103D02*
X3433824Y-18926627D01*
X3433824Y-18926627D02*
X3443348Y-18945675D01*
X3443348Y-18945675D02*
X3443348Y-18993294D01*
X3443348Y-18993294D02*
X3433824Y-19012341D01*
X3433824Y-19012341D02*
X3424300Y-19021865D01*
X3424300Y-19021865D02*
X3405253Y-19031389D01*
X3405253Y-19031389D02*
X3357634Y-19031389D01*
X3357634Y-19031389D02*
X3338586Y-19021865D01*
X3338586Y-19021865D02*
X3329062Y-19012341D01*
X3614777Y-18898055D02*
X3614777Y-19031389D01*
X3567157Y-18821865D02*
X3519538Y-18964722D01*
X3519538Y-18964722D02*
X3643348Y-18964722D01*
X3757634Y-18831389D02*
X3776681Y-18831389D01*
X3776681Y-18831389D02*
X3795729Y-18840913D01*
X3795729Y-18840913D02*
X3805253Y-18850436D01*
X3805253Y-18850436D02*
X3814777Y-18869484D01*
X3814777Y-18869484D02*
X3824300Y-18907579D01*
X3824300Y-18907579D02*
X3824300Y-18955198D01*
X3824300Y-18955198D02*
X3814777Y-18993294D01*
X3814777Y-18993294D02*
X3805253Y-19012341D01*
X3805253Y-19012341D02*
X3795729Y-19021865D01*
X3795729Y-19021865D02*
X3776681Y-19031389D01*
X3776681Y-19031389D02*
X3757634Y-19031389D01*
X3757634Y-19031389D02*
X3738586Y-19021865D01*
X3738586Y-19021865D02*
X3729062Y-19012341D01*
X3729062Y-19012341D02*
X3719538Y-18993294D01*
X3719538Y-18993294D02*
X3710015Y-18955198D01*
X3710015Y-18955198D02*
X3710015Y-18907579D01*
X3710015Y-18907579D02*
X3719538Y-18869484D01*
X3719538Y-18869484D02*
X3729062Y-18850436D01*
X3729062Y-18850436D02*
X3738586Y-18840913D01*
X3738586Y-18840913D02*
X3757634Y-18831389D01*
X3910015Y-19031389D02*
X3910015Y-18898055D01*
X3910015Y-18917103D02*
X3919538Y-18907579D01*
X3919538Y-18907579D02*
X3938586Y-18898055D01*
X3938586Y-18898055D02*
X3967158Y-18898055D01*
X3967158Y-18898055D02*
X3986205Y-18907579D01*
X3986205Y-18907579D02*
X3995729Y-18926627D01*
X3995729Y-18926627D02*
X3995729Y-19031389D01*
X3995729Y-18926627D02*
X4005253Y-18907579D01*
X4005253Y-18907579D02*
X4024300Y-18898055D01*
X4024300Y-18898055D02*
X4052872Y-18898055D01*
X4052872Y-18898055D02*
X4071919Y-18907579D01*
X4071919Y-18907579D02*
X4081443Y-18926627D01*
X4081443Y-18926627D02*
X4081443Y-19031389D01*
X4176681Y-19031389D02*
X4176681Y-18898055D01*
X4176681Y-18917103D02*
X4186205Y-18907579D01*
X4186205Y-18907579D02*
X4205253Y-18898055D01*
X4205253Y-18898055D02*
X4233824Y-18898055D01*
X4233824Y-18898055D02*
X4252872Y-18907579D01*
X4252872Y-18907579D02*
X4262396Y-18926627D01*
X4262396Y-18926627D02*
X4262396Y-19031389D01*
X4262396Y-18926627D02*
X4271920Y-18907579D01*
X4271920Y-18907579D02*
X4290967Y-18898055D01*
X4290967Y-18898055D02*
X4319539Y-18898055D01*
X4319539Y-18898055D02*
X4338586Y-18907579D01*
X4338586Y-18907579D02*
X4348110Y-18926627D01*
X4348110Y-18926627D02*
X4348110Y-19031389D01*
X4738586Y-18821865D02*
X4567158Y-19079008D01*
X4995729Y-18831389D02*
X5014777Y-18831389D01*
X5014777Y-18831389D02*
X5033824Y-18840913D01*
X5033824Y-18840913D02*
X5043348Y-18850436D01*
X5043348Y-18850436D02*
X5052872Y-18869484D01*
X5052872Y-18869484D02*
X5062396Y-18907579D01*
X5062396Y-18907579D02*
X5062396Y-18955198D01*
X5062396Y-18955198D02*
X5052872Y-18993294D01*
X5052872Y-18993294D02*
X5043348Y-19012341D01*
X5043348Y-19012341D02*
X5033824Y-19021865D01*
X5033824Y-19021865D02*
X5014777Y-19031389D01*
X5014777Y-19031389D02*
X4995729Y-19031389D01*
X4995729Y-19031389D02*
X4976682Y-19021865D01*
X4976682Y-19021865D02*
X4967158Y-19012341D01*
X4967158Y-19012341D02*
X4957634Y-18993294D01*
X4957634Y-18993294D02*
X4948110Y-18955198D01*
X4948110Y-18955198D02*
X4948110Y-18907579D01*
X4948110Y-18907579D02*
X4957634Y-18869484D01*
X4957634Y-18869484D02*
X4967158Y-18850436D01*
X4967158Y-18850436D02*
X4976682Y-18840913D01*
X4976682Y-18840913D02*
X4995729Y-18831389D01*
X5148110Y-19012341D02*
X5157634Y-19021865D01*
X5157634Y-19021865D02*
X5148110Y-19031389D01*
X5148110Y-19031389D02*
X5138586Y-19021865D01*
X5138586Y-19021865D02*
X5148110Y-19012341D01*
X5148110Y-19012341D02*
X5148110Y-19031389D01*
X5348110Y-19031389D02*
X5233824Y-19031389D01*
X5290967Y-19031389D02*
X5290967Y-18831389D01*
X5290967Y-18831389D02*
X5271920Y-18859960D01*
X5271920Y-18859960D02*
X5252872Y-18879008D01*
X5252872Y-18879008D02*
X5233824Y-18888532D01*
X5471920Y-18831389D02*
X5490967Y-18831389D01*
X5490967Y-18831389D02*
X5510015Y-18840913D01*
X5510015Y-18840913D02*
X5519539Y-18850436D01*
X5519539Y-18850436D02*
X5529063Y-18869484D01*
X5529063Y-18869484D02*
X5538586Y-18907579D01*
X5538586Y-18907579D02*
X5538586Y-18955198D01*
X5538586Y-18955198D02*
X5529063Y-18993294D01*
X5529063Y-18993294D02*
X5519539Y-19012341D01*
X5519539Y-19012341D02*
X5510015Y-19021865D01*
X5510015Y-19021865D02*
X5490967Y-19031389D01*
X5490967Y-19031389D02*
X5471920Y-19031389D01*
X5471920Y-19031389D02*
X5452872Y-19021865D01*
X5452872Y-19021865D02*
X5443348Y-19012341D01*
X5443348Y-19012341D02*
X5433824Y-18993294D01*
X5433824Y-18993294D02*
X5424301Y-18955198D01*
X5424301Y-18955198D02*
X5424301Y-18907579D01*
X5424301Y-18907579D02*
X5433824Y-18869484D01*
X5433824Y-18869484D02*
X5443348Y-18850436D01*
X5443348Y-18850436D02*
X5452872Y-18840913D01*
X5452872Y-18840913D02*
X5471920Y-18831389D01*
X5662396Y-18831389D02*
X5681443Y-18831389D01*
X5681443Y-18831389D02*
X5700491Y-18840913D01*
X5700491Y-18840913D02*
X5710015Y-18850436D01*
X5710015Y-18850436D02*
X5719539Y-18869484D01*
X5719539Y-18869484D02*
X5729062Y-18907579D01*
X5729062Y-18907579D02*
X5729062Y-18955198D01*
X5729062Y-18955198D02*
X5719539Y-18993294D01*
X5719539Y-18993294D02*
X5710015Y-19012341D01*
X5710015Y-19012341D02*
X5700491Y-19021865D01*
X5700491Y-19021865D02*
X5681443Y-19031389D01*
X5681443Y-19031389D02*
X5662396Y-19031389D01*
X5662396Y-19031389D02*
X5643348Y-19021865D01*
X5643348Y-19021865D02*
X5633824Y-19012341D01*
X5633824Y-19012341D02*
X5624301Y-18993294D01*
X5624301Y-18993294D02*
X5614777Y-18955198D01*
X5614777Y-18955198D02*
X5614777Y-18907579D01*
X5614777Y-18907579D02*
X5624301Y-18869484D01*
X5624301Y-18869484D02*
X5633824Y-18850436D01*
X5633824Y-18850436D02*
X5643348Y-18840913D01*
X5643348Y-18840913D02*
X5662396Y-18831389D01*
X5852872Y-18831389D02*
X5871920Y-18831389D01*
X5871920Y-18831389D02*
X5890967Y-18840913D01*
X5890967Y-18840913D02*
X5900491Y-18850436D01*
X5900491Y-18850436D02*
X5910015Y-18869484D01*
X5910015Y-18869484D02*
X5919539Y-18907579D01*
X5919539Y-18907579D02*
X5919539Y-18955198D01*
X5919539Y-18955198D02*
X5910015Y-18993294D01*
X5910015Y-18993294D02*
X5900491Y-19012341D01*
X5900491Y-19012341D02*
X5890967Y-19021865D01*
X5890967Y-19021865D02*
X5871920Y-19031389D01*
X5871920Y-19031389D02*
X5852872Y-19031389D01*
X5852872Y-19031389D02*
X5833824Y-19021865D01*
X5833824Y-19021865D02*
X5824301Y-19012341D01*
X5824301Y-19012341D02*
X5814777Y-18993294D01*
X5814777Y-18993294D02*
X5805253Y-18955198D01*
X5805253Y-18955198D02*
X5805253Y-18907579D01*
X5805253Y-18907579D02*
X5814777Y-18869484D01*
X5814777Y-18869484D02*
X5824301Y-18850436D01*
X5824301Y-18850436D02*
X5833824Y-18840913D01*
X5833824Y-18840913D02*
X5852872Y-18831389D01*
X5995729Y-18831389D02*
X5995729Y-18869484D01*
X6071920Y-18831389D02*
X6071920Y-18869484D01*
X6367158Y-19107579D02*
X6357634Y-19098055D01*
X6357634Y-19098055D02*
X6338586Y-19069484D01*
X6338586Y-19069484D02*
X6329063Y-19050436D01*
X6329063Y-19050436D02*
X6319539Y-19021865D01*
X6319539Y-19021865D02*
X6310015Y-18974246D01*
X6310015Y-18974246D02*
X6310015Y-18936151D01*
X6310015Y-18936151D02*
X6319539Y-18888532D01*
X6319539Y-18888532D02*
X6329063Y-18859960D01*
X6329063Y-18859960D02*
X6338586Y-18840913D01*
X6338586Y-18840913D02*
X6357634Y-18812341D01*
X6357634Y-18812341D02*
X6367158Y-18802817D01*
X6433824Y-18850436D02*
X6443348Y-18840913D01*
X6443348Y-18840913D02*
X6462396Y-18831389D01*
X6462396Y-18831389D02*
X6510015Y-18831389D01*
X6510015Y-18831389D02*
X6529063Y-18840913D01*
X6529063Y-18840913D02*
X6538586Y-18850436D01*
X6538586Y-18850436D02*
X6548110Y-18869484D01*
X6548110Y-18869484D02*
X6548110Y-18888532D01*
X6548110Y-18888532D02*
X6538586Y-18917103D01*
X6538586Y-18917103D02*
X6424301Y-19031389D01*
X6424301Y-19031389D02*
X6548110Y-19031389D01*
X6786205Y-19031389D02*
X6786205Y-18831389D01*
X6871920Y-19031389D02*
X6871920Y-18926627D01*
X6871920Y-18926627D02*
X6862396Y-18907579D01*
X6862396Y-18907579D02*
X6843348Y-18898055D01*
X6843348Y-18898055D02*
X6814777Y-18898055D01*
X6814777Y-18898055D02*
X6795729Y-18907579D01*
X6795729Y-18907579D02*
X6786205Y-18917103D01*
X6995729Y-19031389D02*
X6976682Y-19021865D01*
X6976682Y-19021865D02*
X6967158Y-19012341D01*
X6967158Y-19012341D02*
X6957634Y-18993294D01*
X6957634Y-18993294D02*
X6957634Y-18936151D01*
X6957634Y-18936151D02*
X6967158Y-18917103D01*
X6967158Y-18917103D02*
X6976682Y-18907579D01*
X6976682Y-18907579D02*
X6995729Y-18898055D01*
X6995729Y-18898055D02*
X7024301Y-18898055D01*
X7024301Y-18898055D02*
X7043348Y-18907579D01*
X7043348Y-18907579D02*
X7052872Y-18917103D01*
X7052872Y-18917103D02*
X7062396Y-18936151D01*
X7062396Y-18936151D02*
X7062396Y-18993294D01*
X7062396Y-18993294D02*
X7052872Y-19012341D01*
X7052872Y-19012341D02*
X7043348Y-19021865D01*
X7043348Y-19021865D02*
X7024301Y-19031389D01*
X7024301Y-19031389D02*
X6995729Y-19031389D01*
X7176682Y-19031389D02*
X7157634Y-19021865D01*
X7157634Y-19021865D02*
X7148110Y-19002817D01*
X7148110Y-19002817D02*
X7148110Y-18831389D01*
X7329063Y-19021865D02*
X7310015Y-19031389D01*
X7310015Y-19031389D02*
X7271920Y-19031389D01*
X7271920Y-19031389D02*
X7252872Y-19021865D01*
X7252872Y-19021865D02*
X7243348Y-19002817D01*
X7243348Y-19002817D02*
X7243348Y-18926627D01*
X7243348Y-18926627D02*
X7252872Y-18907579D01*
X7252872Y-18907579D02*
X7271920Y-18898055D01*
X7271920Y-18898055D02*
X7310015Y-18898055D01*
X7310015Y-18898055D02*
X7329063Y-18907579D01*
X7329063Y-18907579D02*
X7338586Y-18926627D01*
X7338586Y-18926627D02*
X7338586Y-18945675D01*
X7338586Y-18945675D02*
X7243348Y-18964722D01*
X7414777Y-19021865D02*
X7433825Y-19031389D01*
X7433825Y-19031389D02*
X7471920Y-19031389D01*
X7471920Y-19031389D02*
X7490967Y-19021865D01*
X7490967Y-19021865D02*
X7500491Y-19002817D01*
X7500491Y-19002817D02*
X7500491Y-18993294D01*
X7500491Y-18993294D02*
X7490967Y-18974246D01*
X7490967Y-18974246D02*
X7471920Y-18964722D01*
X7471920Y-18964722D02*
X7443348Y-18964722D01*
X7443348Y-18964722D02*
X7424301Y-18955198D01*
X7424301Y-18955198D02*
X7414777Y-18936151D01*
X7414777Y-18936151D02*
X7414777Y-18926627D01*
X7414777Y-18926627D02*
X7424301Y-18907579D01*
X7424301Y-18907579D02*
X7443348Y-18898055D01*
X7443348Y-18898055D02*
X7471920Y-18898055D01*
X7471920Y-18898055D02*
X7490967Y-18907579D01*
X7567158Y-19107579D02*
X7576682Y-19098055D01*
X7576682Y-19098055D02*
X7595729Y-19069484D01*
X7595729Y-19069484D02*
X7605253Y-19050436D01*
X7605253Y-19050436D02*
X7614777Y-19021865D01*
X7614777Y-19021865D02*
X7624301Y-18974246D01*
X7624301Y-18974246D02*
X7624301Y-18936151D01*
X7624301Y-18936151D02*
X7614777Y-18888532D01*
X7614777Y-18888532D02*
X7605253Y-18859960D01*
X7605253Y-18859960D02*
X7595729Y-18840913D01*
X7595729Y-18840913D02*
X7576682Y-18812341D01*
X7576682Y-18812341D02*
X7567158Y-18802817D01*
X7929063Y-19107579D02*
X7919539Y-19098055D01*
X7919539Y-19098055D02*
X7900491Y-19069484D01*
X7900491Y-19069484D02*
X7890967Y-19050436D01*
X7890967Y-19050436D02*
X7881444Y-19021865D01*
X7881444Y-19021865D02*
X7871920Y-18974246D01*
X7871920Y-18974246D02*
X7871920Y-18936151D01*
X7871920Y-18936151D02*
X7881444Y-18888532D01*
X7881444Y-18888532D02*
X7890967Y-18859960D01*
X7890967Y-18859960D02*
X7900491Y-18840913D01*
X7900491Y-18840913D02*
X7919539Y-18812341D01*
X7919539Y-18812341D02*
X7929063Y-18802817D01*
X8005253Y-18898055D02*
X8005253Y-19031389D01*
X8005253Y-18917103D02*
X8014777Y-18907579D01*
X8014777Y-18907579D02*
X8033825Y-18898055D01*
X8033825Y-18898055D02*
X8062396Y-18898055D01*
X8062396Y-18898055D02*
X8081444Y-18907579D01*
X8081444Y-18907579D02*
X8090967Y-18926627D01*
X8090967Y-18926627D02*
X8090967Y-19031389D01*
X8214777Y-19031389D02*
X8195729Y-19021865D01*
X8195729Y-19021865D02*
X8186206Y-19012341D01*
X8186206Y-19012341D02*
X8176682Y-18993294D01*
X8176682Y-18993294D02*
X8176682Y-18936151D01*
X8176682Y-18936151D02*
X8186206Y-18917103D01*
X8186206Y-18917103D02*
X8195729Y-18907579D01*
X8195729Y-18907579D02*
X8214777Y-18898055D01*
X8214777Y-18898055D02*
X8243348Y-18898055D01*
X8243348Y-18898055D02*
X8262396Y-18907579D01*
X8262396Y-18907579D02*
X8271920Y-18917103D01*
X8271920Y-18917103D02*
X8281444Y-18936151D01*
X8281444Y-18936151D02*
X8281444Y-18993294D01*
X8281444Y-18993294D02*
X8271920Y-19012341D01*
X8271920Y-19012341D02*
X8262396Y-19021865D01*
X8262396Y-19021865D02*
X8243348Y-19031389D01*
X8243348Y-19031389D02*
X8214777Y-19031389D01*
X8338587Y-18898055D02*
X8414777Y-18898055D01*
X8367158Y-18831389D02*
X8367158Y-19002817D01*
X8367158Y-19002817D02*
X8376682Y-19021865D01*
X8376682Y-19021865D02*
X8395729Y-19031389D01*
X8395729Y-19031389D02*
X8414777Y-19031389D01*
X8633825Y-18898055D02*
X8633825Y-19098055D01*
X8633825Y-18907579D02*
X8652872Y-18898055D01*
X8652872Y-18898055D02*
X8690968Y-18898055D01*
X8690968Y-18898055D02*
X8710015Y-18907579D01*
X8710015Y-18907579D02*
X8719539Y-18917103D01*
X8719539Y-18917103D02*
X8729063Y-18936151D01*
X8729063Y-18936151D02*
X8729063Y-18993294D01*
X8729063Y-18993294D02*
X8719539Y-19012341D01*
X8719539Y-19012341D02*
X8710015Y-19021865D01*
X8710015Y-19021865D02*
X8690968Y-19031389D01*
X8690968Y-19031389D02*
X8652872Y-19031389D01*
X8652872Y-19031389D02*
X8633825Y-19021865D01*
X8843349Y-19031389D02*
X8824301Y-19021865D01*
X8824301Y-19021865D02*
X8814777Y-19002817D01*
X8814777Y-19002817D02*
X8814777Y-18831389D01*
X9005253Y-19031389D02*
X9005253Y-18926627D01*
X9005253Y-18926627D02*
X8995730Y-18907579D01*
X8995730Y-18907579D02*
X8976682Y-18898055D01*
X8976682Y-18898055D02*
X8938587Y-18898055D01*
X8938587Y-18898055D02*
X8919539Y-18907579D01*
X9005253Y-19021865D02*
X8986206Y-19031389D01*
X8986206Y-19031389D02*
X8938587Y-19031389D01*
X8938587Y-19031389D02*
X8919539Y-19021865D01*
X8919539Y-19021865D02*
X8910015Y-19002817D01*
X8910015Y-19002817D02*
X8910015Y-18983770D01*
X8910015Y-18983770D02*
X8919539Y-18964722D01*
X8919539Y-18964722D02*
X8938587Y-18955198D01*
X8938587Y-18955198D02*
X8986206Y-18955198D01*
X8986206Y-18955198D02*
X9005253Y-18945675D01*
X9071920Y-18898055D02*
X9148110Y-18898055D01*
X9100491Y-18831389D02*
X9100491Y-19002817D01*
X9100491Y-19002817D02*
X9110015Y-19021865D01*
X9110015Y-19021865D02*
X9129063Y-19031389D01*
X9129063Y-19031389D02*
X9148110Y-19031389D01*
X9290968Y-19021865D02*
X9271920Y-19031389D01*
X9271920Y-19031389D02*
X9233825Y-19031389D01*
X9233825Y-19031389D02*
X9214777Y-19021865D01*
X9214777Y-19021865D02*
X9205253Y-19002817D01*
X9205253Y-19002817D02*
X9205253Y-18926627D01*
X9205253Y-18926627D02*
X9214777Y-18907579D01*
X9214777Y-18907579D02*
X9233825Y-18898055D01*
X9233825Y-18898055D02*
X9271920Y-18898055D01*
X9271920Y-18898055D02*
X9290968Y-18907579D01*
X9290968Y-18907579D02*
X9300491Y-18926627D01*
X9300491Y-18926627D02*
X9300491Y-18945675D01*
X9300491Y-18945675D02*
X9205253Y-18964722D01*
X9471920Y-19031389D02*
X9471920Y-18831389D01*
X9471920Y-19021865D02*
X9452872Y-19031389D01*
X9452872Y-19031389D02*
X9414777Y-19031389D01*
X9414777Y-19031389D02*
X9395730Y-19021865D01*
X9395730Y-19021865D02*
X9386206Y-19012341D01*
X9386206Y-19012341D02*
X9376682Y-18993294D01*
X9376682Y-18993294D02*
X9376682Y-18936151D01*
X9376682Y-18936151D02*
X9386206Y-18917103D01*
X9386206Y-18917103D02*
X9395730Y-18907579D01*
X9395730Y-18907579D02*
X9414777Y-18898055D01*
X9414777Y-18898055D02*
X9452872Y-18898055D01*
X9452872Y-18898055D02*
X9471920Y-18907579D01*
X9548111Y-19107579D02*
X9557634Y-19098055D01*
X9557634Y-19098055D02*
X9576682Y-19069484D01*
X9576682Y-19069484D02*
X9586206Y-19050436D01*
X9586206Y-19050436D02*
X9595730Y-19021865D01*
X9595730Y-19021865D02*
X9605253Y-18974246D01*
X9605253Y-18974246D02*
X9605253Y-18936151D01*
X9605253Y-18936151D02*
X9595730Y-18888532D01*
X9595730Y-18888532D02*
X9586206Y-18859960D01*
X9586206Y-18859960D02*
X9576682Y-18840913D01*
X9576682Y-18840913D02*
X9557634Y-18812341D01*
X9557634Y-18812341D02*
X9548111Y-18802817D01*
X2692095Y-19159905D02*
X2692095Y-19359905D01*
X2592095Y-19259905D02*
X2792095Y-19259905D01*
X3033824Y-19151389D02*
X3157634Y-19151389D01*
X3157634Y-19151389D02*
X3090967Y-19227579D01*
X3090967Y-19227579D02*
X3119538Y-19227579D01*
X3119538Y-19227579D02*
X3138586Y-19237103D01*
X3138586Y-19237103D02*
X3148110Y-19246627D01*
X3148110Y-19246627D02*
X3157634Y-19265675D01*
X3157634Y-19265675D02*
X3157634Y-19313294D01*
X3157634Y-19313294D02*
X3148110Y-19332341D01*
X3148110Y-19332341D02*
X3138586Y-19341865D01*
X3138586Y-19341865D02*
X3119538Y-19351389D01*
X3119538Y-19351389D02*
X3062396Y-19351389D01*
X3062396Y-19351389D02*
X3043348Y-19341865D01*
X3043348Y-19341865D02*
X3033824Y-19332341D01*
X3243348Y-19332341D02*
X3252872Y-19341865D01*
X3252872Y-19341865D02*
X3243348Y-19351389D01*
X3243348Y-19351389D02*
X3233824Y-19341865D01*
X3233824Y-19341865D02*
X3243348Y-19332341D01*
X3243348Y-19332341D02*
X3243348Y-19351389D01*
X3433824Y-19151389D02*
X3338586Y-19151389D01*
X3338586Y-19151389D02*
X3329062Y-19246627D01*
X3329062Y-19246627D02*
X3338586Y-19237103D01*
X3338586Y-19237103D02*
X3357634Y-19227579D01*
X3357634Y-19227579D02*
X3405253Y-19227579D01*
X3405253Y-19227579D02*
X3424300Y-19237103D01*
X3424300Y-19237103D02*
X3433824Y-19246627D01*
X3433824Y-19246627D02*
X3443348Y-19265675D01*
X3443348Y-19265675D02*
X3443348Y-19313294D01*
X3443348Y-19313294D02*
X3433824Y-19332341D01*
X3433824Y-19332341D02*
X3424300Y-19341865D01*
X3424300Y-19341865D02*
X3405253Y-19351389D01*
X3405253Y-19351389D02*
X3357634Y-19351389D01*
X3357634Y-19351389D02*
X3338586Y-19341865D01*
X3338586Y-19341865D02*
X3329062Y-19332341D01*
X3567157Y-19151389D02*
X3586205Y-19151389D01*
X3586205Y-19151389D02*
X3605253Y-19160913D01*
X3605253Y-19160913D02*
X3614777Y-19170436D01*
X3614777Y-19170436D02*
X3624300Y-19189484D01*
X3624300Y-19189484D02*
X3633824Y-19227579D01*
X3633824Y-19227579D02*
X3633824Y-19275198D01*
X3633824Y-19275198D02*
X3624300Y-19313294D01*
X3624300Y-19313294D02*
X3614777Y-19332341D01*
X3614777Y-19332341D02*
X3605253Y-19341865D01*
X3605253Y-19341865D02*
X3586205Y-19351389D01*
X3586205Y-19351389D02*
X3567157Y-19351389D01*
X3567157Y-19351389D02*
X3548110Y-19341865D01*
X3548110Y-19341865D02*
X3538586Y-19332341D01*
X3538586Y-19332341D02*
X3529062Y-19313294D01*
X3529062Y-19313294D02*
X3519538Y-19275198D01*
X3519538Y-19275198D02*
X3519538Y-19227579D01*
X3519538Y-19227579D02*
X3529062Y-19189484D01*
X3529062Y-19189484D02*
X3538586Y-19170436D01*
X3538586Y-19170436D02*
X3548110Y-19160913D01*
X3548110Y-19160913D02*
X3567157Y-19151389D01*
X3757634Y-19151389D02*
X3776681Y-19151389D01*
X3776681Y-19151389D02*
X3795729Y-19160913D01*
X3795729Y-19160913D02*
X3805253Y-19170436D01*
X3805253Y-19170436D02*
X3814777Y-19189484D01*
X3814777Y-19189484D02*
X3824300Y-19227579D01*
X3824300Y-19227579D02*
X3824300Y-19275198D01*
X3824300Y-19275198D02*
X3814777Y-19313294D01*
X3814777Y-19313294D02*
X3805253Y-19332341D01*
X3805253Y-19332341D02*
X3795729Y-19341865D01*
X3795729Y-19341865D02*
X3776681Y-19351389D01*
X3776681Y-19351389D02*
X3757634Y-19351389D01*
X3757634Y-19351389D02*
X3738586Y-19341865D01*
X3738586Y-19341865D02*
X3729062Y-19332341D01*
X3729062Y-19332341D02*
X3719538Y-19313294D01*
X3719538Y-19313294D02*
X3710015Y-19275198D01*
X3710015Y-19275198D02*
X3710015Y-19227579D01*
X3710015Y-19227579D02*
X3719538Y-19189484D01*
X3719538Y-19189484D02*
X3729062Y-19170436D01*
X3729062Y-19170436D02*
X3738586Y-19160913D01*
X3738586Y-19160913D02*
X3757634Y-19151389D01*
X3910015Y-19351389D02*
X3910015Y-19218055D01*
X3910015Y-19237103D02*
X3919538Y-19227579D01*
X3919538Y-19227579D02*
X3938586Y-19218055D01*
X3938586Y-19218055D02*
X3967158Y-19218055D01*
X3967158Y-19218055D02*
X3986205Y-19227579D01*
X3986205Y-19227579D02*
X3995729Y-19246627D01*
X3995729Y-19246627D02*
X3995729Y-19351389D01*
X3995729Y-19246627D02*
X4005253Y-19227579D01*
X4005253Y-19227579D02*
X4024300Y-19218055D01*
X4024300Y-19218055D02*
X4052872Y-19218055D01*
X4052872Y-19218055D02*
X4071919Y-19227579D01*
X4071919Y-19227579D02*
X4081443Y-19246627D01*
X4081443Y-19246627D02*
X4081443Y-19351389D01*
X4176681Y-19351389D02*
X4176681Y-19218055D01*
X4176681Y-19237103D02*
X4186205Y-19227579D01*
X4186205Y-19227579D02*
X4205253Y-19218055D01*
X4205253Y-19218055D02*
X4233824Y-19218055D01*
X4233824Y-19218055D02*
X4252872Y-19227579D01*
X4252872Y-19227579D02*
X4262396Y-19246627D01*
X4262396Y-19246627D02*
X4262396Y-19351389D01*
X4262396Y-19246627D02*
X4271920Y-19227579D01*
X4271920Y-19227579D02*
X4290967Y-19218055D01*
X4290967Y-19218055D02*
X4319539Y-19218055D01*
X4319539Y-19218055D02*
X4338586Y-19227579D01*
X4338586Y-19227579D02*
X4348110Y-19246627D01*
X4348110Y-19246627D02*
X4348110Y-19351389D01*
X4738586Y-19141865D02*
X4567158Y-19399008D01*
X4995729Y-19151389D02*
X5014777Y-19151389D01*
X5014777Y-19151389D02*
X5033824Y-19160913D01*
X5033824Y-19160913D02*
X5043348Y-19170436D01*
X5043348Y-19170436D02*
X5052872Y-19189484D01*
X5052872Y-19189484D02*
X5062396Y-19227579D01*
X5062396Y-19227579D02*
X5062396Y-19275198D01*
X5062396Y-19275198D02*
X5052872Y-19313294D01*
X5052872Y-19313294D02*
X5043348Y-19332341D01*
X5043348Y-19332341D02*
X5033824Y-19341865D01*
X5033824Y-19341865D02*
X5014777Y-19351389D01*
X5014777Y-19351389D02*
X4995729Y-19351389D01*
X4995729Y-19351389D02*
X4976682Y-19341865D01*
X4976682Y-19341865D02*
X4967158Y-19332341D01*
X4967158Y-19332341D02*
X4957634Y-19313294D01*
X4957634Y-19313294D02*
X4948110Y-19275198D01*
X4948110Y-19275198D02*
X4948110Y-19227579D01*
X4948110Y-19227579D02*
X4957634Y-19189484D01*
X4957634Y-19189484D02*
X4967158Y-19170436D01*
X4967158Y-19170436D02*
X4976682Y-19160913D01*
X4976682Y-19160913D02*
X4995729Y-19151389D01*
X5148110Y-19332341D02*
X5157634Y-19341865D01*
X5157634Y-19341865D02*
X5148110Y-19351389D01*
X5148110Y-19351389D02*
X5138586Y-19341865D01*
X5138586Y-19341865D02*
X5148110Y-19332341D01*
X5148110Y-19332341D02*
X5148110Y-19351389D01*
X5348110Y-19351389D02*
X5233824Y-19351389D01*
X5290967Y-19351389D02*
X5290967Y-19151389D01*
X5290967Y-19151389D02*
X5271920Y-19179960D01*
X5271920Y-19179960D02*
X5252872Y-19199008D01*
X5252872Y-19199008D02*
X5233824Y-19208532D01*
X5414777Y-19151389D02*
X5538586Y-19151389D01*
X5538586Y-19151389D02*
X5471920Y-19227579D01*
X5471920Y-19227579D02*
X5500491Y-19227579D01*
X5500491Y-19227579D02*
X5519539Y-19237103D01*
X5519539Y-19237103D02*
X5529063Y-19246627D01*
X5529063Y-19246627D02*
X5538586Y-19265675D01*
X5538586Y-19265675D02*
X5538586Y-19313294D01*
X5538586Y-19313294D02*
X5529063Y-19332341D01*
X5529063Y-19332341D02*
X5519539Y-19341865D01*
X5519539Y-19341865D02*
X5500491Y-19351389D01*
X5500491Y-19351389D02*
X5443348Y-19351389D01*
X5443348Y-19351389D02*
X5424301Y-19341865D01*
X5424301Y-19341865D02*
X5414777Y-19332341D01*
X5605253Y-19151389D02*
X5738586Y-19151389D01*
X5738586Y-19151389D02*
X5652872Y-19351389D01*
X5843348Y-19237103D02*
X5824301Y-19227579D01*
X5824301Y-19227579D02*
X5814777Y-19218055D01*
X5814777Y-19218055D02*
X5805253Y-19199008D01*
X5805253Y-19199008D02*
X5805253Y-19189484D01*
X5805253Y-19189484D02*
X5814777Y-19170436D01*
X5814777Y-19170436D02*
X5824301Y-19160913D01*
X5824301Y-19160913D02*
X5843348Y-19151389D01*
X5843348Y-19151389D02*
X5881443Y-19151389D01*
X5881443Y-19151389D02*
X5900491Y-19160913D01*
X5900491Y-19160913D02*
X5910015Y-19170436D01*
X5910015Y-19170436D02*
X5919539Y-19189484D01*
X5919539Y-19189484D02*
X5919539Y-19199008D01*
X5919539Y-19199008D02*
X5910015Y-19218055D01*
X5910015Y-19218055D02*
X5900491Y-19227579D01*
X5900491Y-19227579D02*
X5881443Y-19237103D01*
X5881443Y-19237103D02*
X5843348Y-19237103D01*
X5843348Y-19237103D02*
X5824301Y-19246627D01*
X5824301Y-19246627D02*
X5814777Y-19256151D01*
X5814777Y-19256151D02*
X5805253Y-19275198D01*
X5805253Y-19275198D02*
X5805253Y-19313294D01*
X5805253Y-19313294D02*
X5814777Y-19332341D01*
X5814777Y-19332341D02*
X5824301Y-19341865D01*
X5824301Y-19341865D02*
X5843348Y-19351389D01*
X5843348Y-19351389D02*
X5881443Y-19351389D01*
X5881443Y-19351389D02*
X5900491Y-19341865D01*
X5900491Y-19341865D02*
X5910015Y-19332341D01*
X5910015Y-19332341D02*
X5919539Y-19313294D01*
X5919539Y-19313294D02*
X5919539Y-19275198D01*
X5919539Y-19275198D02*
X5910015Y-19256151D01*
X5910015Y-19256151D02*
X5900491Y-19246627D01*
X5900491Y-19246627D02*
X5881443Y-19237103D01*
X5995729Y-19151389D02*
X5995729Y-19189484D01*
X6071920Y-19151389D02*
X6071920Y-19189484D01*
X6367158Y-19427579D02*
X6357634Y-19418055D01*
X6357634Y-19418055D02*
X6338586Y-19389484D01*
X6338586Y-19389484D02*
X6329063Y-19370436D01*
X6329063Y-19370436D02*
X6319539Y-19341865D01*
X6319539Y-19341865D02*
X6310015Y-19294246D01*
X6310015Y-19294246D02*
X6310015Y-19256151D01*
X6310015Y-19256151D02*
X6319539Y-19208532D01*
X6319539Y-19208532D02*
X6329063Y-19179960D01*
X6329063Y-19179960D02*
X6338586Y-19160913D01*
X6338586Y-19160913D02*
X6357634Y-19132341D01*
X6357634Y-19132341D02*
X6367158Y-19122817D01*
X6529063Y-19218055D02*
X6529063Y-19351389D01*
X6481443Y-19141865D02*
X6433824Y-19284722D01*
X6433824Y-19284722D02*
X6557634Y-19284722D01*
X6786205Y-19351389D02*
X6786205Y-19151389D01*
X6871920Y-19351389D02*
X6871920Y-19246627D01*
X6871920Y-19246627D02*
X6862396Y-19227579D01*
X6862396Y-19227579D02*
X6843348Y-19218055D01*
X6843348Y-19218055D02*
X6814777Y-19218055D01*
X6814777Y-19218055D02*
X6795729Y-19227579D01*
X6795729Y-19227579D02*
X6786205Y-19237103D01*
X6995729Y-19351389D02*
X6976682Y-19341865D01*
X6976682Y-19341865D02*
X6967158Y-19332341D01*
X6967158Y-19332341D02*
X6957634Y-19313294D01*
X6957634Y-19313294D02*
X6957634Y-19256151D01*
X6957634Y-19256151D02*
X6967158Y-19237103D01*
X6967158Y-19237103D02*
X6976682Y-19227579D01*
X6976682Y-19227579D02*
X6995729Y-19218055D01*
X6995729Y-19218055D02*
X7024301Y-19218055D01*
X7024301Y-19218055D02*
X7043348Y-19227579D01*
X7043348Y-19227579D02*
X7052872Y-19237103D01*
X7052872Y-19237103D02*
X7062396Y-19256151D01*
X7062396Y-19256151D02*
X7062396Y-19313294D01*
X7062396Y-19313294D02*
X7052872Y-19332341D01*
X7052872Y-19332341D02*
X7043348Y-19341865D01*
X7043348Y-19341865D02*
X7024301Y-19351389D01*
X7024301Y-19351389D02*
X6995729Y-19351389D01*
X7176682Y-19351389D02*
X7157634Y-19341865D01*
X7157634Y-19341865D02*
X7148110Y-19322817D01*
X7148110Y-19322817D02*
X7148110Y-19151389D01*
X7329063Y-19341865D02*
X7310015Y-19351389D01*
X7310015Y-19351389D02*
X7271920Y-19351389D01*
X7271920Y-19351389D02*
X7252872Y-19341865D01*
X7252872Y-19341865D02*
X7243348Y-19322817D01*
X7243348Y-19322817D02*
X7243348Y-19246627D01*
X7243348Y-19246627D02*
X7252872Y-19227579D01*
X7252872Y-19227579D02*
X7271920Y-19218055D01*
X7271920Y-19218055D02*
X7310015Y-19218055D01*
X7310015Y-19218055D02*
X7329063Y-19227579D01*
X7329063Y-19227579D02*
X7338586Y-19246627D01*
X7338586Y-19246627D02*
X7338586Y-19265675D01*
X7338586Y-19265675D02*
X7243348Y-19284722D01*
X7414777Y-19341865D02*
X7433825Y-19351389D01*
X7433825Y-19351389D02*
X7471920Y-19351389D01*
X7471920Y-19351389D02*
X7490967Y-19341865D01*
X7490967Y-19341865D02*
X7500491Y-19322817D01*
X7500491Y-19322817D02*
X7500491Y-19313294D01*
X7500491Y-19313294D02*
X7490967Y-19294246D01*
X7490967Y-19294246D02*
X7471920Y-19284722D01*
X7471920Y-19284722D02*
X7443348Y-19284722D01*
X7443348Y-19284722D02*
X7424301Y-19275198D01*
X7424301Y-19275198D02*
X7414777Y-19256151D01*
X7414777Y-19256151D02*
X7414777Y-19246627D01*
X7414777Y-19246627D02*
X7424301Y-19227579D01*
X7424301Y-19227579D02*
X7443348Y-19218055D01*
X7443348Y-19218055D02*
X7471920Y-19218055D01*
X7471920Y-19218055D02*
X7490967Y-19227579D01*
X7567158Y-19427579D02*
X7576682Y-19418055D01*
X7576682Y-19418055D02*
X7595729Y-19389484D01*
X7595729Y-19389484D02*
X7605253Y-19370436D01*
X7605253Y-19370436D02*
X7614777Y-19341865D01*
X7614777Y-19341865D02*
X7624301Y-19294246D01*
X7624301Y-19294246D02*
X7624301Y-19256151D01*
X7624301Y-19256151D02*
X7614777Y-19208532D01*
X7614777Y-19208532D02*
X7605253Y-19179960D01*
X7605253Y-19179960D02*
X7595729Y-19160913D01*
X7595729Y-19160913D02*
X7576682Y-19132341D01*
X7576682Y-19132341D02*
X7567158Y-19122817D01*
X7929063Y-19427579D02*
X7919539Y-19418055D01*
X7919539Y-19418055D02*
X7900491Y-19389484D01*
X7900491Y-19389484D02*
X7890967Y-19370436D01*
X7890967Y-19370436D02*
X7881444Y-19341865D01*
X7881444Y-19341865D02*
X7871920Y-19294246D01*
X7871920Y-19294246D02*
X7871920Y-19256151D01*
X7871920Y-19256151D02*
X7881444Y-19208532D01*
X7881444Y-19208532D02*
X7890967Y-19179960D01*
X7890967Y-19179960D02*
X7900491Y-19160913D01*
X7900491Y-19160913D02*
X7919539Y-19132341D01*
X7919539Y-19132341D02*
X7929063Y-19122817D01*
X8005253Y-19218055D02*
X8005253Y-19351389D01*
X8005253Y-19237103D02*
X8014777Y-19227579D01*
X8014777Y-19227579D02*
X8033825Y-19218055D01*
X8033825Y-19218055D02*
X8062396Y-19218055D01*
X8062396Y-19218055D02*
X8081444Y-19227579D01*
X8081444Y-19227579D02*
X8090967Y-19246627D01*
X8090967Y-19246627D02*
X8090967Y-19351389D01*
X8214777Y-19351389D02*
X8195729Y-19341865D01*
X8195729Y-19341865D02*
X8186206Y-19332341D01*
X8186206Y-19332341D02*
X8176682Y-19313294D01*
X8176682Y-19313294D02*
X8176682Y-19256151D01*
X8176682Y-19256151D02*
X8186206Y-19237103D01*
X8186206Y-19237103D02*
X8195729Y-19227579D01*
X8195729Y-19227579D02*
X8214777Y-19218055D01*
X8214777Y-19218055D02*
X8243348Y-19218055D01*
X8243348Y-19218055D02*
X8262396Y-19227579D01*
X8262396Y-19227579D02*
X8271920Y-19237103D01*
X8271920Y-19237103D02*
X8281444Y-19256151D01*
X8281444Y-19256151D02*
X8281444Y-19313294D01*
X8281444Y-19313294D02*
X8271920Y-19332341D01*
X8271920Y-19332341D02*
X8262396Y-19341865D01*
X8262396Y-19341865D02*
X8243348Y-19351389D01*
X8243348Y-19351389D02*
X8214777Y-19351389D01*
X8338587Y-19218055D02*
X8414777Y-19218055D01*
X8367158Y-19151389D02*
X8367158Y-19322817D01*
X8367158Y-19322817D02*
X8376682Y-19341865D01*
X8376682Y-19341865D02*
X8395729Y-19351389D01*
X8395729Y-19351389D02*
X8414777Y-19351389D01*
X8633825Y-19218055D02*
X8633825Y-19418055D01*
X8633825Y-19227579D02*
X8652872Y-19218055D01*
X8652872Y-19218055D02*
X8690968Y-19218055D01*
X8690968Y-19218055D02*
X8710015Y-19227579D01*
X8710015Y-19227579D02*
X8719539Y-19237103D01*
X8719539Y-19237103D02*
X8729063Y-19256151D01*
X8729063Y-19256151D02*
X8729063Y-19313294D01*
X8729063Y-19313294D02*
X8719539Y-19332341D01*
X8719539Y-19332341D02*
X8710015Y-19341865D01*
X8710015Y-19341865D02*
X8690968Y-19351389D01*
X8690968Y-19351389D02*
X8652872Y-19351389D01*
X8652872Y-19351389D02*
X8633825Y-19341865D01*
X8843349Y-19351389D02*
X8824301Y-19341865D01*
X8824301Y-19341865D02*
X8814777Y-19322817D01*
X8814777Y-19322817D02*
X8814777Y-19151389D01*
X9005253Y-19351389D02*
X9005253Y-19246627D01*
X9005253Y-19246627D02*
X8995730Y-19227579D01*
X8995730Y-19227579D02*
X8976682Y-19218055D01*
X8976682Y-19218055D02*
X8938587Y-19218055D01*
X8938587Y-19218055D02*
X8919539Y-19227579D01*
X9005253Y-19341865D02*
X8986206Y-19351389D01*
X8986206Y-19351389D02*
X8938587Y-19351389D01*
X8938587Y-19351389D02*
X8919539Y-19341865D01*
X8919539Y-19341865D02*
X8910015Y-19322817D01*
X8910015Y-19322817D02*
X8910015Y-19303770D01*
X8910015Y-19303770D02*
X8919539Y-19284722D01*
X8919539Y-19284722D02*
X8938587Y-19275198D01*
X8938587Y-19275198D02*
X8986206Y-19275198D01*
X8986206Y-19275198D02*
X9005253Y-19265675D01*
X9071920Y-19218055D02*
X9148110Y-19218055D01*
X9100491Y-19151389D02*
X9100491Y-19322817D01*
X9100491Y-19322817D02*
X9110015Y-19341865D01*
X9110015Y-19341865D02*
X9129063Y-19351389D01*
X9129063Y-19351389D02*
X9148110Y-19351389D01*
X9290968Y-19341865D02*
X9271920Y-19351389D01*
X9271920Y-19351389D02*
X9233825Y-19351389D01*
X9233825Y-19351389D02*
X9214777Y-19341865D01*
X9214777Y-19341865D02*
X9205253Y-19322817D01*
X9205253Y-19322817D02*
X9205253Y-19246627D01*
X9205253Y-19246627D02*
X9214777Y-19227579D01*
X9214777Y-19227579D02*
X9233825Y-19218055D01*
X9233825Y-19218055D02*
X9271920Y-19218055D01*
X9271920Y-19218055D02*
X9290968Y-19227579D01*
X9290968Y-19227579D02*
X9300491Y-19246627D01*
X9300491Y-19246627D02*
X9300491Y-19265675D01*
X9300491Y-19265675D02*
X9205253Y-19284722D01*
X9471920Y-19351389D02*
X9471920Y-19151389D01*
X9471920Y-19341865D02*
X9452872Y-19351389D01*
X9452872Y-19351389D02*
X9414777Y-19351389D01*
X9414777Y-19351389D02*
X9395730Y-19341865D01*
X9395730Y-19341865D02*
X9386206Y-19332341D01*
X9386206Y-19332341D02*
X9376682Y-19313294D01*
X9376682Y-19313294D02*
X9376682Y-19256151D01*
X9376682Y-19256151D02*
X9386206Y-19237103D01*
X9386206Y-19237103D02*
X9395730Y-19227579D01*
X9395730Y-19227579D02*
X9414777Y-19218055D01*
X9414777Y-19218055D02*
X9452872Y-19218055D01*
X9452872Y-19218055D02*
X9471920Y-19227579D01*
X9548111Y-19427579D02*
X9557634Y-19418055D01*
X9557634Y-19418055D02*
X9576682Y-19389484D01*
X9576682Y-19389484D02*
X9586206Y-19370436D01*
X9586206Y-19370436D02*
X9595730Y-19341865D01*
X9595730Y-19341865D02*
X9605253Y-19294246D01*
X9605253Y-19294246D02*
X9605253Y-19256151D01*
X9605253Y-19256151D02*
X9595730Y-19208532D01*
X9595730Y-19208532D02*
X9586206Y-19179960D01*
X9586206Y-19179960D02*
X9576682Y-19160913D01*
X9576682Y-19160913D02*
X9557634Y-19132341D01*
X9557634Y-19132341D02*
X9548111Y-19122817D01*
M02*
