M48
; DRILL file {KiCad 8.0.2} date 2025-12-22T10:02:35-0500
; FORMAT={-:-/ absolute / metric / decimal}
; #@! TF.CreationDate,2025-12-22T10:02:35-05:00
; #@! TF.GenerationSoftware,Kicad,Pcbnew,8.0.2
; #@! TF.FileFunction,Plated,1,4,PTH
FMAT,2
METRIC
; #@! TA.AperFunction,Plated,PTH,ComponentDrill
T1C0.700
; #@! TA.AperFunction,Plated,PTH,ComponentDrill
T2C0.750
; #@! TA.AperFunction,Plated,PTH,ComponentDrill
T3C0.762
; #@! TA.AperFunction,Plated,PTH,ComponentDrill
T4C0.800
; #@! TA.AperFunction,Plated,PTH,ComponentDrill
T5C1.000
; #@! TA.AperFunction,Plated,PTH,ComponentDrill
T6C1.400
%
G90
G05
T1
X50.19Y-132.0
X51.19Y-85.0
X51.19Y-108.27
X51.19Y-155.0
X57.81Y-132.0
X58.81Y-85.0
X58.81Y-108.27
X58.81Y-155.0
X63.0Y-87.19
X63.0Y-94.81
X63.0Y-98.46
X63.0Y-106.08
X63.0Y-111.46
X63.0Y-119.08
X63.0Y-122.46
X63.0Y-130.08
X63.0Y-133.19
X63.0Y-140.81
X63.0Y-144.19
X63.0Y-151.81
X63.0Y-157.19
X63.0Y-164.81
X63.0Y-168.19
X63.0Y-175.81
T2
X52.0Y-91.46
X52.0Y-92.73
X52.0Y-94.0
X52.0Y-136.46
X52.0Y-137.73
X52.0Y-139.0
X52.0Y-159.46
X52.0Y-160.73
X52.0Y-162.0
X53.0Y-114.0
X53.0Y-115.27
X53.0Y-116.54
T3
X74.8Y-99.9
X74.8Y-102.44
X74.8Y-104.98
X74.8Y-107.52
X74.8Y-110.06
X74.8Y-112.6
X74.8Y-115.14
X74.8Y-117.68
X74.8Y-120.22
X74.8Y-122.76
T4
X74.072Y-136.46
X74.072Y-139.0
X74.072Y-141.54
X74.072Y-144.08
X74.072Y-146.62
X74.072Y-149.16
X74.072Y-151.7
X74.072Y-154.24
X74.072Y-156.78
X74.072Y-159.32
X74.072Y-161.86
X74.072Y-164.4
X74.072Y-166.94
X74.072Y-169.48
X74.072Y-172.02
X99.472Y-136.46
X99.472Y-139.0
X99.472Y-141.54
X99.472Y-144.08
X99.472Y-146.62
X99.472Y-149.16
X99.472Y-151.7
X99.472Y-154.24
X99.472Y-156.78
X99.472Y-159.32
X99.472Y-161.86
X99.472Y-164.4
X99.472Y-166.94
X99.472Y-169.48
X99.472Y-172.02
T5
X42.0Y-91.5
X42.0Y-96.5
X43.0Y-113.77
X43.0Y-118.77
X43.0Y-136.5
X43.0Y-141.5
X43.0Y-158.5
X43.0Y-163.5
X49.0Y-124.27
X49.5Y-101.0
X51.5Y-146.0
X51.5Y-170.0
X54.0Y-124.27
X54.5Y-101.0
X56.5Y-146.0
X56.5Y-170.0
T6
X33.0Y-128.27
X33.0Y-172.0
X33.39Y-105.52
X33.4Y-150.5
X34.6Y-123.77
X34.6Y-167.5
X34.99Y-101.02
X35.0Y-146.0
X39.6Y-128.27
X39.6Y-172.0
X39.99Y-105.52
X40.0Y-150.5
M30
